%TF.GenerationSoftware,KiCad,Pcbnew,9.0.7-9.0.7~ubuntu24.04.1*%
%TF.CreationDate,2026-02-07T12:52:25+01:00*%
%TF.ProjectId,ESP Drone,45535020-4472-46f6-9e65-2e6b69636164,rev?*%
%TF.SameCoordinates,Original*%
%TF.FileFunction,AssemblyDrawing,Bot*%
%FSLAX46Y46*%
G04 Gerber Fmt 4.6, Leading zero omitted, Abs format (unit mm)*
G04 Created by KiCad (PCBNEW 9.0.7-9.0.7~ubuntu24.04.1) date 2026-02-07 12:52:25*
%MOMM*%
%LPD*%
G01*
G04 APERTURE LIST*
%ADD10C,0.150000*%
%ADD11C,0.060000*%
%ADD12C,0.100000*%
G04 APERTURE END LIST*
D10*
X143209523Y-62521328D02*
X142971428Y-63521328D01*
X142971428Y-63521328D02*
X142780952Y-62807042D01*
X142780952Y-62807042D02*
X142590476Y-63521328D01*
X142590476Y-63521328D02*
X142352381Y-62521328D01*
X142019047Y-63473709D02*
X141876190Y-63521328D01*
X141876190Y-63521328D02*
X141638095Y-63521328D01*
X141638095Y-63521328D02*
X141542857Y-63473709D01*
X141542857Y-63473709D02*
X141495238Y-63426089D01*
X141495238Y-63426089D02*
X141447619Y-63330851D01*
X141447619Y-63330851D02*
X141447619Y-63235613D01*
X141447619Y-63235613D02*
X141495238Y-63140375D01*
X141495238Y-63140375D02*
X141542857Y-63092756D01*
X141542857Y-63092756D02*
X141638095Y-63045137D01*
X141638095Y-63045137D02*
X141828571Y-62997518D01*
X141828571Y-62997518D02*
X141923809Y-62949899D01*
X141923809Y-62949899D02*
X141971428Y-62902280D01*
X141971428Y-62902280D02*
X142019047Y-62807042D01*
X142019047Y-62807042D02*
X142019047Y-62711804D01*
X142019047Y-62711804D02*
X141971428Y-62616566D01*
X141971428Y-62616566D02*
X141923809Y-62568947D01*
X141923809Y-62568947D02*
X141828571Y-62521328D01*
X141828571Y-62521328D02*
X141590476Y-62521328D01*
X141590476Y-62521328D02*
X141447619Y-62568947D01*
X141066666Y-62616566D02*
X141019047Y-62568947D01*
X141019047Y-62568947D02*
X140923809Y-62521328D01*
X140923809Y-62521328D02*
X140685714Y-62521328D01*
X140685714Y-62521328D02*
X140590476Y-62568947D01*
X140590476Y-62568947D02*
X140542857Y-62616566D01*
X140542857Y-62616566D02*
X140495238Y-62711804D01*
X140495238Y-62711804D02*
X140495238Y-62807042D01*
X140495238Y-62807042D02*
X140542857Y-62949899D01*
X140542857Y-62949899D02*
X141114285Y-63521328D01*
X141114285Y-63521328D02*
X140495238Y-63521328D01*
X139923809Y-62949899D02*
X140019047Y-62902280D01*
X140019047Y-62902280D02*
X140066666Y-62854661D01*
X140066666Y-62854661D02*
X140114285Y-62759423D01*
X140114285Y-62759423D02*
X140114285Y-62711804D01*
X140114285Y-62711804D02*
X140066666Y-62616566D01*
X140066666Y-62616566D02*
X140019047Y-62568947D01*
X140019047Y-62568947D02*
X139923809Y-62521328D01*
X139923809Y-62521328D02*
X139733333Y-62521328D01*
X139733333Y-62521328D02*
X139638095Y-62568947D01*
X139638095Y-62568947D02*
X139590476Y-62616566D01*
X139590476Y-62616566D02*
X139542857Y-62711804D01*
X139542857Y-62711804D02*
X139542857Y-62759423D01*
X139542857Y-62759423D02*
X139590476Y-62854661D01*
X139590476Y-62854661D02*
X139638095Y-62902280D01*
X139638095Y-62902280D02*
X139733333Y-62949899D01*
X139733333Y-62949899D02*
X139923809Y-62949899D01*
X139923809Y-62949899D02*
X140019047Y-62997518D01*
X140019047Y-62997518D02*
X140066666Y-63045137D01*
X140066666Y-63045137D02*
X140114285Y-63140375D01*
X140114285Y-63140375D02*
X140114285Y-63330851D01*
X140114285Y-63330851D02*
X140066666Y-63426089D01*
X140066666Y-63426089D02*
X140019047Y-63473709D01*
X140019047Y-63473709D02*
X139923809Y-63521328D01*
X139923809Y-63521328D02*
X139733333Y-63521328D01*
X139733333Y-63521328D02*
X139638095Y-63473709D01*
X139638095Y-63473709D02*
X139590476Y-63426089D01*
X139590476Y-63426089D02*
X139542857Y-63330851D01*
X139542857Y-63330851D02*
X139542857Y-63140375D01*
X139542857Y-63140375D02*
X139590476Y-63045137D01*
X139590476Y-63045137D02*
X139638095Y-62997518D01*
X139638095Y-62997518D02*
X139733333Y-62949899D01*
X138590476Y-63521328D02*
X139161904Y-63521328D01*
X138876190Y-63521328D02*
X138876190Y-62521328D01*
X138876190Y-62521328D02*
X138971428Y-62664185D01*
X138971428Y-62664185D02*
X139066666Y-62759423D01*
X139066666Y-62759423D02*
X139161904Y-62807042D01*
X138209523Y-62616566D02*
X138161904Y-62568947D01*
X138161904Y-62568947D02*
X138066666Y-62521328D01*
X138066666Y-62521328D02*
X137828571Y-62521328D01*
X137828571Y-62521328D02*
X137733333Y-62568947D01*
X137733333Y-62568947D02*
X137685714Y-62616566D01*
X137685714Y-62616566D02*
X137638095Y-62711804D01*
X137638095Y-62711804D02*
X137638095Y-62807042D01*
X137638095Y-62807042D02*
X137685714Y-62949899D01*
X137685714Y-62949899D02*
X138257142Y-63521328D01*
X138257142Y-63521328D02*
X137638095Y-63521328D01*
X136876190Y-62997518D02*
X136733333Y-63045137D01*
X136733333Y-63045137D02*
X136685714Y-63092756D01*
X136685714Y-63092756D02*
X136638095Y-63187994D01*
X136638095Y-63187994D02*
X136638095Y-63330851D01*
X136638095Y-63330851D02*
X136685714Y-63426089D01*
X136685714Y-63426089D02*
X136733333Y-63473709D01*
X136733333Y-63473709D02*
X136828571Y-63521328D01*
X136828571Y-63521328D02*
X137209523Y-63521328D01*
X137209523Y-63521328D02*
X137209523Y-62521328D01*
X137209523Y-62521328D02*
X136876190Y-62521328D01*
X136876190Y-62521328D02*
X136780952Y-62568947D01*
X136780952Y-62568947D02*
X136733333Y-62616566D01*
X136733333Y-62616566D02*
X136685714Y-62711804D01*
X136685714Y-62711804D02*
X136685714Y-62807042D01*
X136685714Y-62807042D02*
X136733333Y-62902280D01*
X136733333Y-62902280D02*
X136780952Y-62949899D01*
X136780952Y-62949899D02*
X136876190Y-62997518D01*
X136876190Y-62997518D02*
X137209523Y-62997518D01*
X140490475Y-59428804D02*
X140490475Y-58628804D01*
X140490475Y-58628804D02*
X140299999Y-58628804D01*
X140299999Y-58628804D02*
X140185713Y-58666899D01*
X140185713Y-58666899D02*
X140109523Y-58743089D01*
X140109523Y-58743089D02*
X140071428Y-58819280D01*
X140071428Y-58819280D02*
X140033332Y-58971661D01*
X140033332Y-58971661D02*
X140033332Y-59085947D01*
X140033332Y-59085947D02*
X140071428Y-59238328D01*
X140071428Y-59238328D02*
X140109523Y-59314518D01*
X140109523Y-59314518D02*
X140185713Y-59390709D01*
X140185713Y-59390709D02*
X140299999Y-59428804D01*
X140299999Y-59428804D02*
X140490475Y-59428804D01*
X139652380Y-59428804D02*
X139499999Y-59428804D01*
X139499999Y-59428804D02*
X139423809Y-59390709D01*
X139423809Y-59390709D02*
X139385713Y-59352613D01*
X139385713Y-59352613D02*
X139309523Y-59238328D01*
X139309523Y-59238328D02*
X139271428Y-59085947D01*
X139271428Y-59085947D02*
X139271428Y-58781185D01*
X139271428Y-58781185D02*
X139309523Y-58704994D01*
X139309523Y-58704994D02*
X139347618Y-58666899D01*
X139347618Y-58666899D02*
X139423809Y-58628804D01*
X139423809Y-58628804D02*
X139576190Y-58628804D01*
X139576190Y-58628804D02*
X139652380Y-58666899D01*
X139652380Y-58666899D02*
X139690475Y-58704994D01*
X139690475Y-58704994D02*
X139728571Y-58781185D01*
X139728571Y-58781185D02*
X139728571Y-58971661D01*
X139728571Y-58971661D02*
X139690475Y-59047851D01*
X139690475Y-59047851D02*
X139652380Y-59085947D01*
X139652380Y-59085947D02*
X139576190Y-59124042D01*
X139576190Y-59124042D02*
X139423809Y-59124042D01*
X139423809Y-59124042D02*
X139347618Y-59085947D01*
X139347618Y-59085947D02*
X139309523Y-59047851D01*
X139309523Y-59047851D02*
X139271428Y-58971661D01*
X143209523Y-82381328D02*
X142971428Y-83381328D01*
X142971428Y-83381328D02*
X142780952Y-82667042D01*
X142780952Y-82667042D02*
X142590476Y-83381328D01*
X142590476Y-83381328D02*
X142352381Y-82381328D01*
X142019047Y-83333709D02*
X141876190Y-83381328D01*
X141876190Y-83381328D02*
X141638095Y-83381328D01*
X141638095Y-83381328D02*
X141542857Y-83333709D01*
X141542857Y-83333709D02*
X141495238Y-83286089D01*
X141495238Y-83286089D02*
X141447619Y-83190851D01*
X141447619Y-83190851D02*
X141447619Y-83095613D01*
X141447619Y-83095613D02*
X141495238Y-83000375D01*
X141495238Y-83000375D02*
X141542857Y-82952756D01*
X141542857Y-82952756D02*
X141638095Y-82905137D01*
X141638095Y-82905137D02*
X141828571Y-82857518D01*
X141828571Y-82857518D02*
X141923809Y-82809899D01*
X141923809Y-82809899D02*
X141971428Y-82762280D01*
X141971428Y-82762280D02*
X142019047Y-82667042D01*
X142019047Y-82667042D02*
X142019047Y-82571804D01*
X142019047Y-82571804D02*
X141971428Y-82476566D01*
X141971428Y-82476566D02*
X141923809Y-82428947D01*
X141923809Y-82428947D02*
X141828571Y-82381328D01*
X141828571Y-82381328D02*
X141590476Y-82381328D01*
X141590476Y-82381328D02*
X141447619Y-82428947D01*
X141066666Y-82476566D02*
X141019047Y-82428947D01*
X141019047Y-82428947D02*
X140923809Y-82381328D01*
X140923809Y-82381328D02*
X140685714Y-82381328D01*
X140685714Y-82381328D02*
X140590476Y-82428947D01*
X140590476Y-82428947D02*
X140542857Y-82476566D01*
X140542857Y-82476566D02*
X140495238Y-82571804D01*
X140495238Y-82571804D02*
X140495238Y-82667042D01*
X140495238Y-82667042D02*
X140542857Y-82809899D01*
X140542857Y-82809899D02*
X141114285Y-83381328D01*
X141114285Y-83381328D02*
X140495238Y-83381328D01*
X139923809Y-82809899D02*
X140019047Y-82762280D01*
X140019047Y-82762280D02*
X140066666Y-82714661D01*
X140066666Y-82714661D02*
X140114285Y-82619423D01*
X140114285Y-82619423D02*
X140114285Y-82571804D01*
X140114285Y-82571804D02*
X140066666Y-82476566D01*
X140066666Y-82476566D02*
X140019047Y-82428947D01*
X140019047Y-82428947D02*
X139923809Y-82381328D01*
X139923809Y-82381328D02*
X139733333Y-82381328D01*
X139733333Y-82381328D02*
X139638095Y-82428947D01*
X139638095Y-82428947D02*
X139590476Y-82476566D01*
X139590476Y-82476566D02*
X139542857Y-82571804D01*
X139542857Y-82571804D02*
X139542857Y-82619423D01*
X139542857Y-82619423D02*
X139590476Y-82714661D01*
X139590476Y-82714661D02*
X139638095Y-82762280D01*
X139638095Y-82762280D02*
X139733333Y-82809899D01*
X139733333Y-82809899D02*
X139923809Y-82809899D01*
X139923809Y-82809899D02*
X140019047Y-82857518D01*
X140019047Y-82857518D02*
X140066666Y-82905137D01*
X140066666Y-82905137D02*
X140114285Y-83000375D01*
X140114285Y-83000375D02*
X140114285Y-83190851D01*
X140114285Y-83190851D02*
X140066666Y-83286089D01*
X140066666Y-83286089D02*
X140019047Y-83333709D01*
X140019047Y-83333709D02*
X139923809Y-83381328D01*
X139923809Y-83381328D02*
X139733333Y-83381328D01*
X139733333Y-83381328D02*
X139638095Y-83333709D01*
X139638095Y-83333709D02*
X139590476Y-83286089D01*
X139590476Y-83286089D02*
X139542857Y-83190851D01*
X139542857Y-83190851D02*
X139542857Y-83000375D01*
X139542857Y-83000375D02*
X139590476Y-82905137D01*
X139590476Y-82905137D02*
X139638095Y-82857518D01*
X139638095Y-82857518D02*
X139733333Y-82809899D01*
X138590476Y-83381328D02*
X139161904Y-83381328D01*
X138876190Y-83381328D02*
X138876190Y-82381328D01*
X138876190Y-82381328D02*
X138971428Y-82524185D01*
X138971428Y-82524185D02*
X139066666Y-82619423D01*
X139066666Y-82619423D02*
X139161904Y-82667042D01*
X138209523Y-82476566D02*
X138161904Y-82428947D01*
X138161904Y-82428947D02*
X138066666Y-82381328D01*
X138066666Y-82381328D02*
X137828571Y-82381328D01*
X137828571Y-82381328D02*
X137733333Y-82428947D01*
X137733333Y-82428947D02*
X137685714Y-82476566D01*
X137685714Y-82476566D02*
X137638095Y-82571804D01*
X137638095Y-82571804D02*
X137638095Y-82667042D01*
X137638095Y-82667042D02*
X137685714Y-82809899D01*
X137685714Y-82809899D02*
X138257142Y-83381328D01*
X138257142Y-83381328D02*
X137638095Y-83381328D01*
X136876190Y-82857518D02*
X136733333Y-82905137D01*
X136733333Y-82905137D02*
X136685714Y-82952756D01*
X136685714Y-82952756D02*
X136638095Y-83047994D01*
X136638095Y-83047994D02*
X136638095Y-83190851D01*
X136638095Y-83190851D02*
X136685714Y-83286089D01*
X136685714Y-83286089D02*
X136733333Y-83333709D01*
X136733333Y-83333709D02*
X136828571Y-83381328D01*
X136828571Y-83381328D02*
X137209523Y-83381328D01*
X137209523Y-83381328D02*
X137209523Y-82381328D01*
X137209523Y-82381328D02*
X136876190Y-82381328D01*
X136876190Y-82381328D02*
X136780952Y-82428947D01*
X136780952Y-82428947D02*
X136733333Y-82476566D01*
X136733333Y-82476566D02*
X136685714Y-82571804D01*
X136685714Y-82571804D02*
X136685714Y-82667042D01*
X136685714Y-82667042D02*
X136733333Y-82762280D01*
X136733333Y-82762280D02*
X136780952Y-82809899D01*
X136780952Y-82809899D02*
X136876190Y-82857518D01*
X136876190Y-82857518D02*
X137209523Y-82857518D01*
X140871428Y-79288804D02*
X140871428Y-78488804D01*
X140871428Y-78488804D02*
X140680952Y-78488804D01*
X140680952Y-78488804D02*
X140566666Y-78526899D01*
X140566666Y-78526899D02*
X140490476Y-78603089D01*
X140490476Y-78603089D02*
X140452381Y-78679280D01*
X140452381Y-78679280D02*
X140414285Y-78831661D01*
X140414285Y-78831661D02*
X140414285Y-78945947D01*
X140414285Y-78945947D02*
X140452381Y-79098328D01*
X140452381Y-79098328D02*
X140490476Y-79174518D01*
X140490476Y-79174518D02*
X140566666Y-79250709D01*
X140566666Y-79250709D02*
X140680952Y-79288804D01*
X140680952Y-79288804D02*
X140871428Y-79288804D01*
X139652381Y-79288804D02*
X140109524Y-79288804D01*
X139880952Y-79288804D02*
X139880952Y-78488804D01*
X139880952Y-78488804D02*
X139957143Y-78603089D01*
X139957143Y-78603089D02*
X140033333Y-78679280D01*
X140033333Y-78679280D02*
X140109524Y-78717375D01*
X139347619Y-78564994D02*
X139309523Y-78526899D01*
X139309523Y-78526899D02*
X139233333Y-78488804D01*
X139233333Y-78488804D02*
X139042857Y-78488804D01*
X139042857Y-78488804D02*
X138966666Y-78526899D01*
X138966666Y-78526899D02*
X138928571Y-78564994D01*
X138928571Y-78564994D02*
X138890476Y-78641185D01*
X138890476Y-78641185D02*
X138890476Y-78717375D01*
X138890476Y-78717375D02*
X138928571Y-78831661D01*
X138928571Y-78831661D02*
X139385714Y-79288804D01*
X139385714Y-79288804D02*
X138890476Y-79288804D01*
X143209523Y-75761328D02*
X142971428Y-76761328D01*
X142971428Y-76761328D02*
X142780952Y-76047042D01*
X142780952Y-76047042D02*
X142590476Y-76761328D01*
X142590476Y-76761328D02*
X142352381Y-75761328D01*
X142019047Y-76713709D02*
X141876190Y-76761328D01*
X141876190Y-76761328D02*
X141638095Y-76761328D01*
X141638095Y-76761328D02*
X141542857Y-76713709D01*
X141542857Y-76713709D02*
X141495238Y-76666089D01*
X141495238Y-76666089D02*
X141447619Y-76570851D01*
X141447619Y-76570851D02*
X141447619Y-76475613D01*
X141447619Y-76475613D02*
X141495238Y-76380375D01*
X141495238Y-76380375D02*
X141542857Y-76332756D01*
X141542857Y-76332756D02*
X141638095Y-76285137D01*
X141638095Y-76285137D02*
X141828571Y-76237518D01*
X141828571Y-76237518D02*
X141923809Y-76189899D01*
X141923809Y-76189899D02*
X141971428Y-76142280D01*
X141971428Y-76142280D02*
X142019047Y-76047042D01*
X142019047Y-76047042D02*
X142019047Y-75951804D01*
X142019047Y-75951804D02*
X141971428Y-75856566D01*
X141971428Y-75856566D02*
X141923809Y-75808947D01*
X141923809Y-75808947D02*
X141828571Y-75761328D01*
X141828571Y-75761328D02*
X141590476Y-75761328D01*
X141590476Y-75761328D02*
X141447619Y-75808947D01*
X141066666Y-75856566D02*
X141019047Y-75808947D01*
X141019047Y-75808947D02*
X140923809Y-75761328D01*
X140923809Y-75761328D02*
X140685714Y-75761328D01*
X140685714Y-75761328D02*
X140590476Y-75808947D01*
X140590476Y-75808947D02*
X140542857Y-75856566D01*
X140542857Y-75856566D02*
X140495238Y-75951804D01*
X140495238Y-75951804D02*
X140495238Y-76047042D01*
X140495238Y-76047042D02*
X140542857Y-76189899D01*
X140542857Y-76189899D02*
X141114285Y-76761328D01*
X141114285Y-76761328D02*
X140495238Y-76761328D01*
X139923809Y-76189899D02*
X140019047Y-76142280D01*
X140019047Y-76142280D02*
X140066666Y-76094661D01*
X140066666Y-76094661D02*
X140114285Y-75999423D01*
X140114285Y-75999423D02*
X140114285Y-75951804D01*
X140114285Y-75951804D02*
X140066666Y-75856566D01*
X140066666Y-75856566D02*
X140019047Y-75808947D01*
X140019047Y-75808947D02*
X139923809Y-75761328D01*
X139923809Y-75761328D02*
X139733333Y-75761328D01*
X139733333Y-75761328D02*
X139638095Y-75808947D01*
X139638095Y-75808947D02*
X139590476Y-75856566D01*
X139590476Y-75856566D02*
X139542857Y-75951804D01*
X139542857Y-75951804D02*
X139542857Y-75999423D01*
X139542857Y-75999423D02*
X139590476Y-76094661D01*
X139590476Y-76094661D02*
X139638095Y-76142280D01*
X139638095Y-76142280D02*
X139733333Y-76189899D01*
X139733333Y-76189899D02*
X139923809Y-76189899D01*
X139923809Y-76189899D02*
X140019047Y-76237518D01*
X140019047Y-76237518D02*
X140066666Y-76285137D01*
X140066666Y-76285137D02*
X140114285Y-76380375D01*
X140114285Y-76380375D02*
X140114285Y-76570851D01*
X140114285Y-76570851D02*
X140066666Y-76666089D01*
X140066666Y-76666089D02*
X140019047Y-76713709D01*
X140019047Y-76713709D02*
X139923809Y-76761328D01*
X139923809Y-76761328D02*
X139733333Y-76761328D01*
X139733333Y-76761328D02*
X139638095Y-76713709D01*
X139638095Y-76713709D02*
X139590476Y-76666089D01*
X139590476Y-76666089D02*
X139542857Y-76570851D01*
X139542857Y-76570851D02*
X139542857Y-76380375D01*
X139542857Y-76380375D02*
X139590476Y-76285137D01*
X139590476Y-76285137D02*
X139638095Y-76237518D01*
X139638095Y-76237518D02*
X139733333Y-76189899D01*
X138590476Y-76761328D02*
X139161904Y-76761328D01*
X138876190Y-76761328D02*
X138876190Y-75761328D01*
X138876190Y-75761328D02*
X138971428Y-75904185D01*
X138971428Y-75904185D02*
X139066666Y-75999423D01*
X139066666Y-75999423D02*
X139161904Y-76047042D01*
X138209523Y-75856566D02*
X138161904Y-75808947D01*
X138161904Y-75808947D02*
X138066666Y-75761328D01*
X138066666Y-75761328D02*
X137828571Y-75761328D01*
X137828571Y-75761328D02*
X137733333Y-75808947D01*
X137733333Y-75808947D02*
X137685714Y-75856566D01*
X137685714Y-75856566D02*
X137638095Y-75951804D01*
X137638095Y-75951804D02*
X137638095Y-76047042D01*
X137638095Y-76047042D02*
X137685714Y-76189899D01*
X137685714Y-76189899D02*
X138257142Y-76761328D01*
X138257142Y-76761328D02*
X137638095Y-76761328D01*
X136876190Y-76237518D02*
X136733333Y-76285137D01*
X136733333Y-76285137D02*
X136685714Y-76332756D01*
X136685714Y-76332756D02*
X136638095Y-76427994D01*
X136638095Y-76427994D02*
X136638095Y-76570851D01*
X136638095Y-76570851D02*
X136685714Y-76666089D01*
X136685714Y-76666089D02*
X136733333Y-76713709D01*
X136733333Y-76713709D02*
X136828571Y-76761328D01*
X136828571Y-76761328D02*
X137209523Y-76761328D01*
X137209523Y-76761328D02*
X137209523Y-75761328D01*
X137209523Y-75761328D02*
X136876190Y-75761328D01*
X136876190Y-75761328D02*
X136780952Y-75808947D01*
X136780952Y-75808947D02*
X136733333Y-75856566D01*
X136733333Y-75856566D02*
X136685714Y-75951804D01*
X136685714Y-75951804D02*
X136685714Y-76047042D01*
X136685714Y-76047042D02*
X136733333Y-76142280D01*
X136733333Y-76142280D02*
X136780952Y-76189899D01*
X136780952Y-76189899D02*
X136876190Y-76237518D01*
X136876190Y-76237518D02*
X137209523Y-76237518D01*
X140871428Y-72668804D02*
X140871428Y-71868804D01*
X140871428Y-71868804D02*
X140680952Y-71868804D01*
X140680952Y-71868804D02*
X140566666Y-71906899D01*
X140566666Y-71906899D02*
X140490476Y-71983089D01*
X140490476Y-71983089D02*
X140452381Y-72059280D01*
X140452381Y-72059280D02*
X140414285Y-72211661D01*
X140414285Y-72211661D02*
X140414285Y-72325947D01*
X140414285Y-72325947D02*
X140452381Y-72478328D01*
X140452381Y-72478328D02*
X140490476Y-72554518D01*
X140490476Y-72554518D02*
X140566666Y-72630709D01*
X140566666Y-72630709D02*
X140680952Y-72668804D01*
X140680952Y-72668804D02*
X140871428Y-72668804D01*
X139652381Y-72668804D02*
X140109524Y-72668804D01*
X139880952Y-72668804D02*
X139880952Y-71868804D01*
X139880952Y-71868804D02*
X139957143Y-71983089D01*
X139957143Y-71983089D02*
X140033333Y-72059280D01*
X140033333Y-72059280D02*
X140109524Y-72097375D01*
X138890476Y-72668804D02*
X139347619Y-72668804D01*
X139119047Y-72668804D02*
X139119047Y-71868804D01*
X139119047Y-71868804D02*
X139195238Y-71983089D01*
X139195238Y-71983089D02*
X139271428Y-72059280D01*
X139271428Y-72059280D02*
X139347619Y-72097375D01*
X143209523Y-69141328D02*
X142971428Y-70141328D01*
X142971428Y-70141328D02*
X142780952Y-69427042D01*
X142780952Y-69427042D02*
X142590476Y-70141328D01*
X142590476Y-70141328D02*
X142352381Y-69141328D01*
X142019047Y-70093709D02*
X141876190Y-70141328D01*
X141876190Y-70141328D02*
X141638095Y-70141328D01*
X141638095Y-70141328D02*
X141542857Y-70093709D01*
X141542857Y-70093709D02*
X141495238Y-70046089D01*
X141495238Y-70046089D02*
X141447619Y-69950851D01*
X141447619Y-69950851D02*
X141447619Y-69855613D01*
X141447619Y-69855613D02*
X141495238Y-69760375D01*
X141495238Y-69760375D02*
X141542857Y-69712756D01*
X141542857Y-69712756D02*
X141638095Y-69665137D01*
X141638095Y-69665137D02*
X141828571Y-69617518D01*
X141828571Y-69617518D02*
X141923809Y-69569899D01*
X141923809Y-69569899D02*
X141971428Y-69522280D01*
X141971428Y-69522280D02*
X142019047Y-69427042D01*
X142019047Y-69427042D02*
X142019047Y-69331804D01*
X142019047Y-69331804D02*
X141971428Y-69236566D01*
X141971428Y-69236566D02*
X141923809Y-69188947D01*
X141923809Y-69188947D02*
X141828571Y-69141328D01*
X141828571Y-69141328D02*
X141590476Y-69141328D01*
X141590476Y-69141328D02*
X141447619Y-69188947D01*
X141066666Y-69236566D02*
X141019047Y-69188947D01*
X141019047Y-69188947D02*
X140923809Y-69141328D01*
X140923809Y-69141328D02*
X140685714Y-69141328D01*
X140685714Y-69141328D02*
X140590476Y-69188947D01*
X140590476Y-69188947D02*
X140542857Y-69236566D01*
X140542857Y-69236566D02*
X140495238Y-69331804D01*
X140495238Y-69331804D02*
X140495238Y-69427042D01*
X140495238Y-69427042D02*
X140542857Y-69569899D01*
X140542857Y-69569899D02*
X141114285Y-70141328D01*
X141114285Y-70141328D02*
X140495238Y-70141328D01*
X139923809Y-69569899D02*
X140019047Y-69522280D01*
X140019047Y-69522280D02*
X140066666Y-69474661D01*
X140066666Y-69474661D02*
X140114285Y-69379423D01*
X140114285Y-69379423D02*
X140114285Y-69331804D01*
X140114285Y-69331804D02*
X140066666Y-69236566D01*
X140066666Y-69236566D02*
X140019047Y-69188947D01*
X140019047Y-69188947D02*
X139923809Y-69141328D01*
X139923809Y-69141328D02*
X139733333Y-69141328D01*
X139733333Y-69141328D02*
X139638095Y-69188947D01*
X139638095Y-69188947D02*
X139590476Y-69236566D01*
X139590476Y-69236566D02*
X139542857Y-69331804D01*
X139542857Y-69331804D02*
X139542857Y-69379423D01*
X139542857Y-69379423D02*
X139590476Y-69474661D01*
X139590476Y-69474661D02*
X139638095Y-69522280D01*
X139638095Y-69522280D02*
X139733333Y-69569899D01*
X139733333Y-69569899D02*
X139923809Y-69569899D01*
X139923809Y-69569899D02*
X140019047Y-69617518D01*
X140019047Y-69617518D02*
X140066666Y-69665137D01*
X140066666Y-69665137D02*
X140114285Y-69760375D01*
X140114285Y-69760375D02*
X140114285Y-69950851D01*
X140114285Y-69950851D02*
X140066666Y-70046089D01*
X140066666Y-70046089D02*
X140019047Y-70093709D01*
X140019047Y-70093709D02*
X139923809Y-70141328D01*
X139923809Y-70141328D02*
X139733333Y-70141328D01*
X139733333Y-70141328D02*
X139638095Y-70093709D01*
X139638095Y-70093709D02*
X139590476Y-70046089D01*
X139590476Y-70046089D02*
X139542857Y-69950851D01*
X139542857Y-69950851D02*
X139542857Y-69760375D01*
X139542857Y-69760375D02*
X139590476Y-69665137D01*
X139590476Y-69665137D02*
X139638095Y-69617518D01*
X139638095Y-69617518D02*
X139733333Y-69569899D01*
X138590476Y-70141328D02*
X139161904Y-70141328D01*
X138876190Y-70141328D02*
X138876190Y-69141328D01*
X138876190Y-69141328D02*
X138971428Y-69284185D01*
X138971428Y-69284185D02*
X139066666Y-69379423D01*
X139066666Y-69379423D02*
X139161904Y-69427042D01*
X138209523Y-69236566D02*
X138161904Y-69188947D01*
X138161904Y-69188947D02*
X138066666Y-69141328D01*
X138066666Y-69141328D02*
X137828571Y-69141328D01*
X137828571Y-69141328D02*
X137733333Y-69188947D01*
X137733333Y-69188947D02*
X137685714Y-69236566D01*
X137685714Y-69236566D02*
X137638095Y-69331804D01*
X137638095Y-69331804D02*
X137638095Y-69427042D01*
X137638095Y-69427042D02*
X137685714Y-69569899D01*
X137685714Y-69569899D02*
X138257142Y-70141328D01*
X138257142Y-70141328D02*
X137638095Y-70141328D01*
X136876190Y-69617518D02*
X136733333Y-69665137D01*
X136733333Y-69665137D02*
X136685714Y-69712756D01*
X136685714Y-69712756D02*
X136638095Y-69807994D01*
X136638095Y-69807994D02*
X136638095Y-69950851D01*
X136638095Y-69950851D02*
X136685714Y-70046089D01*
X136685714Y-70046089D02*
X136733333Y-70093709D01*
X136733333Y-70093709D02*
X136828571Y-70141328D01*
X136828571Y-70141328D02*
X137209523Y-70141328D01*
X137209523Y-70141328D02*
X137209523Y-69141328D01*
X137209523Y-69141328D02*
X136876190Y-69141328D01*
X136876190Y-69141328D02*
X136780952Y-69188947D01*
X136780952Y-69188947D02*
X136733333Y-69236566D01*
X136733333Y-69236566D02*
X136685714Y-69331804D01*
X136685714Y-69331804D02*
X136685714Y-69427042D01*
X136685714Y-69427042D02*
X136733333Y-69522280D01*
X136733333Y-69522280D02*
X136780952Y-69569899D01*
X136780952Y-69569899D02*
X136876190Y-69617518D01*
X136876190Y-69617518D02*
X137209523Y-69617518D01*
X140871428Y-66048804D02*
X140871428Y-65248804D01*
X140871428Y-65248804D02*
X140680952Y-65248804D01*
X140680952Y-65248804D02*
X140566666Y-65286899D01*
X140566666Y-65286899D02*
X140490476Y-65363089D01*
X140490476Y-65363089D02*
X140452381Y-65439280D01*
X140452381Y-65439280D02*
X140414285Y-65591661D01*
X140414285Y-65591661D02*
X140414285Y-65705947D01*
X140414285Y-65705947D02*
X140452381Y-65858328D01*
X140452381Y-65858328D02*
X140490476Y-65934518D01*
X140490476Y-65934518D02*
X140566666Y-66010709D01*
X140566666Y-66010709D02*
X140680952Y-66048804D01*
X140680952Y-66048804D02*
X140871428Y-66048804D01*
X139652381Y-66048804D02*
X140109524Y-66048804D01*
X139880952Y-66048804D02*
X139880952Y-65248804D01*
X139880952Y-65248804D02*
X139957143Y-65363089D01*
X139957143Y-65363089D02*
X140033333Y-65439280D01*
X140033333Y-65439280D02*
X140109524Y-65477375D01*
X139157142Y-65248804D02*
X139080952Y-65248804D01*
X139080952Y-65248804D02*
X139004761Y-65286899D01*
X139004761Y-65286899D02*
X138966666Y-65324994D01*
X138966666Y-65324994D02*
X138928571Y-65401185D01*
X138928571Y-65401185D02*
X138890476Y-65553566D01*
X138890476Y-65553566D02*
X138890476Y-65744042D01*
X138890476Y-65744042D02*
X138928571Y-65896423D01*
X138928571Y-65896423D02*
X138966666Y-65972613D01*
X138966666Y-65972613D02*
X139004761Y-66010709D01*
X139004761Y-66010709D02*
X139080952Y-66048804D01*
X139080952Y-66048804D02*
X139157142Y-66048804D01*
X139157142Y-66048804D02*
X139233333Y-66010709D01*
X139233333Y-66010709D02*
X139271428Y-65972613D01*
X139271428Y-65972613D02*
X139309523Y-65896423D01*
X139309523Y-65896423D02*
X139347619Y-65744042D01*
X139347619Y-65744042D02*
X139347619Y-65553566D01*
X139347619Y-65553566D02*
X139309523Y-65401185D01*
X139309523Y-65401185D02*
X139271428Y-65324994D01*
X139271428Y-65324994D02*
X139233333Y-65286899D01*
X139233333Y-65286899D02*
X139157142Y-65248804D01*
X143259523Y-88361328D02*
X143021428Y-89361328D01*
X143021428Y-89361328D02*
X142830952Y-88647042D01*
X142830952Y-88647042D02*
X142640476Y-89361328D01*
X142640476Y-89361328D02*
X142402381Y-88361328D01*
X142069047Y-89313709D02*
X141926190Y-89361328D01*
X141926190Y-89361328D02*
X141688095Y-89361328D01*
X141688095Y-89361328D02*
X141592857Y-89313709D01*
X141592857Y-89313709D02*
X141545238Y-89266089D01*
X141545238Y-89266089D02*
X141497619Y-89170851D01*
X141497619Y-89170851D02*
X141497619Y-89075613D01*
X141497619Y-89075613D02*
X141545238Y-88980375D01*
X141545238Y-88980375D02*
X141592857Y-88932756D01*
X141592857Y-88932756D02*
X141688095Y-88885137D01*
X141688095Y-88885137D02*
X141878571Y-88837518D01*
X141878571Y-88837518D02*
X141973809Y-88789899D01*
X141973809Y-88789899D02*
X142021428Y-88742280D01*
X142021428Y-88742280D02*
X142069047Y-88647042D01*
X142069047Y-88647042D02*
X142069047Y-88551804D01*
X142069047Y-88551804D02*
X142021428Y-88456566D01*
X142021428Y-88456566D02*
X141973809Y-88408947D01*
X141973809Y-88408947D02*
X141878571Y-88361328D01*
X141878571Y-88361328D02*
X141640476Y-88361328D01*
X141640476Y-88361328D02*
X141497619Y-88408947D01*
X141116666Y-88456566D02*
X141069047Y-88408947D01*
X141069047Y-88408947D02*
X140973809Y-88361328D01*
X140973809Y-88361328D02*
X140735714Y-88361328D01*
X140735714Y-88361328D02*
X140640476Y-88408947D01*
X140640476Y-88408947D02*
X140592857Y-88456566D01*
X140592857Y-88456566D02*
X140545238Y-88551804D01*
X140545238Y-88551804D02*
X140545238Y-88647042D01*
X140545238Y-88647042D02*
X140592857Y-88789899D01*
X140592857Y-88789899D02*
X141164285Y-89361328D01*
X141164285Y-89361328D02*
X140545238Y-89361328D01*
X139973809Y-88789899D02*
X140069047Y-88742280D01*
X140069047Y-88742280D02*
X140116666Y-88694661D01*
X140116666Y-88694661D02*
X140164285Y-88599423D01*
X140164285Y-88599423D02*
X140164285Y-88551804D01*
X140164285Y-88551804D02*
X140116666Y-88456566D01*
X140116666Y-88456566D02*
X140069047Y-88408947D01*
X140069047Y-88408947D02*
X139973809Y-88361328D01*
X139973809Y-88361328D02*
X139783333Y-88361328D01*
X139783333Y-88361328D02*
X139688095Y-88408947D01*
X139688095Y-88408947D02*
X139640476Y-88456566D01*
X139640476Y-88456566D02*
X139592857Y-88551804D01*
X139592857Y-88551804D02*
X139592857Y-88599423D01*
X139592857Y-88599423D02*
X139640476Y-88694661D01*
X139640476Y-88694661D02*
X139688095Y-88742280D01*
X139688095Y-88742280D02*
X139783333Y-88789899D01*
X139783333Y-88789899D02*
X139973809Y-88789899D01*
X139973809Y-88789899D02*
X140069047Y-88837518D01*
X140069047Y-88837518D02*
X140116666Y-88885137D01*
X140116666Y-88885137D02*
X140164285Y-88980375D01*
X140164285Y-88980375D02*
X140164285Y-89170851D01*
X140164285Y-89170851D02*
X140116666Y-89266089D01*
X140116666Y-89266089D02*
X140069047Y-89313709D01*
X140069047Y-89313709D02*
X139973809Y-89361328D01*
X139973809Y-89361328D02*
X139783333Y-89361328D01*
X139783333Y-89361328D02*
X139688095Y-89313709D01*
X139688095Y-89313709D02*
X139640476Y-89266089D01*
X139640476Y-89266089D02*
X139592857Y-89170851D01*
X139592857Y-89170851D02*
X139592857Y-88980375D01*
X139592857Y-88980375D02*
X139640476Y-88885137D01*
X139640476Y-88885137D02*
X139688095Y-88837518D01*
X139688095Y-88837518D02*
X139783333Y-88789899D01*
X138640476Y-89361328D02*
X139211904Y-89361328D01*
X138926190Y-89361328D02*
X138926190Y-88361328D01*
X138926190Y-88361328D02*
X139021428Y-88504185D01*
X139021428Y-88504185D02*
X139116666Y-88599423D01*
X139116666Y-88599423D02*
X139211904Y-88647042D01*
X138259523Y-88456566D02*
X138211904Y-88408947D01*
X138211904Y-88408947D02*
X138116666Y-88361328D01*
X138116666Y-88361328D02*
X137878571Y-88361328D01*
X137878571Y-88361328D02*
X137783333Y-88408947D01*
X137783333Y-88408947D02*
X137735714Y-88456566D01*
X137735714Y-88456566D02*
X137688095Y-88551804D01*
X137688095Y-88551804D02*
X137688095Y-88647042D01*
X137688095Y-88647042D02*
X137735714Y-88789899D01*
X137735714Y-88789899D02*
X138307142Y-89361328D01*
X138307142Y-89361328D02*
X137688095Y-89361328D01*
X136926190Y-88837518D02*
X136783333Y-88885137D01*
X136783333Y-88885137D02*
X136735714Y-88932756D01*
X136735714Y-88932756D02*
X136688095Y-89027994D01*
X136688095Y-89027994D02*
X136688095Y-89170851D01*
X136688095Y-89170851D02*
X136735714Y-89266089D01*
X136735714Y-89266089D02*
X136783333Y-89313709D01*
X136783333Y-89313709D02*
X136878571Y-89361328D01*
X136878571Y-89361328D02*
X137259523Y-89361328D01*
X137259523Y-89361328D02*
X137259523Y-88361328D01*
X137259523Y-88361328D02*
X136926190Y-88361328D01*
X136926190Y-88361328D02*
X136830952Y-88408947D01*
X136830952Y-88408947D02*
X136783333Y-88456566D01*
X136783333Y-88456566D02*
X136735714Y-88551804D01*
X136735714Y-88551804D02*
X136735714Y-88647042D01*
X136735714Y-88647042D02*
X136783333Y-88742280D01*
X136783333Y-88742280D02*
X136830952Y-88789899D01*
X136830952Y-88789899D02*
X136926190Y-88837518D01*
X136926190Y-88837518D02*
X137259523Y-88837518D01*
X140921428Y-85268804D02*
X140921428Y-84468804D01*
X140921428Y-84468804D02*
X140730952Y-84468804D01*
X140730952Y-84468804D02*
X140616666Y-84506899D01*
X140616666Y-84506899D02*
X140540476Y-84583089D01*
X140540476Y-84583089D02*
X140502381Y-84659280D01*
X140502381Y-84659280D02*
X140464285Y-84811661D01*
X140464285Y-84811661D02*
X140464285Y-84925947D01*
X140464285Y-84925947D02*
X140502381Y-85078328D01*
X140502381Y-85078328D02*
X140540476Y-85154518D01*
X140540476Y-85154518D02*
X140616666Y-85230709D01*
X140616666Y-85230709D02*
X140730952Y-85268804D01*
X140730952Y-85268804D02*
X140921428Y-85268804D01*
X139702381Y-85268804D02*
X140159524Y-85268804D01*
X139930952Y-85268804D02*
X139930952Y-84468804D01*
X139930952Y-84468804D02*
X140007143Y-84583089D01*
X140007143Y-84583089D02*
X140083333Y-84659280D01*
X140083333Y-84659280D02*
X140159524Y-84697375D01*
X139435714Y-84468804D02*
X138940476Y-84468804D01*
X138940476Y-84468804D02*
X139207142Y-84773566D01*
X139207142Y-84773566D02*
X139092857Y-84773566D01*
X139092857Y-84773566D02*
X139016666Y-84811661D01*
X139016666Y-84811661D02*
X138978571Y-84849756D01*
X138978571Y-84849756D02*
X138940476Y-84925947D01*
X138940476Y-84925947D02*
X138940476Y-85116423D01*
X138940476Y-85116423D02*
X138978571Y-85192613D01*
X138978571Y-85192613D02*
X139016666Y-85230709D01*
X139016666Y-85230709D02*
X139092857Y-85268804D01*
X139092857Y-85268804D02*
X139321428Y-85268804D01*
X139321428Y-85268804D02*
X139397619Y-85230709D01*
X139397619Y-85230709D02*
X139435714Y-85192613D01*
X143259523Y-108221328D02*
X143021428Y-109221328D01*
X143021428Y-109221328D02*
X142830952Y-108507042D01*
X142830952Y-108507042D02*
X142640476Y-109221328D01*
X142640476Y-109221328D02*
X142402381Y-108221328D01*
X142069047Y-109173709D02*
X141926190Y-109221328D01*
X141926190Y-109221328D02*
X141688095Y-109221328D01*
X141688095Y-109221328D02*
X141592857Y-109173709D01*
X141592857Y-109173709D02*
X141545238Y-109126089D01*
X141545238Y-109126089D02*
X141497619Y-109030851D01*
X141497619Y-109030851D02*
X141497619Y-108935613D01*
X141497619Y-108935613D02*
X141545238Y-108840375D01*
X141545238Y-108840375D02*
X141592857Y-108792756D01*
X141592857Y-108792756D02*
X141688095Y-108745137D01*
X141688095Y-108745137D02*
X141878571Y-108697518D01*
X141878571Y-108697518D02*
X141973809Y-108649899D01*
X141973809Y-108649899D02*
X142021428Y-108602280D01*
X142021428Y-108602280D02*
X142069047Y-108507042D01*
X142069047Y-108507042D02*
X142069047Y-108411804D01*
X142069047Y-108411804D02*
X142021428Y-108316566D01*
X142021428Y-108316566D02*
X141973809Y-108268947D01*
X141973809Y-108268947D02*
X141878571Y-108221328D01*
X141878571Y-108221328D02*
X141640476Y-108221328D01*
X141640476Y-108221328D02*
X141497619Y-108268947D01*
X141116666Y-108316566D02*
X141069047Y-108268947D01*
X141069047Y-108268947D02*
X140973809Y-108221328D01*
X140973809Y-108221328D02*
X140735714Y-108221328D01*
X140735714Y-108221328D02*
X140640476Y-108268947D01*
X140640476Y-108268947D02*
X140592857Y-108316566D01*
X140592857Y-108316566D02*
X140545238Y-108411804D01*
X140545238Y-108411804D02*
X140545238Y-108507042D01*
X140545238Y-108507042D02*
X140592857Y-108649899D01*
X140592857Y-108649899D02*
X141164285Y-109221328D01*
X141164285Y-109221328D02*
X140545238Y-109221328D01*
X139973809Y-108649899D02*
X140069047Y-108602280D01*
X140069047Y-108602280D02*
X140116666Y-108554661D01*
X140116666Y-108554661D02*
X140164285Y-108459423D01*
X140164285Y-108459423D02*
X140164285Y-108411804D01*
X140164285Y-108411804D02*
X140116666Y-108316566D01*
X140116666Y-108316566D02*
X140069047Y-108268947D01*
X140069047Y-108268947D02*
X139973809Y-108221328D01*
X139973809Y-108221328D02*
X139783333Y-108221328D01*
X139783333Y-108221328D02*
X139688095Y-108268947D01*
X139688095Y-108268947D02*
X139640476Y-108316566D01*
X139640476Y-108316566D02*
X139592857Y-108411804D01*
X139592857Y-108411804D02*
X139592857Y-108459423D01*
X139592857Y-108459423D02*
X139640476Y-108554661D01*
X139640476Y-108554661D02*
X139688095Y-108602280D01*
X139688095Y-108602280D02*
X139783333Y-108649899D01*
X139783333Y-108649899D02*
X139973809Y-108649899D01*
X139973809Y-108649899D02*
X140069047Y-108697518D01*
X140069047Y-108697518D02*
X140116666Y-108745137D01*
X140116666Y-108745137D02*
X140164285Y-108840375D01*
X140164285Y-108840375D02*
X140164285Y-109030851D01*
X140164285Y-109030851D02*
X140116666Y-109126089D01*
X140116666Y-109126089D02*
X140069047Y-109173709D01*
X140069047Y-109173709D02*
X139973809Y-109221328D01*
X139973809Y-109221328D02*
X139783333Y-109221328D01*
X139783333Y-109221328D02*
X139688095Y-109173709D01*
X139688095Y-109173709D02*
X139640476Y-109126089D01*
X139640476Y-109126089D02*
X139592857Y-109030851D01*
X139592857Y-109030851D02*
X139592857Y-108840375D01*
X139592857Y-108840375D02*
X139640476Y-108745137D01*
X139640476Y-108745137D02*
X139688095Y-108697518D01*
X139688095Y-108697518D02*
X139783333Y-108649899D01*
X138640476Y-109221328D02*
X139211904Y-109221328D01*
X138926190Y-109221328D02*
X138926190Y-108221328D01*
X138926190Y-108221328D02*
X139021428Y-108364185D01*
X139021428Y-108364185D02*
X139116666Y-108459423D01*
X139116666Y-108459423D02*
X139211904Y-108507042D01*
X138259523Y-108316566D02*
X138211904Y-108268947D01*
X138211904Y-108268947D02*
X138116666Y-108221328D01*
X138116666Y-108221328D02*
X137878571Y-108221328D01*
X137878571Y-108221328D02*
X137783333Y-108268947D01*
X137783333Y-108268947D02*
X137735714Y-108316566D01*
X137735714Y-108316566D02*
X137688095Y-108411804D01*
X137688095Y-108411804D02*
X137688095Y-108507042D01*
X137688095Y-108507042D02*
X137735714Y-108649899D01*
X137735714Y-108649899D02*
X138307142Y-109221328D01*
X138307142Y-109221328D02*
X137688095Y-109221328D01*
X136926190Y-108697518D02*
X136783333Y-108745137D01*
X136783333Y-108745137D02*
X136735714Y-108792756D01*
X136735714Y-108792756D02*
X136688095Y-108887994D01*
X136688095Y-108887994D02*
X136688095Y-109030851D01*
X136688095Y-109030851D02*
X136735714Y-109126089D01*
X136735714Y-109126089D02*
X136783333Y-109173709D01*
X136783333Y-109173709D02*
X136878571Y-109221328D01*
X136878571Y-109221328D02*
X137259523Y-109221328D01*
X137259523Y-109221328D02*
X137259523Y-108221328D01*
X137259523Y-108221328D02*
X136926190Y-108221328D01*
X136926190Y-108221328D02*
X136830952Y-108268947D01*
X136830952Y-108268947D02*
X136783333Y-108316566D01*
X136783333Y-108316566D02*
X136735714Y-108411804D01*
X136735714Y-108411804D02*
X136735714Y-108507042D01*
X136735714Y-108507042D02*
X136783333Y-108602280D01*
X136783333Y-108602280D02*
X136830952Y-108649899D01*
X136830952Y-108649899D02*
X136926190Y-108697518D01*
X136926190Y-108697518D02*
X137259523Y-108697518D01*
X140921428Y-105128804D02*
X140921428Y-104328804D01*
X140921428Y-104328804D02*
X140730952Y-104328804D01*
X140730952Y-104328804D02*
X140616666Y-104366899D01*
X140616666Y-104366899D02*
X140540476Y-104443089D01*
X140540476Y-104443089D02*
X140502381Y-104519280D01*
X140502381Y-104519280D02*
X140464285Y-104671661D01*
X140464285Y-104671661D02*
X140464285Y-104785947D01*
X140464285Y-104785947D02*
X140502381Y-104938328D01*
X140502381Y-104938328D02*
X140540476Y-105014518D01*
X140540476Y-105014518D02*
X140616666Y-105090709D01*
X140616666Y-105090709D02*
X140730952Y-105128804D01*
X140730952Y-105128804D02*
X140921428Y-105128804D01*
X139702381Y-105128804D02*
X140159524Y-105128804D01*
X139930952Y-105128804D02*
X139930952Y-104328804D01*
X139930952Y-104328804D02*
X140007143Y-104443089D01*
X140007143Y-104443089D02*
X140083333Y-104519280D01*
X140083333Y-104519280D02*
X140159524Y-104557375D01*
X139016666Y-104328804D02*
X139169047Y-104328804D01*
X139169047Y-104328804D02*
X139245238Y-104366899D01*
X139245238Y-104366899D02*
X139283333Y-104404994D01*
X139283333Y-104404994D02*
X139359523Y-104519280D01*
X139359523Y-104519280D02*
X139397619Y-104671661D01*
X139397619Y-104671661D02*
X139397619Y-104976423D01*
X139397619Y-104976423D02*
X139359523Y-105052613D01*
X139359523Y-105052613D02*
X139321428Y-105090709D01*
X139321428Y-105090709D02*
X139245238Y-105128804D01*
X139245238Y-105128804D02*
X139092857Y-105128804D01*
X139092857Y-105128804D02*
X139016666Y-105090709D01*
X139016666Y-105090709D02*
X138978571Y-105052613D01*
X138978571Y-105052613D02*
X138940476Y-104976423D01*
X138940476Y-104976423D02*
X138940476Y-104785947D01*
X138940476Y-104785947D02*
X138978571Y-104709756D01*
X138978571Y-104709756D02*
X139016666Y-104671661D01*
X139016666Y-104671661D02*
X139092857Y-104633566D01*
X139092857Y-104633566D02*
X139245238Y-104633566D01*
X139245238Y-104633566D02*
X139321428Y-104671661D01*
X139321428Y-104671661D02*
X139359523Y-104709756D01*
X139359523Y-104709756D02*
X139397619Y-104785947D01*
X143259523Y-94981328D02*
X143021428Y-95981328D01*
X143021428Y-95981328D02*
X142830952Y-95267042D01*
X142830952Y-95267042D02*
X142640476Y-95981328D01*
X142640476Y-95981328D02*
X142402381Y-94981328D01*
X142069047Y-95933709D02*
X141926190Y-95981328D01*
X141926190Y-95981328D02*
X141688095Y-95981328D01*
X141688095Y-95981328D02*
X141592857Y-95933709D01*
X141592857Y-95933709D02*
X141545238Y-95886089D01*
X141545238Y-95886089D02*
X141497619Y-95790851D01*
X141497619Y-95790851D02*
X141497619Y-95695613D01*
X141497619Y-95695613D02*
X141545238Y-95600375D01*
X141545238Y-95600375D02*
X141592857Y-95552756D01*
X141592857Y-95552756D02*
X141688095Y-95505137D01*
X141688095Y-95505137D02*
X141878571Y-95457518D01*
X141878571Y-95457518D02*
X141973809Y-95409899D01*
X141973809Y-95409899D02*
X142021428Y-95362280D01*
X142021428Y-95362280D02*
X142069047Y-95267042D01*
X142069047Y-95267042D02*
X142069047Y-95171804D01*
X142069047Y-95171804D02*
X142021428Y-95076566D01*
X142021428Y-95076566D02*
X141973809Y-95028947D01*
X141973809Y-95028947D02*
X141878571Y-94981328D01*
X141878571Y-94981328D02*
X141640476Y-94981328D01*
X141640476Y-94981328D02*
X141497619Y-95028947D01*
X141116666Y-95076566D02*
X141069047Y-95028947D01*
X141069047Y-95028947D02*
X140973809Y-94981328D01*
X140973809Y-94981328D02*
X140735714Y-94981328D01*
X140735714Y-94981328D02*
X140640476Y-95028947D01*
X140640476Y-95028947D02*
X140592857Y-95076566D01*
X140592857Y-95076566D02*
X140545238Y-95171804D01*
X140545238Y-95171804D02*
X140545238Y-95267042D01*
X140545238Y-95267042D02*
X140592857Y-95409899D01*
X140592857Y-95409899D02*
X141164285Y-95981328D01*
X141164285Y-95981328D02*
X140545238Y-95981328D01*
X139973809Y-95409899D02*
X140069047Y-95362280D01*
X140069047Y-95362280D02*
X140116666Y-95314661D01*
X140116666Y-95314661D02*
X140164285Y-95219423D01*
X140164285Y-95219423D02*
X140164285Y-95171804D01*
X140164285Y-95171804D02*
X140116666Y-95076566D01*
X140116666Y-95076566D02*
X140069047Y-95028947D01*
X140069047Y-95028947D02*
X139973809Y-94981328D01*
X139973809Y-94981328D02*
X139783333Y-94981328D01*
X139783333Y-94981328D02*
X139688095Y-95028947D01*
X139688095Y-95028947D02*
X139640476Y-95076566D01*
X139640476Y-95076566D02*
X139592857Y-95171804D01*
X139592857Y-95171804D02*
X139592857Y-95219423D01*
X139592857Y-95219423D02*
X139640476Y-95314661D01*
X139640476Y-95314661D02*
X139688095Y-95362280D01*
X139688095Y-95362280D02*
X139783333Y-95409899D01*
X139783333Y-95409899D02*
X139973809Y-95409899D01*
X139973809Y-95409899D02*
X140069047Y-95457518D01*
X140069047Y-95457518D02*
X140116666Y-95505137D01*
X140116666Y-95505137D02*
X140164285Y-95600375D01*
X140164285Y-95600375D02*
X140164285Y-95790851D01*
X140164285Y-95790851D02*
X140116666Y-95886089D01*
X140116666Y-95886089D02*
X140069047Y-95933709D01*
X140069047Y-95933709D02*
X139973809Y-95981328D01*
X139973809Y-95981328D02*
X139783333Y-95981328D01*
X139783333Y-95981328D02*
X139688095Y-95933709D01*
X139688095Y-95933709D02*
X139640476Y-95886089D01*
X139640476Y-95886089D02*
X139592857Y-95790851D01*
X139592857Y-95790851D02*
X139592857Y-95600375D01*
X139592857Y-95600375D02*
X139640476Y-95505137D01*
X139640476Y-95505137D02*
X139688095Y-95457518D01*
X139688095Y-95457518D02*
X139783333Y-95409899D01*
X138640476Y-95981328D02*
X139211904Y-95981328D01*
X138926190Y-95981328D02*
X138926190Y-94981328D01*
X138926190Y-94981328D02*
X139021428Y-95124185D01*
X139021428Y-95124185D02*
X139116666Y-95219423D01*
X139116666Y-95219423D02*
X139211904Y-95267042D01*
X138259523Y-95076566D02*
X138211904Y-95028947D01*
X138211904Y-95028947D02*
X138116666Y-94981328D01*
X138116666Y-94981328D02*
X137878571Y-94981328D01*
X137878571Y-94981328D02*
X137783333Y-95028947D01*
X137783333Y-95028947D02*
X137735714Y-95076566D01*
X137735714Y-95076566D02*
X137688095Y-95171804D01*
X137688095Y-95171804D02*
X137688095Y-95267042D01*
X137688095Y-95267042D02*
X137735714Y-95409899D01*
X137735714Y-95409899D02*
X138307142Y-95981328D01*
X138307142Y-95981328D02*
X137688095Y-95981328D01*
X136926190Y-95457518D02*
X136783333Y-95505137D01*
X136783333Y-95505137D02*
X136735714Y-95552756D01*
X136735714Y-95552756D02*
X136688095Y-95647994D01*
X136688095Y-95647994D02*
X136688095Y-95790851D01*
X136688095Y-95790851D02*
X136735714Y-95886089D01*
X136735714Y-95886089D02*
X136783333Y-95933709D01*
X136783333Y-95933709D02*
X136878571Y-95981328D01*
X136878571Y-95981328D02*
X137259523Y-95981328D01*
X137259523Y-95981328D02*
X137259523Y-94981328D01*
X137259523Y-94981328D02*
X136926190Y-94981328D01*
X136926190Y-94981328D02*
X136830952Y-95028947D01*
X136830952Y-95028947D02*
X136783333Y-95076566D01*
X136783333Y-95076566D02*
X136735714Y-95171804D01*
X136735714Y-95171804D02*
X136735714Y-95267042D01*
X136735714Y-95267042D02*
X136783333Y-95362280D01*
X136783333Y-95362280D02*
X136830952Y-95409899D01*
X136830952Y-95409899D02*
X136926190Y-95457518D01*
X136926190Y-95457518D02*
X137259523Y-95457518D01*
X140921428Y-91888804D02*
X140921428Y-91088804D01*
X140921428Y-91088804D02*
X140730952Y-91088804D01*
X140730952Y-91088804D02*
X140616666Y-91126899D01*
X140616666Y-91126899D02*
X140540476Y-91203089D01*
X140540476Y-91203089D02*
X140502381Y-91279280D01*
X140502381Y-91279280D02*
X140464285Y-91431661D01*
X140464285Y-91431661D02*
X140464285Y-91545947D01*
X140464285Y-91545947D02*
X140502381Y-91698328D01*
X140502381Y-91698328D02*
X140540476Y-91774518D01*
X140540476Y-91774518D02*
X140616666Y-91850709D01*
X140616666Y-91850709D02*
X140730952Y-91888804D01*
X140730952Y-91888804D02*
X140921428Y-91888804D01*
X139702381Y-91888804D02*
X140159524Y-91888804D01*
X139930952Y-91888804D02*
X139930952Y-91088804D01*
X139930952Y-91088804D02*
X140007143Y-91203089D01*
X140007143Y-91203089D02*
X140083333Y-91279280D01*
X140083333Y-91279280D02*
X140159524Y-91317375D01*
X139016666Y-91355470D02*
X139016666Y-91888804D01*
X139207142Y-91050709D02*
X139397619Y-91622137D01*
X139397619Y-91622137D02*
X138902380Y-91622137D01*
X143259523Y-101601328D02*
X143021428Y-102601328D01*
X143021428Y-102601328D02*
X142830952Y-101887042D01*
X142830952Y-101887042D02*
X142640476Y-102601328D01*
X142640476Y-102601328D02*
X142402381Y-101601328D01*
X142069047Y-102553709D02*
X141926190Y-102601328D01*
X141926190Y-102601328D02*
X141688095Y-102601328D01*
X141688095Y-102601328D02*
X141592857Y-102553709D01*
X141592857Y-102553709D02*
X141545238Y-102506089D01*
X141545238Y-102506089D02*
X141497619Y-102410851D01*
X141497619Y-102410851D02*
X141497619Y-102315613D01*
X141497619Y-102315613D02*
X141545238Y-102220375D01*
X141545238Y-102220375D02*
X141592857Y-102172756D01*
X141592857Y-102172756D02*
X141688095Y-102125137D01*
X141688095Y-102125137D02*
X141878571Y-102077518D01*
X141878571Y-102077518D02*
X141973809Y-102029899D01*
X141973809Y-102029899D02*
X142021428Y-101982280D01*
X142021428Y-101982280D02*
X142069047Y-101887042D01*
X142069047Y-101887042D02*
X142069047Y-101791804D01*
X142069047Y-101791804D02*
X142021428Y-101696566D01*
X142021428Y-101696566D02*
X141973809Y-101648947D01*
X141973809Y-101648947D02*
X141878571Y-101601328D01*
X141878571Y-101601328D02*
X141640476Y-101601328D01*
X141640476Y-101601328D02*
X141497619Y-101648947D01*
X141116666Y-101696566D02*
X141069047Y-101648947D01*
X141069047Y-101648947D02*
X140973809Y-101601328D01*
X140973809Y-101601328D02*
X140735714Y-101601328D01*
X140735714Y-101601328D02*
X140640476Y-101648947D01*
X140640476Y-101648947D02*
X140592857Y-101696566D01*
X140592857Y-101696566D02*
X140545238Y-101791804D01*
X140545238Y-101791804D02*
X140545238Y-101887042D01*
X140545238Y-101887042D02*
X140592857Y-102029899D01*
X140592857Y-102029899D02*
X141164285Y-102601328D01*
X141164285Y-102601328D02*
X140545238Y-102601328D01*
X139973809Y-102029899D02*
X140069047Y-101982280D01*
X140069047Y-101982280D02*
X140116666Y-101934661D01*
X140116666Y-101934661D02*
X140164285Y-101839423D01*
X140164285Y-101839423D02*
X140164285Y-101791804D01*
X140164285Y-101791804D02*
X140116666Y-101696566D01*
X140116666Y-101696566D02*
X140069047Y-101648947D01*
X140069047Y-101648947D02*
X139973809Y-101601328D01*
X139973809Y-101601328D02*
X139783333Y-101601328D01*
X139783333Y-101601328D02*
X139688095Y-101648947D01*
X139688095Y-101648947D02*
X139640476Y-101696566D01*
X139640476Y-101696566D02*
X139592857Y-101791804D01*
X139592857Y-101791804D02*
X139592857Y-101839423D01*
X139592857Y-101839423D02*
X139640476Y-101934661D01*
X139640476Y-101934661D02*
X139688095Y-101982280D01*
X139688095Y-101982280D02*
X139783333Y-102029899D01*
X139783333Y-102029899D02*
X139973809Y-102029899D01*
X139973809Y-102029899D02*
X140069047Y-102077518D01*
X140069047Y-102077518D02*
X140116666Y-102125137D01*
X140116666Y-102125137D02*
X140164285Y-102220375D01*
X140164285Y-102220375D02*
X140164285Y-102410851D01*
X140164285Y-102410851D02*
X140116666Y-102506089D01*
X140116666Y-102506089D02*
X140069047Y-102553709D01*
X140069047Y-102553709D02*
X139973809Y-102601328D01*
X139973809Y-102601328D02*
X139783333Y-102601328D01*
X139783333Y-102601328D02*
X139688095Y-102553709D01*
X139688095Y-102553709D02*
X139640476Y-102506089D01*
X139640476Y-102506089D02*
X139592857Y-102410851D01*
X139592857Y-102410851D02*
X139592857Y-102220375D01*
X139592857Y-102220375D02*
X139640476Y-102125137D01*
X139640476Y-102125137D02*
X139688095Y-102077518D01*
X139688095Y-102077518D02*
X139783333Y-102029899D01*
X138640476Y-102601328D02*
X139211904Y-102601328D01*
X138926190Y-102601328D02*
X138926190Y-101601328D01*
X138926190Y-101601328D02*
X139021428Y-101744185D01*
X139021428Y-101744185D02*
X139116666Y-101839423D01*
X139116666Y-101839423D02*
X139211904Y-101887042D01*
X138259523Y-101696566D02*
X138211904Y-101648947D01*
X138211904Y-101648947D02*
X138116666Y-101601328D01*
X138116666Y-101601328D02*
X137878571Y-101601328D01*
X137878571Y-101601328D02*
X137783333Y-101648947D01*
X137783333Y-101648947D02*
X137735714Y-101696566D01*
X137735714Y-101696566D02*
X137688095Y-101791804D01*
X137688095Y-101791804D02*
X137688095Y-101887042D01*
X137688095Y-101887042D02*
X137735714Y-102029899D01*
X137735714Y-102029899D02*
X138307142Y-102601328D01*
X138307142Y-102601328D02*
X137688095Y-102601328D01*
X136926190Y-102077518D02*
X136783333Y-102125137D01*
X136783333Y-102125137D02*
X136735714Y-102172756D01*
X136735714Y-102172756D02*
X136688095Y-102267994D01*
X136688095Y-102267994D02*
X136688095Y-102410851D01*
X136688095Y-102410851D02*
X136735714Y-102506089D01*
X136735714Y-102506089D02*
X136783333Y-102553709D01*
X136783333Y-102553709D02*
X136878571Y-102601328D01*
X136878571Y-102601328D02*
X137259523Y-102601328D01*
X137259523Y-102601328D02*
X137259523Y-101601328D01*
X137259523Y-101601328D02*
X136926190Y-101601328D01*
X136926190Y-101601328D02*
X136830952Y-101648947D01*
X136830952Y-101648947D02*
X136783333Y-101696566D01*
X136783333Y-101696566D02*
X136735714Y-101791804D01*
X136735714Y-101791804D02*
X136735714Y-101887042D01*
X136735714Y-101887042D02*
X136783333Y-101982280D01*
X136783333Y-101982280D02*
X136830952Y-102029899D01*
X136830952Y-102029899D02*
X136926190Y-102077518D01*
X136926190Y-102077518D02*
X137259523Y-102077518D01*
X140921428Y-98508804D02*
X140921428Y-97708804D01*
X140921428Y-97708804D02*
X140730952Y-97708804D01*
X140730952Y-97708804D02*
X140616666Y-97746899D01*
X140616666Y-97746899D02*
X140540476Y-97823089D01*
X140540476Y-97823089D02*
X140502381Y-97899280D01*
X140502381Y-97899280D02*
X140464285Y-98051661D01*
X140464285Y-98051661D02*
X140464285Y-98165947D01*
X140464285Y-98165947D02*
X140502381Y-98318328D01*
X140502381Y-98318328D02*
X140540476Y-98394518D01*
X140540476Y-98394518D02*
X140616666Y-98470709D01*
X140616666Y-98470709D02*
X140730952Y-98508804D01*
X140730952Y-98508804D02*
X140921428Y-98508804D01*
X139702381Y-98508804D02*
X140159524Y-98508804D01*
X139930952Y-98508804D02*
X139930952Y-97708804D01*
X139930952Y-97708804D02*
X140007143Y-97823089D01*
X140007143Y-97823089D02*
X140083333Y-97899280D01*
X140083333Y-97899280D02*
X140159524Y-97937375D01*
X138978571Y-97708804D02*
X139359523Y-97708804D01*
X139359523Y-97708804D02*
X139397619Y-98089756D01*
X139397619Y-98089756D02*
X139359523Y-98051661D01*
X139359523Y-98051661D02*
X139283333Y-98013566D01*
X139283333Y-98013566D02*
X139092857Y-98013566D01*
X139092857Y-98013566D02*
X139016666Y-98051661D01*
X139016666Y-98051661D02*
X138978571Y-98089756D01*
X138978571Y-98089756D02*
X138940476Y-98165947D01*
X138940476Y-98165947D02*
X138940476Y-98356423D01*
X138940476Y-98356423D02*
X138978571Y-98432613D01*
X138978571Y-98432613D02*
X139016666Y-98470709D01*
X139016666Y-98470709D02*
X139092857Y-98508804D01*
X139092857Y-98508804D02*
X139283333Y-98508804D01*
X139283333Y-98508804D02*
X139359523Y-98470709D01*
X139359523Y-98470709D02*
X139397619Y-98432613D01*
X151159523Y-80471328D02*
X150921428Y-81471328D01*
X150921428Y-81471328D02*
X150730952Y-80757042D01*
X150730952Y-80757042D02*
X150540476Y-81471328D01*
X150540476Y-81471328D02*
X150302381Y-80471328D01*
X149969047Y-81423709D02*
X149826190Y-81471328D01*
X149826190Y-81471328D02*
X149588095Y-81471328D01*
X149588095Y-81471328D02*
X149492857Y-81423709D01*
X149492857Y-81423709D02*
X149445238Y-81376089D01*
X149445238Y-81376089D02*
X149397619Y-81280851D01*
X149397619Y-81280851D02*
X149397619Y-81185613D01*
X149397619Y-81185613D02*
X149445238Y-81090375D01*
X149445238Y-81090375D02*
X149492857Y-81042756D01*
X149492857Y-81042756D02*
X149588095Y-80995137D01*
X149588095Y-80995137D02*
X149778571Y-80947518D01*
X149778571Y-80947518D02*
X149873809Y-80899899D01*
X149873809Y-80899899D02*
X149921428Y-80852280D01*
X149921428Y-80852280D02*
X149969047Y-80757042D01*
X149969047Y-80757042D02*
X149969047Y-80661804D01*
X149969047Y-80661804D02*
X149921428Y-80566566D01*
X149921428Y-80566566D02*
X149873809Y-80518947D01*
X149873809Y-80518947D02*
X149778571Y-80471328D01*
X149778571Y-80471328D02*
X149540476Y-80471328D01*
X149540476Y-80471328D02*
X149397619Y-80518947D01*
X149016666Y-80566566D02*
X148969047Y-80518947D01*
X148969047Y-80518947D02*
X148873809Y-80471328D01*
X148873809Y-80471328D02*
X148635714Y-80471328D01*
X148635714Y-80471328D02*
X148540476Y-80518947D01*
X148540476Y-80518947D02*
X148492857Y-80566566D01*
X148492857Y-80566566D02*
X148445238Y-80661804D01*
X148445238Y-80661804D02*
X148445238Y-80757042D01*
X148445238Y-80757042D02*
X148492857Y-80899899D01*
X148492857Y-80899899D02*
X149064285Y-81471328D01*
X149064285Y-81471328D02*
X148445238Y-81471328D01*
X147873809Y-80899899D02*
X147969047Y-80852280D01*
X147969047Y-80852280D02*
X148016666Y-80804661D01*
X148016666Y-80804661D02*
X148064285Y-80709423D01*
X148064285Y-80709423D02*
X148064285Y-80661804D01*
X148064285Y-80661804D02*
X148016666Y-80566566D01*
X148016666Y-80566566D02*
X147969047Y-80518947D01*
X147969047Y-80518947D02*
X147873809Y-80471328D01*
X147873809Y-80471328D02*
X147683333Y-80471328D01*
X147683333Y-80471328D02*
X147588095Y-80518947D01*
X147588095Y-80518947D02*
X147540476Y-80566566D01*
X147540476Y-80566566D02*
X147492857Y-80661804D01*
X147492857Y-80661804D02*
X147492857Y-80709423D01*
X147492857Y-80709423D02*
X147540476Y-80804661D01*
X147540476Y-80804661D02*
X147588095Y-80852280D01*
X147588095Y-80852280D02*
X147683333Y-80899899D01*
X147683333Y-80899899D02*
X147873809Y-80899899D01*
X147873809Y-80899899D02*
X147969047Y-80947518D01*
X147969047Y-80947518D02*
X148016666Y-80995137D01*
X148016666Y-80995137D02*
X148064285Y-81090375D01*
X148064285Y-81090375D02*
X148064285Y-81280851D01*
X148064285Y-81280851D02*
X148016666Y-81376089D01*
X148016666Y-81376089D02*
X147969047Y-81423709D01*
X147969047Y-81423709D02*
X147873809Y-81471328D01*
X147873809Y-81471328D02*
X147683333Y-81471328D01*
X147683333Y-81471328D02*
X147588095Y-81423709D01*
X147588095Y-81423709D02*
X147540476Y-81376089D01*
X147540476Y-81376089D02*
X147492857Y-81280851D01*
X147492857Y-81280851D02*
X147492857Y-81090375D01*
X147492857Y-81090375D02*
X147540476Y-80995137D01*
X147540476Y-80995137D02*
X147588095Y-80947518D01*
X147588095Y-80947518D02*
X147683333Y-80899899D01*
X146540476Y-81471328D02*
X147111904Y-81471328D01*
X146826190Y-81471328D02*
X146826190Y-80471328D01*
X146826190Y-80471328D02*
X146921428Y-80614185D01*
X146921428Y-80614185D02*
X147016666Y-80709423D01*
X147016666Y-80709423D02*
X147111904Y-80757042D01*
X146159523Y-80566566D02*
X146111904Y-80518947D01*
X146111904Y-80518947D02*
X146016666Y-80471328D01*
X146016666Y-80471328D02*
X145778571Y-80471328D01*
X145778571Y-80471328D02*
X145683333Y-80518947D01*
X145683333Y-80518947D02*
X145635714Y-80566566D01*
X145635714Y-80566566D02*
X145588095Y-80661804D01*
X145588095Y-80661804D02*
X145588095Y-80757042D01*
X145588095Y-80757042D02*
X145635714Y-80899899D01*
X145635714Y-80899899D02*
X146207142Y-81471328D01*
X146207142Y-81471328D02*
X145588095Y-81471328D01*
X144826190Y-80947518D02*
X144683333Y-80995137D01*
X144683333Y-80995137D02*
X144635714Y-81042756D01*
X144635714Y-81042756D02*
X144588095Y-81137994D01*
X144588095Y-81137994D02*
X144588095Y-81280851D01*
X144588095Y-81280851D02*
X144635714Y-81376089D01*
X144635714Y-81376089D02*
X144683333Y-81423709D01*
X144683333Y-81423709D02*
X144778571Y-81471328D01*
X144778571Y-81471328D02*
X145159523Y-81471328D01*
X145159523Y-81471328D02*
X145159523Y-80471328D01*
X145159523Y-80471328D02*
X144826190Y-80471328D01*
X144826190Y-80471328D02*
X144730952Y-80518947D01*
X144730952Y-80518947D02*
X144683333Y-80566566D01*
X144683333Y-80566566D02*
X144635714Y-80661804D01*
X144635714Y-80661804D02*
X144635714Y-80757042D01*
X144635714Y-80757042D02*
X144683333Y-80852280D01*
X144683333Y-80852280D02*
X144730952Y-80899899D01*
X144730952Y-80899899D02*
X144826190Y-80947518D01*
X144826190Y-80947518D02*
X145159523Y-80947518D01*
X148440475Y-85378804D02*
X148440475Y-84578804D01*
X148440475Y-84578804D02*
X148249999Y-84578804D01*
X148249999Y-84578804D02*
X148135713Y-84616899D01*
X148135713Y-84616899D02*
X148059523Y-84693089D01*
X148059523Y-84693089D02*
X148021428Y-84769280D01*
X148021428Y-84769280D02*
X147983332Y-84921661D01*
X147983332Y-84921661D02*
X147983332Y-85035947D01*
X147983332Y-85035947D02*
X148021428Y-85188328D01*
X148021428Y-85188328D02*
X148059523Y-85264518D01*
X148059523Y-85264518D02*
X148135713Y-85340709D01*
X148135713Y-85340709D02*
X148249999Y-85378804D01*
X148249999Y-85378804D02*
X148440475Y-85378804D01*
X147297618Y-84845470D02*
X147297618Y-85378804D01*
X147488094Y-84540709D02*
X147678571Y-85112137D01*
X147678571Y-85112137D02*
X147183332Y-85112137D01*
X151159523Y-87091328D02*
X150921428Y-88091328D01*
X150921428Y-88091328D02*
X150730952Y-87377042D01*
X150730952Y-87377042D02*
X150540476Y-88091328D01*
X150540476Y-88091328D02*
X150302381Y-87091328D01*
X149969047Y-88043709D02*
X149826190Y-88091328D01*
X149826190Y-88091328D02*
X149588095Y-88091328D01*
X149588095Y-88091328D02*
X149492857Y-88043709D01*
X149492857Y-88043709D02*
X149445238Y-87996089D01*
X149445238Y-87996089D02*
X149397619Y-87900851D01*
X149397619Y-87900851D02*
X149397619Y-87805613D01*
X149397619Y-87805613D02*
X149445238Y-87710375D01*
X149445238Y-87710375D02*
X149492857Y-87662756D01*
X149492857Y-87662756D02*
X149588095Y-87615137D01*
X149588095Y-87615137D02*
X149778571Y-87567518D01*
X149778571Y-87567518D02*
X149873809Y-87519899D01*
X149873809Y-87519899D02*
X149921428Y-87472280D01*
X149921428Y-87472280D02*
X149969047Y-87377042D01*
X149969047Y-87377042D02*
X149969047Y-87281804D01*
X149969047Y-87281804D02*
X149921428Y-87186566D01*
X149921428Y-87186566D02*
X149873809Y-87138947D01*
X149873809Y-87138947D02*
X149778571Y-87091328D01*
X149778571Y-87091328D02*
X149540476Y-87091328D01*
X149540476Y-87091328D02*
X149397619Y-87138947D01*
X149016666Y-87186566D02*
X148969047Y-87138947D01*
X148969047Y-87138947D02*
X148873809Y-87091328D01*
X148873809Y-87091328D02*
X148635714Y-87091328D01*
X148635714Y-87091328D02*
X148540476Y-87138947D01*
X148540476Y-87138947D02*
X148492857Y-87186566D01*
X148492857Y-87186566D02*
X148445238Y-87281804D01*
X148445238Y-87281804D02*
X148445238Y-87377042D01*
X148445238Y-87377042D02*
X148492857Y-87519899D01*
X148492857Y-87519899D02*
X149064285Y-88091328D01*
X149064285Y-88091328D02*
X148445238Y-88091328D01*
X147873809Y-87519899D02*
X147969047Y-87472280D01*
X147969047Y-87472280D02*
X148016666Y-87424661D01*
X148016666Y-87424661D02*
X148064285Y-87329423D01*
X148064285Y-87329423D02*
X148064285Y-87281804D01*
X148064285Y-87281804D02*
X148016666Y-87186566D01*
X148016666Y-87186566D02*
X147969047Y-87138947D01*
X147969047Y-87138947D02*
X147873809Y-87091328D01*
X147873809Y-87091328D02*
X147683333Y-87091328D01*
X147683333Y-87091328D02*
X147588095Y-87138947D01*
X147588095Y-87138947D02*
X147540476Y-87186566D01*
X147540476Y-87186566D02*
X147492857Y-87281804D01*
X147492857Y-87281804D02*
X147492857Y-87329423D01*
X147492857Y-87329423D02*
X147540476Y-87424661D01*
X147540476Y-87424661D02*
X147588095Y-87472280D01*
X147588095Y-87472280D02*
X147683333Y-87519899D01*
X147683333Y-87519899D02*
X147873809Y-87519899D01*
X147873809Y-87519899D02*
X147969047Y-87567518D01*
X147969047Y-87567518D02*
X148016666Y-87615137D01*
X148016666Y-87615137D02*
X148064285Y-87710375D01*
X148064285Y-87710375D02*
X148064285Y-87900851D01*
X148064285Y-87900851D02*
X148016666Y-87996089D01*
X148016666Y-87996089D02*
X147969047Y-88043709D01*
X147969047Y-88043709D02*
X147873809Y-88091328D01*
X147873809Y-88091328D02*
X147683333Y-88091328D01*
X147683333Y-88091328D02*
X147588095Y-88043709D01*
X147588095Y-88043709D02*
X147540476Y-87996089D01*
X147540476Y-87996089D02*
X147492857Y-87900851D01*
X147492857Y-87900851D02*
X147492857Y-87710375D01*
X147492857Y-87710375D02*
X147540476Y-87615137D01*
X147540476Y-87615137D02*
X147588095Y-87567518D01*
X147588095Y-87567518D02*
X147683333Y-87519899D01*
X146540476Y-88091328D02*
X147111904Y-88091328D01*
X146826190Y-88091328D02*
X146826190Y-87091328D01*
X146826190Y-87091328D02*
X146921428Y-87234185D01*
X146921428Y-87234185D02*
X147016666Y-87329423D01*
X147016666Y-87329423D02*
X147111904Y-87377042D01*
X146159523Y-87186566D02*
X146111904Y-87138947D01*
X146111904Y-87138947D02*
X146016666Y-87091328D01*
X146016666Y-87091328D02*
X145778571Y-87091328D01*
X145778571Y-87091328D02*
X145683333Y-87138947D01*
X145683333Y-87138947D02*
X145635714Y-87186566D01*
X145635714Y-87186566D02*
X145588095Y-87281804D01*
X145588095Y-87281804D02*
X145588095Y-87377042D01*
X145588095Y-87377042D02*
X145635714Y-87519899D01*
X145635714Y-87519899D02*
X146207142Y-88091328D01*
X146207142Y-88091328D02*
X145588095Y-88091328D01*
X144826190Y-87567518D02*
X144683333Y-87615137D01*
X144683333Y-87615137D02*
X144635714Y-87662756D01*
X144635714Y-87662756D02*
X144588095Y-87757994D01*
X144588095Y-87757994D02*
X144588095Y-87900851D01*
X144588095Y-87900851D02*
X144635714Y-87996089D01*
X144635714Y-87996089D02*
X144683333Y-88043709D01*
X144683333Y-88043709D02*
X144778571Y-88091328D01*
X144778571Y-88091328D02*
X145159523Y-88091328D01*
X145159523Y-88091328D02*
X145159523Y-87091328D01*
X145159523Y-87091328D02*
X144826190Y-87091328D01*
X144826190Y-87091328D02*
X144730952Y-87138947D01*
X144730952Y-87138947D02*
X144683333Y-87186566D01*
X144683333Y-87186566D02*
X144635714Y-87281804D01*
X144635714Y-87281804D02*
X144635714Y-87377042D01*
X144635714Y-87377042D02*
X144683333Y-87472280D01*
X144683333Y-87472280D02*
X144730952Y-87519899D01*
X144730952Y-87519899D02*
X144826190Y-87567518D01*
X144826190Y-87567518D02*
X145159523Y-87567518D01*
X148440475Y-91998804D02*
X148440475Y-91198804D01*
X148440475Y-91198804D02*
X148249999Y-91198804D01*
X148249999Y-91198804D02*
X148135713Y-91236899D01*
X148135713Y-91236899D02*
X148059523Y-91313089D01*
X148059523Y-91313089D02*
X148021428Y-91389280D01*
X148021428Y-91389280D02*
X147983332Y-91541661D01*
X147983332Y-91541661D02*
X147983332Y-91655947D01*
X147983332Y-91655947D02*
X148021428Y-91808328D01*
X148021428Y-91808328D02*
X148059523Y-91884518D01*
X148059523Y-91884518D02*
X148135713Y-91960709D01*
X148135713Y-91960709D02*
X148249999Y-91998804D01*
X148249999Y-91998804D02*
X148440475Y-91998804D01*
X147716666Y-91198804D02*
X147221428Y-91198804D01*
X147221428Y-91198804D02*
X147488094Y-91503566D01*
X147488094Y-91503566D02*
X147373809Y-91503566D01*
X147373809Y-91503566D02*
X147297618Y-91541661D01*
X147297618Y-91541661D02*
X147259523Y-91579756D01*
X147259523Y-91579756D02*
X147221428Y-91655947D01*
X147221428Y-91655947D02*
X147221428Y-91846423D01*
X147221428Y-91846423D02*
X147259523Y-91922613D01*
X147259523Y-91922613D02*
X147297618Y-91960709D01*
X147297618Y-91960709D02*
X147373809Y-91998804D01*
X147373809Y-91998804D02*
X147602380Y-91998804D01*
X147602380Y-91998804D02*
X147678571Y-91960709D01*
X147678571Y-91960709D02*
X147716666Y-91922613D01*
X151159523Y-93711328D02*
X150921428Y-94711328D01*
X150921428Y-94711328D02*
X150730952Y-93997042D01*
X150730952Y-93997042D02*
X150540476Y-94711328D01*
X150540476Y-94711328D02*
X150302381Y-93711328D01*
X149969047Y-94663709D02*
X149826190Y-94711328D01*
X149826190Y-94711328D02*
X149588095Y-94711328D01*
X149588095Y-94711328D02*
X149492857Y-94663709D01*
X149492857Y-94663709D02*
X149445238Y-94616089D01*
X149445238Y-94616089D02*
X149397619Y-94520851D01*
X149397619Y-94520851D02*
X149397619Y-94425613D01*
X149397619Y-94425613D02*
X149445238Y-94330375D01*
X149445238Y-94330375D02*
X149492857Y-94282756D01*
X149492857Y-94282756D02*
X149588095Y-94235137D01*
X149588095Y-94235137D02*
X149778571Y-94187518D01*
X149778571Y-94187518D02*
X149873809Y-94139899D01*
X149873809Y-94139899D02*
X149921428Y-94092280D01*
X149921428Y-94092280D02*
X149969047Y-93997042D01*
X149969047Y-93997042D02*
X149969047Y-93901804D01*
X149969047Y-93901804D02*
X149921428Y-93806566D01*
X149921428Y-93806566D02*
X149873809Y-93758947D01*
X149873809Y-93758947D02*
X149778571Y-93711328D01*
X149778571Y-93711328D02*
X149540476Y-93711328D01*
X149540476Y-93711328D02*
X149397619Y-93758947D01*
X149016666Y-93806566D02*
X148969047Y-93758947D01*
X148969047Y-93758947D02*
X148873809Y-93711328D01*
X148873809Y-93711328D02*
X148635714Y-93711328D01*
X148635714Y-93711328D02*
X148540476Y-93758947D01*
X148540476Y-93758947D02*
X148492857Y-93806566D01*
X148492857Y-93806566D02*
X148445238Y-93901804D01*
X148445238Y-93901804D02*
X148445238Y-93997042D01*
X148445238Y-93997042D02*
X148492857Y-94139899D01*
X148492857Y-94139899D02*
X149064285Y-94711328D01*
X149064285Y-94711328D02*
X148445238Y-94711328D01*
X147873809Y-94139899D02*
X147969047Y-94092280D01*
X147969047Y-94092280D02*
X148016666Y-94044661D01*
X148016666Y-94044661D02*
X148064285Y-93949423D01*
X148064285Y-93949423D02*
X148064285Y-93901804D01*
X148064285Y-93901804D02*
X148016666Y-93806566D01*
X148016666Y-93806566D02*
X147969047Y-93758947D01*
X147969047Y-93758947D02*
X147873809Y-93711328D01*
X147873809Y-93711328D02*
X147683333Y-93711328D01*
X147683333Y-93711328D02*
X147588095Y-93758947D01*
X147588095Y-93758947D02*
X147540476Y-93806566D01*
X147540476Y-93806566D02*
X147492857Y-93901804D01*
X147492857Y-93901804D02*
X147492857Y-93949423D01*
X147492857Y-93949423D02*
X147540476Y-94044661D01*
X147540476Y-94044661D02*
X147588095Y-94092280D01*
X147588095Y-94092280D02*
X147683333Y-94139899D01*
X147683333Y-94139899D02*
X147873809Y-94139899D01*
X147873809Y-94139899D02*
X147969047Y-94187518D01*
X147969047Y-94187518D02*
X148016666Y-94235137D01*
X148016666Y-94235137D02*
X148064285Y-94330375D01*
X148064285Y-94330375D02*
X148064285Y-94520851D01*
X148064285Y-94520851D02*
X148016666Y-94616089D01*
X148016666Y-94616089D02*
X147969047Y-94663709D01*
X147969047Y-94663709D02*
X147873809Y-94711328D01*
X147873809Y-94711328D02*
X147683333Y-94711328D01*
X147683333Y-94711328D02*
X147588095Y-94663709D01*
X147588095Y-94663709D02*
X147540476Y-94616089D01*
X147540476Y-94616089D02*
X147492857Y-94520851D01*
X147492857Y-94520851D02*
X147492857Y-94330375D01*
X147492857Y-94330375D02*
X147540476Y-94235137D01*
X147540476Y-94235137D02*
X147588095Y-94187518D01*
X147588095Y-94187518D02*
X147683333Y-94139899D01*
X146540476Y-94711328D02*
X147111904Y-94711328D01*
X146826190Y-94711328D02*
X146826190Y-93711328D01*
X146826190Y-93711328D02*
X146921428Y-93854185D01*
X146921428Y-93854185D02*
X147016666Y-93949423D01*
X147016666Y-93949423D02*
X147111904Y-93997042D01*
X146159523Y-93806566D02*
X146111904Y-93758947D01*
X146111904Y-93758947D02*
X146016666Y-93711328D01*
X146016666Y-93711328D02*
X145778571Y-93711328D01*
X145778571Y-93711328D02*
X145683333Y-93758947D01*
X145683333Y-93758947D02*
X145635714Y-93806566D01*
X145635714Y-93806566D02*
X145588095Y-93901804D01*
X145588095Y-93901804D02*
X145588095Y-93997042D01*
X145588095Y-93997042D02*
X145635714Y-94139899D01*
X145635714Y-94139899D02*
X146207142Y-94711328D01*
X146207142Y-94711328D02*
X145588095Y-94711328D01*
X144826190Y-94187518D02*
X144683333Y-94235137D01*
X144683333Y-94235137D02*
X144635714Y-94282756D01*
X144635714Y-94282756D02*
X144588095Y-94377994D01*
X144588095Y-94377994D02*
X144588095Y-94520851D01*
X144588095Y-94520851D02*
X144635714Y-94616089D01*
X144635714Y-94616089D02*
X144683333Y-94663709D01*
X144683333Y-94663709D02*
X144778571Y-94711328D01*
X144778571Y-94711328D02*
X145159523Y-94711328D01*
X145159523Y-94711328D02*
X145159523Y-93711328D01*
X145159523Y-93711328D02*
X144826190Y-93711328D01*
X144826190Y-93711328D02*
X144730952Y-93758947D01*
X144730952Y-93758947D02*
X144683333Y-93806566D01*
X144683333Y-93806566D02*
X144635714Y-93901804D01*
X144635714Y-93901804D02*
X144635714Y-93997042D01*
X144635714Y-93997042D02*
X144683333Y-94092280D01*
X144683333Y-94092280D02*
X144730952Y-94139899D01*
X144730952Y-94139899D02*
X144826190Y-94187518D01*
X144826190Y-94187518D02*
X145159523Y-94187518D01*
X148440475Y-98618804D02*
X148440475Y-97818804D01*
X148440475Y-97818804D02*
X148249999Y-97818804D01*
X148249999Y-97818804D02*
X148135713Y-97856899D01*
X148135713Y-97856899D02*
X148059523Y-97933089D01*
X148059523Y-97933089D02*
X148021428Y-98009280D01*
X148021428Y-98009280D02*
X147983332Y-98161661D01*
X147983332Y-98161661D02*
X147983332Y-98275947D01*
X147983332Y-98275947D02*
X148021428Y-98428328D01*
X148021428Y-98428328D02*
X148059523Y-98504518D01*
X148059523Y-98504518D02*
X148135713Y-98580709D01*
X148135713Y-98580709D02*
X148249999Y-98618804D01*
X148249999Y-98618804D02*
X148440475Y-98618804D01*
X147678571Y-97894994D02*
X147640475Y-97856899D01*
X147640475Y-97856899D02*
X147564285Y-97818804D01*
X147564285Y-97818804D02*
X147373809Y-97818804D01*
X147373809Y-97818804D02*
X147297618Y-97856899D01*
X147297618Y-97856899D02*
X147259523Y-97894994D01*
X147259523Y-97894994D02*
X147221428Y-97971185D01*
X147221428Y-97971185D02*
X147221428Y-98047375D01*
X147221428Y-98047375D02*
X147259523Y-98161661D01*
X147259523Y-98161661D02*
X147716666Y-98618804D01*
X147716666Y-98618804D02*
X147221428Y-98618804D01*
X151159523Y-100331328D02*
X150921428Y-101331328D01*
X150921428Y-101331328D02*
X150730952Y-100617042D01*
X150730952Y-100617042D02*
X150540476Y-101331328D01*
X150540476Y-101331328D02*
X150302381Y-100331328D01*
X149969047Y-101283709D02*
X149826190Y-101331328D01*
X149826190Y-101331328D02*
X149588095Y-101331328D01*
X149588095Y-101331328D02*
X149492857Y-101283709D01*
X149492857Y-101283709D02*
X149445238Y-101236089D01*
X149445238Y-101236089D02*
X149397619Y-101140851D01*
X149397619Y-101140851D02*
X149397619Y-101045613D01*
X149397619Y-101045613D02*
X149445238Y-100950375D01*
X149445238Y-100950375D02*
X149492857Y-100902756D01*
X149492857Y-100902756D02*
X149588095Y-100855137D01*
X149588095Y-100855137D02*
X149778571Y-100807518D01*
X149778571Y-100807518D02*
X149873809Y-100759899D01*
X149873809Y-100759899D02*
X149921428Y-100712280D01*
X149921428Y-100712280D02*
X149969047Y-100617042D01*
X149969047Y-100617042D02*
X149969047Y-100521804D01*
X149969047Y-100521804D02*
X149921428Y-100426566D01*
X149921428Y-100426566D02*
X149873809Y-100378947D01*
X149873809Y-100378947D02*
X149778571Y-100331328D01*
X149778571Y-100331328D02*
X149540476Y-100331328D01*
X149540476Y-100331328D02*
X149397619Y-100378947D01*
X149016666Y-100426566D02*
X148969047Y-100378947D01*
X148969047Y-100378947D02*
X148873809Y-100331328D01*
X148873809Y-100331328D02*
X148635714Y-100331328D01*
X148635714Y-100331328D02*
X148540476Y-100378947D01*
X148540476Y-100378947D02*
X148492857Y-100426566D01*
X148492857Y-100426566D02*
X148445238Y-100521804D01*
X148445238Y-100521804D02*
X148445238Y-100617042D01*
X148445238Y-100617042D02*
X148492857Y-100759899D01*
X148492857Y-100759899D02*
X149064285Y-101331328D01*
X149064285Y-101331328D02*
X148445238Y-101331328D01*
X147873809Y-100759899D02*
X147969047Y-100712280D01*
X147969047Y-100712280D02*
X148016666Y-100664661D01*
X148016666Y-100664661D02*
X148064285Y-100569423D01*
X148064285Y-100569423D02*
X148064285Y-100521804D01*
X148064285Y-100521804D02*
X148016666Y-100426566D01*
X148016666Y-100426566D02*
X147969047Y-100378947D01*
X147969047Y-100378947D02*
X147873809Y-100331328D01*
X147873809Y-100331328D02*
X147683333Y-100331328D01*
X147683333Y-100331328D02*
X147588095Y-100378947D01*
X147588095Y-100378947D02*
X147540476Y-100426566D01*
X147540476Y-100426566D02*
X147492857Y-100521804D01*
X147492857Y-100521804D02*
X147492857Y-100569423D01*
X147492857Y-100569423D02*
X147540476Y-100664661D01*
X147540476Y-100664661D02*
X147588095Y-100712280D01*
X147588095Y-100712280D02*
X147683333Y-100759899D01*
X147683333Y-100759899D02*
X147873809Y-100759899D01*
X147873809Y-100759899D02*
X147969047Y-100807518D01*
X147969047Y-100807518D02*
X148016666Y-100855137D01*
X148016666Y-100855137D02*
X148064285Y-100950375D01*
X148064285Y-100950375D02*
X148064285Y-101140851D01*
X148064285Y-101140851D02*
X148016666Y-101236089D01*
X148016666Y-101236089D02*
X147969047Y-101283709D01*
X147969047Y-101283709D02*
X147873809Y-101331328D01*
X147873809Y-101331328D02*
X147683333Y-101331328D01*
X147683333Y-101331328D02*
X147588095Y-101283709D01*
X147588095Y-101283709D02*
X147540476Y-101236089D01*
X147540476Y-101236089D02*
X147492857Y-101140851D01*
X147492857Y-101140851D02*
X147492857Y-100950375D01*
X147492857Y-100950375D02*
X147540476Y-100855137D01*
X147540476Y-100855137D02*
X147588095Y-100807518D01*
X147588095Y-100807518D02*
X147683333Y-100759899D01*
X146540476Y-101331328D02*
X147111904Y-101331328D01*
X146826190Y-101331328D02*
X146826190Y-100331328D01*
X146826190Y-100331328D02*
X146921428Y-100474185D01*
X146921428Y-100474185D02*
X147016666Y-100569423D01*
X147016666Y-100569423D02*
X147111904Y-100617042D01*
X146159523Y-100426566D02*
X146111904Y-100378947D01*
X146111904Y-100378947D02*
X146016666Y-100331328D01*
X146016666Y-100331328D02*
X145778571Y-100331328D01*
X145778571Y-100331328D02*
X145683333Y-100378947D01*
X145683333Y-100378947D02*
X145635714Y-100426566D01*
X145635714Y-100426566D02*
X145588095Y-100521804D01*
X145588095Y-100521804D02*
X145588095Y-100617042D01*
X145588095Y-100617042D02*
X145635714Y-100759899D01*
X145635714Y-100759899D02*
X146207142Y-101331328D01*
X146207142Y-101331328D02*
X145588095Y-101331328D01*
X144826190Y-100807518D02*
X144683333Y-100855137D01*
X144683333Y-100855137D02*
X144635714Y-100902756D01*
X144635714Y-100902756D02*
X144588095Y-100997994D01*
X144588095Y-100997994D02*
X144588095Y-101140851D01*
X144588095Y-101140851D02*
X144635714Y-101236089D01*
X144635714Y-101236089D02*
X144683333Y-101283709D01*
X144683333Y-101283709D02*
X144778571Y-101331328D01*
X144778571Y-101331328D02*
X145159523Y-101331328D01*
X145159523Y-101331328D02*
X145159523Y-100331328D01*
X145159523Y-100331328D02*
X144826190Y-100331328D01*
X144826190Y-100331328D02*
X144730952Y-100378947D01*
X144730952Y-100378947D02*
X144683333Y-100426566D01*
X144683333Y-100426566D02*
X144635714Y-100521804D01*
X144635714Y-100521804D02*
X144635714Y-100617042D01*
X144635714Y-100617042D02*
X144683333Y-100712280D01*
X144683333Y-100712280D02*
X144730952Y-100759899D01*
X144730952Y-100759899D02*
X144826190Y-100807518D01*
X144826190Y-100807518D02*
X145159523Y-100807518D01*
X148440475Y-105238804D02*
X148440475Y-104438804D01*
X148440475Y-104438804D02*
X148249999Y-104438804D01*
X148249999Y-104438804D02*
X148135713Y-104476899D01*
X148135713Y-104476899D02*
X148059523Y-104553089D01*
X148059523Y-104553089D02*
X148021428Y-104629280D01*
X148021428Y-104629280D02*
X147983332Y-104781661D01*
X147983332Y-104781661D02*
X147983332Y-104895947D01*
X147983332Y-104895947D02*
X148021428Y-105048328D01*
X148021428Y-105048328D02*
X148059523Y-105124518D01*
X148059523Y-105124518D02*
X148135713Y-105200709D01*
X148135713Y-105200709D02*
X148249999Y-105238804D01*
X148249999Y-105238804D02*
X148440475Y-105238804D01*
X147221428Y-105238804D02*
X147678571Y-105238804D01*
X147449999Y-105238804D02*
X147449999Y-104438804D01*
X147449999Y-104438804D02*
X147526190Y-104553089D01*
X147526190Y-104553089D02*
X147602380Y-104629280D01*
X147602380Y-104629280D02*
X147678571Y-104667375D01*
X151159523Y-61111328D02*
X150921428Y-62111328D01*
X150921428Y-62111328D02*
X150730952Y-61397042D01*
X150730952Y-61397042D02*
X150540476Y-62111328D01*
X150540476Y-62111328D02*
X150302381Y-61111328D01*
X149969047Y-62063709D02*
X149826190Y-62111328D01*
X149826190Y-62111328D02*
X149588095Y-62111328D01*
X149588095Y-62111328D02*
X149492857Y-62063709D01*
X149492857Y-62063709D02*
X149445238Y-62016089D01*
X149445238Y-62016089D02*
X149397619Y-61920851D01*
X149397619Y-61920851D02*
X149397619Y-61825613D01*
X149397619Y-61825613D02*
X149445238Y-61730375D01*
X149445238Y-61730375D02*
X149492857Y-61682756D01*
X149492857Y-61682756D02*
X149588095Y-61635137D01*
X149588095Y-61635137D02*
X149778571Y-61587518D01*
X149778571Y-61587518D02*
X149873809Y-61539899D01*
X149873809Y-61539899D02*
X149921428Y-61492280D01*
X149921428Y-61492280D02*
X149969047Y-61397042D01*
X149969047Y-61397042D02*
X149969047Y-61301804D01*
X149969047Y-61301804D02*
X149921428Y-61206566D01*
X149921428Y-61206566D02*
X149873809Y-61158947D01*
X149873809Y-61158947D02*
X149778571Y-61111328D01*
X149778571Y-61111328D02*
X149540476Y-61111328D01*
X149540476Y-61111328D02*
X149397619Y-61158947D01*
X149016666Y-61206566D02*
X148969047Y-61158947D01*
X148969047Y-61158947D02*
X148873809Y-61111328D01*
X148873809Y-61111328D02*
X148635714Y-61111328D01*
X148635714Y-61111328D02*
X148540476Y-61158947D01*
X148540476Y-61158947D02*
X148492857Y-61206566D01*
X148492857Y-61206566D02*
X148445238Y-61301804D01*
X148445238Y-61301804D02*
X148445238Y-61397042D01*
X148445238Y-61397042D02*
X148492857Y-61539899D01*
X148492857Y-61539899D02*
X149064285Y-62111328D01*
X149064285Y-62111328D02*
X148445238Y-62111328D01*
X147873809Y-61539899D02*
X147969047Y-61492280D01*
X147969047Y-61492280D02*
X148016666Y-61444661D01*
X148016666Y-61444661D02*
X148064285Y-61349423D01*
X148064285Y-61349423D02*
X148064285Y-61301804D01*
X148064285Y-61301804D02*
X148016666Y-61206566D01*
X148016666Y-61206566D02*
X147969047Y-61158947D01*
X147969047Y-61158947D02*
X147873809Y-61111328D01*
X147873809Y-61111328D02*
X147683333Y-61111328D01*
X147683333Y-61111328D02*
X147588095Y-61158947D01*
X147588095Y-61158947D02*
X147540476Y-61206566D01*
X147540476Y-61206566D02*
X147492857Y-61301804D01*
X147492857Y-61301804D02*
X147492857Y-61349423D01*
X147492857Y-61349423D02*
X147540476Y-61444661D01*
X147540476Y-61444661D02*
X147588095Y-61492280D01*
X147588095Y-61492280D02*
X147683333Y-61539899D01*
X147683333Y-61539899D02*
X147873809Y-61539899D01*
X147873809Y-61539899D02*
X147969047Y-61587518D01*
X147969047Y-61587518D02*
X148016666Y-61635137D01*
X148016666Y-61635137D02*
X148064285Y-61730375D01*
X148064285Y-61730375D02*
X148064285Y-61920851D01*
X148064285Y-61920851D02*
X148016666Y-62016089D01*
X148016666Y-62016089D02*
X147969047Y-62063709D01*
X147969047Y-62063709D02*
X147873809Y-62111328D01*
X147873809Y-62111328D02*
X147683333Y-62111328D01*
X147683333Y-62111328D02*
X147588095Y-62063709D01*
X147588095Y-62063709D02*
X147540476Y-62016089D01*
X147540476Y-62016089D02*
X147492857Y-61920851D01*
X147492857Y-61920851D02*
X147492857Y-61730375D01*
X147492857Y-61730375D02*
X147540476Y-61635137D01*
X147540476Y-61635137D02*
X147588095Y-61587518D01*
X147588095Y-61587518D02*
X147683333Y-61539899D01*
X146540476Y-62111328D02*
X147111904Y-62111328D01*
X146826190Y-62111328D02*
X146826190Y-61111328D01*
X146826190Y-61111328D02*
X146921428Y-61254185D01*
X146921428Y-61254185D02*
X147016666Y-61349423D01*
X147016666Y-61349423D02*
X147111904Y-61397042D01*
X146159523Y-61206566D02*
X146111904Y-61158947D01*
X146111904Y-61158947D02*
X146016666Y-61111328D01*
X146016666Y-61111328D02*
X145778571Y-61111328D01*
X145778571Y-61111328D02*
X145683333Y-61158947D01*
X145683333Y-61158947D02*
X145635714Y-61206566D01*
X145635714Y-61206566D02*
X145588095Y-61301804D01*
X145588095Y-61301804D02*
X145588095Y-61397042D01*
X145588095Y-61397042D02*
X145635714Y-61539899D01*
X145635714Y-61539899D02*
X146207142Y-62111328D01*
X146207142Y-62111328D02*
X145588095Y-62111328D01*
X144826190Y-61587518D02*
X144683333Y-61635137D01*
X144683333Y-61635137D02*
X144635714Y-61682756D01*
X144635714Y-61682756D02*
X144588095Y-61777994D01*
X144588095Y-61777994D02*
X144588095Y-61920851D01*
X144588095Y-61920851D02*
X144635714Y-62016089D01*
X144635714Y-62016089D02*
X144683333Y-62063709D01*
X144683333Y-62063709D02*
X144778571Y-62111328D01*
X144778571Y-62111328D02*
X145159523Y-62111328D01*
X145159523Y-62111328D02*
X145159523Y-61111328D01*
X145159523Y-61111328D02*
X144826190Y-61111328D01*
X144826190Y-61111328D02*
X144730952Y-61158947D01*
X144730952Y-61158947D02*
X144683333Y-61206566D01*
X144683333Y-61206566D02*
X144635714Y-61301804D01*
X144635714Y-61301804D02*
X144635714Y-61397042D01*
X144635714Y-61397042D02*
X144683333Y-61492280D01*
X144683333Y-61492280D02*
X144730952Y-61539899D01*
X144730952Y-61539899D02*
X144826190Y-61587518D01*
X144826190Y-61587518D02*
X145159523Y-61587518D01*
X148440475Y-66018804D02*
X148440475Y-65218804D01*
X148440475Y-65218804D02*
X148249999Y-65218804D01*
X148249999Y-65218804D02*
X148135713Y-65256899D01*
X148135713Y-65256899D02*
X148059523Y-65333089D01*
X148059523Y-65333089D02*
X148021428Y-65409280D01*
X148021428Y-65409280D02*
X147983332Y-65561661D01*
X147983332Y-65561661D02*
X147983332Y-65675947D01*
X147983332Y-65675947D02*
X148021428Y-65828328D01*
X148021428Y-65828328D02*
X148059523Y-65904518D01*
X148059523Y-65904518D02*
X148135713Y-65980709D01*
X148135713Y-65980709D02*
X148249999Y-66018804D01*
X148249999Y-66018804D02*
X148440475Y-66018804D01*
X147716666Y-65218804D02*
X147183332Y-65218804D01*
X147183332Y-65218804D02*
X147526190Y-66018804D01*
X151159523Y-54491328D02*
X150921428Y-55491328D01*
X150921428Y-55491328D02*
X150730952Y-54777042D01*
X150730952Y-54777042D02*
X150540476Y-55491328D01*
X150540476Y-55491328D02*
X150302381Y-54491328D01*
X149969047Y-55443709D02*
X149826190Y-55491328D01*
X149826190Y-55491328D02*
X149588095Y-55491328D01*
X149588095Y-55491328D02*
X149492857Y-55443709D01*
X149492857Y-55443709D02*
X149445238Y-55396089D01*
X149445238Y-55396089D02*
X149397619Y-55300851D01*
X149397619Y-55300851D02*
X149397619Y-55205613D01*
X149397619Y-55205613D02*
X149445238Y-55110375D01*
X149445238Y-55110375D02*
X149492857Y-55062756D01*
X149492857Y-55062756D02*
X149588095Y-55015137D01*
X149588095Y-55015137D02*
X149778571Y-54967518D01*
X149778571Y-54967518D02*
X149873809Y-54919899D01*
X149873809Y-54919899D02*
X149921428Y-54872280D01*
X149921428Y-54872280D02*
X149969047Y-54777042D01*
X149969047Y-54777042D02*
X149969047Y-54681804D01*
X149969047Y-54681804D02*
X149921428Y-54586566D01*
X149921428Y-54586566D02*
X149873809Y-54538947D01*
X149873809Y-54538947D02*
X149778571Y-54491328D01*
X149778571Y-54491328D02*
X149540476Y-54491328D01*
X149540476Y-54491328D02*
X149397619Y-54538947D01*
X149016666Y-54586566D02*
X148969047Y-54538947D01*
X148969047Y-54538947D02*
X148873809Y-54491328D01*
X148873809Y-54491328D02*
X148635714Y-54491328D01*
X148635714Y-54491328D02*
X148540476Y-54538947D01*
X148540476Y-54538947D02*
X148492857Y-54586566D01*
X148492857Y-54586566D02*
X148445238Y-54681804D01*
X148445238Y-54681804D02*
X148445238Y-54777042D01*
X148445238Y-54777042D02*
X148492857Y-54919899D01*
X148492857Y-54919899D02*
X149064285Y-55491328D01*
X149064285Y-55491328D02*
X148445238Y-55491328D01*
X147873809Y-54919899D02*
X147969047Y-54872280D01*
X147969047Y-54872280D02*
X148016666Y-54824661D01*
X148016666Y-54824661D02*
X148064285Y-54729423D01*
X148064285Y-54729423D02*
X148064285Y-54681804D01*
X148064285Y-54681804D02*
X148016666Y-54586566D01*
X148016666Y-54586566D02*
X147969047Y-54538947D01*
X147969047Y-54538947D02*
X147873809Y-54491328D01*
X147873809Y-54491328D02*
X147683333Y-54491328D01*
X147683333Y-54491328D02*
X147588095Y-54538947D01*
X147588095Y-54538947D02*
X147540476Y-54586566D01*
X147540476Y-54586566D02*
X147492857Y-54681804D01*
X147492857Y-54681804D02*
X147492857Y-54729423D01*
X147492857Y-54729423D02*
X147540476Y-54824661D01*
X147540476Y-54824661D02*
X147588095Y-54872280D01*
X147588095Y-54872280D02*
X147683333Y-54919899D01*
X147683333Y-54919899D02*
X147873809Y-54919899D01*
X147873809Y-54919899D02*
X147969047Y-54967518D01*
X147969047Y-54967518D02*
X148016666Y-55015137D01*
X148016666Y-55015137D02*
X148064285Y-55110375D01*
X148064285Y-55110375D02*
X148064285Y-55300851D01*
X148064285Y-55300851D02*
X148016666Y-55396089D01*
X148016666Y-55396089D02*
X147969047Y-55443709D01*
X147969047Y-55443709D02*
X147873809Y-55491328D01*
X147873809Y-55491328D02*
X147683333Y-55491328D01*
X147683333Y-55491328D02*
X147588095Y-55443709D01*
X147588095Y-55443709D02*
X147540476Y-55396089D01*
X147540476Y-55396089D02*
X147492857Y-55300851D01*
X147492857Y-55300851D02*
X147492857Y-55110375D01*
X147492857Y-55110375D02*
X147540476Y-55015137D01*
X147540476Y-55015137D02*
X147588095Y-54967518D01*
X147588095Y-54967518D02*
X147683333Y-54919899D01*
X146540476Y-55491328D02*
X147111904Y-55491328D01*
X146826190Y-55491328D02*
X146826190Y-54491328D01*
X146826190Y-54491328D02*
X146921428Y-54634185D01*
X146921428Y-54634185D02*
X147016666Y-54729423D01*
X147016666Y-54729423D02*
X147111904Y-54777042D01*
X146159523Y-54586566D02*
X146111904Y-54538947D01*
X146111904Y-54538947D02*
X146016666Y-54491328D01*
X146016666Y-54491328D02*
X145778571Y-54491328D01*
X145778571Y-54491328D02*
X145683333Y-54538947D01*
X145683333Y-54538947D02*
X145635714Y-54586566D01*
X145635714Y-54586566D02*
X145588095Y-54681804D01*
X145588095Y-54681804D02*
X145588095Y-54777042D01*
X145588095Y-54777042D02*
X145635714Y-54919899D01*
X145635714Y-54919899D02*
X146207142Y-55491328D01*
X146207142Y-55491328D02*
X145588095Y-55491328D01*
X144826190Y-54967518D02*
X144683333Y-55015137D01*
X144683333Y-55015137D02*
X144635714Y-55062756D01*
X144635714Y-55062756D02*
X144588095Y-55157994D01*
X144588095Y-55157994D02*
X144588095Y-55300851D01*
X144588095Y-55300851D02*
X144635714Y-55396089D01*
X144635714Y-55396089D02*
X144683333Y-55443709D01*
X144683333Y-55443709D02*
X144778571Y-55491328D01*
X144778571Y-55491328D02*
X145159523Y-55491328D01*
X145159523Y-55491328D02*
X145159523Y-54491328D01*
X145159523Y-54491328D02*
X144826190Y-54491328D01*
X144826190Y-54491328D02*
X144730952Y-54538947D01*
X144730952Y-54538947D02*
X144683333Y-54586566D01*
X144683333Y-54586566D02*
X144635714Y-54681804D01*
X144635714Y-54681804D02*
X144635714Y-54777042D01*
X144635714Y-54777042D02*
X144683333Y-54872280D01*
X144683333Y-54872280D02*
X144730952Y-54919899D01*
X144730952Y-54919899D02*
X144826190Y-54967518D01*
X144826190Y-54967518D02*
X145159523Y-54967518D01*
X148440475Y-59398804D02*
X148440475Y-58598804D01*
X148440475Y-58598804D02*
X148249999Y-58598804D01*
X148249999Y-58598804D02*
X148135713Y-58636899D01*
X148135713Y-58636899D02*
X148059523Y-58713089D01*
X148059523Y-58713089D02*
X148021428Y-58789280D01*
X148021428Y-58789280D02*
X147983332Y-58941661D01*
X147983332Y-58941661D02*
X147983332Y-59055947D01*
X147983332Y-59055947D02*
X148021428Y-59208328D01*
X148021428Y-59208328D02*
X148059523Y-59284518D01*
X148059523Y-59284518D02*
X148135713Y-59360709D01*
X148135713Y-59360709D02*
X148249999Y-59398804D01*
X148249999Y-59398804D02*
X148440475Y-59398804D01*
X147526190Y-58941661D02*
X147602380Y-58903566D01*
X147602380Y-58903566D02*
X147640475Y-58865470D01*
X147640475Y-58865470D02*
X147678571Y-58789280D01*
X147678571Y-58789280D02*
X147678571Y-58751185D01*
X147678571Y-58751185D02*
X147640475Y-58674994D01*
X147640475Y-58674994D02*
X147602380Y-58636899D01*
X147602380Y-58636899D02*
X147526190Y-58598804D01*
X147526190Y-58598804D02*
X147373809Y-58598804D01*
X147373809Y-58598804D02*
X147297618Y-58636899D01*
X147297618Y-58636899D02*
X147259523Y-58674994D01*
X147259523Y-58674994D02*
X147221428Y-58751185D01*
X147221428Y-58751185D02*
X147221428Y-58789280D01*
X147221428Y-58789280D02*
X147259523Y-58865470D01*
X147259523Y-58865470D02*
X147297618Y-58903566D01*
X147297618Y-58903566D02*
X147373809Y-58941661D01*
X147373809Y-58941661D02*
X147526190Y-58941661D01*
X147526190Y-58941661D02*
X147602380Y-58979756D01*
X147602380Y-58979756D02*
X147640475Y-59017851D01*
X147640475Y-59017851D02*
X147678571Y-59094042D01*
X147678571Y-59094042D02*
X147678571Y-59246423D01*
X147678571Y-59246423D02*
X147640475Y-59322613D01*
X147640475Y-59322613D02*
X147602380Y-59360709D01*
X147602380Y-59360709D02*
X147526190Y-59398804D01*
X147526190Y-59398804D02*
X147373809Y-59398804D01*
X147373809Y-59398804D02*
X147297618Y-59360709D01*
X147297618Y-59360709D02*
X147259523Y-59322613D01*
X147259523Y-59322613D02*
X147221428Y-59246423D01*
X147221428Y-59246423D02*
X147221428Y-59094042D01*
X147221428Y-59094042D02*
X147259523Y-59017851D01*
X147259523Y-59017851D02*
X147297618Y-58979756D01*
X147297618Y-58979756D02*
X147373809Y-58941661D01*
X151159523Y-67731328D02*
X150921428Y-68731328D01*
X150921428Y-68731328D02*
X150730952Y-68017042D01*
X150730952Y-68017042D02*
X150540476Y-68731328D01*
X150540476Y-68731328D02*
X150302381Y-67731328D01*
X149969047Y-68683709D02*
X149826190Y-68731328D01*
X149826190Y-68731328D02*
X149588095Y-68731328D01*
X149588095Y-68731328D02*
X149492857Y-68683709D01*
X149492857Y-68683709D02*
X149445238Y-68636089D01*
X149445238Y-68636089D02*
X149397619Y-68540851D01*
X149397619Y-68540851D02*
X149397619Y-68445613D01*
X149397619Y-68445613D02*
X149445238Y-68350375D01*
X149445238Y-68350375D02*
X149492857Y-68302756D01*
X149492857Y-68302756D02*
X149588095Y-68255137D01*
X149588095Y-68255137D02*
X149778571Y-68207518D01*
X149778571Y-68207518D02*
X149873809Y-68159899D01*
X149873809Y-68159899D02*
X149921428Y-68112280D01*
X149921428Y-68112280D02*
X149969047Y-68017042D01*
X149969047Y-68017042D02*
X149969047Y-67921804D01*
X149969047Y-67921804D02*
X149921428Y-67826566D01*
X149921428Y-67826566D02*
X149873809Y-67778947D01*
X149873809Y-67778947D02*
X149778571Y-67731328D01*
X149778571Y-67731328D02*
X149540476Y-67731328D01*
X149540476Y-67731328D02*
X149397619Y-67778947D01*
X149016666Y-67826566D02*
X148969047Y-67778947D01*
X148969047Y-67778947D02*
X148873809Y-67731328D01*
X148873809Y-67731328D02*
X148635714Y-67731328D01*
X148635714Y-67731328D02*
X148540476Y-67778947D01*
X148540476Y-67778947D02*
X148492857Y-67826566D01*
X148492857Y-67826566D02*
X148445238Y-67921804D01*
X148445238Y-67921804D02*
X148445238Y-68017042D01*
X148445238Y-68017042D02*
X148492857Y-68159899D01*
X148492857Y-68159899D02*
X149064285Y-68731328D01*
X149064285Y-68731328D02*
X148445238Y-68731328D01*
X147873809Y-68159899D02*
X147969047Y-68112280D01*
X147969047Y-68112280D02*
X148016666Y-68064661D01*
X148016666Y-68064661D02*
X148064285Y-67969423D01*
X148064285Y-67969423D02*
X148064285Y-67921804D01*
X148064285Y-67921804D02*
X148016666Y-67826566D01*
X148016666Y-67826566D02*
X147969047Y-67778947D01*
X147969047Y-67778947D02*
X147873809Y-67731328D01*
X147873809Y-67731328D02*
X147683333Y-67731328D01*
X147683333Y-67731328D02*
X147588095Y-67778947D01*
X147588095Y-67778947D02*
X147540476Y-67826566D01*
X147540476Y-67826566D02*
X147492857Y-67921804D01*
X147492857Y-67921804D02*
X147492857Y-67969423D01*
X147492857Y-67969423D02*
X147540476Y-68064661D01*
X147540476Y-68064661D02*
X147588095Y-68112280D01*
X147588095Y-68112280D02*
X147683333Y-68159899D01*
X147683333Y-68159899D02*
X147873809Y-68159899D01*
X147873809Y-68159899D02*
X147969047Y-68207518D01*
X147969047Y-68207518D02*
X148016666Y-68255137D01*
X148016666Y-68255137D02*
X148064285Y-68350375D01*
X148064285Y-68350375D02*
X148064285Y-68540851D01*
X148064285Y-68540851D02*
X148016666Y-68636089D01*
X148016666Y-68636089D02*
X147969047Y-68683709D01*
X147969047Y-68683709D02*
X147873809Y-68731328D01*
X147873809Y-68731328D02*
X147683333Y-68731328D01*
X147683333Y-68731328D02*
X147588095Y-68683709D01*
X147588095Y-68683709D02*
X147540476Y-68636089D01*
X147540476Y-68636089D02*
X147492857Y-68540851D01*
X147492857Y-68540851D02*
X147492857Y-68350375D01*
X147492857Y-68350375D02*
X147540476Y-68255137D01*
X147540476Y-68255137D02*
X147588095Y-68207518D01*
X147588095Y-68207518D02*
X147683333Y-68159899D01*
X146540476Y-68731328D02*
X147111904Y-68731328D01*
X146826190Y-68731328D02*
X146826190Y-67731328D01*
X146826190Y-67731328D02*
X146921428Y-67874185D01*
X146921428Y-67874185D02*
X147016666Y-67969423D01*
X147016666Y-67969423D02*
X147111904Y-68017042D01*
X146159523Y-67826566D02*
X146111904Y-67778947D01*
X146111904Y-67778947D02*
X146016666Y-67731328D01*
X146016666Y-67731328D02*
X145778571Y-67731328D01*
X145778571Y-67731328D02*
X145683333Y-67778947D01*
X145683333Y-67778947D02*
X145635714Y-67826566D01*
X145635714Y-67826566D02*
X145588095Y-67921804D01*
X145588095Y-67921804D02*
X145588095Y-68017042D01*
X145588095Y-68017042D02*
X145635714Y-68159899D01*
X145635714Y-68159899D02*
X146207142Y-68731328D01*
X146207142Y-68731328D02*
X145588095Y-68731328D01*
X144826190Y-68207518D02*
X144683333Y-68255137D01*
X144683333Y-68255137D02*
X144635714Y-68302756D01*
X144635714Y-68302756D02*
X144588095Y-68397994D01*
X144588095Y-68397994D02*
X144588095Y-68540851D01*
X144588095Y-68540851D02*
X144635714Y-68636089D01*
X144635714Y-68636089D02*
X144683333Y-68683709D01*
X144683333Y-68683709D02*
X144778571Y-68731328D01*
X144778571Y-68731328D02*
X145159523Y-68731328D01*
X145159523Y-68731328D02*
X145159523Y-67731328D01*
X145159523Y-67731328D02*
X144826190Y-67731328D01*
X144826190Y-67731328D02*
X144730952Y-67778947D01*
X144730952Y-67778947D02*
X144683333Y-67826566D01*
X144683333Y-67826566D02*
X144635714Y-67921804D01*
X144635714Y-67921804D02*
X144635714Y-68017042D01*
X144635714Y-68017042D02*
X144683333Y-68112280D01*
X144683333Y-68112280D02*
X144730952Y-68159899D01*
X144730952Y-68159899D02*
X144826190Y-68207518D01*
X144826190Y-68207518D02*
X145159523Y-68207518D01*
X148440475Y-72638804D02*
X148440475Y-71838804D01*
X148440475Y-71838804D02*
X148249999Y-71838804D01*
X148249999Y-71838804D02*
X148135713Y-71876899D01*
X148135713Y-71876899D02*
X148059523Y-71953089D01*
X148059523Y-71953089D02*
X148021428Y-72029280D01*
X148021428Y-72029280D02*
X147983332Y-72181661D01*
X147983332Y-72181661D02*
X147983332Y-72295947D01*
X147983332Y-72295947D02*
X148021428Y-72448328D01*
X148021428Y-72448328D02*
X148059523Y-72524518D01*
X148059523Y-72524518D02*
X148135713Y-72600709D01*
X148135713Y-72600709D02*
X148249999Y-72638804D01*
X148249999Y-72638804D02*
X148440475Y-72638804D01*
X147297618Y-71838804D02*
X147449999Y-71838804D01*
X147449999Y-71838804D02*
X147526190Y-71876899D01*
X147526190Y-71876899D02*
X147564285Y-71914994D01*
X147564285Y-71914994D02*
X147640475Y-72029280D01*
X147640475Y-72029280D02*
X147678571Y-72181661D01*
X147678571Y-72181661D02*
X147678571Y-72486423D01*
X147678571Y-72486423D02*
X147640475Y-72562613D01*
X147640475Y-72562613D02*
X147602380Y-72600709D01*
X147602380Y-72600709D02*
X147526190Y-72638804D01*
X147526190Y-72638804D02*
X147373809Y-72638804D01*
X147373809Y-72638804D02*
X147297618Y-72600709D01*
X147297618Y-72600709D02*
X147259523Y-72562613D01*
X147259523Y-72562613D02*
X147221428Y-72486423D01*
X147221428Y-72486423D02*
X147221428Y-72295947D01*
X147221428Y-72295947D02*
X147259523Y-72219756D01*
X147259523Y-72219756D02*
X147297618Y-72181661D01*
X147297618Y-72181661D02*
X147373809Y-72143566D01*
X147373809Y-72143566D02*
X147526190Y-72143566D01*
X147526190Y-72143566D02*
X147602380Y-72181661D01*
X147602380Y-72181661D02*
X147640475Y-72219756D01*
X147640475Y-72219756D02*
X147678571Y-72295947D01*
X151159523Y-74351328D02*
X150921428Y-75351328D01*
X150921428Y-75351328D02*
X150730952Y-74637042D01*
X150730952Y-74637042D02*
X150540476Y-75351328D01*
X150540476Y-75351328D02*
X150302381Y-74351328D01*
X149969047Y-75303709D02*
X149826190Y-75351328D01*
X149826190Y-75351328D02*
X149588095Y-75351328D01*
X149588095Y-75351328D02*
X149492857Y-75303709D01*
X149492857Y-75303709D02*
X149445238Y-75256089D01*
X149445238Y-75256089D02*
X149397619Y-75160851D01*
X149397619Y-75160851D02*
X149397619Y-75065613D01*
X149397619Y-75065613D02*
X149445238Y-74970375D01*
X149445238Y-74970375D02*
X149492857Y-74922756D01*
X149492857Y-74922756D02*
X149588095Y-74875137D01*
X149588095Y-74875137D02*
X149778571Y-74827518D01*
X149778571Y-74827518D02*
X149873809Y-74779899D01*
X149873809Y-74779899D02*
X149921428Y-74732280D01*
X149921428Y-74732280D02*
X149969047Y-74637042D01*
X149969047Y-74637042D02*
X149969047Y-74541804D01*
X149969047Y-74541804D02*
X149921428Y-74446566D01*
X149921428Y-74446566D02*
X149873809Y-74398947D01*
X149873809Y-74398947D02*
X149778571Y-74351328D01*
X149778571Y-74351328D02*
X149540476Y-74351328D01*
X149540476Y-74351328D02*
X149397619Y-74398947D01*
X149016666Y-74446566D02*
X148969047Y-74398947D01*
X148969047Y-74398947D02*
X148873809Y-74351328D01*
X148873809Y-74351328D02*
X148635714Y-74351328D01*
X148635714Y-74351328D02*
X148540476Y-74398947D01*
X148540476Y-74398947D02*
X148492857Y-74446566D01*
X148492857Y-74446566D02*
X148445238Y-74541804D01*
X148445238Y-74541804D02*
X148445238Y-74637042D01*
X148445238Y-74637042D02*
X148492857Y-74779899D01*
X148492857Y-74779899D02*
X149064285Y-75351328D01*
X149064285Y-75351328D02*
X148445238Y-75351328D01*
X147873809Y-74779899D02*
X147969047Y-74732280D01*
X147969047Y-74732280D02*
X148016666Y-74684661D01*
X148016666Y-74684661D02*
X148064285Y-74589423D01*
X148064285Y-74589423D02*
X148064285Y-74541804D01*
X148064285Y-74541804D02*
X148016666Y-74446566D01*
X148016666Y-74446566D02*
X147969047Y-74398947D01*
X147969047Y-74398947D02*
X147873809Y-74351328D01*
X147873809Y-74351328D02*
X147683333Y-74351328D01*
X147683333Y-74351328D02*
X147588095Y-74398947D01*
X147588095Y-74398947D02*
X147540476Y-74446566D01*
X147540476Y-74446566D02*
X147492857Y-74541804D01*
X147492857Y-74541804D02*
X147492857Y-74589423D01*
X147492857Y-74589423D02*
X147540476Y-74684661D01*
X147540476Y-74684661D02*
X147588095Y-74732280D01*
X147588095Y-74732280D02*
X147683333Y-74779899D01*
X147683333Y-74779899D02*
X147873809Y-74779899D01*
X147873809Y-74779899D02*
X147969047Y-74827518D01*
X147969047Y-74827518D02*
X148016666Y-74875137D01*
X148016666Y-74875137D02*
X148064285Y-74970375D01*
X148064285Y-74970375D02*
X148064285Y-75160851D01*
X148064285Y-75160851D02*
X148016666Y-75256089D01*
X148016666Y-75256089D02*
X147969047Y-75303709D01*
X147969047Y-75303709D02*
X147873809Y-75351328D01*
X147873809Y-75351328D02*
X147683333Y-75351328D01*
X147683333Y-75351328D02*
X147588095Y-75303709D01*
X147588095Y-75303709D02*
X147540476Y-75256089D01*
X147540476Y-75256089D02*
X147492857Y-75160851D01*
X147492857Y-75160851D02*
X147492857Y-74970375D01*
X147492857Y-74970375D02*
X147540476Y-74875137D01*
X147540476Y-74875137D02*
X147588095Y-74827518D01*
X147588095Y-74827518D02*
X147683333Y-74779899D01*
X146540476Y-75351328D02*
X147111904Y-75351328D01*
X146826190Y-75351328D02*
X146826190Y-74351328D01*
X146826190Y-74351328D02*
X146921428Y-74494185D01*
X146921428Y-74494185D02*
X147016666Y-74589423D01*
X147016666Y-74589423D02*
X147111904Y-74637042D01*
X146159523Y-74446566D02*
X146111904Y-74398947D01*
X146111904Y-74398947D02*
X146016666Y-74351328D01*
X146016666Y-74351328D02*
X145778571Y-74351328D01*
X145778571Y-74351328D02*
X145683333Y-74398947D01*
X145683333Y-74398947D02*
X145635714Y-74446566D01*
X145635714Y-74446566D02*
X145588095Y-74541804D01*
X145588095Y-74541804D02*
X145588095Y-74637042D01*
X145588095Y-74637042D02*
X145635714Y-74779899D01*
X145635714Y-74779899D02*
X146207142Y-75351328D01*
X146207142Y-75351328D02*
X145588095Y-75351328D01*
X144826190Y-74827518D02*
X144683333Y-74875137D01*
X144683333Y-74875137D02*
X144635714Y-74922756D01*
X144635714Y-74922756D02*
X144588095Y-75017994D01*
X144588095Y-75017994D02*
X144588095Y-75160851D01*
X144588095Y-75160851D02*
X144635714Y-75256089D01*
X144635714Y-75256089D02*
X144683333Y-75303709D01*
X144683333Y-75303709D02*
X144778571Y-75351328D01*
X144778571Y-75351328D02*
X145159523Y-75351328D01*
X145159523Y-75351328D02*
X145159523Y-74351328D01*
X145159523Y-74351328D02*
X144826190Y-74351328D01*
X144826190Y-74351328D02*
X144730952Y-74398947D01*
X144730952Y-74398947D02*
X144683333Y-74446566D01*
X144683333Y-74446566D02*
X144635714Y-74541804D01*
X144635714Y-74541804D02*
X144635714Y-74637042D01*
X144635714Y-74637042D02*
X144683333Y-74732280D01*
X144683333Y-74732280D02*
X144730952Y-74779899D01*
X144730952Y-74779899D02*
X144826190Y-74827518D01*
X144826190Y-74827518D02*
X145159523Y-74827518D01*
X148440475Y-79258804D02*
X148440475Y-78458804D01*
X148440475Y-78458804D02*
X148249999Y-78458804D01*
X148249999Y-78458804D02*
X148135713Y-78496899D01*
X148135713Y-78496899D02*
X148059523Y-78573089D01*
X148059523Y-78573089D02*
X148021428Y-78649280D01*
X148021428Y-78649280D02*
X147983332Y-78801661D01*
X147983332Y-78801661D02*
X147983332Y-78915947D01*
X147983332Y-78915947D02*
X148021428Y-79068328D01*
X148021428Y-79068328D02*
X148059523Y-79144518D01*
X148059523Y-79144518D02*
X148135713Y-79220709D01*
X148135713Y-79220709D02*
X148249999Y-79258804D01*
X148249999Y-79258804D02*
X148440475Y-79258804D01*
X147259523Y-78458804D02*
X147640475Y-78458804D01*
X147640475Y-78458804D02*
X147678571Y-78839756D01*
X147678571Y-78839756D02*
X147640475Y-78801661D01*
X147640475Y-78801661D02*
X147564285Y-78763566D01*
X147564285Y-78763566D02*
X147373809Y-78763566D01*
X147373809Y-78763566D02*
X147297618Y-78801661D01*
X147297618Y-78801661D02*
X147259523Y-78839756D01*
X147259523Y-78839756D02*
X147221428Y-78915947D01*
X147221428Y-78915947D02*
X147221428Y-79106423D01*
X147221428Y-79106423D02*
X147259523Y-79182613D01*
X147259523Y-79182613D02*
X147297618Y-79220709D01*
X147297618Y-79220709D02*
X147373809Y-79258804D01*
X147373809Y-79258804D02*
X147564285Y-79258804D01*
X147564285Y-79258804D02*
X147640475Y-79220709D01*
X147640475Y-79220709D02*
X147678571Y-79182613D01*
X137434819Y-96358889D02*
X137434819Y-95787461D01*
X137434819Y-96073175D02*
X136434819Y-96073175D01*
X136434819Y-96073175D02*
X136577676Y-95977937D01*
X136577676Y-95977937D02*
X136672914Y-95882699D01*
X136672914Y-95882699D02*
X136720533Y-95787461D01*
X136434819Y-96977937D02*
X136434819Y-97073175D01*
X136434819Y-97073175D02*
X136482438Y-97168413D01*
X136482438Y-97168413D02*
X136530057Y-97216032D01*
X136530057Y-97216032D02*
X136625295Y-97263651D01*
X136625295Y-97263651D02*
X136815771Y-97311270D01*
X136815771Y-97311270D02*
X137053866Y-97311270D01*
X137053866Y-97311270D02*
X137244342Y-97263651D01*
X137244342Y-97263651D02*
X137339580Y-97216032D01*
X137339580Y-97216032D02*
X137387200Y-97168413D01*
X137387200Y-97168413D02*
X137434819Y-97073175D01*
X137434819Y-97073175D02*
X137434819Y-96977937D01*
X137434819Y-96977937D02*
X137387200Y-96882699D01*
X137387200Y-96882699D02*
X137339580Y-96835080D01*
X137339580Y-96835080D02*
X137244342Y-96787461D01*
X137244342Y-96787461D02*
X137053866Y-96739842D01*
X137053866Y-96739842D02*
X136815771Y-96739842D01*
X136815771Y-96739842D02*
X136625295Y-96787461D01*
X136625295Y-96787461D02*
X136530057Y-96835080D01*
X136530057Y-96835080D02*
X136482438Y-96882699D01*
X136482438Y-96882699D02*
X136434819Y-96977937D01*
X136434819Y-97930318D02*
X136434819Y-98025556D01*
X136434819Y-98025556D02*
X136482438Y-98120794D01*
X136482438Y-98120794D02*
X136530057Y-98168413D01*
X136530057Y-98168413D02*
X136625295Y-98216032D01*
X136625295Y-98216032D02*
X136815771Y-98263651D01*
X136815771Y-98263651D02*
X137053866Y-98263651D01*
X137053866Y-98263651D02*
X137244342Y-98216032D01*
X137244342Y-98216032D02*
X137339580Y-98168413D01*
X137339580Y-98168413D02*
X137387200Y-98120794D01*
X137387200Y-98120794D02*
X137434819Y-98025556D01*
X137434819Y-98025556D02*
X137434819Y-97930318D01*
X137434819Y-97930318D02*
X137387200Y-97835080D01*
X137387200Y-97835080D02*
X137339580Y-97787461D01*
X137339580Y-97787461D02*
X137244342Y-97739842D01*
X137244342Y-97739842D02*
X137053866Y-97692223D01*
X137053866Y-97692223D02*
X136815771Y-97692223D01*
X136815771Y-97692223D02*
X136625295Y-97739842D01*
X136625295Y-97739842D02*
X136530057Y-97787461D01*
X136530057Y-97787461D02*
X136482438Y-97835080D01*
X136482438Y-97835080D02*
X136434819Y-97930318D01*
X136768152Y-98692223D02*
X137434819Y-98692223D01*
X136863390Y-98692223D02*
X136815771Y-98739842D01*
X136815771Y-98739842D02*
X136768152Y-98835080D01*
X136768152Y-98835080D02*
X136768152Y-98977937D01*
X136768152Y-98977937D02*
X136815771Y-99073175D01*
X136815771Y-99073175D02*
X136911009Y-99120794D01*
X136911009Y-99120794D02*
X137434819Y-99120794D01*
X136911009Y-99930318D02*
X136911009Y-99596985D01*
X137434819Y-99596985D02*
X136434819Y-99596985D01*
X136434819Y-99596985D02*
X136434819Y-100073175D01*
D11*
X135693832Y-97649366D02*
X135712880Y-97630318D01*
X135712880Y-97630318D02*
X135731927Y-97573176D01*
X135731927Y-97573176D02*
X135731927Y-97535080D01*
X135731927Y-97535080D02*
X135712880Y-97477937D01*
X135712880Y-97477937D02*
X135674784Y-97439842D01*
X135674784Y-97439842D02*
X135636689Y-97420795D01*
X135636689Y-97420795D02*
X135560499Y-97401747D01*
X135560499Y-97401747D02*
X135503356Y-97401747D01*
X135503356Y-97401747D02*
X135427165Y-97420795D01*
X135427165Y-97420795D02*
X135389070Y-97439842D01*
X135389070Y-97439842D02*
X135350975Y-97477937D01*
X135350975Y-97477937D02*
X135331927Y-97535080D01*
X135331927Y-97535080D02*
X135331927Y-97573176D01*
X135331927Y-97573176D02*
X135350975Y-97630318D01*
X135350975Y-97630318D02*
X135370022Y-97649366D01*
X135331927Y-97782699D02*
X135331927Y-98030318D01*
X135331927Y-98030318D02*
X135484308Y-97896985D01*
X135484308Y-97896985D02*
X135484308Y-97954128D01*
X135484308Y-97954128D02*
X135503356Y-97992223D01*
X135503356Y-97992223D02*
X135522403Y-98011271D01*
X135522403Y-98011271D02*
X135560499Y-98030318D01*
X135560499Y-98030318D02*
X135655737Y-98030318D01*
X135655737Y-98030318D02*
X135693832Y-98011271D01*
X135693832Y-98011271D02*
X135712880Y-97992223D01*
X135712880Y-97992223D02*
X135731927Y-97954128D01*
X135731927Y-97954128D02*
X135731927Y-97839842D01*
X135731927Y-97839842D02*
X135712880Y-97801747D01*
X135712880Y-97801747D02*
X135693832Y-97782699D01*
X135331927Y-98373175D02*
X135331927Y-98296985D01*
X135331927Y-98296985D02*
X135350975Y-98258889D01*
X135350975Y-98258889D02*
X135370022Y-98239842D01*
X135370022Y-98239842D02*
X135427165Y-98201747D01*
X135427165Y-98201747D02*
X135503356Y-98182699D01*
X135503356Y-98182699D02*
X135655737Y-98182699D01*
X135655737Y-98182699D02*
X135693832Y-98201747D01*
X135693832Y-98201747D02*
X135712880Y-98220794D01*
X135712880Y-98220794D02*
X135731927Y-98258889D01*
X135731927Y-98258889D02*
X135731927Y-98335080D01*
X135731927Y-98335080D02*
X135712880Y-98373175D01*
X135712880Y-98373175D02*
X135693832Y-98392223D01*
X135693832Y-98392223D02*
X135655737Y-98411270D01*
X135655737Y-98411270D02*
X135560499Y-98411270D01*
X135560499Y-98411270D02*
X135522403Y-98392223D01*
X135522403Y-98392223D02*
X135503356Y-98373175D01*
X135503356Y-98373175D02*
X135484308Y-98335080D01*
X135484308Y-98335080D02*
X135484308Y-98258889D01*
X135484308Y-98258889D02*
X135503356Y-98220794D01*
X135503356Y-98220794D02*
X135522403Y-98201747D01*
X135522403Y-98201747D02*
X135560499Y-98182699D01*
D10*
X151274819Y-57408889D02*
X151274819Y-56837461D01*
X151274819Y-57123175D02*
X150274819Y-57123175D01*
X150274819Y-57123175D02*
X150417676Y-57027937D01*
X150417676Y-57027937D02*
X150512914Y-56932699D01*
X150512914Y-56932699D02*
X150560533Y-56837461D01*
X150274819Y-58027937D02*
X150274819Y-58123175D01*
X150274819Y-58123175D02*
X150322438Y-58218413D01*
X150322438Y-58218413D02*
X150370057Y-58266032D01*
X150370057Y-58266032D02*
X150465295Y-58313651D01*
X150465295Y-58313651D02*
X150655771Y-58361270D01*
X150655771Y-58361270D02*
X150893866Y-58361270D01*
X150893866Y-58361270D02*
X151084342Y-58313651D01*
X151084342Y-58313651D02*
X151179580Y-58266032D01*
X151179580Y-58266032D02*
X151227200Y-58218413D01*
X151227200Y-58218413D02*
X151274819Y-58123175D01*
X151274819Y-58123175D02*
X151274819Y-58027937D01*
X151274819Y-58027937D02*
X151227200Y-57932699D01*
X151227200Y-57932699D02*
X151179580Y-57885080D01*
X151179580Y-57885080D02*
X151084342Y-57837461D01*
X151084342Y-57837461D02*
X150893866Y-57789842D01*
X150893866Y-57789842D02*
X150655771Y-57789842D01*
X150655771Y-57789842D02*
X150465295Y-57837461D01*
X150465295Y-57837461D02*
X150370057Y-57885080D01*
X150370057Y-57885080D02*
X150322438Y-57932699D01*
X150322438Y-57932699D02*
X150274819Y-58027937D01*
X150274819Y-58980318D02*
X150274819Y-59075556D01*
X150274819Y-59075556D02*
X150322438Y-59170794D01*
X150322438Y-59170794D02*
X150370057Y-59218413D01*
X150370057Y-59218413D02*
X150465295Y-59266032D01*
X150465295Y-59266032D02*
X150655771Y-59313651D01*
X150655771Y-59313651D02*
X150893866Y-59313651D01*
X150893866Y-59313651D02*
X151084342Y-59266032D01*
X151084342Y-59266032D02*
X151179580Y-59218413D01*
X151179580Y-59218413D02*
X151227200Y-59170794D01*
X151227200Y-59170794D02*
X151274819Y-59075556D01*
X151274819Y-59075556D02*
X151274819Y-58980318D01*
X151274819Y-58980318D02*
X151227200Y-58885080D01*
X151227200Y-58885080D02*
X151179580Y-58837461D01*
X151179580Y-58837461D02*
X151084342Y-58789842D01*
X151084342Y-58789842D02*
X150893866Y-58742223D01*
X150893866Y-58742223D02*
X150655771Y-58742223D01*
X150655771Y-58742223D02*
X150465295Y-58789842D01*
X150465295Y-58789842D02*
X150370057Y-58837461D01*
X150370057Y-58837461D02*
X150322438Y-58885080D01*
X150322438Y-58885080D02*
X150274819Y-58980318D01*
X150608152Y-59742223D02*
X151274819Y-59742223D01*
X150703390Y-59742223D02*
X150655771Y-59789842D01*
X150655771Y-59789842D02*
X150608152Y-59885080D01*
X150608152Y-59885080D02*
X150608152Y-60027937D01*
X150608152Y-60027937D02*
X150655771Y-60123175D01*
X150655771Y-60123175D02*
X150751009Y-60170794D01*
X150751009Y-60170794D02*
X151274819Y-60170794D01*
X150751009Y-60980318D02*
X150751009Y-60646985D01*
X151274819Y-60646985D02*
X150274819Y-60646985D01*
X150274819Y-60646985D02*
X150274819Y-61123175D01*
D11*
X152393832Y-58889842D02*
X152412880Y-58870794D01*
X152412880Y-58870794D02*
X152431927Y-58813652D01*
X152431927Y-58813652D02*
X152431927Y-58775556D01*
X152431927Y-58775556D02*
X152412880Y-58718413D01*
X152412880Y-58718413D02*
X152374784Y-58680318D01*
X152374784Y-58680318D02*
X152336689Y-58661271D01*
X152336689Y-58661271D02*
X152260499Y-58642223D01*
X152260499Y-58642223D02*
X152203356Y-58642223D01*
X152203356Y-58642223D02*
X152127165Y-58661271D01*
X152127165Y-58661271D02*
X152089070Y-58680318D01*
X152089070Y-58680318D02*
X152050975Y-58718413D01*
X152050975Y-58718413D02*
X152031927Y-58775556D01*
X152031927Y-58775556D02*
X152031927Y-58813652D01*
X152031927Y-58813652D02*
X152050975Y-58870794D01*
X152050975Y-58870794D02*
X152070022Y-58889842D01*
X152070022Y-59042223D02*
X152050975Y-59061271D01*
X152050975Y-59061271D02*
X152031927Y-59099366D01*
X152031927Y-59099366D02*
X152031927Y-59194604D01*
X152031927Y-59194604D02*
X152050975Y-59232699D01*
X152050975Y-59232699D02*
X152070022Y-59251747D01*
X152070022Y-59251747D02*
X152108118Y-59270794D01*
X152108118Y-59270794D02*
X152146213Y-59270794D01*
X152146213Y-59270794D02*
X152203356Y-59251747D01*
X152203356Y-59251747D02*
X152431927Y-59023175D01*
X152431927Y-59023175D02*
X152431927Y-59270794D01*
D10*
X137434819Y-83208889D02*
X137434819Y-82637461D01*
X137434819Y-82923175D02*
X136434819Y-82923175D01*
X136434819Y-82923175D02*
X136577676Y-82827937D01*
X136577676Y-82827937D02*
X136672914Y-82732699D01*
X136672914Y-82732699D02*
X136720533Y-82637461D01*
X136434819Y-83827937D02*
X136434819Y-83923175D01*
X136434819Y-83923175D02*
X136482438Y-84018413D01*
X136482438Y-84018413D02*
X136530057Y-84066032D01*
X136530057Y-84066032D02*
X136625295Y-84113651D01*
X136625295Y-84113651D02*
X136815771Y-84161270D01*
X136815771Y-84161270D02*
X137053866Y-84161270D01*
X137053866Y-84161270D02*
X137244342Y-84113651D01*
X137244342Y-84113651D02*
X137339580Y-84066032D01*
X137339580Y-84066032D02*
X137387200Y-84018413D01*
X137387200Y-84018413D02*
X137434819Y-83923175D01*
X137434819Y-83923175D02*
X137434819Y-83827937D01*
X137434819Y-83827937D02*
X137387200Y-83732699D01*
X137387200Y-83732699D02*
X137339580Y-83685080D01*
X137339580Y-83685080D02*
X137244342Y-83637461D01*
X137244342Y-83637461D02*
X137053866Y-83589842D01*
X137053866Y-83589842D02*
X136815771Y-83589842D01*
X136815771Y-83589842D02*
X136625295Y-83637461D01*
X136625295Y-83637461D02*
X136530057Y-83685080D01*
X136530057Y-83685080D02*
X136482438Y-83732699D01*
X136482438Y-83732699D02*
X136434819Y-83827937D01*
X136434819Y-84780318D02*
X136434819Y-84875556D01*
X136434819Y-84875556D02*
X136482438Y-84970794D01*
X136482438Y-84970794D02*
X136530057Y-85018413D01*
X136530057Y-85018413D02*
X136625295Y-85066032D01*
X136625295Y-85066032D02*
X136815771Y-85113651D01*
X136815771Y-85113651D02*
X137053866Y-85113651D01*
X137053866Y-85113651D02*
X137244342Y-85066032D01*
X137244342Y-85066032D02*
X137339580Y-85018413D01*
X137339580Y-85018413D02*
X137387200Y-84970794D01*
X137387200Y-84970794D02*
X137434819Y-84875556D01*
X137434819Y-84875556D02*
X137434819Y-84780318D01*
X137434819Y-84780318D02*
X137387200Y-84685080D01*
X137387200Y-84685080D02*
X137339580Y-84637461D01*
X137339580Y-84637461D02*
X137244342Y-84589842D01*
X137244342Y-84589842D02*
X137053866Y-84542223D01*
X137053866Y-84542223D02*
X136815771Y-84542223D01*
X136815771Y-84542223D02*
X136625295Y-84589842D01*
X136625295Y-84589842D02*
X136530057Y-84637461D01*
X136530057Y-84637461D02*
X136482438Y-84685080D01*
X136482438Y-84685080D02*
X136434819Y-84780318D01*
X136768152Y-85542223D02*
X137434819Y-85542223D01*
X136863390Y-85542223D02*
X136815771Y-85589842D01*
X136815771Y-85589842D02*
X136768152Y-85685080D01*
X136768152Y-85685080D02*
X136768152Y-85827937D01*
X136768152Y-85827937D02*
X136815771Y-85923175D01*
X136815771Y-85923175D02*
X136911009Y-85970794D01*
X136911009Y-85970794D02*
X137434819Y-85970794D01*
X136911009Y-86780318D02*
X136911009Y-86446985D01*
X137434819Y-86446985D02*
X136434819Y-86446985D01*
X136434819Y-86446985D02*
X136434819Y-86923175D01*
D11*
X135693832Y-84499366D02*
X135712880Y-84480318D01*
X135712880Y-84480318D02*
X135731927Y-84423176D01*
X135731927Y-84423176D02*
X135731927Y-84385080D01*
X135731927Y-84385080D02*
X135712880Y-84327937D01*
X135712880Y-84327937D02*
X135674784Y-84289842D01*
X135674784Y-84289842D02*
X135636689Y-84270795D01*
X135636689Y-84270795D02*
X135560499Y-84251747D01*
X135560499Y-84251747D02*
X135503356Y-84251747D01*
X135503356Y-84251747D02*
X135427165Y-84270795D01*
X135427165Y-84270795D02*
X135389070Y-84289842D01*
X135389070Y-84289842D02*
X135350975Y-84327937D01*
X135350975Y-84327937D02*
X135331927Y-84385080D01*
X135331927Y-84385080D02*
X135331927Y-84423176D01*
X135331927Y-84423176D02*
X135350975Y-84480318D01*
X135350975Y-84480318D02*
X135370022Y-84499366D01*
X135331927Y-84632699D02*
X135331927Y-84880318D01*
X135331927Y-84880318D02*
X135484308Y-84746985D01*
X135484308Y-84746985D02*
X135484308Y-84804128D01*
X135484308Y-84804128D02*
X135503356Y-84842223D01*
X135503356Y-84842223D02*
X135522403Y-84861271D01*
X135522403Y-84861271D02*
X135560499Y-84880318D01*
X135560499Y-84880318D02*
X135655737Y-84880318D01*
X135655737Y-84880318D02*
X135693832Y-84861271D01*
X135693832Y-84861271D02*
X135712880Y-84842223D01*
X135712880Y-84842223D02*
X135731927Y-84804128D01*
X135731927Y-84804128D02*
X135731927Y-84689842D01*
X135731927Y-84689842D02*
X135712880Y-84651747D01*
X135712880Y-84651747D02*
X135693832Y-84632699D01*
X135465260Y-85223175D02*
X135731927Y-85223175D01*
X135312880Y-85127937D02*
X135598594Y-85032699D01*
X135598594Y-85032699D02*
X135598594Y-85280318D01*
D10*
X151224819Y-96758889D02*
X151224819Y-96187461D01*
X151224819Y-96473175D02*
X150224819Y-96473175D01*
X150224819Y-96473175D02*
X150367676Y-96377937D01*
X150367676Y-96377937D02*
X150462914Y-96282699D01*
X150462914Y-96282699D02*
X150510533Y-96187461D01*
X150224819Y-97377937D02*
X150224819Y-97473175D01*
X150224819Y-97473175D02*
X150272438Y-97568413D01*
X150272438Y-97568413D02*
X150320057Y-97616032D01*
X150320057Y-97616032D02*
X150415295Y-97663651D01*
X150415295Y-97663651D02*
X150605771Y-97711270D01*
X150605771Y-97711270D02*
X150843866Y-97711270D01*
X150843866Y-97711270D02*
X151034342Y-97663651D01*
X151034342Y-97663651D02*
X151129580Y-97616032D01*
X151129580Y-97616032D02*
X151177200Y-97568413D01*
X151177200Y-97568413D02*
X151224819Y-97473175D01*
X151224819Y-97473175D02*
X151224819Y-97377937D01*
X151224819Y-97377937D02*
X151177200Y-97282699D01*
X151177200Y-97282699D02*
X151129580Y-97235080D01*
X151129580Y-97235080D02*
X151034342Y-97187461D01*
X151034342Y-97187461D02*
X150843866Y-97139842D01*
X150843866Y-97139842D02*
X150605771Y-97139842D01*
X150605771Y-97139842D02*
X150415295Y-97187461D01*
X150415295Y-97187461D02*
X150320057Y-97235080D01*
X150320057Y-97235080D02*
X150272438Y-97282699D01*
X150272438Y-97282699D02*
X150224819Y-97377937D01*
X150224819Y-98330318D02*
X150224819Y-98425556D01*
X150224819Y-98425556D02*
X150272438Y-98520794D01*
X150272438Y-98520794D02*
X150320057Y-98568413D01*
X150320057Y-98568413D02*
X150415295Y-98616032D01*
X150415295Y-98616032D02*
X150605771Y-98663651D01*
X150605771Y-98663651D02*
X150843866Y-98663651D01*
X150843866Y-98663651D02*
X151034342Y-98616032D01*
X151034342Y-98616032D02*
X151129580Y-98568413D01*
X151129580Y-98568413D02*
X151177200Y-98520794D01*
X151177200Y-98520794D02*
X151224819Y-98425556D01*
X151224819Y-98425556D02*
X151224819Y-98330318D01*
X151224819Y-98330318D02*
X151177200Y-98235080D01*
X151177200Y-98235080D02*
X151129580Y-98187461D01*
X151129580Y-98187461D02*
X151034342Y-98139842D01*
X151034342Y-98139842D02*
X150843866Y-98092223D01*
X150843866Y-98092223D02*
X150605771Y-98092223D01*
X150605771Y-98092223D02*
X150415295Y-98139842D01*
X150415295Y-98139842D02*
X150320057Y-98187461D01*
X150320057Y-98187461D02*
X150272438Y-98235080D01*
X150272438Y-98235080D02*
X150224819Y-98330318D01*
X150558152Y-99092223D02*
X151224819Y-99092223D01*
X150653390Y-99092223D02*
X150605771Y-99139842D01*
X150605771Y-99139842D02*
X150558152Y-99235080D01*
X150558152Y-99235080D02*
X150558152Y-99377937D01*
X150558152Y-99377937D02*
X150605771Y-99473175D01*
X150605771Y-99473175D02*
X150701009Y-99520794D01*
X150701009Y-99520794D02*
X151224819Y-99520794D01*
X150701009Y-100330318D02*
X150701009Y-99996985D01*
X151224819Y-99996985D02*
X150224819Y-99996985D01*
X150224819Y-99996985D02*
X150224819Y-100473175D01*
D11*
X152343832Y-98049366D02*
X152362880Y-98030318D01*
X152362880Y-98030318D02*
X152381927Y-97973176D01*
X152381927Y-97973176D02*
X152381927Y-97935080D01*
X152381927Y-97935080D02*
X152362880Y-97877937D01*
X152362880Y-97877937D02*
X152324784Y-97839842D01*
X152324784Y-97839842D02*
X152286689Y-97820795D01*
X152286689Y-97820795D02*
X152210499Y-97801747D01*
X152210499Y-97801747D02*
X152153356Y-97801747D01*
X152153356Y-97801747D02*
X152077165Y-97820795D01*
X152077165Y-97820795D02*
X152039070Y-97839842D01*
X152039070Y-97839842D02*
X152000975Y-97877937D01*
X152000975Y-97877937D02*
X151981927Y-97935080D01*
X151981927Y-97935080D02*
X151981927Y-97973176D01*
X151981927Y-97973176D02*
X152000975Y-98030318D01*
X152000975Y-98030318D02*
X152020022Y-98049366D01*
X152020022Y-98201747D02*
X152000975Y-98220795D01*
X152000975Y-98220795D02*
X151981927Y-98258890D01*
X151981927Y-98258890D02*
X151981927Y-98354128D01*
X151981927Y-98354128D02*
X152000975Y-98392223D01*
X152000975Y-98392223D02*
X152020022Y-98411271D01*
X152020022Y-98411271D02*
X152058118Y-98430318D01*
X152058118Y-98430318D02*
X152096213Y-98430318D01*
X152096213Y-98430318D02*
X152153356Y-98411271D01*
X152153356Y-98411271D02*
X152381927Y-98182699D01*
X152381927Y-98182699D02*
X152381927Y-98430318D01*
X152115260Y-98773175D02*
X152381927Y-98773175D01*
X151962880Y-98677937D02*
X152248594Y-98582699D01*
X152248594Y-98582699D02*
X152248594Y-98830318D01*
D10*
X151274819Y-90058889D02*
X151274819Y-89487461D01*
X151274819Y-89773175D02*
X150274819Y-89773175D01*
X150274819Y-89773175D02*
X150417676Y-89677937D01*
X150417676Y-89677937D02*
X150512914Y-89582699D01*
X150512914Y-89582699D02*
X150560533Y-89487461D01*
X150274819Y-90677937D02*
X150274819Y-90773175D01*
X150274819Y-90773175D02*
X150322438Y-90868413D01*
X150322438Y-90868413D02*
X150370057Y-90916032D01*
X150370057Y-90916032D02*
X150465295Y-90963651D01*
X150465295Y-90963651D02*
X150655771Y-91011270D01*
X150655771Y-91011270D02*
X150893866Y-91011270D01*
X150893866Y-91011270D02*
X151084342Y-90963651D01*
X151084342Y-90963651D02*
X151179580Y-90916032D01*
X151179580Y-90916032D02*
X151227200Y-90868413D01*
X151227200Y-90868413D02*
X151274819Y-90773175D01*
X151274819Y-90773175D02*
X151274819Y-90677937D01*
X151274819Y-90677937D02*
X151227200Y-90582699D01*
X151227200Y-90582699D02*
X151179580Y-90535080D01*
X151179580Y-90535080D02*
X151084342Y-90487461D01*
X151084342Y-90487461D02*
X150893866Y-90439842D01*
X150893866Y-90439842D02*
X150655771Y-90439842D01*
X150655771Y-90439842D02*
X150465295Y-90487461D01*
X150465295Y-90487461D02*
X150370057Y-90535080D01*
X150370057Y-90535080D02*
X150322438Y-90582699D01*
X150322438Y-90582699D02*
X150274819Y-90677937D01*
X150274819Y-91630318D02*
X150274819Y-91725556D01*
X150274819Y-91725556D02*
X150322438Y-91820794D01*
X150322438Y-91820794D02*
X150370057Y-91868413D01*
X150370057Y-91868413D02*
X150465295Y-91916032D01*
X150465295Y-91916032D02*
X150655771Y-91963651D01*
X150655771Y-91963651D02*
X150893866Y-91963651D01*
X150893866Y-91963651D02*
X151084342Y-91916032D01*
X151084342Y-91916032D02*
X151179580Y-91868413D01*
X151179580Y-91868413D02*
X151227200Y-91820794D01*
X151227200Y-91820794D02*
X151274819Y-91725556D01*
X151274819Y-91725556D02*
X151274819Y-91630318D01*
X151274819Y-91630318D02*
X151227200Y-91535080D01*
X151227200Y-91535080D02*
X151179580Y-91487461D01*
X151179580Y-91487461D02*
X151084342Y-91439842D01*
X151084342Y-91439842D02*
X150893866Y-91392223D01*
X150893866Y-91392223D02*
X150655771Y-91392223D01*
X150655771Y-91392223D02*
X150465295Y-91439842D01*
X150465295Y-91439842D02*
X150370057Y-91487461D01*
X150370057Y-91487461D02*
X150322438Y-91535080D01*
X150322438Y-91535080D02*
X150274819Y-91630318D01*
X150608152Y-92392223D02*
X151274819Y-92392223D01*
X150703390Y-92392223D02*
X150655771Y-92439842D01*
X150655771Y-92439842D02*
X150608152Y-92535080D01*
X150608152Y-92535080D02*
X150608152Y-92677937D01*
X150608152Y-92677937D02*
X150655771Y-92773175D01*
X150655771Y-92773175D02*
X150751009Y-92820794D01*
X150751009Y-92820794D02*
X151274819Y-92820794D01*
X150751009Y-93630318D02*
X150751009Y-93296985D01*
X151274819Y-93296985D02*
X150274819Y-93296985D01*
X150274819Y-93296985D02*
X150274819Y-93773175D01*
D11*
X152393832Y-91349366D02*
X152412880Y-91330318D01*
X152412880Y-91330318D02*
X152431927Y-91273176D01*
X152431927Y-91273176D02*
X152431927Y-91235080D01*
X152431927Y-91235080D02*
X152412880Y-91177937D01*
X152412880Y-91177937D02*
X152374784Y-91139842D01*
X152374784Y-91139842D02*
X152336689Y-91120795D01*
X152336689Y-91120795D02*
X152260499Y-91101747D01*
X152260499Y-91101747D02*
X152203356Y-91101747D01*
X152203356Y-91101747D02*
X152127165Y-91120795D01*
X152127165Y-91120795D02*
X152089070Y-91139842D01*
X152089070Y-91139842D02*
X152050975Y-91177937D01*
X152050975Y-91177937D02*
X152031927Y-91235080D01*
X152031927Y-91235080D02*
X152031927Y-91273176D01*
X152031927Y-91273176D02*
X152050975Y-91330318D01*
X152050975Y-91330318D02*
X152070022Y-91349366D01*
X152070022Y-91501747D02*
X152050975Y-91520795D01*
X152050975Y-91520795D02*
X152031927Y-91558890D01*
X152031927Y-91558890D02*
X152031927Y-91654128D01*
X152031927Y-91654128D02*
X152050975Y-91692223D01*
X152050975Y-91692223D02*
X152070022Y-91711271D01*
X152070022Y-91711271D02*
X152108118Y-91730318D01*
X152108118Y-91730318D02*
X152146213Y-91730318D01*
X152146213Y-91730318D02*
X152203356Y-91711271D01*
X152203356Y-91711271D02*
X152431927Y-91482699D01*
X152431927Y-91482699D02*
X152431927Y-91730318D01*
X152031927Y-92092223D02*
X152031927Y-91901747D01*
X152031927Y-91901747D02*
X152222403Y-91882699D01*
X152222403Y-91882699D02*
X152203356Y-91901747D01*
X152203356Y-91901747D02*
X152184308Y-91939842D01*
X152184308Y-91939842D02*
X152184308Y-92035080D01*
X152184308Y-92035080D02*
X152203356Y-92073175D01*
X152203356Y-92073175D02*
X152222403Y-92092223D01*
X152222403Y-92092223D02*
X152260499Y-92111270D01*
X152260499Y-92111270D02*
X152355737Y-92111270D01*
X152355737Y-92111270D02*
X152393832Y-92092223D01*
X152393832Y-92092223D02*
X152412880Y-92073175D01*
X152412880Y-92073175D02*
X152431927Y-92035080D01*
X152431927Y-92035080D02*
X152431927Y-91939842D01*
X152431927Y-91939842D02*
X152412880Y-91901747D01*
X152412880Y-91901747D02*
X152393832Y-91882699D01*
D10*
X137384819Y-70608889D02*
X137384819Y-70037461D01*
X137384819Y-70323175D02*
X136384819Y-70323175D01*
X136384819Y-70323175D02*
X136527676Y-70227937D01*
X136527676Y-70227937D02*
X136622914Y-70132699D01*
X136622914Y-70132699D02*
X136670533Y-70037461D01*
X136384819Y-71227937D02*
X136384819Y-71323175D01*
X136384819Y-71323175D02*
X136432438Y-71418413D01*
X136432438Y-71418413D02*
X136480057Y-71466032D01*
X136480057Y-71466032D02*
X136575295Y-71513651D01*
X136575295Y-71513651D02*
X136765771Y-71561270D01*
X136765771Y-71561270D02*
X137003866Y-71561270D01*
X137003866Y-71561270D02*
X137194342Y-71513651D01*
X137194342Y-71513651D02*
X137289580Y-71466032D01*
X137289580Y-71466032D02*
X137337200Y-71418413D01*
X137337200Y-71418413D02*
X137384819Y-71323175D01*
X137384819Y-71323175D02*
X137384819Y-71227937D01*
X137384819Y-71227937D02*
X137337200Y-71132699D01*
X137337200Y-71132699D02*
X137289580Y-71085080D01*
X137289580Y-71085080D02*
X137194342Y-71037461D01*
X137194342Y-71037461D02*
X137003866Y-70989842D01*
X137003866Y-70989842D02*
X136765771Y-70989842D01*
X136765771Y-70989842D02*
X136575295Y-71037461D01*
X136575295Y-71037461D02*
X136480057Y-71085080D01*
X136480057Y-71085080D02*
X136432438Y-71132699D01*
X136432438Y-71132699D02*
X136384819Y-71227937D01*
X136384819Y-72180318D02*
X136384819Y-72275556D01*
X136384819Y-72275556D02*
X136432438Y-72370794D01*
X136432438Y-72370794D02*
X136480057Y-72418413D01*
X136480057Y-72418413D02*
X136575295Y-72466032D01*
X136575295Y-72466032D02*
X136765771Y-72513651D01*
X136765771Y-72513651D02*
X137003866Y-72513651D01*
X137003866Y-72513651D02*
X137194342Y-72466032D01*
X137194342Y-72466032D02*
X137289580Y-72418413D01*
X137289580Y-72418413D02*
X137337200Y-72370794D01*
X137337200Y-72370794D02*
X137384819Y-72275556D01*
X137384819Y-72275556D02*
X137384819Y-72180318D01*
X137384819Y-72180318D02*
X137337200Y-72085080D01*
X137337200Y-72085080D02*
X137289580Y-72037461D01*
X137289580Y-72037461D02*
X137194342Y-71989842D01*
X137194342Y-71989842D02*
X137003866Y-71942223D01*
X137003866Y-71942223D02*
X136765771Y-71942223D01*
X136765771Y-71942223D02*
X136575295Y-71989842D01*
X136575295Y-71989842D02*
X136480057Y-72037461D01*
X136480057Y-72037461D02*
X136432438Y-72085080D01*
X136432438Y-72085080D02*
X136384819Y-72180318D01*
X136718152Y-72942223D02*
X137384819Y-72942223D01*
X136813390Y-72942223D02*
X136765771Y-72989842D01*
X136765771Y-72989842D02*
X136718152Y-73085080D01*
X136718152Y-73085080D02*
X136718152Y-73227937D01*
X136718152Y-73227937D02*
X136765771Y-73323175D01*
X136765771Y-73323175D02*
X136861009Y-73370794D01*
X136861009Y-73370794D02*
X137384819Y-73370794D01*
X136861009Y-74180318D02*
X136861009Y-73846985D01*
X137384819Y-73846985D02*
X136384819Y-73846985D01*
X136384819Y-73846985D02*
X136384819Y-74323175D01*
D11*
X135643832Y-71899366D02*
X135662880Y-71880318D01*
X135662880Y-71880318D02*
X135681927Y-71823176D01*
X135681927Y-71823176D02*
X135681927Y-71785080D01*
X135681927Y-71785080D02*
X135662880Y-71727937D01*
X135662880Y-71727937D02*
X135624784Y-71689842D01*
X135624784Y-71689842D02*
X135586689Y-71670795D01*
X135586689Y-71670795D02*
X135510499Y-71651747D01*
X135510499Y-71651747D02*
X135453356Y-71651747D01*
X135453356Y-71651747D02*
X135377165Y-71670795D01*
X135377165Y-71670795D02*
X135339070Y-71689842D01*
X135339070Y-71689842D02*
X135300975Y-71727937D01*
X135300975Y-71727937D02*
X135281927Y-71785080D01*
X135281927Y-71785080D02*
X135281927Y-71823176D01*
X135281927Y-71823176D02*
X135300975Y-71880318D01*
X135300975Y-71880318D02*
X135320022Y-71899366D01*
X135281927Y-72032699D02*
X135281927Y-72280318D01*
X135281927Y-72280318D02*
X135434308Y-72146985D01*
X135434308Y-72146985D02*
X135434308Y-72204128D01*
X135434308Y-72204128D02*
X135453356Y-72242223D01*
X135453356Y-72242223D02*
X135472403Y-72261271D01*
X135472403Y-72261271D02*
X135510499Y-72280318D01*
X135510499Y-72280318D02*
X135605737Y-72280318D01*
X135605737Y-72280318D02*
X135643832Y-72261271D01*
X135643832Y-72261271D02*
X135662880Y-72242223D01*
X135662880Y-72242223D02*
X135681927Y-72204128D01*
X135681927Y-72204128D02*
X135681927Y-72089842D01*
X135681927Y-72089842D02*
X135662880Y-72051747D01*
X135662880Y-72051747D02*
X135643832Y-72032699D01*
X135320022Y-72432699D02*
X135300975Y-72451747D01*
X135300975Y-72451747D02*
X135281927Y-72489842D01*
X135281927Y-72489842D02*
X135281927Y-72585080D01*
X135281927Y-72585080D02*
X135300975Y-72623175D01*
X135300975Y-72623175D02*
X135320022Y-72642223D01*
X135320022Y-72642223D02*
X135358118Y-72661270D01*
X135358118Y-72661270D02*
X135396213Y-72661270D01*
X135396213Y-72661270D02*
X135453356Y-72642223D01*
X135453356Y-72642223D02*
X135681927Y-72413651D01*
X135681927Y-72413651D02*
X135681927Y-72661270D01*
D10*
X151274819Y-103158889D02*
X151274819Y-102587461D01*
X151274819Y-102873175D02*
X150274819Y-102873175D01*
X150274819Y-102873175D02*
X150417676Y-102777937D01*
X150417676Y-102777937D02*
X150512914Y-102682699D01*
X150512914Y-102682699D02*
X150560533Y-102587461D01*
X150274819Y-103777937D02*
X150274819Y-103873175D01*
X150274819Y-103873175D02*
X150322438Y-103968413D01*
X150322438Y-103968413D02*
X150370057Y-104016032D01*
X150370057Y-104016032D02*
X150465295Y-104063651D01*
X150465295Y-104063651D02*
X150655771Y-104111270D01*
X150655771Y-104111270D02*
X150893866Y-104111270D01*
X150893866Y-104111270D02*
X151084342Y-104063651D01*
X151084342Y-104063651D02*
X151179580Y-104016032D01*
X151179580Y-104016032D02*
X151227200Y-103968413D01*
X151227200Y-103968413D02*
X151274819Y-103873175D01*
X151274819Y-103873175D02*
X151274819Y-103777937D01*
X151274819Y-103777937D02*
X151227200Y-103682699D01*
X151227200Y-103682699D02*
X151179580Y-103635080D01*
X151179580Y-103635080D02*
X151084342Y-103587461D01*
X151084342Y-103587461D02*
X150893866Y-103539842D01*
X150893866Y-103539842D02*
X150655771Y-103539842D01*
X150655771Y-103539842D02*
X150465295Y-103587461D01*
X150465295Y-103587461D02*
X150370057Y-103635080D01*
X150370057Y-103635080D02*
X150322438Y-103682699D01*
X150322438Y-103682699D02*
X150274819Y-103777937D01*
X150274819Y-104730318D02*
X150274819Y-104825556D01*
X150274819Y-104825556D02*
X150322438Y-104920794D01*
X150322438Y-104920794D02*
X150370057Y-104968413D01*
X150370057Y-104968413D02*
X150465295Y-105016032D01*
X150465295Y-105016032D02*
X150655771Y-105063651D01*
X150655771Y-105063651D02*
X150893866Y-105063651D01*
X150893866Y-105063651D02*
X151084342Y-105016032D01*
X151084342Y-105016032D02*
X151179580Y-104968413D01*
X151179580Y-104968413D02*
X151227200Y-104920794D01*
X151227200Y-104920794D02*
X151274819Y-104825556D01*
X151274819Y-104825556D02*
X151274819Y-104730318D01*
X151274819Y-104730318D02*
X151227200Y-104635080D01*
X151227200Y-104635080D02*
X151179580Y-104587461D01*
X151179580Y-104587461D02*
X151084342Y-104539842D01*
X151084342Y-104539842D02*
X150893866Y-104492223D01*
X150893866Y-104492223D02*
X150655771Y-104492223D01*
X150655771Y-104492223D02*
X150465295Y-104539842D01*
X150465295Y-104539842D02*
X150370057Y-104587461D01*
X150370057Y-104587461D02*
X150322438Y-104635080D01*
X150322438Y-104635080D02*
X150274819Y-104730318D01*
X150608152Y-105492223D02*
X151274819Y-105492223D01*
X150703390Y-105492223D02*
X150655771Y-105539842D01*
X150655771Y-105539842D02*
X150608152Y-105635080D01*
X150608152Y-105635080D02*
X150608152Y-105777937D01*
X150608152Y-105777937D02*
X150655771Y-105873175D01*
X150655771Y-105873175D02*
X150751009Y-105920794D01*
X150751009Y-105920794D02*
X151274819Y-105920794D01*
X150751009Y-106730318D02*
X150751009Y-106396985D01*
X151274819Y-106396985D02*
X150274819Y-106396985D01*
X150274819Y-106396985D02*
X150274819Y-106873175D01*
D11*
X152393832Y-104449366D02*
X152412880Y-104430318D01*
X152412880Y-104430318D02*
X152431927Y-104373176D01*
X152431927Y-104373176D02*
X152431927Y-104335080D01*
X152431927Y-104335080D02*
X152412880Y-104277937D01*
X152412880Y-104277937D02*
X152374784Y-104239842D01*
X152374784Y-104239842D02*
X152336689Y-104220795D01*
X152336689Y-104220795D02*
X152260499Y-104201747D01*
X152260499Y-104201747D02*
X152203356Y-104201747D01*
X152203356Y-104201747D02*
X152127165Y-104220795D01*
X152127165Y-104220795D02*
X152089070Y-104239842D01*
X152089070Y-104239842D02*
X152050975Y-104277937D01*
X152050975Y-104277937D02*
X152031927Y-104335080D01*
X152031927Y-104335080D02*
X152031927Y-104373176D01*
X152031927Y-104373176D02*
X152050975Y-104430318D01*
X152050975Y-104430318D02*
X152070022Y-104449366D01*
X152070022Y-104601747D02*
X152050975Y-104620795D01*
X152050975Y-104620795D02*
X152031927Y-104658890D01*
X152031927Y-104658890D02*
X152031927Y-104754128D01*
X152031927Y-104754128D02*
X152050975Y-104792223D01*
X152050975Y-104792223D02*
X152070022Y-104811271D01*
X152070022Y-104811271D02*
X152108118Y-104830318D01*
X152108118Y-104830318D02*
X152146213Y-104830318D01*
X152146213Y-104830318D02*
X152203356Y-104811271D01*
X152203356Y-104811271D02*
X152431927Y-104582699D01*
X152431927Y-104582699D02*
X152431927Y-104830318D01*
X152031927Y-104963651D02*
X152031927Y-105211270D01*
X152031927Y-105211270D02*
X152184308Y-105077937D01*
X152184308Y-105077937D02*
X152184308Y-105135080D01*
X152184308Y-105135080D02*
X152203356Y-105173175D01*
X152203356Y-105173175D02*
X152222403Y-105192223D01*
X152222403Y-105192223D02*
X152260499Y-105211270D01*
X152260499Y-105211270D02*
X152355737Y-105211270D01*
X152355737Y-105211270D02*
X152393832Y-105192223D01*
X152393832Y-105192223D02*
X152412880Y-105173175D01*
X152412880Y-105173175D02*
X152431927Y-105135080D01*
X152431927Y-105135080D02*
X152431927Y-105020794D01*
X152431927Y-105020794D02*
X152412880Y-104982699D01*
X152412880Y-104982699D02*
X152393832Y-104963651D01*
D10*
X137434819Y-57558889D02*
X137434819Y-56987461D01*
X137434819Y-57273175D02*
X136434819Y-57273175D01*
X136434819Y-57273175D02*
X136577676Y-57177937D01*
X136577676Y-57177937D02*
X136672914Y-57082699D01*
X136672914Y-57082699D02*
X136720533Y-56987461D01*
X136434819Y-58177937D02*
X136434819Y-58273175D01*
X136434819Y-58273175D02*
X136482438Y-58368413D01*
X136482438Y-58368413D02*
X136530057Y-58416032D01*
X136530057Y-58416032D02*
X136625295Y-58463651D01*
X136625295Y-58463651D02*
X136815771Y-58511270D01*
X136815771Y-58511270D02*
X137053866Y-58511270D01*
X137053866Y-58511270D02*
X137244342Y-58463651D01*
X137244342Y-58463651D02*
X137339580Y-58416032D01*
X137339580Y-58416032D02*
X137387200Y-58368413D01*
X137387200Y-58368413D02*
X137434819Y-58273175D01*
X137434819Y-58273175D02*
X137434819Y-58177937D01*
X137434819Y-58177937D02*
X137387200Y-58082699D01*
X137387200Y-58082699D02*
X137339580Y-58035080D01*
X137339580Y-58035080D02*
X137244342Y-57987461D01*
X137244342Y-57987461D02*
X137053866Y-57939842D01*
X137053866Y-57939842D02*
X136815771Y-57939842D01*
X136815771Y-57939842D02*
X136625295Y-57987461D01*
X136625295Y-57987461D02*
X136530057Y-58035080D01*
X136530057Y-58035080D02*
X136482438Y-58082699D01*
X136482438Y-58082699D02*
X136434819Y-58177937D01*
X136434819Y-59130318D02*
X136434819Y-59225556D01*
X136434819Y-59225556D02*
X136482438Y-59320794D01*
X136482438Y-59320794D02*
X136530057Y-59368413D01*
X136530057Y-59368413D02*
X136625295Y-59416032D01*
X136625295Y-59416032D02*
X136815771Y-59463651D01*
X136815771Y-59463651D02*
X137053866Y-59463651D01*
X137053866Y-59463651D02*
X137244342Y-59416032D01*
X137244342Y-59416032D02*
X137339580Y-59368413D01*
X137339580Y-59368413D02*
X137387200Y-59320794D01*
X137387200Y-59320794D02*
X137434819Y-59225556D01*
X137434819Y-59225556D02*
X137434819Y-59130318D01*
X137434819Y-59130318D02*
X137387200Y-59035080D01*
X137387200Y-59035080D02*
X137339580Y-58987461D01*
X137339580Y-58987461D02*
X137244342Y-58939842D01*
X137244342Y-58939842D02*
X137053866Y-58892223D01*
X137053866Y-58892223D02*
X136815771Y-58892223D01*
X136815771Y-58892223D02*
X136625295Y-58939842D01*
X136625295Y-58939842D02*
X136530057Y-58987461D01*
X136530057Y-58987461D02*
X136482438Y-59035080D01*
X136482438Y-59035080D02*
X136434819Y-59130318D01*
X136768152Y-59892223D02*
X137434819Y-59892223D01*
X136863390Y-59892223D02*
X136815771Y-59939842D01*
X136815771Y-59939842D02*
X136768152Y-60035080D01*
X136768152Y-60035080D02*
X136768152Y-60177937D01*
X136768152Y-60177937D02*
X136815771Y-60273175D01*
X136815771Y-60273175D02*
X136911009Y-60320794D01*
X136911009Y-60320794D02*
X137434819Y-60320794D01*
X136911009Y-61130318D02*
X136911009Y-60796985D01*
X137434819Y-60796985D02*
X136434819Y-60796985D01*
X136434819Y-60796985D02*
X136434819Y-61273175D01*
D11*
X135693832Y-58849366D02*
X135712880Y-58830318D01*
X135712880Y-58830318D02*
X135731927Y-58773176D01*
X135731927Y-58773176D02*
X135731927Y-58735080D01*
X135731927Y-58735080D02*
X135712880Y-58677937D01*
X135712880Y-58677937D02*
X135674784Y-58639842D01*
X135674784Y-58639842D02*
X135636689Y-58620795D01*
X135636689Y-58620795D02*
X135560499Y-58601747D01*
X135560499Y-58601747D02*
X135503356Y-58601747D01*
X135503356Y-58601747D02*
X135427165Y-58620795D01*
X135427165Y-58620795D02*
X135389070Y-58639842D01*
X135389070Y-58639842D02*
X135350975Y-58677937D01*
X135350975Y-58677937D02*
X135331927Y-58735080D01*
X135331927Y-58735080D02*
X135331927Y-58773176D01*
X135331927Y-58773176D02*
X135350975Y-58830318D01*
X135350975Y-58830318D02*
X135370022Y-58849366D01*
X135331927Y-58982699D02*
X135331927Y-59230318D01*
X135331927Y-59230318D02*
X135484308Y-59096985D01*
X135484308Y-59096985D02*
X135484308Y-59154128D01*
X135484308Y-59154128D02*
X135503356Y-59192223D01*
X135503356Y-59192223D02*
X135522403Y-59211271D01*
X135522403Y-59211271D02*
X135560499Y-59230318D01*
X135560499Y-59230318D02*
X135655737Y-59230318D01*
X135655737Y-59230318D02*
X135693832Y-59211271D01*
X135693832Y-59211271D02*
X135712880Y-59192223D01*
X135712880Y-59192223D02*
X135731927Y-59154128D01*
X135731927Y-59154128D02*
X135731927Y-59039842D01*
X135731927Y-59039842D02*
X135712880Y-59001747D01*
X135712880Y-59001747D02*
X135693832Y-58982699D01*
X135331927Y-59477937D02*
X135331927Y-59516032D01*
X135331927Y-59516032D02*
X135350975Y-59554128D01*
X135350975Y-59554128D02*
X135370022Y-59573175D01*
X135370022Y-59573175D02*
X135408118Y-59592223D01*
X135408118Y-59592223D02*
X135484308Y-59611270D01*
X135484308Y-59611270D02*
X135579546Y-59611270D01*
X135579546Y-59611270D02*
X135655737Y-59592223D01*
X135655737Y-59592223D02*
X135693832Y-59573175D01*
X135693832Y-59573175D02*
X135712880Y-59554128D01*
X135712880Y-59554128D02*
X135731927Y-59516032D01*
X135731927Y-59516032D02*
X135731927Y-59477937D01*
X135731927Y-59477937D02*
X135712880Y-59439842D01*
X135712880Y-59439842D02*
X135693832Y-59420794D01*
X135693832Y-59420794D02*
X135655737Y-59401747D01*
X135655737Y-59401747D02*
X135579546Y-59382699D01*
X135579546Y-59382699D02*
X135484308Y-59382699D01*
X135484308Y-59382699D02*
X135408118Y-59401747D01*
X135408118Y-59401747D02*
X135370022Y-59420794D01*
X135370022Y-59420794D02*
X135350975Y-59439842D01*
X135350975Y-59439842D02*
X135331927Y-59477937D01*
D10*
X151274819Y-83458889D02*
X151274819Y-82887461D01*
X151274819Y-83173175D02*
X150274819Y-83173175D01*
X150274819Y-83173175D02*
X150417676Y-83077937D01*
X150417676Y-83077937D02*
X150512914Y-82982699D01*
X150512914Y-82982699D02*
X150560533Y-82887461D01*
X150274819Y-84077937D02*
X150274819Y-84173175D01*
X150274819Y-84173175D02*
X150322438Y-84268413D01*
X150322438Y-84268413D02*
X150370057Y-84316032D01*
X150370057Y-84316032D02*
X150465295Y-84363651D01*
X150465295Y-84363651D02*
X150655771Y-84411270D01*
X150655771Y-84411270D02*
X150893866Y-84411270D01*
X150893866Y-84411270D02*
X151084342Y-84363651D01*
X151084342Y-84363651D02*
X151179580Y-84316032D01*
X151179580Y-84316032D02*
X151227200Y-84268413D01*
X151227200Y-84268413D02*
X151274819Y-84173175D01*
X151274819Y-84173175D02*
X151274819Y-84077937D01*
X151274819Y-84077937D02*
X151227200Y-83982699D01*
X151227200Y-83982699D02*
X151179580Y-83935080D01*
X151179580Y-83935080D02*
X151084342Y-83887461D01*
X151084342Y-83887461D02*
X150893866Y-83839842D01*
X150893866Y-83839842D02*
X150655771Y-83839842D01*
X150655771Y-83839842D02*
X150465295Y-83887461D01*
X150465295Y-83887461D02*
X150370057Y-83935080D01*
X150370057Y-83935080D02*
X150322438Y-83982699D01*
X150322438Y-83982699D02*
X150274819Y-84077937D01*
X150274819Y-85030318D02*
X150274819Y-85125556D01*
X150274819Y-85125556D02*
X150322438Y-85220794D01*
X150322438Y-85220794D02*
X150370057Y-85268413D01*
X150370057Y-85268413D02*
X150465295Y-85316032D01*
X150465295Y-85316032D02*
X150655771Y-85363651D01*
X150655771Y-85363651D02*
X150893866Y-85363651D01*
X150893866Y-85363651D02*
X151084342Y-85316032D01*
X151084342Y-85316032D02*
X151179580Y-85268413D01*
X151179580Y-85268413D02*
X151227200Y-85220794D01*
X151227200Y-85220794D02*
X151274819Y-85125556D01*
X151274819Y-85125556D02*
X151274819Y-85030318D01*
X151274819Y-85030318D02*
X151227200Y-84935080D01*
X151227200Y-84935080D02*
X151179580Y-84887461D01*
X151179580Y-84887461D02*
X151084342Y-84839842D01*
X151084342Y-84839842D02*
X150893866Y-84792223D01*
X150893866Y-84792223D02*
X150655771Y-84792223D01*
X150655771Y-84792223D02*
X150465295Y-84839842D01*
X150465295Y-84839842D02*
X150370057Y-84887461D01*
X150370057Y-84887461D02*
X150322438Y-84935080D01*
X150322438Y-84935080D02*
X150274819Y-85030318D01*
X150608152Y-85792223D02*
X151274819Y-85792223D01*
X150703390Y-85792223D02*
X150655771Y-85839842D01*
X150655771Y-85839842D02*
X150608152Y-85935080D01*
X150608152Y-85935080D02*
X150608152Y-86077937D01*
X150608152Y-86077937D02*
X150655771Y-86173175D01*
X150655771Y-86173175D02*
X150751009Y-86220794D01*
X150751009Y-86220794D02*
X151274819Y-86220794D01*
X150751009Y-87030318D02*
X150751009Y-86696985D01*
X151274819Y-86696985D02*
X150274819Y-86696985D01*
X150274819Y-86696985D02*
X150274819Y-87173175D01*
D11*
X152393832Y-84749366D02*
X152412880Y-84730318D01*
X152412880Y-84730318D02*
X152431927Y-84673176D01*
X152431927Y-84673176D02*
X152431927Y-84635080D01*
X152431927Y-84635080D02*
X152412880Y-84577937D01*
X152412880Y-84577937D02*
X152374784Y-84539842D01*
X152374784Y-84539842D02*
X152336689Y-84520795D01*
X152336689Y-84520795D02*
X152260499Y-84501747D01*
X152260499Y-84501747D02*
X152203356Y-84501747D01*
X152203356Y-84501747D02*
X152127165Y-84520795D01*
X152127165Y-84520795D02*
X152089070Y-84539842D01*
X152089070Y-84539842D02*
X152050975Y-84577937D01*
X152050975Y-84577937D02*
X152031927Y-84635080D01*
X152031927Y-84635080D02*
X152031927Y-84673176D01*
X152031927Y-84673176D02*
X152050975Y-84730318D01*
X152050975Y-84730318D02*
X152070022Y-84749366D01*
X152070022Y-84901747D02*
X152050975Y-84920795D01*
X152050975Y-84920795D02*
X152031927Y-84958890D01*
X152031927Y-84958890D02*
X152031927Y-85054128D01*
X152031927Y-85054128D02*
X152050975Y-85092223D01*
X152050975Y-85092223D02*
X152070022Y-85111271D01*
X152070022Y-85111271D02*
X152108118Y-85130318D01*
X152108118Y-85130318D02*
X152146213Y-85130318D01*
X152146213Y-85130318D02*
X152203356Y-85111271D01*
X152203356Y-85111271D02*
X152431927Y-84882699D01*
X152431927Y-84882699D02*
X152431927Y-85130318D01*
X152031927Y-85473175D02*
X152031927Y-85396985D01*
X152031927Y-85396985D02*
X152050975Y-85358889D01*
X152050975Y-85358889D02*
X152070022Y-85339842D01*
X152070022Y-85339842D02*
X152127165Y-85301747D01*
X152127165Y-85301747D02*
X152203356Y-85282699D01*
X152203356Y-85282699D02*
X152355737Y-85282699D01*
X152355737Y-85282699D02*
X152393832Y-85301747D01*
X152393832Y-85301747D02*
X152412880Y-85320794D01*
X152412880Y-85320794D02*
X152431927Y-85358889D01*
X152431927Y-85358889D02*
X152431927Y-85435080D01*
X152431927Y-85435080D02*
X152412880Y-85473175D01*
X152412880Y-85473175D02*
X152393832Y-85492223D01*
X152393832Y-85492223D02*
X152355737Y-85511270D01*
X152355737Y-85511270D02*
X152260499Y-85511270D01*
X152260499Y-85511270D02*
X152222403Y-85492223D01*
X152222403Y-85492223D02*
X152203356Y-85473175D01*
X152203356Y-85473175D02*
X152184308Y-85435080D01*
X152184308Y-85435080D02*
X152184308Y-85358889D01*
X152184308Y-85358889D02*
X152203356Y-85320794D01*
X152203356Y-85320794D02*
X152222403Y-85301747D01*
X152222403Y-85301747D02*
X152260499Y-85282699D01*
D10*
X151324819Y-77358889D02*
X151324819Y-76787461D01*
X151324819Y-77073175D02*
X150324819Y-77073175D01*
X150324819Y-77073175D02*
X150467676Y-76977937D01*
X150467676Y-76977937D02*
X150562914Y-76882699D01*
X150562914Y-76882699D02*
X150610533Y-76787461D01*
X150324819Y-77977937D02*
X150324819Y-78073175D01*
X150324819Y-78073175D02*
X150372438Y-78168413D01*
X150372438Y-78168413D02*
X150420057Y-78216032D01*
X150420057Y-78216032D02*
X150515295Y-78263651D01*
X150515295Y-78263651D02*
X150705771Y-78311270D01*
X150705771Y-78311270D02*
X150943866Y-78311270D01*
X150943866Y-78311270D02*
X151134342Y-78263651D01*
X151134342Y-78263651D02*
X151229580Y-78216032D01*
X151229580Y-78216032D02*
X151277200Y-78168413D01*
X151277200Y-78168413D02*
X151324819Y-78073175D01*
X151324819Y-78073175D02*
X151324819Y-77977937D01*
X151324819Y-77977937D02*
X151277200Y-77882699D01*
X151277200Y-77882699D02*
X151229580Y-77835080D01*
X151229580Y-77835080D02*
X151134342Y-77787461D01*
X151134342Y-77787461D02*
X150943866Y-77739842D01*
X150943866Y-77739842D02*
X150705771Y-77739842D01*
X150705771Y-77739842D02*
X150515295Y-77787461D01*
X150515295Y-77787461D02*
X150420057Y-77835080D01*
X150420057Y-77835080D02*
X150372438Y-77882699D01*
X150372438Y-77882699D02*
X150324819Y-77977937D01*
X150324819Y-78930318D02*
X150324819Y-79025556D01*
X150324819Y-79025556D02*
X150372438Y-79120794D01*
X150372438Y-79120794D02*
X150420057Y-79168413D01*
X150420057Y-79168413D02*
X150515295Y-79216032D01*
X150515295Y-79216032D02*
X150705771Y-79263651D01*
X150705771Y-79263651D02*
X150943866Y-79263651D01*
X150943866Y-79263651D02*
X151134342Y-79216032D01*
X151134342Y-79216032D02*
X151229580Y-79168413D01*
X151229580Y-79168413D02*
X151277200Y-79120794D01*
X151277200Y-79120794D02*
X151324819Y-79025556D01*
X151324819Y-79025556D02*
X151324819Y-78930318D01*
X151324819Y-78930318D02*
X151277200Y-78835080D01*
X151277200Y-78835080D02*
X151229580Y-78787461D01*
X151229580Y-78787461D02*
X151134342Y-78739842D01*
X151134342Y-78739842D02*
X150943866Y-78692223D01*
X150943866Y-78692223D02*
X150705771Y-78692223D01*
X150705771Y-78692223D02*
X150515295Y-78739842D01*
X150515295Y-78739842D02*
X150420057Y-78787461D01*
X150420057Y-78787461D02*
X150372438Y-78835080D01*
X150372438Y-78835080D02*
X150324819Y-78930318D01*
X150658152Y-79692223D02*
X151324819Y-79692223D01*
X150753390Y-79692223D02*
X150705771Y-79739842D01*
X150705771Y-79739842D02*
X150658152Y-79835080D01*
X150658152Y-79835080D02*
X150658152Y-79977937D01*
X150658152Y-79977937D02*
X150705771Y-80073175D01*
X150705771Y-80073175D02*
X150801009Y-80120794D01*
X150801009Y-80120794D02*
X151324819Y-80120794D01*
X150801009Y-80930318D02*
X150801009Y-80596985D01*
X151324819Y-80596985D02*
X150324819Y-80596985D01*
X150324819Y-80596985D02*
X150324819Y-81073175D01*
D11*
X152443832Y-78649366D02*
X152462880Y-78630318D01*
X152462880Y-78630318D02*
X152481927Y-78573176D01*
X152481927Y-78573176D02*
X152481927Y-78535080D01*
X152481927Y-78535080D02*
X152462880Y-78477937D01*
X152462880Y-78477937D02*
X152424784Y-78439842D01*
X152424784Y-78439842D02*
X152386689Y-78420795D01*
X152386689Y-78420795D02*
X152310499Y-78401747D01*
X152310499Y-78401747D02*
X152253356Y-78401747D01*
X152253356Y-78401747D02*
X152177165Y-78420795D01*
X152177165Y-78420795D02*
X152139070Y-78439842D01*
X152139070Y-78439842D02*
X152100975Y-78477937D01*
X152100975Y-78477937D02*
X152081927Y-78535080D01*
X152081927Y-78535080D02*
X152081927Y-78573176D01*
X152081927Y-78573176D02*
X152100975Y-78630318D01*
X152100975Y-78630318D02*
X152120022Y-78649366D01*
X152120022Y-78801747D02*
X152100975Y-78820795D01*
X152100975Y-78820795D02*
X152081927Y-78858890D01*
X152081927Y-78858890D02*
X152081927Y-78954128D01*
X152081927Y-78954128D02*
X152100975Y-78992223D01*
X152100975Y-78992223D02*
X152120022Y-79011271D01*
X152120022Y-79011271D02*
X152158118Y-79030318D01*
X152158118Y-79030318D02*
X152196213Y-79030318D01*
X152196213Y-79030318D02*
X152253356Y-79011271D01*
X152253356Y-79011271D02*
X152481927Y-78782699D01*
X152481927Y-78782699D02*
X152481927Y-79030318D01*
X152081927Y-79163651D02*
X152081927Y-79430318D01*
X152081927Y-79430318D02*
X152481927Y-79258889D01*
D10*
X151274819Y-71008889D02*
X151274819Y-70437461D01*
X151274819Y-70723175D02*
X150274819Y-70723175D01*
X150274819Y-70723175D02*
X150417676Y-70627937D01*
X150417676Y-70627937D02*
X150512914Y-70532699D01*
X150512914Y-70532699D02*
X150560533Y-70437461D01*
X150274819Y-71627937D02*
X150274819Y-71723175D01*
X150274819Y-71723175D02*
X150322438Y-71818413D01*
X150322438Y-71818413D02*
X150370057Y-71866032D01*
X150370057Y-71866032D02*
X150465295Y-71913651D01*
X150465295Y-71913651D02*
X150655771Y-71961270D01*
X150655771Y-71961270D02*
X150893866Y-71961270D01*
X150893866Y-71961270D02*
X151084342Y-71913651D01*
X151084342Y-71913651D02*
X151179580Y-71866032D01*
X151179580Y-71866032D02*
X151227200Y-71818413D01*
X151227200Y-71818413D02*
X151274819Y-71723175D01*
X151274819Y-71723175D02*
X151274819Y-71627937D01*
X151274819Y-71627937D02*
X151227200Y-71532699D01*
X151227200Y-71532699D02*
X151179580Y-71485080D01*
X151179580Y-71485080D02*
X151084342Y-71437461D01*
X151084342Y-71437461D02*
X150893866Y-71389842D01*
X150893866Y-71389842D02*
X150655771Y-71389842D01*
X150655771Y-71389842D02*
X150465295Y-71437461D01*
X150465295Y-71437461D02*
X150370057Y-71485080D01*
X150370057Y-71485080D02*
X150322438Y-71532699D01*
X150322438Y-71532699D02*
X150274819Y-71627937D01*
X150274819Y-72580318D02*
X150274819Y-72675556D01*
X150274819Y-72675556D02*
X150322438Y-72770794D01*
X150322438Y-72770794D02*
X150370057Y-72818413D01*
X150370057Y-72818413D02*
X150465295Y-72866032D01*
X150465295Y-72866032D02*
X150655771Y-72913651D01*
X150655771Y-72913651D02*
X150893866Y-72913651D01*
X150893866Y-72913651D02*
X151084342Y-72866032D01*
X151084342Y-72866032D02*
X151179580Y-72818413D01*
X151179580Y-72818413D02*
X151227200Y-72770794D01*
X151227200Y-72770794D02*
X151274819Y-72675556D01*
X151274819Y-72675556D02*
X151274819Y-72580318D01*
X151274819Y-72580318D02*
X151227200Y-72485080D01*
X151227200Y-72485080D02*
X151179580Y-72437461D01*
X151179580Y-72437461D02*
X151084342Y-72389842D01*
X151084342Y-72389842D02*
X150893866Y-72342223D01*
X150893866Y-72342223D02*
X150655771Y-72342223D01*
X150655771Y-72342223D02*
X150465295Y-72389842D01*
X150465295Y-72389842D02*
X150370057Y-72437461D01*
X150370057Y-72437461D02*
X150322438Y-72485080D01*
X150322438Y-72485080D02*
X150274819Y-72580318D01*
X150608152Y-73342223D02*
X151274819Y-73342223D01*
X150703390Y-73342223D02*
X150655771Y-73389842D01*
X150655771Y-73389842D02*
X150608152Y-73485080D01*
X150608152Y-73485080D02*
X150608152Y-73627937D01*
X150608152Y-73627937D02*
X150655771Y-73723175D01*
X150655771Y-73723175D02*
X150751009Y-73770794D01*
X150751009Y-73770794D02*
X151274819Y-73770794D01*
X150751009Y-74580318D02*
X150751009Y-74246985D01*
X151274819Y-74246985D02*
X150274819Y-74246985D01*
X150274819Y-74246985D02*
X150274819Y-74723175D01*
D11*
X152393832Y-72299366D02*
X152412880Y-72280318D01*
X152412880Y-72280318D02*
X152431927Y-72223176D01*
X152431927Y-72223176D02*
X152431927Y-72185080D01*
X152431927Y-72185080D02*
X152412880Y-72127937D01*
X152412880Y-72127937D02*
X152374784Y-72089842D01*
X152374784Y-72089842D02*
X152336689Y-72070795D01*
X152336689Y-72070795D02*
X152260499Y-72051747D01*
X152260499Y-72051747D02*
X152203356Y-72051747D01*
X152203356Y-72051747D02*
X152127165Y-72070795D01*
X152127165Y-72070795D02*
X152089070Y-72089842D01*
X152089070Y-72089842D02*
X152050975Y-72127937D01*
X152050975Y-72127937D02*
X152031927Y-72185080D01*
X152031927Y-72185080D02*
X152031927Y-72223176D01*
X152031927Y-72223176D02*
X152050975Y-72280318D01*
X152050975Y-72280318D02*
X152070022Y-72299366D01*
X152070022Y-72451747D02*
X152050975Y-72470795D01*
X152050975Y-72470795D02*
X152031927Y-72508890D01*
X152031927Y-72508890D02*
X152031927Y-72604128D01*
X152031927Y-72604128D02*
X152050975Y-72642223D01*
X152050975Y-72642223D02*
X152070022Y-72661271D01*
X152070022Y-72661271D02*
X152108118Y-72680318D01*
X152108118Y-72680318D02*
X152146213Y-72680318D01*
X152146213Y-72680318D02*
X152203356Y-72661271D01*
X152203356Y-72661271D02*
X152431927Y-72432699D01*
X152431927Y-72432699D02*
X152431927Y-72680318D01*
X152203356Y-72908889D02*
X152184308Y-72870794D01*
X152184308Y-72870794D02*
X152165260Y-72851747D01*
X152165260Y-72851747D02*
X152127165Y-72832699D01*
X152127165Y-72832699D02*
X152108118Y-72832699D01*
X152108118Y-72832699D02*
X152070022Y-72851747D01*
X152070022Y-72851747D02*
X152050975Y-72870794D01*
X152050975Y-72870794D02*
X152031927Y-72908889D01*
X152031927Y-72908889D02*
X152031927Y-72985080D01*
X152031927Y-72985080D02*
X152050975Y-73023175D01*
X152050975Y-73023175D02*
X152070022Y-73042223D01*
X152070022Y-73042223D02*
X152108118Y-73061270D01*
X152108118Y-73061270D02*
X152127165Y-73061270D01*
X152127165Y-73061270D02*
X152165260Y-73042223D01*
X152165260Y-73042223D02*
X152184308Y-73023175D01*
X152184308Y-73023175D02*
X152203356Y-72985080D01*
X152203356Y-72985080D02*
X152203356Y-72908889D01*
X152203356Y-72908889D02*
X152222403Y-72870794D01*
X152222403Y-72870794D02*
X152241451Y-72851747D01*
X152241451Y-72851747D02*
X152279546Y-72832699D01*
X152279546Y-72832699D02*
X152355737Y-72832699D01*
X152355737Y-72832699D02*
X152393832Y-72851747D01*
X152393832Y-72851747D02*
X152412880Y-72870794D01*
X152412880Y-72870794D02*
X152431927Y-72908889D01*
X152431927Y-72908889D02*
X152431927Y-72985080D01*
X152431927Y-72985080D02*
X152412880Y-73023175D01*
X152412880Y-73023175D02*
X152393832Y-73042223D01*
X152393832Y-73042223D02*
X152355737Y-73061270D01*
X152355737Y-73061270D02*
X152279546Y-73061270D01*
X152279546Y-73061270D02*
X152241451Y-73042223D01*
X152241451Y-73042223D02*
X152222403Y-73023175D01*
X152222403Y-73023175D02*
X152203356Y-72985080D01*
D10*
X151274819Y-64058889D02*
X151274819Y-63487461D01*
X151274819Y-63773175D02*
X150274819Y-63773175D01*
X150274819Y-63773175D02*
X150417676Y-63677937D01*
X150417676Y-63677937D02*
X150512914Y-63582699D01*
X150512914Y-63582699D02*
X150560533Y-63487461D01*
X150274819Y-64677937D02*
X150274819Y-64773175D01*
X150274819Y-64773175D02*
X150322438Y-64868413D01*
X150322438Y-64868413D02*
X150370057Y-64916032D01*
X150370057Y-64916032D02*
X150465295Y-64963651D01*
X150465295Y-64963651D02*
X150655771Y-65011270D01*
X150655771Y-65011270D02*
X150893866Y-65011270D01*
X150893866Y-65011270D02*
X151084342Y-64963651D01*
X151084342Y-64963651D02*
X151179580Y-64916032D01*
X151179580Y-64916032D02*
X151227200Y-64868413D01*
X151227200Y-64868413D02*
X151274819Y-64773175D01*
X151274819Y-64773175D02*
X151274819Y-64677937D01*
X151274819Y-64677937D02*
X151227200Y-64582699D01*
X151227200Y-64582699D02*
X151179580Y-64535080D01*
X151179580Y-64535080D02*
X151084342Y-64487461D01*
X151084342Y-64487461D02*
X150893866Y-64439842D01*
X150893866Y-64439842D02*
X150655771Y-64439842D01*
X150655771Y-64439842D02*
X150465295Y-64487461D01*
X150465295Y-64487461D02*
X150370057Y-64535080D01*
X150370057Y-64535080D02*
X150322438Y-64582699D01*
X150322438Y-64582699D02*
X150274819Y-64677937D01*
X150274819Y-65630318D02*
X150274819Y-65725556D01*
X150274819Y-65725556D02*
X150322438Y-65820794D01*
X150322438Y-65820794D02*
X150370057Y-65868413D01*
X150370057Y-65868413D02*
X150465295Y-65916032D01*
X150465295Y-65916032D02*
X150655771Y-65963651D01*
X150655771Y-65963651D02*
X150893866Y-65963651D01*
X150893866Y-65963651D02*
X151084342Y-65916032D01*
X151084342Y-65916032D02*
X151179580Y-65868413D01*
X151179580Y-65868413D02*
X151227200Y-65820794D01*
X151227200Y-65820794D02*
X151274819Y-65725556D01*
X151274819Y-65725556D02*
X151274819Y-65630318D01*
X151274819Y-65630318D02*
X151227200Y-65535080D01*
X151227200Y-65535080D02*
X151179580Y-65487461D01*
X151179580Y-65487461D02*
X151084342Y-65439842D01*
X151084342Y-65439842D02*
X150893866Y-65392223D01*
X150893866Y-65392223D02*
X150655771Y-65392223D01*
X150655771Y-65392223D02*
X150465295Y-65439842D01*
X150465295Y-65439842D02*
X150370057Y-65487461D01*
X150370057Y-65487461D02*
X150322438Y-65535080D01*
X150322438Y-65535080D02*
X150274819Y-65630318D01*
X150608152Y-66392223D02*
X151274819Y-66392223D01*
X150703390Y-66392223D02*
X150655771Y-66439842D01*
X150655771Y-66439842D02*
X150608152Y-66535080D01*
X150608152Y-66535080D02*
X150608152Y-66677937D01*
X150608152Y-66677937D02*
X150655771Y-66773175D01*
X150655771Y-66773175D02*
X150751009Y-66820794D01*
X150751009Y-66820794D02*
X151274819Y-66820794D01*
X150751009Y-67630318D02*
X150751009Y-67296985D01*
X151274819Y-67296985D02*
X150274819Y-67296985D01*
X150274819Y-67296985D02*
X150274819Y-67773175D01*
D11*
X152393832Y-65349366D02*
X152412880Y-65330318D01*
X152412880Y-65330318D02*
X152431927Y-65273176D01*
X152431927Y-65273176D02*
X152431927Y-65235080D01*
X152431927Y-65235080D02*
X152412880Y-65177937D01*
X152412880Y-65177937D02*
X152374784Y-65139842D01*
X152374784Y-65139842D02*
X152336689Y-65120795D01*
X152336689Y-65120795D02*
X152260499Y-65101747D01*
X152260499Y-65101747D02*
X152203356Y-65101747D01*
X152203356Y-65101747D02*
X152127165Y-65120795D01*
X152127165Y-65120795D02*
X152089070Y-65139842D01*
X152089070Y-65139842D02*
X152050975Y-65177937D01*
X152050975Y-65177937D02*
X152031927Y-65235080D01*
X152031927Y-65235080D02*
X152031927Y-65273176D01*
X152031927Y-65273176D02*
X152050975Y-65330318D01*
X152050975Y-65330318D02*
X152070022Y-65349366D01*
X152070022Y-65501747D02*
X152050975Y-65520795D01*
X152050975Y-65520795D02*
X152031927Y-65558890D01*
X152031927Y-65558890D02*
X152031927Y-65654128D01*
X152031927Y-65654128D02*
X152050975Y-65692223D01*
X152050975Y-65692223D02*
X152070022Y-65711271D01*
X152070022Y-65711271D02*
X152108118Y-65730318D01*
X152108118Y-65730318D02*
X152146213Y-65730318D01*
X152146213Y-65730318D02*
X152203356Y-65711271D01*
X152203356Y-65711271D02*
X152431927Y-65482699D01*
X152431927Y-65482699D02*
X152431927Y-65730318D01*
X152431927Y-65920794D02*
X152431927Y-65996985D01*
X152431927Y-65996985D02*
X152412880Y-66035080D01*
X152412880Y-66035080D02*
X152393832Y-66054128D01*
X152393832Y-66054128D02*
X152336689Y-66092223D01*
X152336689Y-66092223D02*
X152260499Y-66111270D01*
X152260499Y-66111270D02*
X152108118Y-66111270D01*
X152108118Y-66111270D02*
X152070022Y-66092223D01*
X152070022Y-66092223D02*
X152050975Y-66073175D01*
X152050975Y-66073175D02*
X152031927Y-66035080D01*
X152031927Y-66035080D02*
X152031927Y-65958889D01*
X152031927Y-65958889D02*
X152050975Y-65920794D01*
X152050975Y-65920794D02*
X152070022Y-65901747D01*
X152070022Y-65901747D02*
X152108118Y-65882699D01*
X152108118Y-65882699D02*
X152203356Y-65882699D01*
X152203356Y-65882699D02*
X152241451Y-65901747D01*
X152241451Y-65901747D02*
X152260499Y-65920794D01*
X152260499Y-65920794D02*
X152279546Y-65958889D01*
X152279546Y-65958889D02*
X152279546Y-66035080D01*
X152279546Y-66035080D02*
X152260499Y-66073175D01*
X152260499Y-66073175D02*
X152241451Y-66092223D01*
X152241451Y-66092223D02*
X152203356Y-66111270D01*
D10*
X137434819Y-77508889D02*
X137434819Y-76937461D01*
X137434819Y-77223175D02*
X136434819Y-77223175D01*
X136434819Y-77223175D02*
X136577676Y-77127937D01*
X136577676Y-77127937D02*
X136672914Y-77032699D01*
X136672914Y-77032699D02*
X136720533Y-76937461D01*
X136434819Y-78127937D02*
X136434819Y-78223175D01*
X136434819Y-78223175D02*
X136482438Y-78318413D01*
X136482438Y-78318413D02*
X136530057Y-78366032D01*
X136530057Y-78366032D02*
X136625295Y-78413651D01*
X136625295Y-78413651D02*
X136815771Y-78461270D01*
X136815771Y-78461270D02*
X137053866Y-78461270D01*
X137053866Y-78461270D02*
X137244342Y-78413651D01*
X137244342Y-78413651D02*
X137339580Y-78366032D01*
X137339580Y-78366032D02*
X137387200Y-78318413D01*
X137387200Y-78318413D02*
X137434819Y-78223175D01*
X137434819Y-78223175D02*
X137434819Y-78127937D01*
X137434819Y-78127937D02*
X137387200Y-78032699D01*
X137387200Y-78032699D02*
X137339580Y-77985080D01*
X137339580Y-77985080D02*
X137244342Y-77937461D01*
X137244342Y-77937461D02*
X137053866Y-77889842D01*
X137053866Y-77889842D02*
X136815771Y-77889842D01*
X136815771Y-77889842D02*
X136625295Y-77937461D01*
X136625295Y-77937461D02*
X136530057Y-77985080D01*
X136530057Y-77985080D02*
X136482438Y-78032699D01*
X136482438Y-78032699D02*
X136434819Y-78127937D01*
X136434819Y-79080318D02*
X136434819Y-79175556D01*
X136434819Y-79175556D02*
X136482438Y-79270794D01*
X136482438Y-79270794D02*
X136530057Y-79318413D01*
X136530057Y-79318413D02*
X136625295Y-79366032D01*
X136625295Y-79366032D02*
X136815771Y-79413651D01*
X136815771Y-79413651D02*
X137053866Y-79413651D01*
X137053866Y-79413651D02*
X137244342Y-79366032D01*
X137244342Y-79366032D02*
X137339580Y-79318413D01*
X137339580Y-79318413D02*
X137387200Y-79270794D01*
X137387200Y-79270794D02*
X137434819Y-79175556D01*
X137434819Y-79175556D02*
X137434819Y-79080318D01*
X137434819Y-79080318D02*
X137387200Y-78985080D01*
X137387200Y-78985080D02*
X137339580Y-78937461D01*
X137339580Y-78937461D02*
X137244342Y-78889842D01*
X137244342Y-78889842D02*
X137053866Y-78842223D01*
X137053866Y-78842223D02*
X136815771Y-78842223D01*
X136815771Y-78842223D02*
X136625295Y-78889842D01*
X136625295Y-78889842D02*
X136530057Y-78937461D01*
X136530057Y-78937461D02*
X136482438Y-78985080D01*
X136482438Y-78985080D02*
X136434819Y-79080318D01*
X136768152Y-79842223D02*
X137434819Y-79842223D01*
X136863390Y-79842223D02*
X136815771Y-79889842D01*
X136815771Y-79889842D02*
X136768152Y-79985080D01*
X136768152Y-79985080D02*
X136768152Y-80127937D01*
X136768152Y-80127937D02*
X136815771Y-80223175D01*
X136815771Y-80223175D02*
X136911009Y-80270794D01*
X136911009Y-80270794D02*
X137434819Y-80270794D01*
X136911009Y-81080318D02*
X136911009Y-80746985D01*
X137434819Y-80746985D02*
X136434819Y-80746985D01*
X136434819Y-80746985D02*
X136434819Y-81223175D01*
D11*
X135693832Y-78799366D02*
X135712880Y-78780318D01*
X135712880Y-78780318D02*
X135731927Y-78723176D01*
X135731927Y-78723176D02*
X135731927Y-78685080D01*
X135731927Y-78685080D02*
X135712880Y-78627937D01*
X135712880Y-78627937D02*
X135674784Y-78589842D01*
X135674784Y-78589842D02*
X135636689Y-78570795D01*
X135636689Y-78570795D02*
X135560499Y-78551747D01*
X135560499Y-78551747D02*
X135503356Y-78551747D01*
X135503356Y-78551747D02*
X135427165Y-78570795D01*
X135427165Y-78570795D02*
X135389070Y-78589842D01*
X135389070Y-78589842D02*
X135350975Y-78627937D01*
X135350975Y-78627937D02*
X135331927Y-78685080D01*
X135331927Y-78685080D02*
X135331927Y-78723176D01*
X135331927Y-78723176D02*
X135350975Y-78780318D01*
X135350975Y-78780318D02*
X135370022Y-78799366D01*
X135331927Y-78932699D02*
X135331927Y-79180318D01*
X135331927Y-79180318D02*
X135484308Y-79046985D01*
X135484308Y-79046985D02*
X135484308Y-79104128D01*
X135484308Y-79104128D02*
X135503356Y-79142223D01*
X135503356Y-79142223D02*
X135522403Y-79161271D01*
X135522403Y-79161271D02*
X135560499Y-79180318D01*
X135560499Y-79180318D02*
X135655737Y-79180318D01*
X135655737Y-79180318D02*
X135693832Y-79161271D01*
X135693832Y-79161271D02*
X135712880Y-79142223D01*
X135712880Y-79142223D02*
X135731927Y-79104128D01*
X135731927Y-79104128D02*
X135731927Y-78989842D01*
X135731927Y-78989842D02*
X135712880Y-78951747D01*
X135712880Y-78951747D02*
X135693832Y-78932699D01*
X135331927Y-79313651D02*
X135331927Y-79561270D01*
X135331927Y-79561270D02*
X135484308Y-79427937D01*
X135484308Y-79427937D02*
X135484308Y-79485080D01*
X135484308Y-79485080D02*
X135503356Y-79523175D01*
X135503356Y-79523175D02*
X135522403Y-79542223D01*
X135522403Y-79542223D02*
X135560499Y-79561270D01*
X135560499Y-79561270D02*
X135655737Y-79561270D01*
X135655737Y-79561270D02*
X135693832Y-79542223D01*
X135693832Y-79542223D02*
X135712880Y-79523175D01*
X135712880Y-79523175D02*
X135731927Y-79485080D01*
X135731927Y-79485080D02*
X135731927Y-79370794D01*
X135731927Y-79370794D02*
X135712880Y-79332699D01*
X135712880Y-79332699D02*
X135693832Y-79313651D01*
D10*
X137434819Y-89808889D02*
X137434819Y-89237461D01*
X137434819Y-89523175D02*
X136434819Y-89523175D01*
X136434819Y-89523175D02*
X136577676Y-89427937D01*
X136577676Y-89427937D02*
X136672914Y-89332699D01*
X136672914Y-89332699D02*
X136720533Y-89237461D01*
X136434819Y-90427937D02*
X136434819Y-90523175D01*
X136434819Y-90523175D02*
X136482438Y-90618413D01*
X136482438Y-90618413D02*
X136530057Y-90666032D01*
X136530057Y-90666032D02*
X136625295Y-90713651D01*
X136625295Y-90713651D02*
X136815771Y-90761270D01*
X136815771Y-90761270D02*
X137053866Y-90761270D01*
X137053866Y-90761270D02*
X137244342Y-90713651D01*
X137244342Y-90713651D02*
X137339580Y-90666032D01*
X137339580Y-90666032D02*
X137387200Y-90618413D01*
X137387200Y-90618413D02*
X137434819Y-90523175D01*
X137434819Y-90523175D02*
X137434819Y-90427937D01*
X137434819Y-90427937D02*
X137387200Y-90332699D01*
X137387200Y-90332699D02*
X137339580Y-90285080D01*
X137339580Y-90285080D02*
X137244342Y-90237461D01*
X137244342Y-90237461D02*
X137053866Y-90189842D01*
X137053866Y-90189842D02*
X136815771Y-90189842D01*
X136815771Y-90189842D02*
X136625295Y-90237461D01*
X136625295Y-90237461D02*
X136530057Y-90285080D01*
X136530057Y-90285080D02*
X136482438Y-90332699D01*
X136482438Y-90332699D02*
X136434819Y-90427937D01*
X136434819Y-91380318D02*
X136434819Y-91475556D01*
X136434819Y-91475556D02*
X136482438Y-91570794D01*
X136482438Y-91570794D02*
X136530057Y-91618413D01*
X136530057Y-91618413D02*
X136625295Y-91666032D01*
X136625295Y-91666032D02*
X136815771Y-91713651D01*
X136815771Y-91713651D02*
X137053866Y-91713651D01*
X137053866Y-91713651D02*
X137244342Y-91666032D01*
X137244342Y-91666032D02*
X137339580Y-91618413D01*
X137339580Y-91618413D02*
X137387200Y-91570794D01*
X137387200Y-91570794D02*
X137434819Y-91475556D01*
X137434819Y-91475556D02*
X137434819Y-91380318D01*
X137434819Y-91380318D02*
X137387200Y-91285080D01*
X137387200Y-91285080D02*
X137339580Y-91237461D01*
X137339580Y-91237461D02*
X137244342Y-91189842D01*
X137244342Y-91189842D02*
X137053866Y-91142223D01*
X137053866Y-91142223D02*
X136815771Y-91142223D01*
X136815771Y-91142223D02*
X136625295Y-91189842D01*
X136625295Y-91189842D02*
X136530057Y-91237461D01*
X136530057Y-91237461D02*
X136482438Y-91285080D01*
X136482438Y-91285080D02*
X136434819Y-91380318D01*
X136768152Y-92142223D02*
X137434819Y-92142223D01*
X136863390Y-92142223D02*
X136815771Y-92189842D01*
X136815771Y-92189842D02*
X136768152Y-92285080D01*
X136768152Y-92285080D02*
X136768152Y-92427937D01*
X136768152Y-92427937D02*
X136815771Y-92523175D01*
X136815771Y-92523175D02*
X136911009Y-92570794D01*
X136911009Y-92570794D02*
X137434819Y-92570794D01*
X136911009Y-93380318D02*
X136911009Y-93046985D01*
X137434819Y-93046985D02*
X136434819Y-93046985D01*
X136434819Y-93046985D02*
X136434819Y-93523175D01*
D11*
X135693832Y-91099366D02*
X135712880Y-91080318D01*
X135712880Y-91080318D02*
X135731927Y-91023176D01*
X135731927Y-91023176D02*
X135731927Y-90985080D01*
X135731927Y-90985080D02*
X135712880Y-90927937D01*
X135712880Y-90927937D02*
X135674784Y-90889842D01*
X135674784Y-90889842D02*
X135636689Y-90870795D01*
X135636689Y-90870795D02*
X135560499Y-90851747D01*
X135560499Y-90851747D02*
X135503356Y-90851747D01*
X135503356Y-90851747D02*
X135427165Y-90870795D01*
X135427165Y-90870795D02*
X135389070Y-90889842D01*
X135389070Y-90889842D02*
X135350975Y-90927937D01*
X135350975Y-90927937D02*
X135331927Y-90985080D01*
X135331927Y-90985080D02*
X135331927Y-91023176D01*
X135331927Y-91023176D02*
X135350975Y-91080318D01*
X135350975Y-91080318D02*
X135370022Y-91099366D01*
X135331927Y-91232699D02*
X135331927Y-91480318D01*
X135331927Y-91480318D02*
X135484308Y-91346985D01*
X135484308Y-91346985D02*
X135484308Y-91404128D01*
X135484308Y-91404128D02*
X135503356Y-91442223D01*
X135503356Y-91442223D02*
X135522403Y-91461271D01*
X135522403Y-91461271D02*
X135560499Y-91480318D01*
X135560499Y-91480318D02*
X135655737Y-91480318D01*
X135655737Y-91480318D02*
X135693832Y-91461271D01*
X135693832Y-91461271D02*
X135712880Y-91442223D01*
X135712880Y-91442223D02*
X135731927Y-91404128D01*
X135731927Y-91404128D02*
X135731927Y-91289842D01*
X135731927Y-91289842D02*
X135712880Y-91251747D01*
X135712880Y-91251747D02*
X135693832Y-91232699D01*
X135331927Y-91842223D02*
X135331927Y-91651747D01*
X135331927Y-91651747D02*
X135522403Y-91632699D01*
X135522403Y-91632699D02*
X135503356Y-91651747D01*
X135503356Y-91651747D02*
X135484308Y-91689842D01*
X135484308Y-91689842D02*
X135484308Y-91785080D01*
X135484308Y-91785080D02*
X135503356Y-91823175D01*
X135503356Y-91823175D02*
X135522403Y-91842223D01*
X135522403Y-91842223D02*
X135560499Y-91861270D01*
X135560499Y-91861270D02*
X135655737Y-91861270D01*
X135655737Y-91861270D02*
X135693832Y-91842223D01*
X135693832Y-91842223D02*
X135712880Y-91823175D01*
X135712880Y-91823175D02*
X135731927Y-91785080D01*
X135731927Y-91785080D02*
X135731927Y-91689842D01*
X135731927Y-91689842D02*
X135712880Y-91651747D01*
X135712880Y-91651747D02*
X135693832Y-91632699D01*
D10*
X137434819Y-102758889D02*
X137434819Y-102187461D01*
X137434819Y-102473175D02*
X136434819Y-102473175D01*
X136434819Y-102473175D02*
X136577676Y-102377937D01*
X136577676Y-102377937D02*
X136672914Y-102282699D01*
X136672914Y-102282699D02*
X136720533Y-102187461D01*
X136434819Y-103377937D02*
X136434819Y-103473175D01*
X136434819Y-103473175D02*
X136482438Y-103568413D01*
X136482438Y-103568413D02*
X136530057Y-103616032D01*
X136530057Y-103616032D02*
X136625295Y-103663651D01*
X136625295Y-103663651D02*
X136815771Y-103711270D01*
X136815771Y-103711270D02*
X137053866Y-103711270D01*
X137053866Y-103711270D02*
X137244342Y-103663651D01*
X137244342Y-103663651D02*
X137339580Y-103616032D01*
X137339580Y-103616032D02*
X137387200Y-103568413D01*
X137387200Y-103568413D02*
X137434819Y-103473175D01*
X137434819Y-103473175D02*
X137434819Y-103377937D01*
X137434819Y-103377937D02*
X137387200Y-103282699D01*
X137387200Y-103282699D02*
X137339580Y-103235080D01*
X137339580Y-103235080D02*
X137244342Y-103187461D01*
X137244342Y-103187461D02*
X137053866Y-103139842D01*
X137053866Y-103139842D02*
X136815771Y-103139842D01*
X136815771Y-103139842D02*
X136625295Y-103187461D01*
X136625295Y-103187461D02*
X136530057Y-103235080D01*
X136530057Y-103235080D02*
X136482438Y-103282699D01*
X136482438Y-103282699D02*
X136434819Y-103377937D01*
X136434819Y-104330318D02*
X136434819Y-104425556D01*
X136434819Y-104425556D02*
X136482438Y-104520794D01*
X136482438Y-104520794D02*
X136530057Y-104568413D01*
X136530057Y-104568413D02*
X136625295Y-104616032D01*
X136625295Y-104616032D02*
X136815771Y-104663651D01*
X136815771Y-104663651D02*
X137053866Y-104663651D01*
X137053866Y-104663651D02*
X137244342Y-104616032D01*
X137244342Y-104616032D02*
X137339580Y-104568413D01*
X137339580Y-104568413D02*
X137387200Y-104520794D01*
X137387200Y-104520794D02*
X137434819Y-104425556D01*
X137434819Y-104425556D02*
X137434819Y-104330318D01*
X137434819Y-104330318D02*
X137387200Y-104235080D01*
X137387200Y-104235080D02*
X137339580Y-104187461D01*
X137339580Y-104187461D02*
X137244342Y-104139842D01*
X137244342Y-104139842D02*
X137053866Y-104092223D01*
X137053866Y-104092223D02*
X136815771Y-104092223D01*
X136815771Y-104092223D02*
X136625295Y-104139842D01*
X136625295Y-104139842D02*
X136530057Y-104187461D01*
X136530057Y-104187461D02*
X136482438Y-104235080D01*
X136482438Y-104235080D02*
X136434819Y-104330318D01*
X136768152Y-105092223D02*
X137434819Y-105092223D01*
X136863390Y-105092223D02*
X136815771Y-105139842D01*
X136815771Y-105139842D02*
X136768152Y-105235080D01*
X136768152Y-105235080D02*
X136768152Y-105377937D01*
X136768152Y-105377937D02*
X136815771Y-105473175D01*
X136815771Y-105473175D02*
X136911009Y-105520794D01*
X136911009Y-105520794D02*
X137434819Y-105520794D01*
X136911009Y-106330318D02*
X136911009Y-105996985D01*
X137434819Y-105996985D02*
X136434819Y-105996985D01*
X136434819Y-105996985D02*
X136434819Y-106473175D01*
D11*
X135693832Y-104049366D02*
X135712880Y-104030318D01*
X135712880Y-104030318D02*
X135731927Y-103973176D01*
X135731927Y-103973176D02*
X135731927Y-103935080D01*
X135731927Y-103935080D02*
X135712880Y-103877937D01*
X135712880Y-103877937D02*
X135674784Y-103839842D01*
X135674784Y-103839842D02*
X135636689Y-103820795D01*
X135636689Y-103820795D02*
X135560499Y-103801747D01*
X135560499Y-103801747D02*
X135503356Y-103801747D01*
X135503356Y-103801747D02*
X135427165Y-103820795D01*
X135427165Y-103820795D02*
X135389070Y-103839842D01*
X135389070Y-103839842D02*
X135350975Y-103877937D01*
X135350975Y-103877937D02*
X135331927Y-103935080D01*
X135331927Y-103935080D02*
X135331927Y-103973176D01*
X135331927Y-103973176D02*
X135350975Y-104030318D01*
X135350975Y-104030318D02*
X135370022Y-104049366D01*
X135331927Y-104182699D02*
X135331927Y-104430318D01*
X135331927Y-104430318D02*
X135484308Y-104296985D01*
X135484308Y-104296985D02*
X135484308Y-104354128D01*
X135484308Y-104354128D02*
X135503356Y-104392223D01*
X135503356Y-104392223D02*
X135522403Y-104411271D01*
X135522403Y-104411271D02*
X135560499Y-104430318D01*
X135560499Y-104430318D02*
X135655737Y-104430318D01*
X135655737Y-104430318D02*
X135693832Y-104411271D01*
X135693832Y-104411271D02*
X135712880Y-104392223D01*
X135712880Y-104392223D02*
X135731927Y-104354128D01*
X135731927Y-104354128D02*
X135731927Y-104239842D01*
X135731927Y-104239842D02*
X135712880Y-104201747D01*
X135712880Y-104201747D02*
X135693832Y-104182699D01*
X135331927Y-104563651D02*
X135331927Y-104830318D01*
X135331927Y-104830318D02*
X135731927Y-104658889D01*
D10*
X137384819Y-63908889D02*
X137384819Y-63337461D01*
X137384819Y-63623175D02*
X136384819Y-63623175D01*
X136384819Y-63623175D02*
X136527676Y-63527937D01*
X136527676Y-63527937D02*
X136622914Y-63432699D01*
X136622914Y-63432699D02*
X136670533Y-63337461D01*
X136384819Y-64527937D02*
X136384819Y-64623175D01*
X136384819Y-64623175D02*
X136432438Y-64718413D01*
X136432438Y-64718413D02*
X136480057Y-64766032D01*
X136480057Y-64766032D02*
X136575295Y-64813651D01*
X136575295Y-64813651D02*
X136765771Y-64861270D01*
X136765771Y-64861270D02*
X137003866Y-64861270D01*
X137003866Y-64861270D02*
X137194342Y-64813651D01*
X137194342Y-64813651D02*
X137289580Y-64766032D01*
X137289580Y-64766032D02*
X137337200Y-64718413D01*
X137337200Y-64718413D02*
X137384819Y-64623175D01*
X137384819Y-64623175D02*
X137384819Y-64527937D01*
X137384819Y-64527937D02*
X137337200Y-64432699D01*
X137337200Y-64432699D02*
X137289580Y-64385080D01*
X137289580Y-64385080D02*
X137194342Y-64337461D01*
X137194342Y-64337461D02*
X137003866Y-64289842D01*
X137003866Y-64289842D02*
X136765771Y-64289842D01*
X136765771Y-64289842D02*
X136575295Y-64337461D01*
X136575295Y-64337461D02*
X136480057Y-64385080D01*
X136480057Y-64385080D02*
X136432438Y-64432699D01*
X136432438Y-64432699D02*
X136384819Y-64527937D01*
X136384819Y-65480318D02*
X136384819Y-65575556D01*
X136384819Y-65575556D02*
X136432438Y-65670794D01*
X136432438Y-65670794D02*
X136480057Y-65718413D01*
X136480057Y-65718413D02*
X136575295Y-65766032D01*
X136575295Y-65766032D02*
X136765771Y-65813651D01*
X136765771Y-65813651D02*
X137003866Y-65813651D01*
X137003866Y-65813651D02*
X137194342Y-65766032D01*
X137194342Y-65766032D02*
X137289580Y-65718413D01*
X137289580Y-65718413D02*
X137337200Y-65670794D01*
X137337200Y-65670794D02*
X137384819Y-65575556D01*
X137384819Y-65575556D02*
X137384819Y-65480318D01*
X137384819Y-65480318D02*
X137337200Y-65385080D01*
X137337200Y-65385080D02*
X137289580Y-65337461D01*
X137289580Y-65337461D02*
X137194342Y-65289842D01*
X137194342Y-65289842D02*
X137003866Y-65242223D01*
X137003866Y-65242223D02*
X136765771Y-65242223D01*
X136765771Y-65242223D02*
X136575295Y-65289842D01*
X136575295Y-65289842D02*
X136480057Y-65337461D01*
X136480057Y-65337461D02*
X136432438Y-65385080D01*
X136432438Y-65385080D02*
X136384819Y-65480318D01*
X136718152Y-66242223D02*
X137384819Y-66242223D01*
X136813390Y-66242223D02*
X136765771Y-66289842D01*
X136765771Y-66289842D02*
X136718152Y-66385080D01*
X136718152Y-66385080D02*
X136718152Y-66527937D01*
X136718152Y-66527937D02*
X136765771Y-66623175D01*
X136765771Y-66623175D02*
X136861009Y-66670794D01*
X136861009Y-66670794D02*
X137384819Y-66670794D01*
X136861009Y-67480318D02*
X136861009Y-67146985D01*
X137384819Y-67146985D02*
X136384819Y-67146985D01*
X136384819Y-67146985D02*
X136384819Y-67623175D01*
D11*
X135643832Y-65199366D02*
X135662880Y-65180318D01*
X135662880Y-65180318D02*
X135681927Y-65123176D01*
X135681927Y-65123176D02*
X135681927Y-65085080D01*
X135681927Y-65085080D02*
X135662880Y-65027937D01*
X135662880Y-65027937D02*
X135624784Y-64989842D01*
X135624784Y-64989842D02*
X135586689Y-64970795D01*
X135586689Y-64970795D02*
X135510499Y-64951747D01*
X135510499Y-64951747D02*
X135453356Y-64951747D01*
X135453356Y-64951747D02*
X135377165Y-64970795D01*
X135377165Y-64970795D02*
X135339070Y-64989842D01*
X135339070Y-64989842D02*
X135300975Y-65027937D01*
X135300975Y-65027937D02*
X135281927Y-65085080D01*
X135281927Y-65085080D02*
X135281927Y-65123176D01*
X135281927Y-65123176D02*
X135300975Y-65180318D01*
X135300975Y-65180318D02*
X135320022Y-65199366D01*
X135281927Y-65332699D02*
X135281927Y-65580318D01*
X135281927Y-65580318D02*
X135434308Y-65446985D01*
X135434308Y-65446985D02*
X135434308Y-65504128D01*
X135434308Y-65504128D02*
X135453356Y-65542223D01*
X135453356Y-65542223D02*
X135472403Y-65561271D01*
X135472403Y-65561271D02*
X135510499Y-65580318D01*
X135510499Y-65580318D02*
X135605737Y-65580318D01*
X135605737Y-65580318D02*
X135643832Y-65561271D01*
X135643832Y-65561271D02*
X135662880Y-65542223D01*
X135662880Y-65542223D02*
X135681927Y-65504128D01*
X135681927Y-65504128D02*
X135681927Y-65389842D01*
X135681927Y-65389842D02*
X135662880Y-65351747D01*
X135662880Y-65351747D02*
X135643832Y-65332699D01*
X135681927Y-65961270D02*
X135681927Y-65732699D01*
X135681927Y-65846985D02*
X135281927Y-65846985D01*
X135281927Y-65846985D02*
X135339070Y-65808889D01*
X135339070Y-65808889D02*
X135377165Y-65770794D01*
X135377165Y-65770794D02*
X135396213Y-65732699D01*
D12*
%TO.C,D9*%
X141900000Y-59066509D02*
G75*
G02*
X137900000Y-59066509I-2000000J0D01*
G01*
X137900000Y-59066509D02*
G75*
G02*
X141900000Y-59066509I2000000J0D01*
G01*
X137400000Y-61566509D02*
X137400000Y-56566509D01*
X137400000Y-60566509D02*
X138400000Y-61566509D01*
X137400000Y-56566509D02*
X142400000Y-56566509D01*
X142400000Y-61566509D02*
X137400000Y-61566509D01*
X142400000Y-56566509D02*
X142400000Y-61566509D01*
%TO.C,D12*%
X141900000Y-78926509D02*
G75*
G02*
X137900000Y-78926509I-2000000J0D01*
G01*
X137900000Y-78926509D02*
G75*
G02*
X141900000Y-78926509I2000000J0D01*
G01*
X137400000Y-81426509D02*
X137400000Y-76426509D01*
X137400000Y-80426509D02*
X138400000Y-81426509D01*
X137400000Y-76426509D02*
X142400000Y-76426509D01*
X142400000Y-81426509D02*
X137400000Y-81426509D01*
X142400000Y-76426509D02*
X142400000Y-81426509D01*
%TO.C,D11*%
X141900000Y-72306509D02*
G75*
G02*
X137900000Y-72306509I-2000000J0D01*
G01*
X137900000Y-72306509D02*
G75*
G02*
X141900000Y-72306509I2000000J0D01*
G01*
X137400000Y-74806509D02*
X137400000Y-69806509D01*
X137400000Y-73806509D02*
X138400000Y-74806509D01*
X137400000Y-69806509D02*
X142400000Y-69806509D01*
X142400000Y-74806509D02*
X137400000Y-74806509D01*
X142400000Y-69806509D02*
X142400000Y-74806509D01*
%TO.C,D10*%
X141900000Y-65686509D02*
G75*
G02*
X137900000Y-65686509I-2000000J0D01*
G01*
X137900000Y-65686509D02*
G75*
G02*
X141900000Y-65686509I2000000J0D01*
G01*
X137400000Y-68186509D02*
X137400000Y-63186509D01*
X137400000Y-67186509D02*
X138400000Y-68186509D01*
X137400000Y-63186509D02*
X142400000Y-63186509D01*
X142400000Y-68186509D02*
X137400000Y-68186509D01*
X142400000Y-63186509D02*
X142400000Y-68186509D01*
%TO.C,D13*%
X141950000Y-84906509D02*
G75*
G02*
X137950000Y-84906509I-2000000J0D01*
G01*
X137950000Y-84906509D02*
G75*
G02*
X141950000Y-84906509I2000000J0D01*
G01*
X137450000Y-87406509D02*
X137450000Y-82406509D01*
X137450000Y-86406509D02*
X138450000Y-87406509D01*
X137450000Y-82406509D02*
X142450000Y-82406509D01*
X142450000Y-87406509D02*
X137450000Y-87406509D01*
X142450000Y-82406509D02*
X142450000Y-87406509D01*
%TO.C,D16*%
X141950000Y-104766509D02*
G75*
G02*
X137950000Y-104766509I-2000000J0D01*
G01*
X137950000Y-104766509D02*
G75*
G02*
X141950000Y-104766509I2000000J0D01*
G01*
X137450000Y-107266509D02*
X137450000Y-102266509D01*
X137450000Y-106266509D02*
X138450000Y-107266509D01*
X137450000Y-102266509D02*
X142450000Y-102266509D01*
X142450000Y-107266509D02*
X137450000Y-107266509D01*
X142450000Y-102266509D02*
X142450000Y-107266509D01*
%TO.C,D14*%
X141950000Y-91526509D02*
G75*
G02*
X137950000Y-91526509I-2000000J0D01*
G01*
X137950000Y-91526509D02*
G75*
G02*
X141950000Y-91526509I2000000J0D01*
G01*
X137450000Y-94026509D02*
X137450000Y-89026509D01*
X137450000Y-93026509D02*
X138450000Y-94026509D01*
X137450000Y-89026509D02*
X142450000Y-89026509D01*
X142450000Y-94026509D02*
X137450000Y-94026509D01*
X142450000Y-89026509D02*
X142450000Y-94026509D01*
%TO.C,D15*%
X141950000Y-98146509D02*
G75*
G02*
X137950000Y-98146509I-2000000J0D01*
G01*
X137950000Y-98146509D02*
G75*
G02*
X141950000Y-98146509I2000000J0D01*
G01*
X137450000Y-100646509D02*
X137450000Y-95646509D01*
X137450000Y-99646509D02*
X138450000Y-100646509D01*
X137450000Y-95646509D02*
X142450000Y-95646509D01*
X142450000Y-100646509D02*
X137450000Y-100646509D01*
X142450000Y-95646509D02*
X142450000Y-100646509D01*
%TO.C,D4*%
X145350000Y-87516509D02*
X145350000Y-82516509D01*
X145350000Y-82516509D02*
X150350000Y-82516509D01*
X150350000Y-87516509D02*
X145350000Y-87516509D01*
X150350000Y-83516509D02*
X149350000Y-82516509D01*
X150350000Y-82516509D02*
X150350000Y-87516509D01*
X149850000Y-85016509D02*
G75*
G02*
X145850000Y-85016509I-2000000J0D01*
G01*
X145850000Y-85016509D02*
G75*
G02*
X149850000Y-85016509I2000000J0D01*
G01*
%TO.C,D3*%
X145350000Y-94136509D02*
X145350000Y-89136509D01*
X145350000Y-89136509D02*
X150350000Y-89136509D01*
X150350000Y-94136509D02*
X145350000Y-94136509D01*
X150350000Y-90136509D02*
X149350000Y-89136509D01*
X150350000Y-89136509D02*
X150350000Y-94136509D01*
X149850000Y-91636509D02*
G75*
G02*
X145850000Y-91636509I-2000000J0D01*
G01*
X145850000Y-91636509D02*
G75*
G02*
X149850000Y-91636509I2000000J0D01*
G01*
%TO.C,D2*%
X145350000Y-100756509D02*
X145350000Y-95756509D01*
X145350000Y-95756509D02*
X150350000Y-95756509D01*
X150350000Y-100756509D02*
X145350000Y-100756509D01*
X150350000Y-96756509D02*
X149350000Y-95756509D01*
X150350000Y-95756509D02*
X150350000Y-100756509D01*
X149850000Y-98256509D02*
G75*
G02*
X145850000Y-98256509I-2000000J0D01*
G01*
X145850000Y-98256509D02*
G75*
G02*
X149850000Y-98256509I2000000J0D01*
G01*
%TO.C,D1*%
X145350000Y-107376509D02*
X145350000Y-102376509D01*
X145350000Y-102376509D02*
X150350000Y-102376509D01*
X150350000Y-107376509D02*
X145350000Y-107376509D01*
X150350000Y-103376509D02*
X149350000Y-102376509D01*
X150350000Y-102376509D02*
X150350000Y-107376509D01*
X149850000Y-104876509D02*
G75*
G02*
X145850000Y-104876509I-2000000J0D01*
G01*
X145850000Y-104876509D02*
G75*
G02*
X149850000Y-104876509I2000000J0D01*
G01*
%TO.C,D7*%
X145350000Y-68156509D02*
X145350000Y-63156509D01*
X145350000Y-63156509D02*
X150350000Y-63156509D01*
X150350000Y-68156509D02*
X145350000Y-68156509D01*
X150350000Y-64156509D02*
X149350000Y-63156509D01*
X150350000Y-63156509D02*
X150350000Y-68156509D01*
X149850000Y-65656509D02*
G75*
G02*
X145850000Y-65656509I-2000000J0D01*
G01*
X145850000Y-65656509D02*
G75*
G02*
X149850000Y-65656509I2000000J0D01*
G01*
%TO.C,D8*%
X145350000Y-61536509D02*
X145350000Y-56536509D01*
X145350000Y-56536509D02*
X150350000Y-56536509D01*
X150350000Y-61536509D02*
X145350000Y-61536509D01*
X150350000Y-57536509D02*
X149350000Y-56536509D01*
X150350000Y-56536509D02*
X150350000Y-61536509D01*
X149850000Y-59036509D02*
G75*
G02*
X145850000Y-59036509I-2000000J0D01*
G01*
X145850000Y-59036509D02*
G75*
G02*
X149850000Y-59036509I2000000J0D01*
G01*
%TO.C,D6*%
X145350000Y-74776509D02*
X145350000Y-69776509D01*
X145350000Y-69776509D02*
X150350000Y-69776509D01*
X150350000Y-74776509D02*
X145350000Y-74776509D01*
X150350000Y-70776509D02*
X149350000Y-69776509D01*
X150350000Y-69776509D02*
X150350000Y-74776509D01*
X149850000Y-72276509D02*
G75*
G02*
X145850000Y-72276509I-2000000J0D01*
G01*
X145850000Y-72276509D02*
G75*
G02*
X149850000Y-72276509I2000000J0D01*
G01*
%TO.C,D5*%
X145350000Y-81396509D02*
X145350000Y-76396509D01*
X145350000Y-76396509D02*
X150350000Y-76396509D01*
X150350000Y-81396509D02*
X145350000Y-81396509D01*
X150350000Y-77396509D02*
X149350000Y-76396509D01*
X150350000Y-76396509D02*
X150350000Y-81396509D01*
X149850000Y-78896509D02*
G75*
G02*
X145850000Y-78896509I-2000000J0D01*
G01*
X145850000Y-78896509D02*
G75*
G02*
X149850000Y-78896509I2000000J0D01*
G01*
%TO.C,C36*%
X135150000Y-97106509D02*
X135950000Y-97106509D01*
X135950000Y-98706509D01*
X135150000Y-98706509D01*
X135150000Y-97106509D01*
%TO.C,C2*%
X152650000Y-59756509D02*
X151850000Y-59756509D01*
X151850000Y-58156509D01*
X152650000Y-58156509D01*
X152650000Y-59756509D01*
%TO.C,C34*%
X135150000Y-83956509D02*
X135950000Y-83956509D01*
X135950000Y-85556509D01*
X135150000Y-85556509D01*
X135150000Y-83956509D01*
%TO.C,C24*%
X152600000Y-99106509D02*
X151800000Y-99106509D01*
X151800000Y-97506509D01*
X152600000Y-97506509D01*
X152600000Y-99106509D01*
%TO.C,C25*%
X152650000Y-92406509D02*
X151850000Y-92406509D01*
X151850000Y-90806509D01*
X152650000Y-90806509D01*
X152650000Y-92406509D01*
%TO.C,C32*%
X135100000Y-71356509D02*
X135900000Y-71356509D01*
X135900000Y-72956509D01*
X135100000Y-72956509D01*
X135100000Y-71356509D01*
%TO.C,C23*%
X152650000Y-105506509D02*
X151850000Y-105506509D01*
X151850000Y-103906509D01*
X152650000Y-103906509D01*
X152650000Y-105506509D01*
%TO.C,C30*%
X135150000Y-58306509D02*
X135950000Y-58306509D01*
X135950000Y-59906509D01*
X135150000Y-59906509D01*
X135150000Y-58306509D01*
%TO.C,C26*%
X152650000Y-85806509D02*
X151850000Y-85806509D01*
X151850000Y-84206509D01*
X152650000Y-84206509D01*
X152650000Y-85806509D01*
%TO.C,C27*%
X152700000Y-79706509D02*
X151900000Y-79706509D01*
X151900000Y-78106509D01*
X152700000Y-78106509D01*
X152700000Y-79706509D01*
%TO.C,C28*%
X152650000Y-73356509D02*
X151850000Y-73356509D01*
X151850000Y-71756509D01*
X152650000Y-71756509D01*
X152650000Y-73356509D01*
%TO.C,C29*%
X152650000Y-66406509D02*
X151850000Y-66406509D01*
X151850000Y-64806509D01*
X152650000Y-64806509D01*
X152650000Y-66406509D01*
%TO.C,C33*%
X135150000Y-78256509D02*
X135950000Y-78256509D01*
X135950000Y-79856509D01*
X135150000Y-79856509D01*
X135150000Y-78256509D01*
%TO.C,C35*%
X135150000Y-90556509D02*
X135950000Y-90556509D01*
X135950000Y-92156509D01*
X135150000Y-92156509D01*
X135150000Y-90556509D01*
%TO.C,C37*%
X135150000Y-103506509D02*
X135950000Y-103506509D01*
X135950000Y-105106509D01*
X135150000Y-105106509D01*
X135150000Y-103506509D01*
%TO.C,C31*%
X135100000Y-64656509D02*
X135900000Y-64656509D01*
X135900000Y-66256509D01*
X135100000Y-66256509D01*
X135100000Y-64656509D01*
%TD*%
M02*
