%TF.GenerationSoftware,KiCad,Pcbnew,9.0.7-9.0.7~ubuntu24.04.1*%
%TF.CreationDate,2026-02-07T12:52:25+01:00*%
%TF.ProjectId,ESP Drone,45535020-4472-46f6-9e65-2e6b69636164,rev?*%
%TF.SameCoordinates,Original*%
%TF.FileFunction,Paste,Top*%
%TF.FilePolarity,Positive*%
%FSLAX46Y46*%
G04 Gerber Fmt 4.6, Leading zero omitted, Abs format (unit mm)*
G04 Created by KiCad (PCBNEW 9.0.7-9.0.7~ubuntu24.04.1) date 2026-02-07 12:52:25*
%MOMM*%
%LPD*%
G01*
G04 APERTURE LIST*
G04 Aperture macros list*
%AMRoundRect*
0 Rectangle with rounded corners*
0 $1 Rounding radius*
0 $2 $3 $4 $5 $6 $7 $8 $9 X,Y pos of 4 corners*
0 Add a 4 corners polygon primitive as box body*
4,1,4,$2,$3,$4,$5,$6,$7,$8,$9,$2,$3,0*
0 Add four circle primitives for the rounded corners*
1,1,$1+$1,$2,$3*
1,1,$1+$1,$4,$5*
1,1,$1+$1,$6,$7*
1,1,$1+$1,$8,$9*
0 Add four rect primitives between the rounded corners*
20,1,$1+$1,$2,$3,$4,$5,0*
20,1,$1+$1,$4,$5,$6,$7,0*
20,1,$1+$1,$6,$7,$8,$9,0*
20,1,$1+$1,$8,$9,$2,$3,0*%
G04 Aperture macros list end*
%ADD10RoundRect,0.225000X-0.225000X-0.250000X0.225000X-0.250000X0.225000X0.250000X-0.225000X0.250000X0*%
%ADD11RoundRect,0.225000X-0.250000X0.225000X-0.250000X-0.225000X0.250000X-0.225000X0.250000X0.225000X0*%
%ADD12RoundRect,0.079500X0.079500X0.100500X-0.079500X0.100500X-0.079500X-0.100500X0.079500X-0.100500X0*%
%ADD13RoundRect,0.225000X0.250000X-0.225000X0.250000X0.225000X-0.250000X0.225000X-0.250000X-0.225000X0*%
%ADD14RoundRect,0.250000X0.650000X-0.325000X0.650000X0.325000X-0.650000X0.325000X-0.650000X-0.325000X0*%
%ADD15RoundRect,0.218750X-0.218750X-0.381250X0.218750X-0.381250X0.218750X0.381250X-0.218750X0.381250X0*%
%ADD16RoundRect,0.075000X-0.350000X-0.075000X0.350000X-0.075000X0.350000X0.075000X-0.350000X0.075000X0*%
%ADD17RoundRect,0.075000X0.075000X-0.350000X0.075000X0.350000X-0.075000X0.350000X-0.075000X-0.350000X0*%
%ADD18RoundRect,0.079500X-0.100500X0.079500X-0.100500X-0.079500X0.100500X-0.079500X0.100500X0.079500X0*%
%ADD19RoundRect,0.250000X-0.650000X0.325000X-0.650000X-0.325000X0.650000X-0.325000X0.650000X0.325000X0*%
%ADD20RoundRect,0.079500X0.100500X-0.079500X0.100500X0.079500X-0.100500X0.079500X-0.100500X-0.079500X0*%
%ADD21RoundRect,0.375000X-0.625000X-0.375000X0.625000X-0.375000X0.625000X0.375000X-0.625000X0.375000X0*%
%ADD22RoundRect,0.500000X-0.500000X-1.400000X0.500000X-1.400000X0.500000X1.400000X-0.500000X1.400000X0*%
%ADD23RoundRect,0.250000X-0.325000X-0.650000X0.325000X-0.650000X0.325000X0.650000X-0.325000X0.650000X0*%
%ADD24RoundRect,0.250000X0.325000X0.650000X-0.325000X0.650000X-0.325000X-0.650000X0.325000X-0.650000X0*%
%ADD25RoundRect,0.079500X-0.079500X-0.100500X0.079500X-0.100500X0.079500X0.100500X-0.079500X0.100500X0*%
%ADD26RoundRect,0.225000X0.225000X0.250000X-0.225000X0.250000X-0.225000X-0.250000X0.225000X-0.250000X0*%
%ADD27RoundRect,0.250000X0.250000X-0.275000X0.250000X0.275000X-0.250000X0.275000X-0.250000X-0.275000X0*%
%ADD28RoundRect,0.250000X0.275000X-0.850000X0.275000X0.850000X-0.275000X0.850000X-0.275000X-0.850000X0*%
%ADD29RoundRect,0.250000X-1.075000X0.375000X-1.075000X-0.375000X1.075000X-0.375000X1.075000X0.375000X0*%
%ADD30RoundRect,0.250000X-0.275000X-0.275000X0.275000X-0.275000X0.275000X0.275000X-0.275000X0.275000X0*%
%ADD31RoundRect,0.062500X-0.350000X-0.062500X0.350000X-0.062500X0.350000X0.062500X-0.350000X0.062500X0*%
%ADD32RoundRect,0.062500X-0.062500X-0.350000X0.062500X-0.350000X0.062500X0.350000X-0.062500X0.350000X0*%
%ADD33RoundRect,0.150000X-0.512500X-0.150000X0.512500X-0.150000X0.512500X0.150000X-0.512500X0.150000X0*%
%ADD34R,1.100000X0.850000*%
%ADD35R,1.100000X0.750000*%
%ADD36R,1.000000X1.200000*%
%ADD37R,1.350000X1.550000*%
%ADD38R,1.350000X1.900000*%
%ADD39R,1.800000X1.170000*%
G04 APERTURE END LIST*
D10*
%TO.C,C10*%
X123950000Y-72806509D03*
X125500000Y-72806509D03*
%TD*%
D11*
%TO.C,C20*%
X169350000Y-76056509D03*
X169350000Y-77606509D03*
%TD*%
D12*
%TO.C,R7*%
X174695000Y-83606509D03*
X174005000Y-83606509D03*
%TD*%
D13*
%TO.C,C15*%
X163600000Y-99281509D03*
X163600000Y-97731509D03*
%TD*%
D14*
%TO.C,C21*%
X168850000Y-94556509D03*
X168850000Y-91606509D03*
%TD*%
D15*
%TO.C,L2*%
X173287500Y-76106509D03*
X175412500Y-76106509D03*
%TD*%
D16*
%TO.C,U3*%
X121600000Y-67806509D03*
X121600000Y-68306509D03*
X121600000Y-68806509D03*
X121600000Y-69306509D03*
X121600000Y-69806509D03*
X121600000Y-70306509D03*
D17*
X122300000Y-71006509D03*
X122800000Y-71006509D03*
X123300000Y-71006509D03*
X123800000Y-71006509D03*
X124300000Y-71006509D03*
X124800000Y-71006509D03*
D16*
X125500000Y-70306509D03*
X125500000Y-69806509D03*
X125500000Y-69306509D03*
X125500000Y-68806509D03*
X125500000Y-68306509D03*
X125500000Y-67806509D03*
D17*
X124800000Y-67106509D03*
X124300000Y-67106509D03*
X123800000Y-67106509D03*
X123300000Y-67106509D03*
X122800000Y-67106509D03*
X122300000Y-67106509D03*
%TD*%
D13*
%TO.C,C16*%
X163900000Y-104681509D03*
X163900000Y-103131509D03*
%TD*%
D14*
%TO.C,C9*%
X121000000Y-76006509D03*
X121000000Y-73056509D03*
%TD*%
D18*
%TO.C,R2*%
X108250000Y-82186509D03*
X108250000Y-82876509D03*
%TD*%
D19*
%TO.C,C4*%
X111800000Y-84281509D03*
X111800000Y-87231509D03*
%TD*%
D20*
%TO.C,R6*%
X122000000Y-65651509D03*
X122000000Y-64961509D03*
%TD*%
D14*
%TO.C,C38*%
X171350000Y-94556509D03*
X171350000Y-91606509D03*
%TD*%
D21*
%TO.C,U4*%
X119250000Y-79356509D03*
X119250000Y-81656509D03*
D22*
X125550000Y-81656509D03*
D21*
X119250000Y-83956509D03*
%TD*%
D23*
%TO.C,C6*%
X117950000Y-86569009D03*
X120900000Y-86569009D03*
%TD*%
D24*
%TO.C,C42*%
X166825000Y-90106509D03*
X163875000Y-90106509D03*
%TD*%
D19*
%TO.C,C5*%
X114950000Y-84331509D03*
X114950000Y-87281509D03*
%TD*%
D25*
%TO.C,R4*%
X158655000Y-91406509D03*
X159345000Y-91406509D03*
%TD*%
D26*
%TO.C,C19*%
X178625000Y-74106509D03*
X177075000Y-74106509D03*
%TD*%
D20*
%TO.C,R8*%
X171450000Y-80606509D03*
X171450000Y-79916509D03*
%TD*%
D13*
%TO.C,C8*%
X119000000Y-74806509D03*
X119000000Y-73256509D03*
%TD*%
D27*
%TO.C,J7*%
X179050000Y-89436509D03*
D28*
X177575000Y-87911509D03*
X180525000Y-87911509D03*
%TD*%
D11*
%TO.C,C3*%
X102250000Y-79431509D03*
X102250000Y-80981509D03*
%TD*%
D20*
%TO.C,R3*%
X108200000Y-84826509D03*
X108200000Y-84136509D03*
%TD*%
D13*
%TO.C,C40*%
X169850000Y-89381509D03*
X169850000Y-87831509D03*
%TD*%
D10*
%TO.C,C14*%
X176075000Y-83606509D03*
X177625000Y-83606509D03*
%TD*%
D24*
%TO.C,C22*%
X166825000Y-79106509D03*
X163875000Y-79106509D03*
%TD*%
D26*
%TO.C,C17*%
X178625000Y-76106509D03*
X177075000Y-76106509D03*
%TD*%
D19*
%TO.C,C1*%
X103062500Y-85056509D03*
X103062500Y-88006509D03*
%TD*%
D23*
%TO.C,C13*%
X163875000Y-87606509D03*
X166825000Y-87606509D03*
%TD*%
D25*
%TO.C,R1*%
X105935000Y-84081509D03*
X106625000Y-84081509D03*
%TD*%
D13*
%TO.C,C39*%
X171850000Y-89656509D03*
X171850000Y-88106509D03*
%TD*%
D23*
%TO.C,C11*%
X159400000Y-81606509D03*
X162350000Y-81606509D03*
%TD*%
D18*
%TO.C,R5*%
X123000000Y-64641509D03*
X123000000Y-65331509D03*
%TD*%
D29*
%TO.C,L1*%
X112500000Y-78406509D03*
X112500000Y-81206509D03*
%TD*%
D24*
%TO.C,C7*%
X125900000Y-86569009D03*
X122950000Y-86569009D03*
%TD*%
D30*
%TO.C,U5*%
X168700000Y-82956509D03*
X168700000Y-84256509D03*
X170000000Y-82956509D03*
X170000000Y-84256509D03*
D31*
X167412500Y-82356509D03*
X167412500Y-82856509D03*
X167412500Y-83356509D03*
X167412500Y-83856509D03*
X167412500Y-84356509D03*
X167412500Y-84856509D03*
D32*
X168100000Y-85544009D03*
X168600000Y-85544009D03*
X169100000Y-85544009D03*
X169600000Y-85544009D03*
X170100000Y-85544009D03*
X170600000Y-85544009D03*
D31*
X171287500Y-84856509D03*
X171287500Y-84356509D03*
X171287500Y-83856509D03*
X171287500Y-83356509D03*
X171287500Y-82856509D03*
X171287500Y-82356509D03*
D32*
X170600000Y-81669009D03*
X170100000Y-81669009D03*
X169600000Y-81669009D03*
X169100000Y-81669009D03*
X168600000Y-81669009D03*
X168100000Y-81669009D03*
%TD*%
D33*
%TO.C,U2*%
X104562500Y-80081509D03*
X104562500Y-81031509D03*
X104562500Y-81981509D03*
X106837500Y-81981509D03*
X106837500Y-81031509D03*
X106837500Y-80081509D03*
%TD*%
D13*
%TO.C,C18*%
X171350000Y-77606509D03*
X171350000Y-76056509D03*
%TD*%
D10*
%TO.C,C41*%
X164075000Y-82106509D03*
X165625000Y-82106509D03*
%TD*%
D34*
%TO.C,J1*%
X124300000Y-93501509D03*
X124300000Y-94601509D03*
X124300000Y-95701509D03*
X124300000Y-96801509D03*
X124300000Y-97901509D03*
X124300000Y-99001509D03*
X124300000Y-100101509D03*
D35*
X124300000Y-101151509D03*
D36*
X118150000Y-90866509D03*
X114450000Y-90866509D03*
D37*
X124175000Y-91041509D03*
D38*
X113475000Y-94366509D03*
X113475000Y-100336509D03*
D39*
X123950000Y-102361509D03*
%TD*%
M02*
