%TF.GenerationSoftware,KiCad,Pcbnew,9.0.7-9.0.7~ubuntu24.04.1*%
%TF.CreationDate,2026-02-07T12:52:25+01:00*%
%TF.ProjectId,ESP Drone,45535020-4472-46f6-9e65-2e6b69636164,rev?*%
%TF.SameCoordinates,Original*%
%TF.FileFunction,Copper,L2,Bot*%
%TF.FilePolarity,Positive*%
%FSLAX46Y46*%
G04 Gerber Fmt 4.6, Leading zero omitted, Abs format (unit mm)*
G04 Created by KiCad (PCBNEW 9.0.7-9.0.7~ubuntu24.04.1) date 2026-02-07 12:52:25*
%MOMM*%
%LPD*%
G01*
G04 APERTURE LIST*
G04 Aperture macros list*
%AMRoundRect*
0 Rectangle with rounded corners*
0 $1 Rounding radius*
0 $2 $3 $4 $5 $6 $7 $8 $9 X,Y pos of 4 corners*
0 Add a 4 corners polygon primitive as box body*
4,1,4,$2,$3,$4,$5,$6,$7,$8,$9,$2,$3,0*
0 Add four circle primitives for the rounded corners*
1,1,$1+$1,$2,$3*
1,1,$1+$1,$4,$5*
1,1,$1+$1,$6,$7*
1,1,$1+$1,$8,$9*
0 Add four rect primitives between the rounded corners*
20,1,$1+$1,$2,$3,$4,$5,0*
20,1,$1+$1,$4,$5,$6,$7,0*
20,1,$1+$1,$6,$7,$8,$9,0*
20,1,$1+$1,$8,$9,$2,$3,0*%
G04 Aperture macros list end*
%TA.AperFunction,SMDPad,CuDef*%
%ADD10RoundRect,0.090000X0.660000X0.360000X-0.660000X0.360000X-0.660000X-0.360000X0.660000X-0.360000X0*%
%TD*%
%TA.AperFunction,SMDPad,CuDef*%
%ADD11RoundRect,0.090000X-0.660000X-0.360000X0.660000X-0.360000X0.660000X0.360000X-0.660000X0.360000X0*%
%TD*%
%TA.AperFunction,ComponentPad*%
%ADD12O,1.700000X1.950000*%
%TD*%
%TA.AperFunction,ComponentPad*%
%ADD13RoundRect,0.250000X-0.600000X-0.725000X0.600000X-0.725000X0.600000X0.725000X-0.600000X0.725000X0*%
%TD*%
%TA.AperFunction,ComponentPad*%
%ADD14RoundRect,0.250000X0.600000X0.725000X-0.600000X0.725000X-0.600000X-0.725000X0.600000X-0.725000X0*%
%TD*%
%TA.AperFunction,ComponentPad*%
%ADD15O,1.950000X1.700000*%
%TD*%
%TA.AperFunction,ComponentPad*%
%ADD16RoundRect,0.250000X0.725000X-0.600000X0.725000X0.600000X-0.725000X0.600000X-0.725000X-0.600000X0*%
%TD*%
%TA.AperFunction,SMDPad,CuDef*%
%ADD17RoundRect,0.225000X-0.250000X0.225000X-0.250000X-0.225000X0.250000X-0.225000X0.250000X0.225000X0*%
%TD*%
%TA.AperFunction,SMDPad,CuDef*%
%ADD18RoundRect,0.225000X0.250000X-0.225000X0.250000X0.225000X-0.250000X0.225000X-0.250000X-0.225000X0*%
%TD*%
%TA.AperFunction,ComponentPad*%
%ADD19C,1.500000*%
%TD*%
%TA.AperFunction,ComponentPad*%
%ADD20R,2.000000X1.200000*%
%TD*%
%TA.AperFunction,ComponentPad*%
%ADD21O,2.000000X1.200000*%
%TD*%
%TA.AperFunction,ViaPad*%
%ADD22C,0.600000*%
%TD*%
%TA.AperFunction,ViaPad*%
%ADD23C,0.800000*%
%TD*%
%TA.AperFunction,Conductor*%
%ADD24C,0.200000*%
%TD*%
%TA.AperFunction,Conductor*%
%ADD25C,0.400000*%
%TD*%
G04 APERTURE END LIST*
D10*
%TO.P,D9,4,DIN*%
%TO.N,Net-(D8-DOUT)*%
X137450000Y-57416509D03*
%TO.P,D9,3,VSS*%
%TO.N,GND*%
X137450000Y-60716509D03*
%TO.P,D9,2,DOUT*%
%TO.N,Net-(D10-DIN)*%
X142350000Y-60716509D03*
%TO.P,D9,1,VDD*%
%TO.N,+ 5v*%
X142350000Y-57416509D03*
%TD*%
%TO.P,D12,4,DIN*%
%TO.N,Net-(D11-DOUT)*%
X137450000Y-77276509D03*
%TO.P,D12,3,VSS*%
%TO.N,GND*%
X137450000Y-80576509D03*
%TO.P,D12,2,DOUT*%
%TO.N,Net-(D12-DOUT)*%
X142350000Y-80576509D03*
%TO.P,D12,1,VDD*%
%TO.N,+ 5v*%
X142350000Y-77276509D03*
%TD*%
%TO.P,D11,4,DIN*%
%TO.N,Net-(D10-DOUT)*%
X137450000Y-70656509D03*
%TO.P,D11,3,VSS*%
%TO.N,GND*%
X137450000Y-73956509D03*
%TO.P,D11,2,DOUT*%
%TO.N,Net-(D11-DOUT)*%
X142350000Y-73956509D03*
%TO.P,D11,1,VDD*%
%TO.N,+ 5v*%
X142350000Y-70656509D03*
%TD*%
%TO.P,D10,4,DIN*%
%TO.N,Net-(D10-DIN)*%
X137450000Y-64036509D03*
%TO.P,D10,3,VSS*%
%TO.N,GND*%
X137450000Y-67336509D03*
%TO.P,D10,2,DOUT*%
%TO.N,Net-(D10-DOUT)*%
X142350000Y-67336509D03*
%TO.P,D10,1,VDD*%
%TO.N,+ 5v*%
X142350000Y-64036509D03*
%TD*%
%TO.P,D13,4,DIN*%
%TO.N,Net-(D12-DOUT)*%
X137500000Y-83256509D03*
%TO.P,D13,3,VSS*%
%TO.N,GND*%
X137500000Y-86556509D03*
%TO.P,D13,2,DOUT*%
%TO.N,Net-(D13-DOUT)*%
X142400000Y-86556509D03*
%TO.P,D13,1,VDD*%
%TO.N,+ 5v*%
X142400000Y-83256509D03*
%TD*%
%TO.P,D16,4,DIN*%
%TO.N,Net-(D15-DOUT)*%
X137500000Y-103116509D03*
%TO.P,D16,3,VSS*%
%TO.N,GND*%
X137500000Y-106416509D03*
%TO.P,D16,2,DOUT*%
%TO.N,unconnected-(D16-DOUT-Pad2)*%
X142400000Y-106416509D03*
%TO.P,D16,1,VDD*%
%TO.N,+ 5v*%
X142400000Y-103116509D03*
%TD*%
%TO.P,D14,4,DIN*%
%TO.N,Net-(D13-DOUT)*%
X137500000Y-89876509D03*
%TO.P,D14,3,VSS*%
%TO.N,GND*%
X137500000Y-93176509D03*
%TO.P,D14,2,DOUT*%
%TO.N,Net-(D14-DOUT)*%
X142400000Y-93176509D03*
%TO.P,D14,1,VDD*%
%TO.N,+ 5v*%
X142400000Y-89876509D03*
%TD*%
%TO.P,D15,4,DIN*%
%TO.N,Net-(D14-DOUT)*%
X137500000Y-96496509D03*
%TO.P,D15,3,VSS*%
%TO.N,GND*%
X137500000Y-99796509D03*
%TO.P,D15,2,DOUT*%
%TO.N,Net-(D15-DOUT)*%
X142400000Y-99796509D03*
%TO.P,D15,1,VDD*%
%TO.N,+ 5v*%
X142400000Y-96496509D03*
%TD*%
D11*
%TO.P,D4,1,VDD*%
%TO.N,+ 5v*%
X145400000Y-86666509D03*
%TO.P,D4,2,DOUT*%
%TO.N,Net-(D4-DOUT)*%
X145400000Y-83366509D03*
%TO.P,D4,3,VSS*%
%TO.N,GND*%
X150300000Y-83366509D03*
%TO.P,D4,4,DIN*%
%TO.N,Net-(D3-DOUT)*%
X150300000Y-86666509D03*
%TD*%
%TO.P,D3,1,VDD*%
%TO.N,+ 5v*%
X145400000Y-93286509D03*
%TO.P,D3,2,DOUT*%
%TO.N,Net-(D3-DOUT)*%
X145400000Y-89986509D03*
%TO.P,D3,3,VSS*%
%TO.N,GND*%
X150300000Y-89986509D03*
%TO.P,D3,4,DIN*%
%TO.N,Net-(D2-DOUT)*%
X150300000Y-93286509D03*
%TD*%
%TO.P,D2,1,VDD*%
%TO.N,+ 5v*%
X145400000Y-99906509D03*
%TO.P,D2,2,DOUT*%
%TO.N,Net-(D2-DOUT)*%
X145400000Y-96606509D03*
%TO.P,D2,3,VSS*%
%TO.N,GND*%
X150300000Y-96606509D03*
%TO.P,D2,4,DIN*%
%TO.N,Net-(D1-DOUT)*%
X150300000Y-99906509D03*
%TD*%
%TO.P,D1,1,VDD*%
%TO.N,+ 5v*%
X145400000Y-106526509D03*
%TO.P,D1,2,DOUT*%
%TO.N,Net-(D1-DOUT)*%
X145400000Y-103226509D03*
%TO.P,D1,3,VSS*%
%TO.N,GND*%
X150300000Y-103226509D03*
%TO.P,D1,4,DIN*%
%TO.N,LED*%
X150300000Y-106526509D03*
%TD*%
D12*
%TO.P,J3,3,Pin_3*%
%TO.N,GND*%
X161500000Y-108056509D03*
%TO.P,J3,2,Pin_2*%
%TO.N,unconnected-(J3-Pin_2-Pad2)*%
X159000000Y-108056509D03*
D13*
%TO.P,J3,1,Pin_1*%
%TO.N,ESC 1*%
X156500000Y-108056509D03*
%TD*%
D12*
%TO.P,J4,3,Pin_3*%
%TO.N,GND*%
X131350000Y-108006509D03*
%TO.P,J4,2,Pin_2*%
%TO.N,unconnected-(J4-Pin_2-Pad2)*%
X128850000Y-108006509D03*
D13*
%TO.P,J4,1,Pin_1*%
%TO.N,ESC 2*%
X126350000Y-108006509D03*
%TD*%
D12*
%TO.P,J5,3,Pin_3*%
%TO.N,GND*%
X161500000Y-60056509D03*
%TO.P,J5,2,Pin_2*%
%TO.N,unconnected-(J5-Pin_2-Pad2)*%
X164000000Y-60056509D03*
D14*
%TO.P,J5,1,Pin_1*%
%TO.N,ESC 3*%
X166500000Y-60056509D03*
%TD*%
D15*
%TO.P,J2,6,Pin_6*%
%TO.N,GPS SCL*%
X112850000Y-58956509D03*
%TO.P,J2,5,Pin_5*%
%TO.N,GPS SDA*%
X112850000Y-61456509D03*
%TO.P,J2,4,Pin_4*%
%TO.N,GPS RX*%
X112850000Y-63956509D03*
%TO.P,J2,3,Pin_3*%
%TO.N,GPS TX *%
X112850000Y-66456509D03*
%TO.P,J2,2,Pin_2*%
%TO.N,GND*%
X112850000Y-68956509D03*
D16*
%TO.P,J2,1,Pin_1*%
%TO.N,+ 5v*%
X112850000Y-71456509D03*
%TD*%
D12*
%TO.P,J6,3,Pin_3*%
%TO.N,GND*%
X121100000Y-60156509D03*
%TO.P,J6,2,Pin_2*%
%TO.N,unconnected-(J6-Pin_2-Pad2)*%
X123600000Y-60156509D03*
D14*
%TO.P,J6,1,Pin_1*%
%TO.N,ESC 4*%
X126100000Y-60156509D03*
%TD*%
D11*
%TO.P,D7,1,VDD*%
%TO.N,+ 5v*%
X145400000Y-67306509D03*
%TO.P,D7,2,DOUT*%
%TO.N,Net-(D7-DOUT)*%
X145400000Y-64006509D03*
%TO.P,D7,3,VSS*%
%TO.N,GND*%
X150300000Y-64006509D03*
%TO.P,D7,4,DIN*%
%TO.N,Net-(D6-DOUT)*%
X150300000Y-67306509D03*
%TD*%
%TO.P,D8,1,VDD*%
%TO.N,+ 5v*%
X145400000Y-60686509D03*
%TO.P,D8,2,DOUT*%
%TO.N,Net-(D8-DOUT)*%
X145400000Y-57386509D03*
%TO.P,D8,3,VSS*%
%TO.N,GND*%
X150300000Y-57386509D03*
%TO.P,D8,4,DIN*%
%TO.N,Net-(D7-DOUT)*%
X150300000Y-60686509D03*
%TD*%
%TO.P,D6,1,VDD*%
%TO.N,+ 5v*%
X145400000Y-73926509D03*
%TO.P,D6,2,DOUT*%
%TO.N,Net-(D6-DOUT)*%
X145400000Y-70626509D03*
%TO.P,D6,3,VSS*%
%TO.N,GND*%
X150300000Y-70626509D03*
%TO.P,D6,4,DIN*%
%TO.N,Net-(D5-DOUT)*%
X150300000Y-73926509D03*
%TD*%
%TO.P,D5,1,VDD*%
%TO.N,+ 5v*%
X145400000Y-80546509D03*
%TO.P,D5,2,DOUT*%
%TO.N,Net-(D5-DOUT)*%
X145400000Y-77246509D03*
%TO.P,D5,3,VSS*%
%TO.N,GND*%
X150300000Y-77246509D03*
%TO.P,D5,4,DIN*%
%TO.N,Net-(D4-DOUT)*%
X150300000Y-80546509D03*
%TD*%
D17*
%TO.P,C36,2*%
%TO.N,GND*%
X135550000Y-98681509D03*
%TO.P,C36,1*%
%TO.N,+ 5v*%
X135550000Y-97131509D03*
%TD*%
D18*
%TO.P,C2,2*%
%TO.N,GND*%
X152250000Y-58181509D03*
%TO.P,C2,1*%
%TO.N,+ 5v*%
X152250000Y-59731509D03*
%TD*%
D17*
%TO.P,C34,2*%
%TO.N,GND*%
X135550000Y-85531509D03*
%TO.P,C34,1*%
%TO.N,+ 5v*%
X135550000Y-83981509D03*
%TD*%
D18*
%TO.P,C24,2*%
%TO.N,GND*%
X152200000Y-97531509D03*
%TO.P,C24,1*%
%TO.N,+ 5v*%
X152200000Y-99081509D03*
%TD*%
%TO.P,C25,2*%
%TO.N,GND*%
X152250000Y-90831509D03*
%TO.P,C25,1*%
%TO.N,+ 5v*%
X152250000Y-92381509D03*
%TD*%
D17*
%TO.P,C32,2*%
%TO.N,GND*%
X135500000Y-72931509D03*
%TO.P,C32,1*%
%TO.N,+ 5v*%
X135500000Y-71381509D03*
%TD*%
D18*
%TO.P,C23,2*%
%TO.N,GND*%
X152250000Y-103931509D03*
%TO.P,C23,1*%
%TO.N,+ 5v*%
X152250000Y-105481509D03*
%TD*%
D17*
%TO.P,C30,2*%
%TO.N,GND*%
X135550000Y-59881509D03*
%TO.P,C30,1*%
%TO.N,+ 5v*%
X135550000Y-58331509D03*
%TD*%
D18*
%TO.P,C26,2*%
%TO.N,GND*%
X152250000Y-84231509D03*
%TO.P,C26,1*%
%TO.N,+ 5v*%
X152250000Y-85781509D03*
%TD*%
%TO.P,C27,2*%
%TO.N,GND*%
X152300000Y-78131509D03*
%TO.P,C27,1*%
%TO.N,+ 5v*%
X152300000Y-79681509D03*
%TD*%
%TO.P,C28,2*%
%TO.N,GND*%
X152250000Y-71781509D03*
%TO.P,C28,1*%
%TO.N,+ 5v*%
X152250000Y-73331509D03*
%TD*%
%TO.P,C29,2*%
%TO.N,GND*%
X152250000Y-64831509D03*
%TO.P,C29,1*%
%TO.N,+ 5v*%
X152250000Y-66381509D03*
%TD*%
D17*
%TO.P,C33,2*%
%TO.N,GND*%
X135550000Y-79831509D03*
%TO.P,C33,1*%
%TO.N,+ 5v*%
X135550000Y-78281509D03*
%TD*%
%TO.P,C35,2*%
%TO.N,GND*%
X135550000Y-92131509D03*
%TO.P,C35,1*%
%TO.N,+ 5v*%
X135550000Y-90581509D03*
%TD*%
%TO.P,C37,2*%
%TO.N,GND*%
X135550000Y-105081509D03*
%TO.P,C37,1*%
%TO.N,+ 5v*%
X135550000Y-103531509D03*
%TD*%
%TO.P,C31,2*%
%TO.N,GND*%
X135500000Y-66231509D03*
%TO.P,C31,1*%
%TO.N,+ 5v*%
X135500000Y-64681509D03*
%TD*%
D19*
%TO.P,Y1,1,1*%
%TO.N,Trans XTB*%
X166025000Y-104756509D03*
%TO.P,Y1,2,2*%
%TO.N,Trans XTA*%
X166025000Y-99856509D03*
%TD*%
D20*
%TO.P,U1,1,GND*%
%TO.N,GND*%
X131150000Y-58376509D03*
D21*
%TO.P,U1,2,3V3*%
%TO.N,+ 3.3v*%
X131150000Y-60916509D03*
%TO.P,U1,3,IO00*%
%TO.N,unconnected-(U1-IO00-Pad3)*%
X131150000Y-63456509D03*
%TO.P,U1,4,IO01*%
%TO.N,GPS SDA*%
X131150000Y-65996509D03*
%TO.P,U1,5,IO02*%
%TO.N,GPS SCL*%
X131150000Y-68536509D03*
%TO.P,U1,6,IO03*%
%TO.N,GPS RX*%
X131150000Y-71076509D03*
%TO.P,U1,7,IO04*%
%TO.N,GPS TX *%
X131150000Y-73616509D03*
%TO.P,U1,8,IO05*%
%TO.N,SDA MPU*%
X131150000Y-76156509D03*
%TO.P,U1,9,IO06*%
%TO.N,SCL MPU*%
X131150000Y-78696509D03*
%TO.P,U1,10,IO07*%
%TO.N,unconnected-(U1-IO07-Pad10)*%
X131150000Y-81236509D03*
%TO.P,U1,11,IO08*%
%TO.N,unconnected-(U1-IO08-Pad11)*%
X131150000Y-83776509D03*
%TO.P,U1,12,IO09*%
%TO.N,unconnected-(U1-IO09-Pad12)*%
X131150000Y-86316509D03*
%TO.P,U1,13,IO10*%
%TO.N,unconnected-(U1-IO10-Pad13)*%
X131150000Y-88856509D03*
%TO.P,U1,14,IO11*%
%TO.N,SD CMD*%
X131150000Y-91396509D03*
%TO.P,U1,15,IO12*%
%TO.N,SD CKL*%
X131150000Y-93936509D03*
%TO.P,U1,16,IO13*%
%TO.N,SD DAT0*%
X131150000Y-96476509D03*
%TO.P,U1,17,IO14*%
%TO.N,SD DAT3{slash}CD*%
X131150000Y-99016509D03*
%TO.P,U1,18,IO15*%
%TO.N,ESC 4*%
X131150000Y-101556509D03*
%TO.P,U1,19,IO16*%
%TO.N,ESC 3*%
X131150000Y-104096509D03*
%TO.P,U1,20,IO17*%
%TO.N,ESC 2*%
X156546320Y-104093789D03*
%TO.P,U1,21,IO18*%
%TO.N,ESC 1*%
X156546320Y-101553789D03*
%TO.P,U1,22,USB_D-*%
%TO.N,unconnected-(U1-USB_D--Pad22)*%
X156550000Y-99016509D03*
%TO.P,U1,23,USB_D+*%
%TO.N,unconnected-(U1-USB_D+-Pad23)*%
X156550000Y-96476509D03*
%TO.P,U1,24,IO21*%
%TO.N,Trans RESET*%
X156550000Y-93936509D03*
%TO.P,U1,25,IO26*%
%TO.N,Net-(U1-IO26)*%
X156550000Y-91396509D03*
%TO.P,U1,26,GND*%
%TO.N,GND*%
X156550000Y-88856509D03*
%TO.P,U1,27,IO33*%
%TO.N,unconnected-(U1-IO33-Pad27)*%
X156550000Y-86316509D03*
%TO.P,U1,28,IO34*%
%TO.N,Trans SCK*%
X156550000Y-83776509D03*
%TO.P,U1,29,IO35*%
%TO.N,Trans DI03*%
X156550000Y-81236509D03*
%TO.P,U1,30,IO36*%
%TO.N,Trans DI02*%
X156550000Y-78696509D03*
%TO.P,U1,31,IO37*%
%TO.N,Trans DI01*%
X156550000Y-76156509D03*
%TO.P,U1,32,IO38*%
%TO.N,Trans BUSI*%
X156550000Y-73616509D03*
%TO.P,U1,33,IO39*%
%TO.N,Trans NSS*%
X156550000Y-71076509D03*
%TO.P,U1,34,IO40*%
%TO.N,Trans MOSI*%
X156550000Y-68536509D03*
%TO.P,U1,35,IO41*%
%TO.N,Trans MISO*%
X156550000Y-65996509D03*
%TO.P,U1,36,IO42*%
%TO.N,unconnected-(U1-IO42-Pad36)*%
X156550000Y-63456509D03*
%TO.P,U1,37,TXD0*%
%TO.N,unconnected-(U1-TXD0-Pad37)*%
X156550000Y-60916509D03*
%TO.P,U1,38,RXD0*%
%TO.N,unconnected-(U1-RXD0-Pad38)*%
X156550000Y-58376509D03*
%TD*%
D22*
%TO.N,Net-(J7-In)*%
X181550000Y-79156509D03*
X180500000Y-75106509D03*
%TO.N,+ 3.3v*%
X164750000Y-94006509D03*
X159750000Y-85406509D03*
X175875000Y-86631509D03*
X172959279Y-79266552D03*
%TO.N,GND*%
X166675000Y-75881509D03*
%TO.N,Trans DI02*%
X172950000Y-86406509D03*
%TO.N,Trans DI01*%
X172750000Y-85156509D03*
%TO.N,+ 5v*%
X152250000Y-59731509D03*
X152250000Y-66381509D03*
X152250000Y-73331509D03*
X152300000Y-79681509D03*
X152250000Y-85781509D03*
X152250000Y-92381509D03*
X152100000Y-99081509D03*
X152250000Y-105481509D03*
X135550000Y-103531509D03*
X135666000Y-97247509D03*
X135596000Y-90627509D03*
X135550000Y-83981509D03*
X135550000Y-78281509D03*
X135526000Y-71407509D03*
X135562500Y-64744009D03*
X135550000Y-58331509D03*
%TO.N,GND*%
X168000000Y-77206509D03*
%TO.N,Trans SCK*%
X174550000Y-80056509D03*
X172300000Y-74300000D03*
%TO.N,Trans XTB*%
X162000000Y-92906509D03*
X163850000Y-85156509D03*
%TO.N,GND*%
X126350000Y-64506509D03*
X126450000Y-67806509D03*
D23*
%TO.N,+ 3.3v*%
X128050000Y-81656509D03*
D22*
%TO.N,SD DAT3{slash}CD*%
X126050000Y-94506509D03*
%TO.N,+ 3.3v*%
X126500000Y-71306509D03*
X118000000Y-72031509D03*
%TO.N,LED*%
X160150000Y-91444009D03*
%TO.N,Trans BUSI*%
X174350000Y-85106509D03*
X169350000Y-71606509D03*
%TO.N,Trans MOSI*%
X172850000Y-82106509D03*
X166850000Y-72106509D03*
%TO.N,Trans DI03*%
X165799000Y-76450000D03*
X165600000Y-84856509D03*
%TO.N,Trans MISO*%
X165850000Y-72106509D03*
X172850000Y-83106509D03*
%TD*%
D24*
%TO.N,GND*%
X134700000Y-105006509D02*
X134700000Y-107906509D01*
X134700000Y-107906509D02*
X134500000Y-107706509D01*
X134500000Y-107706509D02*
X131650000Y-107706509D01*
X131650000Y-107706509D02*
X131350000Y-108006509D01*
%TO.N,Trans DI03*%
X165799000Y-76450000D02*
X165600000Y-76649000D01*
X165600000Y-76649000D02*
X165600000Y-84856509D01*
%TO.N,+ 3.3v*%
X175200057Y-86806509D02*
X175650000Y-86806509D01*
X171848000Y-79958509D02*
X171848000Y-83404509D01*
X172959279Y-79266552D02*
X172539957Y-79266552D01*
X173749000Y-85355452D02*
X175200057Y-86806509D01*
X172539957Y-79266552D02*
X171848000Y-79958509D01*
X171848000Y-83404509D02*
X173749000Y-85305509D01*
X173749000Y-85305509D02*
X173749000Y-85355452D01*
X175650000Y-86806509D02*
X175850000Y-86606509D01*
%TO.N,Trans SCK*%
X172300000Y-77256509D02*
X173500000Y-78456509D01*
X173500000Y-78456509D02*
X173500000Y-79006509D01*
X172300000Y-74300000D02*
X172300000Y-77256509D01*
X173500000Y-79006509D02*
X174550000Y-80056509D01*
%TO.N,GND*%
X152250000Y-103931509D02*
X154949000Y-106630509D01*
X154949000Y-106630509D02*
X159274000Y-106630509D01*
X159274000Y-106630509D02*
X159424000Y-106780509D01*
X159424000Y-106780509D02*
X160030509Y-106780509D01*
X160030509Y-106780509D02*
X160400000Y-107150000D01*
X160400000Y-107150000D02*
X160400000Y-107350000D01*
X160400000Y-107350000D02*
X160956509Y-107906509D01*
X160956509Y-107906509D02*
X161350000Y-107906509D01*
X161350000Y-107906509D02*
X161500000Y-108056509D01*
%TO.N,Net-(J7-In)*%
X181550000Y-76156509D02*
X181550000Y-79156509D01*
X180500000Y-75106509D02*
X181550000Y-76156509D01*
%TO.N,+ 3.3v*%
X162250057Y-94006509D02*
X164750000Y-94006509D01*
X161399000Y-93155452D02*
X162250057Y-94006509D01*
X161399000Y-87055509D02*
X161399000Y-93155452D01*
X159750000Y-85406509D02*
X161399000Y-87055509D01*
%TO.N,GPS SDA*%
X114150000Y-61456509D02*
X116400000Y-63706509D01*
X128860000Y-63706509D02*
X131150000Y-65996509D01*
X112850000Y-61456509D02*
X114150000Y-61456509D01*
X116400000Y-63706509D02*
X128860000Y-63706509D01*
%TO.N,GND*%
X126450000Y-67806509D02*
X126450000Y-64606509D01*
X126450000Y-64606509D02*
X126350000Y-64506509D01*
D25*
%TO.N,+ 3.3v*%
X128050000Y-81656509D02*
X129025000Y-80681509D01*
D24*
X125000000Y-73806509D02*
X125000000Y-76656509D01*
X125000000Y-76656509D02*
X129025000Y-80681509D01*
%TO.N,LED*%
X160050000Y-112656509D02*
X154300000Y-112656509D01*
X154300000Y-110526509D02*
X150300000Y-106526509D01*
X164000000Y-108706509D02*
X160050000Y-112656509D01*
X160150000Y-91444009D02*
X160150000Y-104856509D01*
X160150000Y-104856509D02*
X164000000Y-108706509D01*
X154300000Y-112656509D02*
X154300000Y-110526509D01*
%TO.N,ESC 3*%
X131150000Y-104096509D02*
X133750000Y-101496509D01*
X133750000Y-101496509D02*
X133750000Y-60408399D01*
X150554548Y-55556509D02*
X162000000Y-55556509D01*
X133750000Y-60408399D02*
X135075890Y-59082509D01*
X135075890Y-59082509D02*
X147028548Y-59082509D01*
X147028548Y-59082509D02*
X150554548Y-55556509D01*
X162000000Y-55556509D02*
X166500000Y-60056509D01*
%TO.N,Net-(D15-DOUT)*%
X142400000Y-99796509D02*
X140820000Y-99796509D01*
X140820000Y-99796509D02*
X137500000Y-103116509D01*
%TO.N,Net-(D14-DOUT)*%
X142400000Y-93176509D02*
X140820000Y-93176509D01*
X140820000Y-93176509D02*
X137500000Y-96496509D01*
%TO.N,Net-(D13-DOUT)*%
X142400000Y-86556509D02*
X140820000Y-86556509D01*
X140820000Y-86556509D02*
X137500000Y-89876509D01*
%TO.N,Net-(D12-DOUT)*%
X142350000Y-80576509D02*
X140180000Y-80576509D01*
X140180000Y-80576509D02*
X137500000Y-83256509D01*
%TO.N,Net-(D11-DOUT)*%
X142350000Y-73956509D02*
X140770000Y-73956509D01*
X140770000Y-73956509D02*
X137450000Y-77276509D01*
%TO.N,Net-(D10-DOUT)*%
X142350000Y-67336509D02*
X140770000Y-67336509D01*
X140770000Y-67336509D02*
X137450000Y-70656509D01*
%TO.N,Net-(D10-DIN)*%
X142350000Y-60716509D02*
X140770000Y-60716509D01*
X140770000Y-60716509D02*
X137450000Y-64036509D01*
%TO.N,Net-(D8-DOUT)*%
X145400000Y-57386509D02*
X144679000Y-56665509D01*
X144679000Y-56665509D02*
X138201000Y-56665509D01*
X138201000Y-56665509D02*
X137450000Y-57416509D01*
%TO.N,Net-(D7-DOUT)*%
X145400000Y-64006509D02*
X146980000Y-64006509D01*
X146980000Y-64006509D02*
X150300000Y-60686509D01*
%TO.N,Net-(D6-DOUT)*%
X145400000Y-70626509D02*
X146980000Y-70626509D01*
X146980000Y-70626509D02*
X150300000Y-67306509D01*
%TO.N,Net-(D5-DOUT)*%
X145400000Y-77246509D02*
X146980000Y-77246509D01*
X146980000Y-77246509D02*
X150300000Y-73926509D01*
%TO.N,Net-(D4-DOUT)*%
X145400000Y-83366509D02*
X147480000Y-83366509D01*
X147480000Y-83366509D02*
X150300000Y-80546509D01*
%TO.N,Net-(D3-DOUT)*%
X145400000Y-89986509D02*
X146980000Y-89986509D01*
X146980000Y-89986509D02*
X150300000Y-86666509D01*
%TO.N,Net-(D2-DOUT)*%
X145400000Y-96606509D02*
X146980000Y-96606509D01*
X146980000Y-96606509D02*
X150300000Y-93286509D01*
%TO.N,Net-(D1-DOUT)*%
X145400000Y-103226509D02*
X146980000Y-103226509D01*
X146980000Y-103226509D02*
X150300000Y-99906509D01*
%TO.N,GND*%
X166675000Y-75881509D02*
X166650000Y-75856509D01*
X166650000Y-75856509D02*
X166600000Y-75856509D01*
X168000000Y-77206509D02*
X166675000Y-75881509D01*
%TO.N,Trans DI02*%
X173002000Y-85858509D02*
X173002000Y-86354509D01*
X172950000Y-86406509D02*
X173002000Y-86354509D01*
X156550000Y-78696509D02*
X164788000Y-78696509D01*
X164798000Y-78706509D02*
X164798000Y-84089409D01*
X164788000Y-78696509D02*
X164798000Y-78706509D01*
X164798000Y-84089409D02*
X164598000Y-84289409D01*
X164598000Y-84289409D02*
X164598000Y-85271552D01*
X164598000Y-85271552D02*
X165184957Y-85858509D01*
X165184957Y-85858509D02*
X173002000Y-85858509D01*
%TO.N,+ 5v*%
X152100000Y-99081509D02*
X149525000Y-99081509D01*
X135562500Y-64744009D02*
X135606000Y-64787509D01*
%TO.N,GND*%
X153076000Y-59007509D02*
X153076000Y-64856509D01*
X152250000Y-64831509D02*
X153051000Y-64831509D01*
X153051000Y-64831509D02*
X153076000Y-64856509D01*
X153076000Y-64856509D02*
X153076000Y-71756509D01*
X152250000Y-71781509D02*
X153051000Y-71781509D01*
X153051000Y-71781509D02*
X153076000Y-71756509D01*
X153076000Y-71756509D02*
X153076000Y-78106509D01*
X152300000Y-78131509D02*
X153051000Y-78131509D01*
X153051000Y-78131509D02*
X153076000Y-78106509D01*
X153076000Y-78106509D02*
X153076000Y-84156509D01*
X152250000Y-84231509D02*
X153001000Y-84231509D01*
X153001000Y-84231509D02*
X153076000Y-84156509D01*
X153076000Y-84156509D02*
X153076000Y-90856509D01*
X152250000Y-90831509D02*
X153051000Y-90831509D01*
X153051000Y-90831509D02*
X153076000Y-90856509D01*
X153076000Y-90856509D02*
X153076000Y-97606509D01*
X152200000Y-97531509D02*
X153001000Y-97531509D01*
X153001000Y-97531509D02*
X153076000Y-97606509D01*
X152250000Y-58181509D02*
X153076000Y-59007509D01*
X153076000Y-97606509D02*
X153076000Y-103105509D01*
X153076000Y-103105509D02*
X152250000Y-103931509D01*
%TO.N,+ 5v*%
X152250000Y-105481509D02*
X146445000Y-105481509D01*
X146445000Y-105481509D02*
X145400000Y-106526509D01*
X152200000Y-99081509D02*
X152100000Y-99081509D01*
X149525000Y-99081509D02*
X148700000Y-99906509D01*
X148700000Y-99906509D02*
X145400000Y-99906509D01*
X152250000Y-92381509D02*
X146305000Y-92381509D01*
X146305000Y-92381509D02*
X145400000Y-93286509D01*
X152250000Y-85781509D02*
X146285000Y-85781509D01*
X146285000Y-85781509D02*
X145400000Y-86666509D01*
X152300000Y-79681509D02*
X149589548Y-79681509D01*
X149589548Y-79681509D02*
X148724548Y-80546509D01*
X148724548Y-80546509D02*
X145400000Y-80546509D01*
X152250000Y-73331509D02*
X152094000Y-73175509D01*
X152094000Y-73175509D02*
X146151000Y-73175509D01*
X146151000Y-73175509D02*
X145400000Y-73926509D01*
X152250000Y-66381509D02*
X146325000Y-66381509D01*
X146325000Y-66381509D02*
X145400000Y-67306509D01*
X152250000Y-59731509D02*
X149225000Y-59731509D01*
X149225000Y-59731509D02*
X148270000Y-60686509D01*
X148270000Y-60686509D02*
X145400000Y-60686509D01*
X135550000Y-103531509D02*
X135886000Y-103867509D01*
X135886000Y-103867509D02*
X141649000Y-103867509D01*
X141649000Y-103867509D02*
X142400000Y-103116509D01*
X135550000Y-97131509D02*
X135666000Y-97247509D01*
X135666000Y-97247509D02*
X141649000Y-97247509D01*
X141649000Y-97247509D02*
X142400000Y-96496509D01*
X135550000Y-90581509D02*
X135596000Y-90627509D01*
X135596000Y-90627509D02*
X141649000Y-90627509D01*
X141649000Y-90627509D02*
X142400000Y-89876509D01*
X135550000Y-83981509D02*
X135576000Y-84007509D01*
X135576000Y-84007509D02*
X141649000Y-84007509D01*
X141649000Y-84007509D02*
X142400000Y-83256509D01*
X135550000Y-78281509D02*
X141345000Y-78281509D01*
X141345000Y-78281509D02*
X142350000Y-77276509D01*
X135500000Y-71381509D02*
X135526000Y-71407509D01*
X141599000Y-71407509D02*
X142350000Y-70656509D01*
X135526000Y-71407509D02*
X141599000Y-71407509D01*
X135500000Y-64681509D02*
X135562500Y-64744009D01*
X135606000Y-64787509D02*
X141599000Y-64787509D01*
X141599000Y-64787509D02*
X142350000Y-64036509D01*
X135550000Y-58331509D02*
X141435000Y-58331509D01*
X141435000Y-58331509D02*
X142350000Y-57416509D01*
%TO.N,GND*%
X134700000Y-98756509D02*
X134700000Y-105006509D01*
X135550000Y-105081509D02*
X134775000Y-105081509D01*
X134775000Y-105081509D02*
X134700000Y-105006509D01*
X134700000Y-92056509D02*
X134700000Y-98756509D01*
X135550000Y-98681509D02*
X134775000Y-98681509D01*
X134775000Y-98681509D02*
X134700000Y-98756509D01*
X134700000Y-85606509D02*
X134700000Y-92056509D01*
X135550000Y-92131509D02*
X134775000Y-92131509D01*
X134775000Y-92131509D02*
X134700000Y-92056509D01*
X134700000Y-79806509D02*
X134700000Y-85606509D01*
X134775000Y-85531509D02*
X134700000Y-85606509D01*
X135550000Y-85531509D02*
X134775000Y-85531509D01*
X134700000Y-73006509D02*
X134700000Y-79806509D01*
X135550000Y-79831509D02*
X134725000Y-79831509D01*
X134725000Y-79831509D02*
X134700000Y-79806509D01*
X134700000Y-66156509D02*
X134700000Y-73006509D01*
X134775000Y-72931509D02*
X134700000Y-73006509D01*
X135500000Y-72931509D02*
X134775000Y-72931509D01*
X134700000Y-60356509D02*
X134700000Y-66156509D01*
X135500000Y-66231509D02*
X134775000Y-66231509D01*
X134775000Y-66231509D02*
X134700000Y-66156509D01*
X135550000Y-59881509D02*
X135175000Y-59881509D01*
X135175000Y-59881509D02*
X134700000Y-60356509D01*
X135550000Y-105081509D02*
X136165000Y-105081509D01*
X136165000Y-105081509D02*
X137500000Y-106416509D01*
X135550000Y-98681509D02*
X136385000Y-98681509D01*
X136385000Y-98681509D02*
X137500000Y-99796509D01*
X135550000Y-92131509D02*
X136455000Y-92131509D01*
X136455000Y-92131509D02*
X137500000Y-93176509D01*
X135550000Y-85531509D02*
X136475000Y-85531509D01*
X136475000Y-85531509D02*
X137500000Y-86556509D01*
X135550000Y-79831509D02*
X136705000Y-79831509D01*
X136705000Y-79831509D02*
X137450000Y-80576509D01*
X135500000Y-72931509D02*
X136425000Y-72931509D01*
X136425000Y-72931509D02*
X137450000Y-73956509D01*
X135500000Y-66231509D02*
X136345000Y-66231509D01*
X136345000Y-66231509D02*
X137450000Y-67336509D01*
X135550000Y-59881509D02*
X136615000Y-59881509D01*
X136615000Y-59881509D02*
X137450000Y-60716509D01*
X152250000Y-58181509D02*
X151095000Y-58181509D01*
X151095000Y-58181509D02*
X150300000Y-57386509D01*
X152250000Y-64831509D02*
X151125000Y-64831509D01*
X151125000Y-64831509D02*
X150300000Y-64006509D01*
X152250000Y-71781509D02*
X151455000Y-71781509D01*
X151455000Y-71781509D02*
X150300000Y-70626509D01*
X152300000Y-78131509D02*
X151185000Y-78131509D01*
X151185000Y-78131509D02*
X150300000Y-77246509D01*
X152250000Y-84231509D02*
X151165000Y-84231509D01*
X151165000Y-84231509D02*
X150300000Y-83366509D01*
X152250000Y-90831509D02*
X151145000Y-90831509D01*
X151145000Y-90831509D02*
X150300000Y-89986509D01*
X152200000Y-97531509D02*
X151225000Y-97531509D01*
X151225000Y-97531509D02*
X150300000Y-96606509D01*
X152250000Y-103931509D02*
X151005000Y-103931509D01*
X151005000Y-103931509D02*
X150300000Y-103226509D01*
%TO.N,Trans DI01*%
X172500000Y-85406509D02*
X172750000Y-85156509D01*
X165900000Y-85406509D02*
X172500000Y-85406509D01*
X165199000Y-76156509D02*
X165199000Y-84255509D01*
X165351057Y-85457509D02*
X165849000Y-85457509D01*
X156550000Y-76156509D02*
X165199000Y-76156509D01*
X165199000Y-84255509D02*
X164999000Y-84455509D01*
X164999000Y-84455509D02*
X164999000Y-85105452D01*
X164999000Y-85105452D02*
X165351057Y-85457509D01*
X165849000Y-85457509D02*
X165900000Y-85406509D01*
%TO.N,Trans XTB*%
X162000000Y-87006509D02*
X162000000Y-92906509D01*
X163850000Y-85156509D02*
X162000000Y-87006509D01*
%TO.N,+ 3.3v*%
X126500000Y-71306509D02*
X126500000Y-72306509D01*
X126500000Y-72306509D02*
X125000000Y-73806509D01*
X125000000Y-73806509D02*
X118200000Y-73806509D01*
X118200000Y-73806509D02*
X117750000Y-73356509D01*
X117750000Y-73356509D02*
X117750000Y-72281509D01*
X117750000Y-72281509D02*
X118000000Y-72031509D01*
%TO.N,SD DAT3{slash}CD*%
X126050000Y-94506509D02*
X130560000Y-99016509D01*
X130560000Y-99016509D02*
X131150000Y-99016509D01*
%TO.N,Trans BUSI*%
X169350000Y-71606509D02*
X174350000Y-71606509D01*
X177350000Y-74606509D02*
X177350000Y-83106509D01*
X174350000Y-71606509D02*
X177350000Y-74606509D01*
X175350000Y-85106509D02*
X174350000Y-85106509D01*
X177350000Y-83106509D02*
X175350000Y-85106509D01*
%TO.N,Trans MOSI*%
X174383900Y-72207509D02*
X176949000Y-74772609D01*
X176949000Y-82106509D02*
X172850000Y-82106509D01*
X176949000Y-74772609D02*
X176949000Y-82106509D01*
X166951000Y-72207509D02*
X174383900Y-72207509D01*
X166850000Y-72106509D02*
X166951000Y-72207509D01*
%TO.N,Trans MISO*%
X176548000Y-74938709D02*
X174217800Y-72608509D01*
X166451000Y-72707509D02*
X165850000Y-72106509D01*
X172249000Y-82505509D02*
X172249000Y-81857566D01*
X173350000Y-81705509D02*
X176548000Y-81705509D01*
X172601057Y-81505509D02*
X173150000Y-81505509D01*
X172249000Y-81857566D02*
X172601057Y-81505509D01*
X173150000Y-81505509D02*
X173350000Y-81705509D01*
X174118800Y-72707509D02*
X166451000Y-72707509D01*
X172850000Y-83106509D02*
X172249000Y-82505509D01*
X174217800Y-72608509D02*
X174118800Y-72707509D01*
X176548000Y-81705509D02*
X176548000Y-74938709D01*
D25*
%TO.N,+ 3.3v*%
X129025000Y-80681509D02*
X129471000Y-80235509D01*
X133100000Y-62866509D02*
X131150000Y-60916509D01*
X129471000Y-80235509D02*
X131426628Y-80235509D01*
X131426628Y-80235509D02*
X133100000Y-78562137D01*
X133100000Y-78562137D02*
X133100000Y-62866509D01*
%TD*%
M02*
