%TF.GenerationSoftware,KiCad,Pcbnew,9.0.7-9.0.7~ubuntu24.04.1*%
%TF.CreationDate,2026-02-07T12:52:25+01:00*%
%TF.ProjectId,ESP Drone,45535020-4472-46f6-9e65-2e6b69636164,rev?*%
%TF.SameCoordinates,Original*%
%TF.FileFunction,Other,User*%
%FSLAX46Y46*%
G04 Gerber Fmt 4.6, Leading zero omitted, Abs format (unit mm)*
G04 Created by KiCad (PCBNEW 9.0.7-9.0.7~ubuntu24.04.1) date 2026-02-07 12:52:25*
%MOMM*%
%LPD*%
G01*
G04 APERTURE LIST*
%ADD10C,0.150000*%
G04 APERTURE END LIST*
D10*
G36*
X163823098Y-65727534D02*
G01*
X163842759Y-65747074D01*
X163931959Y-65797367D01*
X164023885Y-65839899D01*
X164114828Y-65873224D01*
X164208290Y-65898901D01*
X164313171Y-65917922D01*
X164461549Y-65929035D01*
X164537328Y-65925203D01*
X164609450Y-65914010D01*
X164743783Y-65870436D01*
X164861944Y-65800550D01*
X164960476Y-65707062D01*
X165035359Y-65593771D01*
X165062687Y-65531292D01*
X165082755Y-65465798D01*
X165095182Y-65398388D01*
X165099848Y-65329117D01*
X165099877Y-65323190D01*
X165084763Y-65190929D01*
X165040077Y-65066079D01*
X164967225Y-64953180D01*
X164868878Y-64857770D01*
X164758304Y-64789642D01*
X164674681Y-64755585D01*
X164509176Y-64710996D01*
X164356188Y-64671321D01*
X164293510Y-64646393D01*
X164247251Y-64620386D01*
X164207459Y-64589105D01*
X164174858Y-64553637D01*
X164148891Y-64513877D01*
X164122784Y-64446969D01*
X164119975Y-64393602D01*
X164125593Y-64326191D01*
X164142771Y-64278219D01*
X164166858Y-64234583D01*
X164196727Y-64196794D01*
X164232864Y-64163924D01*
X164274694Y-64136633D01*
X164322435Y-64114963D01*
X164436488Y-64089952D01*
X164489515Y-64087566D01*
X164580023Y-64091507D01*
X164658905Y-64103463D01*
X164721462Y-64120967D01*
X164778967Y-64145094D01*
X164889241Y-64215837D01*
X164937578Y-64255971D01*
X164957117Y-64272824D01*
X165007554Y-63995120D01*
X164981733Y-63982612D01*
X164951500Y-63967154D01*
X164849917Y-63920333D01*
X164752396Y-63887418D01*
X164592067Y-63861214D01*
X164492323Y-63857855D01*
X164413537Y-63861706D01*
X164338286Y-63873027D01*
X164266731Y-63891546D01*
X164199509Y-63916890D01*
X164137066Y-63948676D01*
X164079720Y-63986579D01*
X164028139Y-64029989D01*
X163982360Y-64078762D01*
X163943108Y-64132028D01*
X163910293Y-64189890D01*
X163881960Y-64258780D01*
X163856828Y-64368885D01*
X163853995Y-64424499D01*
X163868779Y-64548251D01*
X163911924Y-64661935D01*
X163982475Y-64764755D01*
X164079082Y-64853428D01*
X164184333Y-64915915D01*
X164265910Y-64949621D01*
X164425157Y-64991753D01*
X164607820Y-65040907D01*
X164649543Y-65058900D01*
X164685519Y-65081634D01*
X164760817Y-65148398D01*
X164812629Y-65234580D01*
X164828037Y-65282672D01*
X164835804Y-65332820D01*
X164836706Y-65356896D01*
X164821892Y-65454030D01*
X164778686Y-65541275D01*
X164709077Y-65614159D01*
X164617447Y-65665860D01*
X164593073Y-65674289D01*
X164546912Y-65687982D01*
X164500750Y-65691142D01*
X164467166Y-65691142D01*
X164385910Y-65688333D01*
X164304745Y-65677098D01*
X164144672Y-65629788D01*
X164066168Y-65594476D01*
X163992022Y-65552219D01*
X163929332Y-65507638D01*
X163873534Y-65458012D01*
X163823098Y-65727534D01*
G37*
G36*
X165294417Y-64615985D02*
G01*
X165669696Y-65871515D01*
X165801221Y-65874324D01*
X165932868Y-65874324D01*
X165941294Y-65843183D01*
X166083393Y-65356417D01*
X166092480Y-65324534D01*
X166151815Y-65085385D01*
X166188079Y-64903731D01*
X166196039Y-64825790D01*
X166198693Y-64804433D01*
X166201634Y-64830393D01*
X166201657Y-64834338D01*
X166227169Y-64997029D01*
X166322914Y-65383332D01*
X166456402Y-65845992D01*
X166464829Y-65874324D01*
X166607711Y-65874324D01*
X166750471Y-65871515D01*
X167125628Y-64615985D01*
X166879309Y-64615985D01*
X166828872Y-64780483D01*
X166698309Y-65242010D01*
X166624441Y-65539956D01*
X166602093Y-65675999D01*
X166601742Y-65686975D01*
X166599284Y-65678808D01*
X166593667Y-65642049D01*
X166553389Y-65446185D01*
X166372505Y-64794649D01*
X166322069Y-64615985D01*
X166084054Y-64615985D01*
X166044853Y-64743602D01*
X165916252Y-65198672D01*
X165842429Y-65503139D01*
X165818073Y-65661833D01*
X165815265Y-65690165D01*
X165815265Y-65664642D01*
X165780920Y-65461745D01*
X165672593Y-65036671D01*
X165557711Y-64644439D01*
X165549284Y-64615985D01*
X165294417Y-64615985D01*
G37*
G36*
X167913799Y-64579715D02*
G01*
X168007021Y-64606789D01*
X168111897Y-64664196D01*
X168196632Y-64744945D01*
X168204335Y-64754058D01*
X168239146Y-64803208D01*
X168266614Y-64856360D01*
X168288764Y-64918831D01*
X168303000Y-64985036D01*
X168305809Y-65444213D01*
X168305809Y-65874324D01*
X168053872Y-65874324D01*
X168053872Y-65760629D01*
X168022976Y-65780291D01*
X167916703Y-65837558D01*
X167844749Y-65863599D01*
X167768872Y-65882499D01*
X167611427Y-65897772D01*
X167527407Y-65892276D01*
X167480087Y-65875894D01*
X167435971Y-65852136D01*
X167396169Y-65821661D01*
X167360539Y-65784237D01*
X167330305Y-65740865D01*
X167305767Y-65691653D01*
X167287662Y-65637442D01*
X167276491Y-65578940D01*
X167272692Y-65516992D01*
X167513582Y-65516992D01*
X167524313Y-65569917D01*
X167542893Y-65601233D01*
X167569152Y-65628057D01*
X167605770Y-65652173D01*
X167648689Y-65669984D01*
X167748569Y-65685036D01*
X167816228Y-65679302D01*
X167867141Y-65666513D01*
X167912995Y-65647173D01*
X167986006Y-65592736D01*
X168031402Y-65523469D01*
X168042637Y-65477781D01*
X168045446Y-65404523D01*
X168045446Y-65347981D01*
X168014672Y-65347981D01*
X167882449Y-65356767D01*
X167692637Y-65387548D01*
X167577052Y-65426271D01*
X167530448Y-65461646D01*
X167517559Y-65487049D01*
X167513582Y-65516992D01*
X167272692Y-65516992D01*
X167272662Y-65516509D01*
X167275471Y-65460333D01*
X167295608Y-65414185D01*
X167323166Y-65374811D01*
X167359330Y-65337986D01*
X167405547Y-65303143D01*
X167460240Y-65272388D01*
X167542992Y-65238799D01*
X167639751Y-65210424D01*
X167747280Y-65188133D01*
X167866454Y-65171994D01*
X167992201Y-65163089D01*
X168045446Y-65163089D01*
X168045446Y-65092503D01*
X168042637Y-64999080D01*
X168015610Y-64909654D01*
X167965220Y-64839310D01*
X167900544Y-64796075D01*
X167826971Y-64781338D01*
X167741617Y-64785713D01*
X167666345Y-64797975D01*
X167597547Y-64817458D01*
X167515107Y-64852582D01*
X167437770Y-64897353D01*
X167412807Y-64914020D01*
X167398691Y-64922754D01*
X167396240Y-64892496D01*
X167381838Y-64697318D01*
X167398171Y-64684411D01*
X167421039Y-64672161D01*
X167494557Y-64637181D01*
X167635160Y-64592715D01*
X167714912Y-64580836D01*
X167801814Y-64576906D01*
X167913799Y-64579715D01*
G37*
G36*
X168991277Y-64777430D02*
G01*
X168957693Y-64811013D01*
X168957693Y-64606582D01*
X168719678Y-64606582D01*
X168719678Y-65874324D01*
X168971737Y-65874324D01*
X168971737Y-65538735D01*
X168971774Y-65534294D01*
X168980041Y-65174813D01*
X169015950Y-65067861D01*
X169078745Y-64974932D01*
X169166245Y-64899680D01*
X169274567Y-64847158D01*
X169334604Y-64831062D01*
X169397224Y-64822457D01*
X169400139Y-64822248D01*
X169428105Y-64822248D01*
X169428105Y-64592538D01*
X169408443Y-64592538D01*
X169288245Y-64607132D01*
X169167160Y-64651312D01*
X169050905Y-64724612D01*
X168991277Y-64777430D01*
G37*
G36*
X170321179Y-64592538D02*
G01*
X170253744Y-64596360D01*
X170190924Y-64607484D01*
X170076035Y-64650385D01*
X169969244Y-64722000D01*
X169917934Y-64769003D01*
X169917934Y-64606582D01*
X169674302Y-64606582D01*
X169674302Y-65874324D01*
X169934787Y-65874324D01*
X169934787Y-65510525D01*
X169937473Y-65118515D01*
X169948374Y-65049758D01*
X169966128Y-64987989D01*
X169988997Y-64936324D01*
X170017433Y-64891873D01*
X170041154Y-64864624D01*
X170089004Y-64826191D01*
X170151427Y-64809856D01*
X170195150Y-64808204D01*
X170261498Y-64812200D01*
X170317050Y-64824539D01*
X170354962Y-64841249D01*
X170386350Y-64864213D01*
X170428561Y-64924662D01*
X170444277Y-64971847D01*
X170449188Y-65329417D01*
X170449895Y-65431512D01*
X170449895Y-65874324D01*
X170710258Y-65874324D01*
X170710258Y-65510525D01*
X170713066Y-65118515D01*
X170723967Y-65049758D01*
X170741721Y-64987989D01*
X170764590Y-64936324D01*
X170793026Y-64891873D01*
X170816748Y-64864624D01*
X170864598Y-64826191D01*
X170927021Y-64809856D01*
X170970743Y-64808204D01*
X171037091Y-64812200D01*
X171092643Y-64824539D01*
X171130555Y-64841249D01*
X171161943Y-64864213D01*
X171204155Y-64924662D01*
X171219870Y-64971847D01*
X171224781Y-65329417D01*
X171225488Y-65431512D01*
X171225488Y-65874324D01*
X171485851Y-65874324D01*
X171485851Y-65411850D01*
X171482217Y-64991991D01*
X171472703Y-64880312D01*
X171471929Y-64875860D01*
X171456018Y-64816139D01*
X171433378Y-64763078D01*
X171406472Y-64720171D01*
X171373751Y-64683225D01*
X171336769Y-64653450D01*
X171294339Y-64629436D01*
X171191797Y-64598997D01*
X171105076Y-64592538D01*
X170973283Y-64607211D01*
X170855116Y-64649478D01*
X170750457Y-64717633D01*
X170693527Y-64771812D01*
X170673866Y-64794160D01*
X170639900Y-64736786D01*
X170600236Y-64688699D01*
X170562731Y-64656602D01*
X170519593Y-64630879D01*
X170419103Y-64599946D01*
X170321179Y-64592538D01*
G37*
G36*
X172889515Y-65874324D02*
G01*
X173180652Y-65874324D01*
X173639829Y-64621603D01*
X173594478Y-64616161D01*
X173513921Y-64615985D01*
X173406806Y-64616687D01*
X173387892Y-64621603D01*
X173188295Y-65171389D01*
X173093775Y-65462123D01*
X173042751Y-65663732D01*
X173040701Y-65684548D01*
X173004440Y-65533222D01*
X172886421Y-65164130D01*
X172690701Y-64621603D01*
X172623348Y-64616040D01*
X172559054Y-64615985D01*
X172448427Y-64616687D01*
X172430216Y-64621603D01*
X172889515Y-65874324D01*
G37*
G36*
X173932676Y-65874324D02*
G01*
X174207083Y-65874324D01*
X174207083Y-65600040D01*
X173932676Y-65600040D01*
X173932676Y-65874324D01*
G37*
G36*
X174721580Y-64161571D02*
G01*
X174690806Y-64161571D01*
X174690806Y-64365880D01*
X174727198Y-64363194D01*
X174835962Y-64356841D01*
X174926647Y-64343309D01*
X175012718Y-64321184D01*
X175051919Y-64307140D01*
X175054727Y-64987234D01*
X175054727Y-65670015D01*
X174704727Y-65670015D01*
X174704727Y-65874324D01*
X175662281Y-65874324D01*
X175662281Y-65670015D01*
X175317899Y-65670015D01*
X175317899Y-63976802D01*
X175253541Y-63976802D01*
X175233879Y-63993532D01*
X175183989Y-64034627D01*
X175129658Y-64069101D01*
X175005305Y-64120078D01*
X174843613Y-64151761D01*
X174721580Y-64161571D01*
G37*
M02*
