%TF.GenerationSoftware,KiCad,Pcbnew,9.0.7-9.0.7~ubuntu24.04.1*%
%TF.CreationDate,2026-02-07T12:52:25+01:00*%
%TF.ProjectId,ESP Drone,45535020-4472-46f6-9e65-2e6b69636164,rev?*%
%TF.SameCoordinates,Original*%
%TF.FileFunction,Legend,Bot*%
%TF.FilePolarity,Positive*%
%FSLAX46Y46*%
G04 Gerber Fmt 4.6, Leading zero omitted, Abs format (unit mm)*
G04 Created by KiCad (PCBNEW 9.0.7-9.0.7~ubuntu24.04.1) date 2026-02-07 12:52:25*
%MOMM*%
%LPD*%
G01*
G04 APERTURE LIST*
%ADD10C,0.150000*%
%ADD11C,0.120000*%
G04 APERTURE END LIST*
D10*
X140688094Y-59511328D02*
X140688094Y-58511328D01*
X140688094Y-58511328D02*
X140449999Y-58511328D01*
X140449999Y-58511328D02*
X140307142Y-58558947D01*
X140307142Y-58558947D02*
X140211904Y-58654185D01*
X140211904Y-58654185D02*
X140164285Y-58749423D01*
X140164285Y-58749423D02*
X140116666Y-58939899D01*
X140116666Y-58939899D02*
X140116666Y-59082756D01*
X140116666Y-59082756D02*
X140164285Y-59273232D01*
X140164285Y-59273232D02*
X140211904Y-59368470D01*
X140211904Y-59368470D02*
X140307142Y-59463709D01*
X140307142Y-59463709D02*
X140449999Y-59511328D01*
X140449999Y-59511328D02*
X140688094Y-59511328D01*
X139640475Y-59511328D02*
X139449999Y-59511328D01*
X139449999Y-59511328D02*
X139354761Y-59463709D01*
X139354761Y-59463709D02*
X139307142Y-59416089D01*
X139307142Y-59416089D02*
X139211904Y-59273232D01*
X139211904Y-59273232D02*
X139164285Y-59082756D01*
X139164285Y-59082756D02*
X139164285Y-58701804D01*
X139164285Y-58701804D02*
X139211904Y-58606566D01*
X139211904Y-58606566D02*
X139259523Y-58558947D01*
X139259523Y-58558947D02*
X139354761Y-58511328D01*
X139354761Y-58511328D02*
X139545237Y-58511328D01*
X139545237Y-58511328D02*
X139640475Y-58558947D01*
X139640475Y-58558947D02*
X139688094Y-58606566D01*
X139688094Y-58606566D02*
X139735713Y-58701804D01*
X139735713Y-58701804D02*
X139735713Y-58939899D01*
X139735713Y-58939899D02*
X139688094Y-59035137D01*
X139688094Y-59035137D02*
X139640475Y-59082756D01*
X139640475Y-59082756D02*
X139545237Y-59130375D01*
X139545237Y-59130375D02*
X139354761Y-59130375D01*
X139354761Y-59130375D02*
X139259523Y-59082756D01*
X139259523Y-59082756D02*
X139211904Y-59035137D01*
X139211904Y-59035137D02*
X139164285Y-58939899D01*
X143671428Y-57828804D02*
X144128571Y-57828804D01*
X143899999Y-57828804D02*
X143899999Y-57028804D01*
X143899999Y-57028804D02*
X143976190Y-57143089D01*
X143976190Y-57143089D02*
X144052380Y-57219280D01*
X144052380Y-57219280D02*
X144128571Y-57257375D01*
X141164285Y-79511328D02*
X141164285Y-78511328D01*
X141164285Y-78511328D02*
X140926190Y-78511328D01*
X140926190Y-78511328D02*
X140783333Y-78558947D01*
X140783333Y-78558947D02*
X140688095Y-78654185D01*
X140688095Y-78654185D02*
X140640476Y-78749423D01*
X140640476Y-78749423D02*
X140592857Y-78939899D01*
X140592857Y-78939899D02*
X140592857Y-79082756D01*
X140592857Y-79082756D02*
X140640476Y-79273232D01*
X140640476Y-79273232D02*
X140688095Y-79368470D01*
X140688095Y-79368470D02*
X140783333Y-79463709D01*
X140783333Y-79463709D02*
X140926190Y-79511328D01*
X140926190Y-79511328D02*
X141164285Y-79511328D01*
X139640476Y-79511328D02*
X140211904Y-79511328D01*
X139926190Y-79511328D02*
X139926190Y-78511328D01*
X139926190Y-78511328D02*
X140021428Y-78654185D01*
X140021428Y-78654185D02*
X140116666Y-78749423D01*
X140116666Y-78749423D02*
X140211904Y-78797042D01*
X139259523Y-78606566D02*
X139211904Y-78558947D01*
X139211904Y-78558947D02*
X139116666Y-78511328D01*
X139116666Y-78511328D02*
X138878571Y-78511328D01*
X138878571Y-78511328D02*
X138783333Y-78558947D01*
X138783333Y-78558947D02*
X138735714Y-78606566D01*
X138735714Y-78606566D02*
X138688095Y-78701804D01*
X138688095Y-78701804D02*
X138688095Y-78797042D01*
X138688095Y-78797042D02*
X138735714Y-78939899D01*
X138735714Y-78939899D02*
X139307142Y-79511328D01*
X139307142Y-79511328D02*
X138688095Y-79511328D01*
X143671428Y-77688804D02*
X144128571Y-77688804D01*
X143899999Y-77688804D02*
X143899999Y-76888804D01*
X143899999Y-76888804D02*
X143976190Y-77003089D01*
X143976190Y-77003089D02*
X144052380Y-77079280D01*
X144052380Y-77079280D02*
X144128571Y-77117375D01*
X141114285Y-72861328D02*
X141114285Y-71861328D01*
X141114285Y-71861328D02*
X140876190Y-71861328D01*
X140876190Y-71861328D02*
X140733333Y-71908947D01*
X140733333Y-71908947D02*
X140638095Y-72004185D01*
X140638095Y-72004185D02*
X140590476Y-72099423D01*
X140590476Y-72099423D02*
X140542857Y-72289899D01*
X140542857Y-72289899D02*
X140542857Y-72432756D01*
X140542857Y-72432756D02*
X140590476Y-72623232D01*
X140590476Y-72623232D02*
X140638095Y-72718470D01*
X140638095Y-72718470D02*
X140733333Y-72813709D01*
X140733333Y-72813709D02*
X140876190Y-72861328D01*
X140876190Y-72861328D02*
X141114285Y-72861328D01*
X139590476Y-72861328D02*
X140161904Y-72861328D01*
X139876190Y-72861328D02*
X139876190Y-71861328D01*
X139876190Y-71861328D02*
X139971428Y-72004185D01*
X139971428Y-72004185D02*
X140066666Y-72099423D01*
X140066666Y-72099423D02*
X140161904Y-72147042D01*
X138638095Y-72861328D02*
X139209523Y-72861328D01*
X138923809Y-72861328D02*
X138923809Y-71861328D01*
X138923809Y-71861328D02*
X139019047Y-72004185D01*
X139019047Y-72004185D02*
X139114285Y-72099423D01*
X139114285Y-72099423D02*
X139209523Y-72147042D01*
X143671428Y-71068804D02*
X144128571Y-71068804D01*
X143899999Y-71068804D02*
X143899999Y-70268804D01*
X143899999Y-70268804D02*
X143976190Y-70383089D01*
X143976190Y-70383089D02*
X144052380Y-70459280D01*
X144052380Y-70459280D02*
X144128571Y-70497375D01*
X141114285Y-66161328D02*
X141114285Y-65161328D01*
X141114285Y-65161328D02*
X140876190Y-65161328D01*
X140876190Y-65161328D02*
X140733333Y-65208947D01*
X140733333Y-65208947D02*
X140638095Y-65304185D01*
X140638095Y-65304185D02*
X140590476Y-65399423D01*
X140590476Y-65399423D02*
X140542857Y-65589899D01*
X140542857Y-65589899D02*
X140542857Y-65732756D01*
X140542857Y-65732756D02*
X140590476Y-65923232D01*
X140590476Y-65923232D02*
X140638095Y-66018470D01*
X140638095Y-66018470D02*
X140733333Y-66113709D01*
X140733333Y-66113709D02*
X140876190Y-66161328D01*
X140876190Y-66161328D02*
X141114285Y-66161328D01*
X139590476Y-66161328D02*
X140161904Y-66161328D01*
X139876190Y-66161328D02*
X139876190Y-65161328D01*
X139876190Y-65161328D02*
X139971428Y-65304185D01*
X139971428Y-65304185D02*
X140066666Y-65399423D01*
X140066666Y-65399423D02*
X140161904Y-65447042D01*
X138971428Y-65161328D02*
X138876190Y-65161328D01*
X138876190Y-65161328D02*
X138780952Y-65208947D01*
X138780952Y-65208947D02*
X138733333Y-65256566D01*
X138733333Y-65256566D02*
X138685714Y-65351804D01*
X138685714Y-65351804D02*
X138638095Y-65542280D01*
X138638095Y-65542280D02*
X138638095Y-65780375D01*
X138638095Y-65780375D02*
X138685714Y-65970851D01*
X138685714Y-65970851D02*
X138733333Y-66066089D01*
X138733333Y-66066089D02*
X138780952Y-66113709D01*
X138780952Y-66113709D02*
X138876190Y-66161328D01*
X138876190Y-66161328D02*
X138971428Y-66161328D01*
X138971428Y-66161328D02*
X139066666Y-66113709D01*
X139066666Y-66113709D02*
X139114285Y-66066089D01*
X139114285Y-66066089D02*
X139161904Y-65970851D01*
X139161904Y-65970851D02*
X139209523Y-65780375D01*
X139209523Y-65780375D02*
X139209523Y-65542280D01*
X139209523Y-65542280D02*
X139161904Y-65351804D01*
X139161904Y-65351804D02*
X139114285Y-65256566D01*
X139114285Y-65256566D02*
X139066666Y-65208947D01*
X139066666Y-65208947D02*
X138971428Y-65161328D01*
X143671428Y-64448804D02*
X144128571Y-64448804D01*
X143899999Y-64448804D02*
X143899999Y-63648804D01*
X143899999Y-63648804D02*
X143976190Y-63763089D01*
X143976190Y-63763089D02*
X144052380Y-63839280D01*
X144052380Y-63839280D02*
X144128571Y-63877375D01*
X141214285Y-85311328D02*
X141214285Y-84311328D01*
X141214285Y-84311328D02*
X140976190Y-84311328D01*
X140976190Y-84311328D02*
X140833333Y-84358947D01*
X140833333Y-84358947D02*
X140738095Y-84454185D01*
X140738095Y-84454185D02*
X140690476Y-84549423D01*
X140690476Y-84549423D02*
X140642857Y-84739899D01*
X140642857Y-84739899D02*
X140642857Y-84882756D01*
X140642857Y-84882756D02*
X140690476Y-85073232D01*
X140690476Y-85073232D02*
X140738095Y-85168470D01*
X140738095Y-85168470D02*
X140833333Y-85263709D01*
X140833333Y-85263709D02*
X140976190Y-85311328D01*
X140976190Y-85311328D02*
X141214285Y-85311328D01*
X139690476Y-85311328D02*
X140261904Y-85311328D01*
X139976190Y-85311328D02*
X139976190Y-84311328D01*
X139976190Y-84311328D02*
X140071428Y-84454185D01*
X140071428Y-84454185D02*
X140166666Y-84549423D01*
X140166666Y-84549423D02*
X140261904Y-84597042D01*
X139357142Y-84311328D02*
X138738095Y-84311328D01*
X138738095Y-84311328D02*
X139071428Y-84692280D01*
X139071428Y-84692280D02*
X138928571Y-84692280D01*
X138928571Y-84692280D02*
X138833333Y-84739899D01*
X138833333Y-84739899D02*
X138785714Y-84787518D01*
X138785714Y-84787518D02*
X138738095Y-84882756D01*
X138738095Y-84882756D02*
X138738095Y-85120851D01*
X138738095Y-85120851D02*
X138785714Y-85216089D01*
X138785714Y-85216089D02*
X138833333Y-85263709D01*
X138833333Y-85263709D02*
X138928571Y-85311328D01*
X138928571Y-85311328D02*
X139214285Y-85311328D01*
X139214285Y-85311328D02*
X139309523Y-85263709D01*
X139309523Y-85263709D02*
X139357142Y-85216089D01*
X143721428Y-83668804D02*
X144178571Y-83668804D01*
X143949999Y-83668804D02*
X143949999Y-82868804D01*
X143949999Y-82868804D02*
X144026190Y-82983089D01*
X144026190Y-82983089D02*
X144102380Y-83059280D01*
X144102380Y-83059280D02*
X144178571Y-83097375D01*
X141164285Y-105261328D02*
X141164285Y-104261328D01*
X141164285Y-104261328D02*
X140926190Y-104261328D01*
X140926190Y-104261328D02*
X140783333Y-104308947D01*
X140783333Y-104308947D02*
X140688095Y-104404185D01*
X140688095Y-104404185D02*
X140640476Y-104499423D01*
X140640476Y-104499423D02*
X140592857Y-104689899D01*
X140592857Y-104689899D02*
X140592857Y-104832756D01*
X140592857Y-104832756D02*
X140640476Y-105023232D01*
X140640476Y-105023232D02*
X140688095Y-105118470D01*
X140688095Y-105118470D02*
X140783333Y-105213709D01*
X140783333Y-105213709D02*
X140926190Y-105261328D01*
X140926190Y-105261328D02*
X141164285Y-105261328D01*
X139640476Y-105261328D02*
X140211904Y-105261328D01*
X139926190Y-105261328D02*
X139926190Y-104261328D01*
X139926190Y-104261328D02*
X140021428Y-104404185D01*
X140021428Y-104404185D02*
X140116666Y-104499423D01*
X140116666Y-104499423D02*
X140211904Y-104547042D01*
X138783333Y-104261328D02*
X138973809Y-104261328D01*
X138973809Y-104261328D02*
X139069047Y-104308947D01*
X139069047Y-104308947D02*
X139116666Y-104356566D01*
X139116666Y-104356566D02*
X139211904Y-104499423D01*
X139211904Y-104499423D02*
X139259523Y-104689899D01*
X139259523Y-104689899D02*
X139259523Y-105070851D01*
X139259523Y-105070851D02*
X139211904Y-105166089D01*
X139211904Y-105166089D02*
X139164285Y-105213709D01*
X139164285Y-105213709D02*
X139069047Y-105261328D01*
X139069047Y-105261328D02*
X138878571Y-105261328D01*
X138878571Y-105261328D02*
X138783333Y-105213709D01*
X138783333Y-105213709D02*
X138735714Y-105166089D01*
X138735714Y-105166089D02*
X138688095Y-105070851D01*
X138688095Y-105070851D02*
X138688095Y-104832756D01*
X138688095Y-104832756D02*
X138735714Y-104737518D01*
X138735714Y-104737518D02*
X138783333Y-104689899D01*
X138783333Y-104689899D02*
X138878571Y-104642280D01*
X138878571Y-104642280D02*
X139069047Y-104642280D01*
X139069047Y-104642280D02*
X139164285Y-104689899D01*
X139164285Y-104689899D02*
X139211904Y-104737518D01*
X139211904Y-104737518D02*
X139259523Y-104832756D01*
X143721428Y-103528804D02*
X144178571Y-103528804D01*
X143949999Y-103528804D02*
X143949999Y-102728804D01*
X143949999Y-102728804D02*
X144026190Y-102843089D01*
X144026190Y-102843089D02*
X144102380Y-102919280D01*
X144102380Y-102919280D02*
X144178571Y-102957375D01*
X141214285Y-91961328D02*
X141214285Y-90961328D01*
X141214285Y-90961328D02*
X140976190Y-90961328D01*
X140976190Y-90961328D02*
X140833333Y-91008947D01*
X140833333Y-91008947D02*
X140738095Y-91104185D01*
X140738095Y-91104185D02*
X140690476Y-91199423D01*
X140690476Y-91199423D02*
X140642857Y-91389899D01*
X140642857Y-91389899D02*
X140642857Y-91532756D01*
X140642857Y-91532756D02*
X140690476Y-91723232D01*
X140690476Y-91723232D02*
X140738095Y-91818470D01*
X140738095Y-91818470D02*
X140833333Y-91913709D01*
X140833333Y-91913709D02*
X140976190Y-91961328D01*
X140976190Y-91961328D02*
X141214285Y-91961328D01*
X139690476Y-91961328D02*
X140261904Y-91961328D01*
X139976190Y-91961328D02*
X139976190Y-90961328D01*
X139976190Y-90961328D02*
X140071428Y-91104185D01*
X140071428Y-91104185D02*
X140166666Y-91199423D01*
X140166666Y-91199423D02*
X140261904Y-91247042D01*
X138833333Y-91294661D02*
X138833333Y-91961328D01*
X139071428Y-90913709D02*
X139309523Y-91627994D01*
X139309523Y-91627994D02*
X138690476Y-91627994D01*
X143721428Y-90288804D02*
X144178571Y-90288804D01*
X143949999Y-90288804D02*
X143949999Y-89488804D01*
X143949999Y-89488804D02*
X144026190Y-89603089D01*
X144026190Y-89603089D02*
X144102380Y-89679280D01*
X144102380Y-89679280D02*
X144178571Y-89717375D01*
X141214285Y-98611328D02*
X141214285Y-97611328D01*
X141214285Y-97611328D02*
X140976190Y-97611328D01*
X140976190Y-97611328D02*
X140833333Y-97658947D01*
X140833333Y-97658947D02*
X140738095Y-97754185D01*
X140738095Y-97754185D02*
X140690476Y-97849423D01*
X140690476Y-97849423D02*
X140642857Y-98039899D01*
X140642857Y-98039899D02*
X140642857Y-98182756D01*
X140642857Y-98182756D02*
X140690476Y-98373232D01*
X140690476Y-98373232D02*
X140738095Y-98468470D01*
X140738095Y-98468470D02*
X140833333Y-98563709D01*
X140833333Y-98563709D02*
X140976190Y-98611328D01*
X140976190Y-98611328D02*
X141214285Y-98611328D01*
X139690476Y-98611328D02*
X140261904Y-98611328D01*
X139976190Y-98611328D02*
X139976190Y-97611328D01*
X139976190Y-97611328D02*
X140071428Y-97754185D01*
X140071428Y-97754185D02*
X140166666Y-97849423D01*
X140166666Y-97849423D02*
X140261904Y-97897042D01*
X138785714Y-97611328D02*
X139261904Y-97611328D01*
X139261904Y-97611328D02*
X139309523Y-98087518D01*
X139309523Y-98087518D02*
X139261904Y-98039899D01*
X139261904Y-98039899D02*
X139166666Y-97992280D01*
X139166666Y-97992280D02*
X138928571Y-97992280D01*
X138928571Y-97992280D02*
X138833333Y-98039899D01*
X138833333Y-98039899D02*
X138785714Y-98087518D01*
X138785714Y-98087518D02*
X138738095Y-98182756D01*
X138738095Y-98182756D02*
X138738095Y-98420851D01*
X138738095Y-98420851D02*
X138785714Y-98516089D01*
X138785714Y-98516089D02*
X138833333Y-98563709D01*
X138833333Y-98563709D02*
X138928571Y-98611328D01*
X138928571Y-98611328D02*
X139166666Y-98611328D01*
X139166666Y-98611328D02*
X139261904Y-98563709D01*
X139261904Y-98563709D02*
X139309523Y-98516089D01*
X143721428Y-96908804D02*
X144178571Y-96908804D01*
X143949999Y-96908804D02*
X143949999Y-96108804D01*
X143949999Y-96108804D02*
X144026190Y-96223089D01*
X144026190Y-96223089D02*
X144102380Y-96299280D01*
X144102380Y-96299280D02*
X144178571Y-96337375D01*
X148638094Y-85361328D02*
X148638094Y-84361328D01*
X148638094Y-84361328D02*
X148399999Y-84361328D01*
X148399999Y-84361328D02*
X148257142Y-84408947D01*
X148257142Y-84408947D02*
X148161904Y-84504185D01*
X148161904Y-84504185D02*
X148114285Y-84599423D01*
X148114285Y-84599423D02*
X148066666Y-84789899D01*
X148066666Y-84789899D02*
X148066666Y-84932756D01*
X148066666Y-84932756D02*
X148114285Y-85123232D01*
X148114285Y-85123232D02*
X148161904Y-85218470D01*
X148161904Y-85218470D02*
X148257142Y-85313709D01*
X148257142Y-85313709D02*
X148399999Y-85361328D01*
X148399999Y-85361328D02*
X148638094Y-85361328D01*
X147209523Y-84694661D02*
X147209523Y-85361328D01*
X147447618Y-84313709D02*
X147685713Y-85027994D01*
X147685713Y-85027994D02*
X147066666Y-85027994D01*
X144078571Y-86254213D02*
X143621428Y-86254213D01*
X143850000Y-86254213D02*
X143850000Y-87054213D01*
X143850000Y-87054213D02*
X143773809Y-86939928D01*
X143773809Y-86939928D02*
X143697619Y-86863737D01*
X143697619Y-86863737D02*
X143621428Y-86825642D01*
X148688094Y-91911328D02*
X148688094Y-90911328D01*
X148688094Y-90911328D02*
X148449999Y-90911328D01*
X148449999Y-90911328D02*
X148307142Y-90958947D01*
X148307142Y-90958947D02*
X148211904Y-91054185D01*
X148211904Y-91054185D02*
X148164285Y-91149423D01*
X148164285Y-91149423D02*
X148116666Y-91339899D01*
X148116666Y-91339899D02*
X148116666Y-91482756D01*
X148116666Y-91482756D02*
X148164285Y-91673232D01*
X148164285Y-91673232D02*
X148211904Y-91768470D01*
X148211904Y-91768470D02*
X148307142Y-91863709D01*
X148307142Y-91863709D02*
X148449999Y-91911328D01*
X148449999Y-91911328D02*
X148688094Y-91911328D01*
X147783332Y-90911328D02*
X147164285Y-90911328D01*
X147164285Y-90911328D02*
X147497618Y-91292280D01*
X147497618Y-91292280D02*
X147354761Y-91292280D01*
X147354761Y-91292280D02*
X147259523Y-91339899D01*
X147259523Y-91339899D02*
X147211904Y-91387518D01*
X147211904Y-91387518D02*
X147164285Y-91482756D01*
X147164285Y-91482756D02*
X147164285Y-91720851D01*
X147164285Y-91720851D02*
X147211904Y-91816089D01*
X147211904Y-91816089D02*
X147259523Y-91863709D01*
X147259523Y-91863709D02*
X147354761Y-91911328D01*
X147354761Y-91911328D02*
X147640475Y-91911328D01*
X147640475Y-91911328D02*
X147735713Y-91863709D01*
X147735713Y-91863709D02*
X147783332Y-91816089D01*
X144078571Y-92874213D02*
X143621428Y-92874213D01*
X143850000Y-92874213D02*
X143850000Y-93674213D01*
X143850000Y-93674213D02*
X143773809Y-93559928D01*
X143773809Y-93559928D02*
X143697619Y-93483737D01*
X143697619Y-93483737D02*
X143621428Y-93445642D01*
X148638094Y-98761328D02*
X148638094Y-97761328D01*
X148638094Y-97761328D02*
X148399999Y-97761328D01*
X148399999Y-97761328D02*
X148257142Y-97808947D01*
X148257142Y-97808947D02*
X148161904Y-97904185D01*
X148161904Y-97904185D02*
X148114285Y-97999423D01*
X148114285Y-97999423D02*
X148066666Y-98189899D01*
X148066666Y-98189899D02*
X148066666Y-98332756D01*
X148066666Y-98332756D02*
X148114285Y-98523232D01*
X148114285Y-98523232D02*
X148161904Y-98618470D01*
X148161904Y-98618470D02*
X148257142Y-98713709D01*
X148257142Y-98713709D02*
X148399999Y-98761328D01*
X148399999Y-98761328D02*
X148638094Y-98761328D01*
X147685713Y-97856566D02*
X147638094Y-97808947D01*
X147638094Y-97808947D02*
X147542856Y-97761328D01*
X147542856Y-97761328D02*
X147304761Y-97761328D01*
X147304761Y-97761328D02*
X147209523Y-97808947D01*
X147209523Y-97808947D02*
X147161904Y-97856566D01*
X147161904Y-97856566D02*
X147114285Y-97951804D01*
X147114285Y-97951804D02*
X147114285Y-98047042D01*
X147114285Y-98047042D02*
X147161904Y-98189899D01*
X147161904Y-98189899D02*
X147733332Y-98761328D01*
X147733332Y-98761328D02*
X147114285Y-98761328D01*
X144078571Y-99494213D02*
X143621428Y-99494213D01*
X143850000Y-99494213D02*
X143850000Y-100294213D01*
X143850000Y-100294213D02*
X143773809Y-100179928D01*
X143773809Y-100179928D02*
X143697619Y-100103737D01*
X143697619Y-100103737D02*
X143621428Y-100065642D01*
X148588094Y-105411328D02*
X148588094Y-104411328D01*
X148588094Y-104411328D02*
X148349999Y-104411328D01*
X148349999Y-104411328D02*
X148207142Y-104458947D01*
X148207142Y-104458947D02*
X148111904Y-104554185D01*
X148111904Y-104554185D02*
X148064285Y-104649423D01*
X148064285Y-104649423D02*
X148016666Y-104839899D01*
X148016666Y-104839899D02*
X148016666Y-104982756D01*
X148016666Y-104982756D02*
X148064285Y-105173232D01*
X148064285Y-105173232D02*
X148111904Y-105268470D01*
X148111904Y-105268470D02*
X148207142Y-105363709D01*
X148207142Y-105363709D02*
X148349999Y-105411328D01*
X148349999Y-105411328D02*
X148588094Y-105411328D01*
X147064285Y-105411328D02*
X147635713Y-105411328D01*
X147349999Y-105411328D02*
X147349999Y-104411328D01*
X147349999Y-104411328D02*
X147445237Y-104554185D01*
X147445237Y-104554185D02*
X147540475Y-104649423D01*
X147540475Y-104649423D02*
X147635713Y-104697042D01*
X144078571Y-106114213D02*
X143621428Y-106114213D01*
X143850000Y-106114213D02*
X143850000Y-106914213D01*
X143850000Y-106914213D02*
X143773809Y-106799928D01*
X143773809Y-106799928D02*
X143697619Y-106723737D01*
X143697619Y-106723737D02*
X143621428Y-106685642D01*
X148588094Y-66061328D02*
X148588094Y-65061328D01*
X148588094Y-65061328D02*
X148349999Y-65061328D01*
X148349999Y-65061328D02*
X148207142Y-65108947D01*
X148207142Y-65108947D02*
X148111904Y-65204185D01*
X148111904Y-65204185D02*
X148064285Y-65299423D01*
X148064285Y-65299423D02*
X148016666Y-65489899D01*
X148016666Y-65489899D02*
X148016666Y-65632756D01*
X148016666Y-65632756D02*
X148064285Y-65823232D01*
X148064285Y-65823232D02*
X148111904Y-65918470D01*
X148111904Y-65918470D02*
X148207142Y-66013709D01*
X148207142Y-66013709D02*
X148349999Y-66061328D01*
X148349999Y-66061328D02*
X148588094Y-66061328D01*
X147683332Y-65061328D02*
X147016666Y-65061328D01*
X147016666Y-65061328D02*
X147445237Y-66061328D01*
X144078571Y-66894213D02*
X143621428Y-66894213D01*
X143850000Y-66894213D02*
X143850000Y-67694213D01*
X143850000Y-67694213D02*
X143773809Y-67579928D01*
X143773809Y-67579928D02*
X143697619Y-67503737D01*
X143697619Y-67503737D02*
X143621428Y-67465642D01*
X148588094Y-59461328D02*
X148588094Y-58461328D01*
X148588094Y-58461328D02*
X148349999Y-58461328D01*
X148349999Y-58461328D02*
X148207142Y-58508947D01*
X148207142Y-58508947D02*
X148111904Y-58604185D01*
X148111904Y-58604185D02*
X148064285Y-58699423D01*
X148064285Y-58699423D02*
X148016666Y-58889899D01*
X148016666Y-58889899D02*
X148016666Y-59032756D01*
X148016666Y-59032756D02*
X148064285Y-59223232D01*
X148064285Y-59223232D02*
X148111904Y-59318470D01*
X148111904Y-59318470D02*
X148207142Y-59413709D01*
X148207142Y-59413709D02*
X148349999Y-59461328D01*
X148349999Y-59461328D02*
X148588094Y-59461328D01*
X147445237Y-58889899D02*
X147540475Y-58842280D01*
X147540475Y-58842280D02*
X147588094Y-58794661D01*
X147588094Y-58794661D02*
X147635713Y-58699423D01*
X147635713Y-58699423D02*
X147635713Y-58651804D01*
X147635713Y-58651804D02*
X147588094Y-58556566D01*
X147588094Y-58556566D02*
X147540475Y-58508947D01*
X147540475Y-58508947D02*
X147445237Y-58461328D01*
X147445237Y-58461328D02*
X147254761Y-58461328D01*
X147254761Y-58461328D02*
X147159523Y-58508947D01*
X147159523Y-58508947D02*
X147111904Y-58556566D01*
X147111904Y-58556566D02*
X147064285Y-58651804D01*
X147064285Y-58651804D02*
X147064285Y-58699423D01*
X147064285Y-58699423D02*
X147111904Y-58794661D01*
X147111904Y-58794661D02*
X147159523Y-58842280D01*
X147159523Y-58842280D02*
X147254761Y-58889899D01*
X147254761Y-58889899D02*
X147445237Y-58889899D01*
X147445237Y-58889899D02*
X147540475Y-58937518D01*
X147540475Y-58937518D02*
X147588094Y-58985137D01*
X147588094Y-58985137D02*
X147635713Y-59080375D01*
X147635713Y-59080375D02*
X147635713Y-59270851D01*
X147635713Y-59270851D02*
X147588094Y-59366089D01*
X147588094Y-59366089D02*
X147540475Y-59413709D01*
X147540475Y-59413709D02*
X147445237Y-59461328D01*
X147445237Y-59461328D02*
X147254761Y-59461328D01*
X147254761Y-59461328D02*
X147159523Y-59413709D01*
X147159523Y-59413709D02*
X147111904Y-59366089D01*
X147111904Y-59366089D02*
X147064285Y-59270851D01*
X147064285Y-59270851D02*
X147064285Y-59080375D01*
X147064285Y-59080375D02*
X147111904Y-58985137D01*
X147111904Y-58985137D02*
X147159523Y-58937518D01*
X147159523Y-58937518D02*
X147254761Y-58889899D01*
X144078571Y-60274213D02*
X143621428Y-60274213D01*
X143850000Y-60274213D02*
X143850000Y-61074213D01*
X143850000Y-61074213D02*
X143773809Y-60959928D01*
X143773809Y-60959928D02*
X143697619Y-60883737D01*
X143697619Y-60883737D02*
X143621428Y-60845642D01*
X148588094Y-72711328D02*
X148588094Y-71711328D01*
X148588094Y-71711328D02*
X148349999Y-71711328D01*
X148349999Y-71711328D02*
X148207142Y-71758947D01*
X148207142Y-71758947D02*
X148111904Y-71854185D01*
X148111904Y-71854185D02*
X148064285Y-71949423D01*
X148064285Y-71949423D02*
X148016666Y-72139899D01*
X148016666Y-72139899D02*
X148016666Y-72282756D01*
X148016666Y-72282756D02*
X148064285Y-72473232D01*
X148064285Y-72473232D02*
X148111904Y-72568470D01*
X148111904Y-72568470D02*
X148207142Y-72663709D01*
X148207142Y-72663709D02*
X148349999Y-72711328D01*
X148349999Y-72711328D02*
X148588094Y-72711328D01*
X147159523Y-71711328D02*
X147349999Y-71711328D01*
X147349999Y-71711328D02*
X147445237Y-71758947D01*
X147445237Y-71758947D02*
X147492856Y-71806566D01*
X147492856Y-71806566D02*
X147588094Y-71949423D01*
X147588094Y-71949423D02*
X147635713Y-72139899D01*
X147635713Y-72139899D02*
X147635713Y-72520851D01*
X147635713Y-72520851D02*
X147588094Y-72616089D01*
X147588094Y-72616089D02*
X147540475Y-72663709D01*
X147540475Y-72663709D02*
X147445237Y-72711328D01*
X147445237Y-72711328D02*
X147254761Y-72711328D01*
X147254761Y-72711328D02*
X147159523Y-72663709D01*
X147159523Y-72663709D02*
X147111904Y-72616089D01*
X147111904Y-72616089D02*
X147064285Y-72520851D01*
X147064285Y-72520851D02*
X147064285Y-72282756D01*
X147064285Y-72282756D02*
X147111904Y-72187518D01*
X147111904Y-72187518D02*
X147159523Y-72139899D01*
X147159523Y-72139899D02*
X147254761Y-72092280D01*
X147254761Y-72092280D02*
X147445237Y-72092280D01*
X147445237Y-72092280D02*
X147540475Y-72139899D01*
X147540475Y-72139899D02*
X147588094Y-72187518D01*
X147588094Y-72187518D02*
X147635713Y-72282756D01*
X144078571Y-73514213D02*
X143621428Y-73514213D01*
X143850000Y-73514213D02*
X143850000Y-74314213D01*
X143850000Y-74314213D02*
X143773809Y-74199928D01*
X143773809Y-74199928D02*
X143697619Y-74123737D01*
X143697619Y-74123737D02*
X143621428Y-74085642D01*
X148638094Y-79411328D02*
X148638094Y-78411328D01*
X148638094Y-78411328D02*
X148399999Y-78411328D01*
X148399999Y-78411328D02*
X148257142Y-78458947D01*
X148257142Y-78458947D02*
X148161904Y-78554185D01*
X148161904Y-78554185D02*
X148114285Y-78649423D01*
X148114285Y-78649423D02*
X148066666Y-78839899D01*
X148066666Y-78839899D02*
X148066666Y-78982756D01*
X148066666Y-78982756D02*
X148114285Y-79173232D01*
X148114285Y-79173232D02*
X148161904Y-79268470D01*
X148161904Y-79268470D02*
X148257142Y-79363709D01*
X148257142Y-79363709D02*
X148399999Y-79411328D01*
X148399999Y-79411328D02*
X148638094Y-79411328D01*
X147161904Y-78411328D02*
X147638094Y-78411328D01*
X147638094Y-78411328D02*
X147685713Y-78887518D01*
X147685713Y-78887518D02*
X147638094Y-78839899D01*
X147638094Y-78839899D02*
X147542856Y-78792280D01*
X147542856Y-78792280D02*
X147304761Y-78792280D01*
X147304761Y-78792280D02*
X147209523Y-78839899D01*
X147209523Y-78839899D02*
X147161904Y-78887518D01*
X147161904Y-78887518D02*
X147114285Y-78982756D01*
X147114285Y-78982756D02*
X147114285Y-79220851D01*
X147114285Y-79220851D02*
X147161904Y-79316089D01*
X147161904Y-79316089D02*
X147209523Y-79363709D01*
X147209523Y-79363709D02*
X147304761Y-79411328D01*
X147304761Y-79411328D02*
X147542856Y-79411328D01*
X147542856Y-79411328D02*
X147638094Y-79363709D01*
X147638094Y-79363709D02*
X147685713Y-79316089D01*
X144078571Y-80134213D02*
X143621428Y-80134213D01*
X143850000Y-80134213D02*
X143850000Y-80934213D01*
X143850000Y-80934213D02*
X143773809Y-80819928D01*
X143773809Y-80819928D02*
X143697619Y-80743737D01*
X143697619Y-80743737D02*
X143621428Y-80705642D01*
X135959580Y-100213651D02*
X136007200Y-100166032D01*
X136007200Y-100166032D02*
X136054819Y-100023175D01*
X136054819Y-100023175D02*
X136054819Y-99927937D01*
X136054819Y-99927937D02*
X136007200Y-99785080D01*
X136007200Y-99785080D02*
X135911961Y-99689842D01*
X135911961Y-99689842D02*
X135816723Y-99642223D01*
X135816723Y-99642223D02*
X135626247Y-99594604D01*
X135626247Y-99594604D02*
X135483390Y-99594604D01*
X135483390Y-99594604D02*
X135292914Y-99642223D01*
X135292914Y-99642223D02*
X135197676Y-99689842D01*
X135197676Y-99689842D02*
X135102438Y-99785080D01*
X135102438Y-99785080D02*
X135054819Y-99927937D01*
X135054819Y-99927937D02*
X135054819Y-100023175D01*
X135054819Y-100023175D02*
X135102438Y-100166032D01*
X135102438Y-100166032D02*
X135150057Y-100213651D01*
X135054819Y-100546985D02*
X135054819Y-101166032D01*
X135054819Y-101166032D02*
X135435771Y-100832699D01*
X135435771Y-100832699D02*
X135435771Y-100975556D01*
X135435771Y-100975556D02*
X135483390Y-101070794D01*
X135483390Y-101070794D02*
X135531009Y-101118413D01*
X135531009Y-101118413D02*
X135626247Y-101166032D01*
X135626247Y-101166032D02*
X135864342Y-101166032D01*
X135864342Y-101166032D02*
X135959580Y-101118413D01*
X135959580Y-101118413D02*
X136007200Y-101070794D01*
X136007200Y-101070794D02*
X136054819Y-100975556D01*
X136054819Y-100975556D02*
X136054819Y-100689842D01*
X136054819Y-100689842D02*
X136007200Y-100594604D01*
X136007200Y-100594604D02*
X135959580Y-100546985D01*
X135054819Y-102023175D02*
X135054819Y-101832699D01*
X135054819Y-101832699D02*
X135102438Y-101737461D01*
X135102438Y-101737461D02*
X135150057Y-101689842D01*
X135150057Y-101689842D02*
X135292914Y-101594604D01*
X135292914Y-101594604D02*
X135483390Y-101546985D01*
X135483390Y-101546985D02*
X135864342Y-101546985D01*
X135864342Y-101546985D02*
X135959580Y-101594604D01*
X135959580Y-101594604D02*
X136007200Y-101642223D01*
X136007200Y-101642223D02*
X136054819Y-101737461D01*
X136054819Y-101737461D02*
X136054819Y-101927937D01*
X136054819Y-101927937D02*
X136007200Y-102023175D01*
X136007200Y-102023175D02*
X135959580Y-102070794D01*
X135959580Y-102070794D02*
X135864342Y-102118413D01*
X135864342Y-102118413D02*
X135626247Y-102118413D01*
X135626247Y-102118413D02*
X135531009Y-102070794D01*
X135531009Y-102070794D02*
X135483390Y-102023175D01*
X135483390Y-102023175D02*
X135435771Y-101927937D01*
X135435771Y-101927937D02*
X135435771Y-101737461D01*
X135435771Y-101737461D02*
X135483390Y-101642223D01*
X135483390Y-101642223D02*
X135531009Y-101594604D01*
X135531009Y-101594604D02*
X135626247Y-101546985D01*
X152559580Y-56189842D02*
X152607200Y-56142223D01*
X152607200Y-56142223D02*
X152654819Y-55999366D01*
X152654819Y-55999366D02*
X152654819Y-55904128D01*
X152654819Y-55904128D02*
X152607200Y-55761271D01*
X152607200Y-55761271D02*
X152511961Y-55666033D01*
X152511961Y-55666033D02*
X152416723Y-55618414D01*
X152416723Y-55618414D02*
X152226247Y-55570795D01*
X152226247Y-55570795D02*
X152083390Y-55570795D01*
X152083390Y-55570795D02*
X151892914Y-55618414D01*
X151892914Y-55618414D02*
X151797676Y-55666033D01*
X151797676Y-55666033D02*
X151702438Y-55761271D01*
X151702438Y-55761271D02*
X151654819Y-55904128D01*
X151654819Y-55904128D02*
X151654819Y-55999366D01*
X151654819Y-55999366D02*
X151702438Y-56142223D01*
X151702438Y-56142223D02*
X151750057Y-56189842D01*
X151750057Y-56570795D02*
X151702438Y-56618414D01*
X151702438Y-56618414D02*
X151654819Y-56713652D01*
X151654819Y-56713652D02*
X151654819Y-56951747D01*
X151654819Y-56951747D02*
X151702438Y-57046985D01*
X151702438Y-57046985D02*
X151750057Y-57094604D01*
X151750057Y-57094604D02*
X151845295Y-57142223D01*
X151845295Y-57142223D02*
X151940533Y-57142223D01*
X151940533Y-57142223D02*
X152083390Y-57094604D01*
X152083390Y-57094604D02*
X152654819Y-56523176D01*
X152654819Y-56523176D02*
X152654819Y-57142223D01*
X134479580Y-84113651D02*
X134527200Y-84066032D01*
X134527200Y-84066032D02*
X134574819Y-83923175D01*
X134574819Y-83923175D02*
X134574819Y-83827937D01*
X134574819Y-83827937D02*
X134527200Y-83685080D01*
X134527200Y-83685080D02*
X134431961Y-83589842D01*
X134431961Y-83589842D02*
X134336723Y-83542223D01*
X134336723Y-83542223D02*
X134146247Y-83494604D01*
X134146247Y-83494604D02*
X134003390Y-83494604D01*
X134003390Y-83494604D02*
X133812914Y-83542223D01*
X133812914Y-83542223D02*
X133717676Y-83589842D01*
X133717676Y-83589842D02*
X133622438Y-83685080D01*
X133622438Y-83685080D02*
X133574819Y-83827937D01*
X133574819Y-83827937D02*
X133574819Y-83923175D01*
X133574819Y-83923175D02*
X133622438Y-84066032D01*
X133622438Y-84066032D02*
X133670057Y-84113651D01*
X133574819Y-84446985D02*
X133574819Y-85066032D01*
X133574819Y-85066032D02*
X133955771Y-84732699D01*
X133955771Y-84732699D02*
X133955771Y-84875556D01*
X133955771Y-84875556D02*
X134003390Y-84970794D01*
X134003390Y-84970794D02*
X134051009Y-85018413D01*
X134051009Y-85018413D02*
X134146247Y-85066032D01*
X134146247Y-85066032D02*
X134384342Y-85066032D01*
X134384342Y-85066032D02*
X134479580Y-85018413D01*
X134479580Y-85018413D02*
X134527200Y-84970794D01*
X134527200Y-84970794D02*
X134574819Y-84875556D01*
X134574819Y-84875556D02*
X134574819Y-84589842D01*
X134574819Y-84589842D02*
X134527200Y-84494604D01*
X134527200Y-84494604D02*
X134479580Y-84446985D01*
X133908152Y-85923175D02*
X134574819Y-85923175D01*
X133527200Y-85685080D02*
X134241485Y-85446985D01*
X134241485Y-85446985D02*
X134241485Y-86066032D01*
X152559580Y-94813651D02*
X152607200Y-94766032D01*
X152607200Y-94766032D02*
X152654819Y-94623175D01*
X152654819Y-94623175D02*
X152654819Y-94527937D01*
X152654819Y-94527937D02*
X152607200Y-94385080D01*
X152607200Y-94385080D02*
X152511961Y-94289842D01*
X152511961Y-94289842D02*
X152416723Y-94242223D01*
X152416723Y-94242223D02*
X152226247Y-94194604D01*
X152226247Y-94194604D02*
X152083390Y-94194604D01*
X152083390Y-94194604D02*
X151892914Y-94242223D01*
X151892914Y-94242223D02*
X151797676Y-94289842D01*
X151797676Y-94289842D02*
X151702438Y-94385080D01*
X151702438Y-94385080D02*
X151654819Y-94527937D01*
X151654819Y-94527937D02*
X151654819Y-94623175D01*
X151654819Y-94623175D02*
X151702438Y-94766032D01*
X151702438Y-94766032D02*
X151750057Y-94813651D01*
X151750057Y-95194604D02*
X151702438Y-95242223D01*
X151702438Y-95242223D02*
X151654819Y-95337461D01*
X151654819Y-95337461D02*
X151654819Y-95575556D01*
X151654819Y-95575556D02*
X151702438Y-95670794D01*
X151702438Y-95670794D02*
X151750057Y-95718413D01*
X151750057Y-95718413D02*
X151845295Y-95766032D01*
X151845295Y-95766032D02*
X151940533Y-95766032D01*
X151940533Y-95766032D02*
X152083390Y-95718413D01*
X152083390Y-95718413D02*
X152654819Y-95146985D01*
X152654819Y-95146985D02*
X152654819Y-95766032D01*
X151988152Y-96623175D02*
X152654819Y-96623175D01*
X151607200Y-96385080D02*
X152321485Y-96146985D01*
X152321485Y-96146985D02*
X152321485Y-96766032D01*
X152659580Y-88063651D02*
X152707200Y-88016032D01*
X152707200Y-88016032D02*
X152754819Y-87873175D01*
X152754819Y-87873175D02*
X152754819Y-87777937D01*
X152754819Y-87777937D02*
X152707200Y-87635080D01*
X152707200Y-87635080D02*
X152611961Y-87539842D01*
X152611961Y-87539842D02*
X152516723Y-87492223D01*
X152516723Y-87492223D02*
X152326247Y-87444604D01*
X152326247Y-87444604D02*
X152183390Y-87444604D01*
X152183390Y-87444604D02*
X151992914Y-87492223D01*
X151992914Y-87492223D02*
X151897676Y-87539842D01*
X151897676Y-87539842D02*
X151802438Y-87635080D01*
X151802438Y-87635080D02*
X151754819Y-87777937D01*
X151754819Y-87777937D02*
X151754819Y-87873175D01*
X151754819Y-87873175D02*
X151802438Y-88016032D01*
X151802438Y-88016032D02*
X151850057Y-88063651D01*
X151850057Y-88444604D02*
X151802438Y-88492223D01*
X151802438Y-88492223D02*
X151754819Y-88587461D01*
X151754819Y-88587461D02*
X151754819Y-88825556D01*
X151754819Y-88825556D02*
X151802438Y-88920794D01*
X151802438Y-88920794D02*
X151850057Y-88968413D01*
X151850057Y-88968413D02*
X151945295Y-89016032D01*
X151945295Y-89016032D02*
X152040533Y-89016032D01*
X152040533Y-89016032D02*
X152183390Y-88968413D01*
X152183390Y-88968413D02*
X152754819Y-88396985D01*
X152754819Y-88396985D02*
X152754819Y-89016032D01*
X151754819Y-89920794D02*
X151754819Y-89444604D01*
X151754819Y-89444604D02*
X152231009Y-89396985D01*
X152231009Y-89396985D02*
X152183390Y-89444604D01*
X152183390Y-89444604D02*
X152135771Y-89539842D01*
X152135771Y-89539842D02*
X152135771Y-89777937D01*
X152135771Y-89777937D02*
X152183390Y-89873175D01*
X152183390Y-89873175D02*
X152231009Y-89920794D01*
X152231009Y-89920794D02*
X152326247Y-89968413D01*
X152326247Y-89968413D02*
X152564342Y-89968413D01*
X152564342Y-89968413D02*
X152659580Y-89920794D01*
X152659580Y-89920794D02*
X152707200Y-89873175D01*
X152707200Y-89873175D02*
X152754819Y-89777937D01*
X152754819Y-89777937D02*
X152754819Y-89539842D01*
X152754819Y-89539842D02*
X152707200Y-89444604D01*
X152707200Y-89444604D02*
X152659580Y-89396985D01*
X134429580Y-71513651D02*
X134477200Y-71466032D01*
X134477200Y-71466032D02*
X134524819Y-71323175D01*
X134524819Y-71323175D02*
X134524819Y-71227937D01*
X134524819Y-71227937D02*
X134477200Y-71085080D01*
X134477200Y-71085080D02*
X134381961Y-70989842D01*
X134381961Y-70989842D02*
X134286723Y-70942223D01*
X134286723Y-70942223D02*
X134096247Y-70894604D01*
X134096247Y-70894604D02*
X133953390Y-70894604D01*
X133953390Y-70894604D02*
X133762914Y-70942223D01*
X133762914Y-70942223D02*
X133667676Y-70989842D01*
X133667676Y-70989842D02*
X133572438Y-71085080D01*
X133572438Y-71085080D02*
X133524819Y-71227937D01*
X133524819Y-71227937D02*
X133524819Y-71323175D01*
X133524819Y-71323175D02*
X133572438Y-71466032D01*
X133572438Y-71466032D02*
X133620057Y-71513651D01*
X133524819Y-71846985D02*
X133524819Y-72466032D01*
X133524819Y-72466032D02*
X133905771Y-72132699D01*
X133905771Y-72132699D02*
X133905771Y-72275556D01*
X133905771Y-72275556D02*
X133953390Y-72370794D01*
X133953390Y-72370794D02*
X134001009Y-72418413D01*
X134001009Y-72418413D02*
X134096247Y-72466032D01*
X134096247Y-72466032D02*
X134334342Y-72466032D01*
X134334342Y-72466032D02*
X134429580Y-72418413D01*
X134429580Y-72418413D02*
X134477200Y-72370794D01*
X134477200Y-72370794D02*
X134524819Y-72275556D01*
X134524819Y-72275556D02*
X134524819Y-71989842D01*
X134524819Y-71989842D02*
X134477200Y-71894604D01*
X134477200Y-71894604D02*
X134429580Y-71846985D01*
X133620057Y-72846985D02*
X133572438Y-72894604D01*
X133572438Y-72894604D02*
X133524819Y-72989842D01*
X133524819Y-72989842D02*
X133524819Y-73227937D01*
X133524819Y-73227937D02*
X133572438Y-73323175D01*
X133572438Y-73323175D02*
X133620057Y-73370794D01*
X133620057Y-73370794D02*
X133715295Y-73418413D01*
X133715295Y-73418413D02*
X133810533Y-73418413D01*
X133810533Y-73418413D02*
X133953390Y-73370794D01*
X133953390Y-73370794D02*
X134524819Y-72799366D01*
X134524819Y-72799366D02*
X134524819Y-73418413D01*
X152659580Y-101263651D02*
X152707200Y-101216032D01*
X152707200Y-101216032D02*
X152754819Y-101073175D01*
X152754819Y-101073175D02*
X152754819Y-100977937D01*
X152754819Y-100977937D02*
X152707200Y-100835080D01*
X152707200Y-100835080D02*
X152611961Y-100739842D01*
X152611961Y-100739842D02*
X152516723Y-100692223D01*
X152516723Y-100692223D02*
X152326247Y-100644604D01*
X152326247Y-100644604D02*
X152183390Y-100644604D01*
X152183390Y-100644604D02*
X151992914Y-100692223D01*
X151992914Y-100692223D02*
X151897676Y-100739842D01*
X151897676Y-100739842D02*
X151802438Y-100835080D01*
X151802438Y-100835080D02*
X151754819Y-100977937D01*
X151754819Y-100977937D02*
X151754819Y-101073175D01*
X151754819Y-101073175D02*
X151802438Y-101216032D01*
X151802438Y-101216032D02*
X151850057Y-101263651D01*
X151850057Y-101644604D02*
X151802438Y-101692223D01*
X151802438Y-101692223D02*
X151754819Y-101787461D01*
X151754819Y-101787461D02*
X151754819Y-102025556D01*
X151754819Y-102025556D02*
X151802438Y-102120794D01*
X151802438Y-102120794D02*
X151850057Y-102168413D01*
X151850057Y-102168413D02*
X151945295Y-102216032D01*
X151945295Y-102216032D02*
X152040533Y-102216032D01*
X152040533Y-102216032D02*
X152183390Y-102168413D01*
X152183390Y-102168413D02*
X152754819Y-101596985D01*
X152754819Y-101596985D02*
X152754819Y-102216032D01*
X151754819Y-102549366D02*
X151754819Y-103168413D01*
X151754819Y-103168413D02*
X152135771Y-102835080D01*
X152135771Y-102835080D02*
X152135771Y-102977937D01*
X152135771Y-102977937D02*
X152183390Y-103073175D01*
X152183390Y-103073175D02*
X152231009Y-103120794D01*
X152231009Y-103120794D02*
X152326247Y-103168413D01*
X152326247Y-103168413D02*
X152564342Y-103168413D01*
X152564342Y-103168413D02*
X152659580Y-103120794D01*
X152659580Y-103120794D02*
X152707200Y-103073175D01*
X152707200Y-103073175D02*
X152754819Y-102977937D01*
X152754819Y-102977937D02*
X152754819Y-102692223D01*
X152754819Y-102692223D02*
X152707200Y-102596985D01*
X152707200Y-102596985D02*
X152659580Y-102549366D01*
X134479580Y-58463651D02*
X134527200Y-58416032D01*
X134527200Y-58416032D02*
X134574819Y-58273175D01*
X134574819Y-58273175D02*
X134574819Y-58177937D01*
X134574819Y-58177937D02*
X134527200Y-58035080D01*
X134527200Y-58035080D02*
X134431961Y-57939842D01*
X134431961Y-57939842D02*
X134336723Y-57892223D01*
X134336723Y-57892223D02*
X134146247Y-57844604D01*
X134146247Y-57844604D02*
X134003390Y-57844604D01*
X134003390Y-57844604D02*
X133812914Y-57892223D01*
X133812914Y-57892223D02*
X133717676Y-57939842D01*
X133717676Y-57939842D02*
X133622438Y-58035080D01*
X133622438Y-58035080D02*
X133574819Y-58177937D01*
X133574819Y-58177937D02*
X133574819Y-58273175D01*
X133574819Y-58273175D02*
X133622438Y-58416032D01*
X133622438Y-58416032D02*
X133670057Y-58463651D01*
X133574819Y-58796985D02*
X133574819Y-59416032D01*
X133574819Y-59416032D02*
X133955771Y-59082699D01*
X133955771Y-59082699D02*
X133955771Y-59225556D01*
X133955771Y-59225556D02*
X134003390Y-59320794D01*
X134003390Y-59320794D02*
X134051009Y-59368413D01*
X134051009Y-59368413D02*
X134146247Y-59416032D01*
X134146247Y-59416032D02*
X134384342Y-59416032D01*
X134384342Y-59416032D02*
X134479580Y-59368413D01*
X134479580Y-59368413D02*
X134527200Y-59320794D01*
X134527200Y-59320794D02*
X134574819Y-59225556D01*
X134574819Y-59225556D02*
X134574819Y-58939842D01*
X134574819Y-58939842D02*
X134527200Y-58844604D01*
X134527200Y-58844604D02*
X134479580Y-58796985D01*
X133574819Y-60035080D02*
X133574819Y-60130318D01*
X133574819Y-60130318D02*
X133622438Y-60225556D01*
X133622438Y-60225556D02*
X133670057Y-60273175D01*
X133670057Y-60273175D02*
X133765295Y-60320794D01*
X133765295Y-60320794D02*
X133955771Y-60368413D01*
X133955771Y-60368413D02*
X134193866Y-60368413D01*
X134193866Y-60368413D02*
X134384342Y-60320794D01*
X134384342Y-60320794D02*
X134479580Y-60273175D01*
X134479580Y-60273175D02*
X134527200Y-60225556D01*
X134527200Y-60225556D02*
X134574819Y-60130318D01*
X134574819Y-60130318D02*
X134574819Y-60035080D01*
X134574819Y-60035080D02*
X134527200Y-59939842D01*
X134527200Y-59939842D02*
X134479580Y-59892223D01*
X134479580Y-59892223D02*
X134384342Y-59844604D01*
X134384342Y-59844604D02*
X134193866Y-59796985D01*
X134193866Y-59796985D02*
X133955771Y-59796985D01*
X133955771Y-59796985D02*
X133765295Y-59844604D01*
X133765295Y-59844604D02*
X133670057Y-59892223D01*
X133670057Y-59892223D02*
X133622438Y-59939842D01*
X133622438Y-59939842D02*
X133574819Y-60035080D01*
X152609580Y-81463651D02*
X152657200Y-81416032D01*
X152657200Y-81416032D02*
X152704819Y-81273175D01*
X152704819Y-81273175D02*
X152704819Y-81177937D01*
X152704819Y-81177937D02*
X152657200Y-81035080D01*
X152657200Y-81035080D02*
X152561961Y-80939842D01*
X152561961Y-80939842D02*
X152466723Y-80892223D01*
X152466723Y-80892223D02*
X152276247Y-80844604D01*
X152276247Y-80844604D02*
X152133390Y-80844604D01*
X152133390Y-80844604D02*
X151942914Y-80892223D01*
X151942914Y-80892223D02*
X151847676Y-80939842D01*
X151847676Y-80939842D02*
X151752438Y-81035080D01*
X151752438Y-81035080D02*
X151704819Y-81177937D01*
X151704819Y-81177937D02*
X151704819Y-81273175D01*
X151704819Y-81273175D02*
X151752438Y-81416032D01*
X151752438Y-81416032D02*
X151800057Y-81463651D01*
X151800057Y-81844604D02*
X151752438Y-81892223D01*
X151752438Y-81892223D02*
X151704819Y-81987461D01*
X151704819Y-81987461D02*
X151704819Y-82225556D01*
X151704819Y-82225556D02*
X151752438Y-82320794D01*
X151752438Y-82320794D02*
X151800057Y-82368413D01*
X151800057Y-82368413D02*
X151895295Y-82416032D01*
X151895295Y-82416032D02*
X151990533Y-82416032D01*
X151990533Y-82416032D02*
X152133390Y-82368413D01*
X152133390Y-82368413D02*
X152704819Y-81796985D01*
X152704819Y-81796985D02*
X152704819Y-82416032D01*
X151704819Y-83273175D02*
X151704819Y-83082699D01*
X151704819Y-83082699D02*
X151752438Y-82987461D01*
X151752438Y-82987461D02*
X151800057Y-82939842D01*
X151800057Y-82939842D02*
X151942914Y-82844604D01*
X151942914Y-82844604D02*
X152133390Y-82796985D01*
X152133390Y-82796985D02*
X152514342Y-82796985D01*
X152514342Y-82796985D02*
X152609580Y-82844604D01*
X152609580Y-82844604D02*
X152657200Y-82892223D01*
X152657200Y-82892223D02*
X152704819Y-82987461D01*
X152704819Y-82987461D02*
X152704819Y-83177937D01*
X152704819Y-83177937D02*
X152657200Y-83273175D01*
X152657200Y-83273175D02*
X152609580Y-83320794D01*
X152609580Y-83320794D02*
X152514342Y-83368413D01*
X152514342Y-83368413D02*
X152276247Y-83368413D01*
X152276247Y-83368413D02*
X152181009Y-83320794D01*
X152181009Y-83320794D02*
X152133390Y-83273175D01*
X152133390Y-83273175D02*
X152085771Y-83177937D01*
X152085771Y-83177937D02*
X152085771Y-82987461D01*
X152085771Y-82987461D02*
X152133390Y-82892223D01*
X152133390Y-82892223D02*
X152181009Y-82844604D01*
X152181009Y-82844604D02*
X152276247Y-82796985D01*
X152759580Y-75363651D02*
X152807200Y-75316032D01*
X152807200Y-75316032D02*
X152854819Y-75173175D01*
X152854819Y-75173175D02*
X152854819Y-75077937D01*
X152854819Y-75077937D02*
X152807200Y-74935080D01*
X152807200Y-74935080D02*
X152711961Y-74839842D01*
X152711961Y-74839842D02*
X152616723Y-74792223D01*
X152616723Y-74792223D02*
X152426247Y-74744604D01*
X152426247Y-74744604D02*
X152283390Y-74744604D01*
X152283390Y-74744604D02*
X152092914Y-74792223D01*
X152092914Y-74792223D02*
X151997676Y-74839842D01*
X151997676Y-74839842D02*
X151902438Y-74935080D01*
X151902438Y-74935080D02*
X151854819Y-75077937D01*
X151854819Y-75077937D02*
X151854819Y-75173175D01*
X151854819Y-75173175D02*
X151902438Y-75316032D01*
X151902438Y-75316032D02*
X151950057Y-75363651D01*
X151950057Y-75744604D02*
X151902438Y-75792223D01*
X151902438Y-75792223D02*
X151854819Y-75887461D01*
X151854819Y-75887461D02*
X151854819Y-76125556D01*
X151854819Y-76125556D02*
X151902438Y-76220794D01*
X151902438Y-76220794D02*
X151950057Y-76268413D01*
X151950057Y-76268413D02*
X152045295Y-76316032D01*
X152045295Y-76316032D02*
X152140533Y-76316032D01*
X152140533Y-76316032D02*
X152283390Y-76268413D01*
X152283390Y-76268413D02*
X152854819Y-75696985D01*
X152854819Y-75696985D02*
X152854819Y-76316032D01*
X151854819Y-76649366D02*
X151854819Y-77316032D01*
X151854819Y-77316032D02*
X152854819Y-76887461D01*
X152609580Y-68913651D02*
X152657200Y-68866032D01*
X152657200Y-68866032D02*
X152704819Y-68723175D01*
X152704819Y-68723175D02*
X152704819Y-68627937D01*
X152704819Y-68627937D02*
X152657200Y-68485080D01*
X152657200Y-68485080D02*
X152561961Y-68389842D01*
X152561961Y-68389842D02*
X152466723Y-68342223D01*
X152466723Y-68342223D02*
X152276247Y-68294604D01*
X152276247Y-68294604D02*
X152133390Y-68294604D01*
X152133390Y-68294604D02*
X151942914Y-68342223D01*
X151942914Y-68342223D02*
X151847676Y-68389842D01*
X151847676Y-68389842D02*
X151752438Y-68485080D01*
X151752438Y-68485080D02*
X151704819Y-68627937D01*
X151704819Y-68627937D02*
X151704819Y-68723175D01*
X151704819Y-68723175D02*
X151752438Y-68866032D01*
X151752438Y-68866032D02*
X151800057Y-68913651D01*
X151800057Y-69294604D02*
X151752438Y-69342223D01*
X151752438Y-69342223D02*
X151704819Y-69437461D01*
X151704819Y-69437461D02*
X151704819Y-69675556D01*
X151704819Y-69675556D02*
X151752438Y-69770794D01*
X151752438Y-69770794D02*
X151800057Y-69818413D01*
X151800057Y-69818413D02*
X151895295Y-69866032D01*
X151895295Y-69866032D02*
X151990533Y-69866032D01*
X151990533Y-69866032D02*
X152133390Y-69818413D01*
X152133390Y-69818413D02*
X152704819Y-69246985D01*
X152704819Y-69246985D02*
X152704819Y-69866032D01*
X152133390Y-70437461D02*
X152085771Y-70342223D01*
X152085771Y-70342223D02*
X152038152Y-70294604D01*
X152038152Y-70294604D02*
X151942914Y-70246985D01*
X151942914Y-70246985D02*
X151895295Y-70246985D01*
X151895295Y-70246985D02*
X151800057Y-70294604D01*
X151800057Y-70294604D02*
X151752438Y-70342223D01*
X151752438Y-70342223D02*
X151704819Y-70437461D01*
X151704819Y-70437461D02*
X151704819Y-70627937D01*
X151704819Y-70627937D02*
X151752438Y-70723175D01*
X151752438Y-70723175D02*
X151800057Y-70770794D01*
X151800057Y-70770794D02*
X151895295Y-70818413D01*
X151895295Y-70818413D02*
X151942914Y-70818413D01*
X151942914Y-70818413D02*
X152038152Y-70770794D01*
X152038152Y-70770794D02*
X152085771Y-70723175D01*
X152085771Y-70723175D02*
X152133390Y-70627937D01*
X152133390Y-70627937D02*
X152133390Y-70437461D01*
X152133390Y-70437461D02*
X152181009Y-70342223D01*
X152181009Y-70342223D02*
X152228628Y-70294604D01*
X152228628Y-70294604D02*
X152323866Y-70246985D01*
X152323866Y-70246985D02*
X152514342Y-70246985D01*
X152514342Y-70246985D02*
X152609580Y-70294604D01*
X152609580Y-70294604D02*
X152657200Y-70342223D01*
X152657200Y-70342223D02*
X152704819Y-70437461D01*
X152704819Y-70437461D02*
X152704819Y-70627937D01*
X152704819Y-70627937D02*
X152657200Y-70723175D01*
X152657200Y-70723175D02*
X152609580Y-70770794D01*
X152609580Y-70770794D02*
X152514342Y-70818413D01*
X152514342Y-70818413D02*
X152323866Y-70818413D01*
X152323866Y-70818413D02*
X152228628Y-70770794D01*
X152228628Y-70770794D02*
X152181009Y-70723175D01*
X152181009Y-70723175D02*
X152133390Y-70627937D01*
X152709580Y-62013651D02*
X152757200Y-61966032D01*
X152757200Y-61966032D02*
X152804819Y-61823175D01*
X152804819Y-61823175D02*
X152804819Y-61727937D01*
X152804819Y-61727937D02*
X152757200Y-61585080D01*
X152757200Y-61585080D02*
X152661961Y-61489842D01*
X152661961Y-61489842D02*
X152566723Y-61442223D01*
X152566723Y-61442223D02*
X152376247Y-61394604D01*
X152376247Y-61394604D02*
X152233390Y-61394604D01*
X152233390Y-61394604D02*
X152042914Y-61442223D01*
X152042914Y-61442223D02*
X151947676Y-61489842D01*
X151947676Y-61489842D02*
X151852438Y-61585080D01*
X151852438Y-61585080D02*
X151804819Y-61727937D01*
X151804819Y-61727937D02*
X151804819Y-61823175D01*
X151804819Y-61823175D02*
X151852438Y-61966032D01*
X151852438Y-61966032D02*
X151900057Y-62013651D01*
X151900057Y-62394604D02*
X151852438Y-62442223D01*
X151852438Y-62442223D02*
X151804819Y-62537461D01*
X151804819Y-62537461D02*
X151804819Y-62775556D01*
X151804819Y-62775556D02*
X151852438Y-62870794D01*
X151852438Y-62870794D02*
X151900057Y-62918413D01*
X151900057Y-62918413D02*
X151995295Y-62966032D01*
X151995295Y-62966032D02*
X152090533Y-62966032D01*
X152090533Y-62966032D02*
X152233390Y-62918413D01*
X152233390Y-62918413D02*
X152804819Y-62346985D01*
X152804819Y-62346985D02*
X152804819Y-62966032D01*
X152804819Y-63442223D02*
X152804819Y-63632699D01*
X152804819Y-63632699D02*
X152757200Y-63727937D01*
X152757200Y-63727937D02*
X152709580Y-63775556D01*
X152709580Y-63775556D02*
X152566723Y-63870794D01*
X152566723Y-63870794D02*
X152376247Y-63918413D01*
X152376247Y-63918413D02*
X151995295Y-63918413D01*
X151995295Y-63918413D02*
X151900057Y-63870794D01*
X151900057Y-63870794D02*
X151852438Y-63823175D01*
X151852438Y-63823175D02*
X151804819Y-63727937D01*
X151804819Y-63727937D02*
X151804819Y-63537461D01*
X151804819Y-63537461D02*
X151852438Y-63442223D01*
X151852438Y-63442223D02*
X151900057Y-63394604D01*
X151900057Y-63394604D02*
X151995295Y-63346985D01*
X151995295Y-63346985D02*
X152233390Y-63346985D01*
X152233390Y-63346985D02*
X152328628Y-63394604D01*
X152328628Y-63394604D02*
X152376247Y-63442223D01*
X152376247Y-63442223D02*
X152423866Y-63537461D01*
X152423866Y-63537461D02*
X152423866Y-63727937D01*
X152423866Y-63727937D02*
X152376247Y-63823175D01*
X152376247Y-63823175D02*
X152328628Y-63870794D01*
X152328628Y-63870794D02*
X152233390Y-63918413D01*
X134479580Y-78413651D02*
X134527200Y-78366032D01*
X134527200Y-78366032D02*
X134574819Y-78223175D01*
X134574819Y-78223175D02*
X134574819Y-78127937D01*
X134574819Y-78127937D02*
X134527200Y-77985080D01*
X134527200Y-77985080D02*
X134431961Y-77889842D01*
X134431961Y-77889842D02*
X134336723Y-77842223D01*
X134336723Y-77842223D02*
X134146247Y-77794604D01*
X134146247Y-77794604D02*
X134003390Y-77794604D01*
X134003390Y-77794604D02*
X133812914Y-77842223D01*
X133812914Y-77842223D02*
X133717676Y-77889842D01*
X133717676Y-77889842D02*
X133622438Y-77985080D01*
X133622438Y-77985080D02*
X133574819Y-78127937D01*
X133574819Y-78127937D02*
X133574819Y-78223175D01*
X133574819Y-78223175D02*
X133622438Y-78366032D01*
X133622438Y-78366032D02*
X133670057Y-78413651D01*
X133574819Y-78746985D02*
X133574819Y-79366032D01*
X133574819Y-79366032D02*
X133955771Y-79032699D01*
X133955771Y-79032699D02*
X133955771Y-79175556D01*
X133955771Y-79175556D02*
X134003390Y-79270794D01*
X134003390Y-79270794D02*
X134051009Y-79318413D01*
X134051009Y-79318413D02*
X134146247Y-79366032D01*
X134146247Y-79366032D02*
X134384342Y-79366032D01*
X134384342Y-79366032D02*
X134479580Y-79318413D01*
X134479580Y-79318413D02*
X134527200Y-79270794D01*
X134527200Y-79270794D02*
X134574819Y-79175556D01*
X134574819Y-79175556D02*
X134574819Y-78889842D01*
X134574819Y-78889842D02*
X134527200Y-78794604D01*
X134527200Y-78794604D02*
X134479580Y-78746985D01*
X133574819Y-79699366D02*
X133574819Y-80318413D01*
X133574819Y-80318413D02*
X133955771Y-79985080D01*
X133955771Y-79985080D02*
X133955771Y-80127937D01*
X133955771Y-80127937D02*
X134003390Y-80223175D01*
X134003390Y-80223175D02*
X134051009Y-80270794D01*
X134051009Y-80270794D02*
X134146247Y-80318413D01*
X134146247Y-80318413D02*
X134384342Y-80318413D01*
X134384342Y-80318413D02*
X134479580Y-80270794D01*
X134479580Y-80270794D02*
X134527200Y-80223175D01*
X134527200Y-80223175D02*
X134574819Y-80127937D01*
X134574819Y-80127937D02*
X134574819Y-79842223D01*
X134574819Y-79842223D02*
X134527200Y-79746985D01*
X134527200Y-79746985D02*
X134479580Y-79699366D01*
X135909580Y-93563651D02*
X135957200Y-93516032D01*
X135957200Y-93516032D02*
X136004819Y-93373175D01*
X136004819Y-93373175D02*
X136004819Y-93277937D01*
X136004819Y-93277937D02*
X135957200Y-93135080D01*
X135957200Y-93135080D02*
X135861961Y-93039842D01*
X135861961Y-93039842D02*
X135766723Y-92992223D01*
X135766723Y-92992223D02*
X135576247Y-92944604D01*
X135576247Y-92944604D02*
X135433390Y-92944604D01*
X135433390Y-92944604D02*
X135242914Y-92992223D01*
X135242914Y-92992223D02*
X135147676Y-93039842D01*
X135147676Y-93039842D02*
X135052438Y-93135080D01*
X135052438Y-93135080D02*
X135004819Y-93277937D01*
X135004819Y-93277937D02*
X135004819Y-93373175D01*
X135004819Y-93373175D02*
X135052438Y-93516032D01*
X135052438Y-93516032D02*
X135100057Y-93563651D01*
X135004819Y-93896985D02*
X135004819Y-94516032D01*
X135004819Y-94516032D02*
X135385771Y-94182699D01*
X135385771Y-94182699D02*
X135385771Y-94325556D01*
X135385771Y-94325556D02*
X135433390Y-94420794D01*
X135433390Y-94420794D02*
X135481009Y-94468413D01*
X135481009Y-94468413D02*
X135576247Y-94516032D01*
X135576247Y-94516032D02*
X135814342Y-94516032D01*
X135814342Y-94516032D02*
X135909580Y-94468413D01*
X135909580Y-94468413D02*
X135957200Y-94420794D01*
X135957200Y-94420794D02*
X136004819Y-94325556D01*
X136004819Y-94325556D02*
X136004819Y-94039842D01*
X136004819Y-94039842D02*
X135957200Y-93944604D01*
X135957200Y-93944604D02*
X135909580Y-93896985D01*
X135004819Y-95420794D02*
X135004819Y-94944604D01*
X135004819Y-94944604D02*
X135481009Y-94896985D01*
X135481009Y-94896985D02*
X135433390Y-94944604D01*
X135433390Y-94944604D02*
X135385771Y-95039842D01*
X135385771Y-95039842D02*
X135385771Y-95277937D01*
X135385771Y-95277937D02*
X135433390Y-95373175D01*
X135433390Y-95373175D02*
X135481009Y-95420794D01*
X135481009Y-95420794D02*
X135576247Y-95468413D01*
X135576247Y-95468413D02*
X135814342Y-95468413D01*
X135814342Y-95468413D02*
X135909580Y-95420794D01*
X135909580Y-95420794D02*
X135957200Y-95373175D01*
X135957200Y-95373175D02*
X136004819Y-95277937D01*
X136004819Y-95277937D02*
X136004819Y-95039842D01*
X136004819Y-95039842D02*
X135957200Y-94944604D01*
X135957200Y-94944604D02*
X135909580Y-94896985D01*
X135959580Y-106613651D02*
X136007200Y-106566032D01*
X136007200Y-106566032D02*
X136054819Y-106423175D01*
X136054819Y-106423175D02*
X136054819Y-106327937D01*
X136054819Y-106327937D02*
X136007200Y-106185080D01*
X136007200Y-106185080D02*
X135911961Y-106089842D01*
X135911961Y-106089842D02*
X135816723Y-106042223D01*
X135816723Y-106042223D02*
X135626247Y-105994604D01*
X135626247Y-105994604D02*
X135483390Y-105994604D01*
X135483390Y-105994604D02*
X135292914Y-106042223D01*
X135292914Y-106042223D02*
X135197676Y-106089842D01*
X135197676Y-106089842D02*
X135102438Y-106185080D01*
X135102438Y-106185080D02*
X135054819Y-106327937D01*
X135054819Y-106327937D02*
X135054819Y-106423175D01*
X135054819Y-106423175D02*
X135102438Y-106566032D01*
X135102438Y-106566032D02*
X135150057Y-106613651D01*
X135054819Y-106946985D02*
X135054819Y-107566032D01*
X135054819Y-107566032D02*
X135435771Y-107232699D01*
X135435771Y-107232699D02*
X135435771Y-107375556D01*
X135435771Y-107375556D02*
X135483390Y-107470794D01*
X135483390Y-107470794D02*
X135531009Y-107518413D01*
X135531009Y-107518413D02*
X135626247Y-107566032D01*
X135626247Y-107566032D02*
X135864342Y-107566032D01*
X135864342Y-107566032D02*
X135959580Y-107518413D01*
X135959580Y-107518413D02*
X136007200Y-107470794D01*
X136007200Y-107470794D02*
X136054819Y-107375556D01*
X136054819Y-107375556D02*
X136054819Y-107089842D01*
X136054819Y-107089842D02*
X136007200Y-106994604D01*
X136007200Y-106994604D02*
X135959580Y-106946985D01*
X135054819Y-107899366D02*
X135054819Y-108566032D01*
X135054819Y-108566032D02*
X136054819Y-108137461D01*
X134429580Y-64813651D02*
X134477200Y-64766032D01*
X134477200Y-64766032D02*
X134524819Y-64623175D01*
X134524819Y-64623175D02*
X134524819Y-64527937D01*
X134524819Y-64527937D02*
X134477200Y-64385080D01*
X134477200Y-64385080D02*
X134381961Y-64289842D01*
X134381961Y-64289842D02*
X134286723Y-64242223D01*
X134286723Y-64242223D02*
X134096247Y-64194604D01*
X134096247Y-64194604D02*
X133953390Y-64194604D01*
X133953390Y-64194604D02*
X133762914Y-64242223D01*
X133762914Y-64242223D02*
X133667676Y-64289842D01*
X133667676Y-64289842D02*
X133572438Y-64385080D01*
X133572438Y-64385080D02*
X133524819Y-64527937D01*
X133524819Y-64527937D02*
X133524819Y-64623175D01*
X133524819Y-64623175D02*
X133572438Y-64766032D01*
X133572438Y-64766032D02*
X133620057Y-64813651D01*
X133524819Y-65146985D02*
X133524819Y-65766032D01*
X133524819Y-65766032D02*
X133905771Y-65432699D01*
X133905771Y-65432699D02*
X133905771Y-65575556D01*
X133905771Y-65575556D02*
X133953390Y-65670794D01*
X133953390Y-65670794D02*
X134001009Y-65718413D01*
X134001009Y-65718413D02*
X134096247Y-65766032D01*
X134096247Y-65766032D02*
X134334342Y-65766032D01*
X134334342Y-65766032D02*
X134429580Y-65718413D01*
X134429580Y-65718413D02*
X134477200Y-65670794D01*
X134477200Y-65670794D02*
X134524819Y-65575556D01*
X134524819Y-65575556D02*
X134524819Y-65289842D01*
X134524819Y-65289842D02*
X134477200Y-65194604D01*
X134477200Y-65194604D02*
X134429580Y-65146985D01*
X134524819Y-66718413D02*
X134524819Y-66146985D01*
X134524819Y-66432699D02*
X133524819Y-66432699D01*
X133524819Y-66432699D02*
X133667676Y-66337461D01*
X133667676Y-66337461D02*
X133762914Y-66242223D01*
X133762914Y-66242223D02*
X133810533Y-66146985D01*
D11*
%TO.C,D9*%
X136400000Y-61366509D02*
X136400000Y-56316509D01*
X136850000Y-61816509D02*
X136400000Y-61366509D01*
X137200000Y-59966509D02*
X137200000Y-58166509D01*
X142600000Y-59966509D02*
X142600000Y-58166509D01*
X143400000Y-61816509D02*
X136850000Y-61816509D01*
X143400000Y-56316509D02*
X136400000Y-56316509D01*
X143400000Y-56316509D02*
X143400000Y-61816509D01*
%TO.C,D12*%
X136400000Y-81226509D02*
X136400000Y-76176509D01*
X136850000Y-81676509D02*
X136400000Y-81226509D01*
X137200000Y-79826509D02*
X137200000Y-78026509D01*
X142600000Y-79826509D02*
X142600000Y-78026509D01*
X143400000Y-81676509D02*
X136850000Y-81676509D01*
X143400000Y-76176509D02*
X136400000Y-76176509D01*
X143400000Y-76176509D02*
X143400000Y-81676509D01*
%TO.C,D11*%
X136400000Y-74606509D02*
X136400000Y-69556509D01*
X136850000Y-75056509D02*
X136400000Y-74606509D01*
X137200000Y-73206509D02*
X137200000Y-71406509D01*
X142600000Y-73206509D02*
X142600000Y-71406509D01*
X143400000Y-75056509D02*
X136850000Y-75056509D01*
X143400000Y-69556509D02*
X136400000Y-69556509D01*
X143400000Y-69556509D02*
X143400000Y-75056509D01*
%TO.C,D10*%
X136400000Y-67986509D02*
X136400000Y-62936509D01*
X136850000Y-68436509D02*
X136400000Y-67986509D01*
X137200000Y-66586509D02*
X137200000Y-64786509D01*
X142600000Y-66586509D02*
X142600000Y-64786509D01*
X143400000Y-68436509D02*
X136850000Y-68436509D01*
X143400000Y-62936509D02*
X136400000Y-62936509D01*
X143400000Y-62936509D02*
X143400000Y-68436509D01*
%TO.C,D13*%
X136450000Y-87206509D02*
X136450000Y-82156509D01*
X136900000Y-87656509D02*
X136450000Y-87206509D01*
X137250000Y-85806509D02*
X137250000Y-84006509D01*
X142650000Y-85806509D02*
X142650000Y-84006509D01*
X143450000Y-87656509D02*
X136900000Y-87656509D01*
X143450000Y-82156509D02*
X136450000Y-82156509D01*
X143450000Y-82156509D02*
X143450000Y-87656509D01*
%TO.C,D16*%
X136450000Y-107066509D02*
X136450000Y-102016509D01*
X136900000Y-107516509D02*
X136450000Y-107066509D01*
X137250000Y-105666509D02*
X137250000Y-103866509D01*
X142650000Y-105666509D02*
X142650000Y-103866509D01*
X143450000Y-107516509D02*
X136900000Y-107516509D01*
X143450000Y-102016509D02*
X136450000Y-102016509D01*
X143450000Y-102016509D02*
X143450000Y-107516509D01*
%TO.C,D14*%
X136450000Y-93826509D02*
X136450000Y-88776509D01*
X136900000Y-94276509D02*
X136450000Y-93826509D01*
X137250000Y-92426509D02*
X137250000Y-90626509D01*
X142650000Y-92426509D02*
X142650000Y-90626509D01*
X143450000Y-94276509D02*
X136900000Y-94276509D01*
X143450000Y-88776509D02*
X136450000Y-88776509D01*
X143450000Y-88776509D02*
X143450000Y-94276509D01*
%TO.C,D15*%
X136450000Y-100446509D02*
X136450000Y-95396509D01*
X136900000Y-100896509D02*
X136450000Y-100446509D01*
X137250000Y-99046509D02*
X137250000Y-97246509D01*
X142650000Y-99046509D02*
X142650000Y-97246509D01*
X143450000Y-100896509D02*
X136900000Y-100896509D01*
X143450000Y-95396509D02*
X136450000Y-95396509D01*
X143450000Y-95396509D02*
X143450000Y-100896509D01*
%TO.C,D4*%
X144350000Y-87766509D02*
X144350000Y-82266509D01*
X144350000Y-87766509D02*
X151350000Y-87766509D01*
X144350000Y-82266509D02*
X150900000Y-82266509D01*
X145150000Y-84116509D02*
X145150000Y-85916509D01*
X150550000Y-84116509D02*
X150550000Y-85916509D01*
X150900000Y-82266509D02*
X151350000Y-82716509D01*
X151350000Y-82716509D02*
X151350000Y-87766509D01*
%TO.C,D3*%
X144350000Y-94386509D02*
X144350000Y-88886509D01*
X144350000Y-94386509D02*
X151350000Y-94386509D01*
X144350000Y-88886509D02*
X150900000Y-88886509D01*
X145150000Y-90736509D02*
X145150000Y-92536509D01*
X150550000Y-90736509D02*
X150550000Y-92536509D01*
X150900000Y-88886509D02*
X151350000Y-89336509D01*
X151350000Y-89336509D02*
X151350000Y-94386509D01*
%TO.C,D2*%
X144350000Y-101006509D02*
X144350000Y-95506509D01*
X144350000Y-101006509D02*
X151350000Y-101006509D01*
X144350000Y-95506509D02*
X150900000Y-95506509D01*
X145150000Y-97356509D02*
X145150000Y-99156509D01*
X150550000Y-97356509D02*
X150550000Y-99156509D01*
X150900000Y-95506509D02*
X151350000Y-95956509D01*
X151350000Y-95956509D02*
X151350000Y-101006509D01*
%TO.C,D1*%
X144350000Y-107626509D02*
X144350000Y-102126509D01*
X144350000Y-107626509D02*
X151350000Y-107626509D01*
X144350000Y-102126509D02*
X150900000Y-102126509D01*
X145150000Y-103976509D02*
X145150000Y-105776509D01*
X150550000Y-103976509D02*
X150550000Y-105776509D01*
X150900000Y-102126509D02*
X151350000Y-102576509D01*
X151350000Y-102576509D02*
X151350000Y-107626509D01*
%TO.C,D7*%
X144350000Y-68406509D02*
X144350000Y-62906509D01*
X144350000Y-68406509D02*
X151350000Y-68406509D01*
X144350000Y-62906509D02*
X150900000Y-62906509D01*
X145150000Y-64756509D02*
X145150000Y-66556509D01*
X150550000Y-64756509D02*
X150550000Y-66556509D01*
X150900000Y-62906509D02*
X151350000Y-63356509D01*
X151350000Y-63356509D02*
X151350000Y-68406509D01*
%TO.C,D8*%
X144350000Y-61786509D02*
X144350000Y-56286509D01*
X144350000Y-61786509D02*
X151350000Y-61786509D01*
X144350000Y-56286509D02*
X150900000Y-56286509D01*
X145150000Y-58136509D02*
X145150000Y-59936509D01*
X150550000Y-58136509D02*
X150550000Y-59936509D01*
X150900000Y-56286509D02*
X151350000Y-56736509D01*
X151350000Y-56736509D02*
X151350000Y-61786509D01*
%TO.C,D6*%
X144350000Y-75026509D02*
X144350000Y-69526509D01*
X144350000Y-75026509D02*
X151350000Y-75026509D01*
X144350000Y-69526509D02*
X150900000Y-69526509D01*
X145150000Y-71376509D02*
X145150000Y-73176509D01*
X150550000Y-71376509D02*
X150550000Y-73176509D01*
X150900000Y-69526509D02*
X151350000Y-69976509D01*
X151350000Y-69976509D02*
X151350000Y-75026509D01*
%TO.C,D5*%
X144350000Y-81646509D02*
X144350000Y-76146509D01*
X144350000Y-81646509D02*
X151350000Y-81646509D01*
X144350000Y-76146509D02*
X150900000Y-76146509D01*
X145150000Y-77996509D02*
X145150000Y-79796509D01*
X150550000Y-77996509D02*
X150550000Y-79796509D01*
X150900000Y-76146509D02*
X151350000Y-76596509D01*
X151350000Y-76596509D02*
X151350000Y-81646509D01*
%TO.C,C36*%
X136060000Y-97765929D02*
X136060000Y-98047089D01*
X135040000Y-97765929D02*
X135040000Y-98047089D01*
%TO.C,C2*%
X151740000Y-59097089D02*
X151740000Y-58815929D01*
X152760000Y-59097089D02*
X152760000Y-58815929D01*
%TO.C,C34*%
X136060000Y-84615929D02*
X136060000Y-84897089D01*
X135040000Y-84615929D02*
X135040000Y-84897089D01*
%TO.C,C24*%
X151690000Y-98447089D02*
X151690000Y-98165929D01*
X152710000Y-98447089D02*
X152710000Y-98165929D01*
%TO.C,C25*%
X151740000Y-91747089D02*
X151740000Y-91465929D01*
X152760000Y-91747089D02*
X152760000Y-91465929D01*
%TO.C,C32*%
X136010000Y-72015929D02*
X136010000Y-72297089D01*
X134990000Y-72015929D02*
X134990000Y-72297089D01*
%TO.C,C23*%
X151740000Y-104847089D02*
X151740000Y-104565929D01*
X152760000Y-104847089D02*
X152760000Y-104565929D01*
%TO.C,C30*%
X136060000Y-58965929D02*
X136060000Y-59247089D01*
X135040000Y-58965929D02*
X135040000Y-59247089D01*
%TO.C,C26*%
X151740000Y-85147089D02*
X151740000Y-84865929D01*
X152760000Y-85147089D02*
X152760000Y-84865929D01*
%TO.C,C27*%
X151790000Y-79047089D02*
X151790000Y-78765929D01*
X152810000Y-79047089D02*
X152810000Y-78765929D01*
%TO.C,C28*%
X151740000Y-72697089D02*
X151740000Y-72415929D01*
X152760000Y-72697089D02*
X152760000Y-72415929D01*
%TO.C,C29*%
X151740000Y-65747089D02*
X151740000Y-65465929D01*
X152760000Y-65747089D02*
X152760000Y-65465929D01*
%TO.C,C33*%
X136060000Y-78915929D02*
X136060000Y-79197089D01*
X135040000Y-78915929D02*
X135040000Y-79197089D01*
%TO.C,C35*%
X136060000Y-91215929D02*
X136060000Y-91497089D01*
X135040000Y-91215929D02*
X135040000Y-91497089D01*
%TO.C,C37*%
X136060000Y-104165929D02*
X136060000Y-104447089D01*
X135040000Y-104165929D02*
X135040000Y-104447089D01*
%TO.C,C31*%
X136010000Y-65315929D02*
X136010000Y-65597089D01*
X134990000Y-65315929D02*
X134990000Y-65597089D01*
%TD*%
M02*
