%TF.GenerationSoftware,KiCad,Pcbnew,9.0.7-9.0.7~ubuntu24.04.1*%
%TF.CreationDate,2026-02-07T12:52:25+01:00*%
%TF.ProjectId,ESP Drone,45535020-4472-46f6-9e65-2e6b69636164,rev?*%
%TF.SameCoordinates,Original*%
%TF.FileFunction,Legend,Top*%
%TF.FilePolarity,Positive*%
%FSLAX46Y46*%
G04 Gerber Fmt 4.6, Leading zero omitted, Abs format (unit mm)*
G04 Created by KiCad (PCBNEW 9.0.7-9.0.7~ubuntu24.04.1) date 2026-02-07 12:52:25*
%MOMM*%
%LPD*%
G01*
G04 APERTURE LIST*
%ADD10C,0.150000*%
%ADD11C,0.120000*%
G04 APERTURE END LIST*
D10*
X124057142Y-74566089D02*
X124009523Y-74613709D01*
X124009523Y-74613709D02*
X123866666Y-74661328D01*
X123866666Y-74661328D02*
X123771428Y-74661328D01*
X123771428Y-74661328D02*
X123628571Y-74613709D01*
X123628571Y-74613709D02*
X123533333Y-74518470D01*
X123533333Y-74518470D02*
X123485714Y-74423232D01*
X123485714Y-74423232D02*
X123438095Y-74232756D01*
X123438095Y-74232756D02*
X123438095Y-74089899D01*
X123438095Y-74089899D02*
X123485714Y-73899423D01*
X123485714Y-73899423D02*
X123533333Y-73804185D01*
X123533333Y-73804185D02*
X123628571Y-73708947D01*
X123628571Y-73708947D02*
X123771428Y-73661328D01*
X123771428Y-73661328D02*
X123866666Y-73661328D01*
X123866666Y-73661328D02*
X124009523Y-73708947D01*
X124009523Y-73708947D02*
X124057142Y-73756566D01*
X125009523Y-74661328D02*
X124438095Y-74661328D01*
X124723809Y-74661328D02*
X124723809Y-73661328D01*
X124723809Y-73661328D02*
X124628571Y-73804185D01*
X124628571Y-73804185D02*
X124533333Y-73899423D01*
X124533333Y-73899423D02*
X124438095Y-73947042D01*
X125628571Y-73661328D02*
X125723809Y-73661328D01*
X125723809Y-73661328D02*
X125819047Y-73708947D01*
X125819047Y-73708947D02*
X125866666Y-73756566D01*
X125866666Y-73756566D02*
X125914285Y-73851804D01*
X125914285Y-73851804D02*
X125961904Y-74042280D01*
X125961904Y-74042280D02*
X125961904Y-74280375D01*
X125961904Y-74280375D02*
X125914285Y-74470851D01*
X125914285Y-74470851D02*
X125866666Y-74566089D01*
X125866666Y-74566089D02*
X125819047Y-74613709D01*
X125819047Y-74613709D02*
X125723809Y-74661328D01*
X125723809Y-74661328D02*
X125628571Y-74661328D01*
X125628571Y-74661328D02*
X125533333Y-74613709D01*
X125533333Y-74613709D02*
X125485714Y-74566089D01*
X125485714Y-74566089D02*
X125438095Y-74470851D01*
X125438095Y-74470851D02*
X125390476Y-74280375D01*
X125390476Y-74280375D02*
X125390476Y-74042280D01*
X125390476Y-74042280D02*
X125438095Y-73851804D01*
X125438095Y-73851804D02*
X125485714Y-73756566D01*
X125485714Y-73756566D02*
X125533333Y-73708947D01*
X125533333Y-73708947D02*
X125628571Y-73661328D01*
X168509580Y-79449366D02*
X168557200Y-79496985D01*
X168557200Y-79496985D02*
X168604819Y-79639842D01*
X168604819Y-79639842D02*
X168604819Y-79735080D01*
X168604819Y-79735080D02*
X168557200Y-79877937D01*
X168557200Y-79877937D02*
X168461961Y-79973175D01*
X168461961Y-79973175D02*
X168366723Y-80020794D01*
X168366723Y-80020794D02*
X168176247Y-80068413D01*
X168176247Y-80068413D02*
X168033390Y-80068413D01*
X168033390Y-80068413D02*
X167842914Y-80020794D01*
X167842914Y-80020794D02*
X167747676Y-79973175D01*
X167747676Y-79973175D02*
X167652438Y-79877937D01*
X167652438Y-79877937D02*
X167604819Y-79735080D01*
X167604819Y-79735080D02*
X167604819Y-79639842D01*
X167604819Y-79639842D02*
X167652438Y-79496985D01*
X167652438Y-79496985D02*
X167700057Y-79449366D01*
X167700057Y-79068413D02*
X167652438Y-79020794D01*
X167652438Y-79020794D02*
X167604819Y-78925556D01*
X167604819Y-78925556D02*
X167604819Y-78687461D01*
X167604819Y-78687461D02*
X167652438Y-78592223D01*
X167652438Y-78592223D02*
X167700057Y-78544604D01*
X167700057Y-78544604D02*
X167795295Y-78496985D01*
X167795295Y-78496985D02*
X167890533Y-78496985D01*
X167890533Y-78496985D02*
X168033390Y-78544604D01*
X168033390Y-78544604D02*
X168604819Y-79116032D01*
X168604819Y-79116032D02*
X168604819Y-78496985D01*
X167604819Y-77877937D02*
X167604819Y-77782699D01*
X167604819Y-77782699D02*
X167652438Y-77687461D01*
X167652438Y-77687461D02*
X167700057Y-77639842D01*
X167700057Y-77639842D02*
X167795295Y-77592223D01*
X167795295Y-77592223D02*
X167985771Y-77544604D01*
X167985771Y-77544604D02*
X168223866Y-77544604D01*
X168223866Y-77544604D02*
X168414342Y-77592223D01*
X168414342Y-77592223D02*
X168509580Y-77639842D01*
X168509580Y-77639842D02*
X168557200Y-77687461D01*
X168557200Y-77687461D02*
X168604819Y-77782699D01*
X168604819Y-77782699D02*
X168604819Y-77877937D01*
X168604819Y-77877937D02*
X168557200Y-77973175D01*
X168557200Y-77973175D02*
X168509580Y-78020794D01*
X168509580Y-78020794D02*
X168414342Y-78068413D01*
X168414342Y-78068413D02*
X168223866Y-78116032D01*
X168223866Y-78116032D02*
X167985771Y-78116032D01*
X167985771Y-78116032D02*
X167795295Y-78068413D01*
X167795295Y-78068413D02*
X167700057Y-78020794D01*
X167700057Y-78020794D02*
X167652438Y-77973175D01*
X167652438Y-77973175D02*
X167604819Y-77877937D01*
X174883333Y-83061328D02*
X174550000Y-82585137D01*
X174311905Y-83061328D02*
X174311905Y-82061328D01*
X174311905Y-82061328D02*
X174692857Y-82061328D01*
X174692857Y-82061328D02*
X174788095Y-82108947D01*
X174788095Y-82108947D02*
X174835714Y-82156566D01*
X174835714Y-82156566D02*
X174883333Y-82251804D01*
X174883333Y-82251804D02*
X174883333Y-82394661D01*
X174883333Y-82394661D02*
X174835714Y-82489899D01*
X174835714Y-82489899D02*
X174788095Y-82537518D01*
X174788095Y-82537518D02*
X174692857Y-82585137D01*
X174692857Y-82585137D02*
X174311905Y-82585137D01*
X175216667Y-82061328D02*
X175883333Y-82061328D01*
X175883333Y-82061328D02*
X175454762Y-83061328D01*
X168861309Y-109170137D02*
X168861309Y-109646328D01*
X168527976Y-108646328D02*
X168861309Y-109170137D01*
X168861309Y-109170137D02*
X169194642Y-108646328D01*
X170051785Y-109646328D02*
X169480357Y-109646328D01*
X169766071Y-109646328D02*
X169766071Y-108646328D01*
X169766071Y-108646328D02*
X169670833Y-108789185D01*
X169670833Y-108789185D02*
X169575595Y-108884423D01*
X169575595Y-108884423D02*
X169480357Y-108932042D01*
X162009580Y-99099366D02*
X162057200Y-99146985D01*
X162057200Y-99146985D02*
X162104819Y-99289842D01*
X162104819Y-99289842D02*
X162104819Y-99385080D01*
X162104819Y-99385080D02*
X162057200Y-99527937D01*
X162057200Y-99527937D02*
X161961961Y-99623175D01*
X161961961Y-99623175D02*
X161866723Y-99670794D01*
X161866723Y-99670794D02*
X161676247Y-99718413D01*
X161676247Y-99718413D02*
X161533390Y-99718413D01*
X161533390Y-99718413D02*
X161342914Y-99670794D01*
X161342914Y-99670794D02*
X161247676Y-99623175D01*
X161247676Y-99623175D02*
X161152438Y-99527937D01*
X161152438Y-99527937D02*
X161104819Y-99385080D01*
X161104819Y-99385080D02*
X161104819Y-99289842D01*
X161104819Y-99289842D02*
X161152438Y-99146985D01*
X161152438Y-99146985D02*
X161200057Y-99099366D01*
X162104819Y-98146985D02*
X162104819Y-98718413D01*
X162104819Y-98432699D02*
X161104819Y-98432699D01*
X161104819Y-98432699D02*
X161247676Y-98527937D01*
X161247676Y-98527937D02*
X161342914Y-98623175D01*
X161342914Y-98623175D02*
X161390533Y-98718413D01*
X161104819Y-97242223D02*
X161104819Y-97718413D01*
X161104819Y-97718413D02*
X161581009Y-97766032D01*
X161581009Y-97766032D02*
X161533390Y-97718413D01*
X161533390Y-97718413D02*
X161485771Y-97623175D01*
X161485771Y-97623175D02*
X161485771Y-97385080D01*
X161485771Y-97385080D02*
X161533390Y-97289842D01*
X161533390Y-97289842D02*
X161581009Y-97242223D01*
X161581009Y-97242223D02*
X161676247Y-97194604D01*
X161676247Y-97194604D02*
X161914342Y-97194604D01*
X161914342Y-97194604D02*
X162009580Y-97242223D01*
X162009580Y-97242223D02*
X162057200Y-97289842D01*
X162057200Y-97289842D02*
X162104819Y-97385080D01*
X162104819Y-97385080D02*
X162104819Y-97623175D01*
X162104819Y-97623175D02*
X162057200Y-97718413D01*
X162057200Y-97718413D02*
X162009580Y-97766032D01*
X167409580Y-94049366D02*
X167457200Y-94096985D01*
X167457200Y-94096985D02*
X167504819Y-94239842D01*
X167504819Y-94239842D02*
X167504819Y-94335080D01*
X167504819Y-94335080D02*
X167457200Y-94477937D01*
X167457200Y-94477937D02*
X167361961Y-94573175D01*
X167361961Y-94573175D02*
X167266723Y-94620794D01*
X167266723Y-94620794D02*
X167076247Y-94668413D01*
X167076247Y-94668413D02*
X166933390Y-94668413D01*
X166933390Y-94668413D02*
X166742914Y-94620794D01*
X166742914Y-94620794D02*
X166647676Y-94573175D01*
X166647676Y-94573175D02*
X166552438Y-94477937D01*
X166552438Y-94477937D02*
X166504819Y-94335080D01*
X166504819Y-94335080D02*
X166504819Y-94239842D01*
X166504819Y-94239842D02*
X166552438Y-94096985D01*
X166552438Y-94096985D02*
X166600057Y-94049366D01*
X166600057Y-93668413D02*
X166552438Y-93620794D01*
X166552438Y-93620794D02*
X166504819Y-93525556D01*
X166504819Y-93525556D02*
X166504819Y-93287461D01*
X166504819Y-93287461D02*
X166552438Y-93192223D01*
X166552438Y-93192223D02*
X166600057Y-93144604D01*
X166600057Y-93144604D02*
X166695295Y-93096985D01*
X166695295Y-93096985D02*
X166790533Y-93096985D01*
X166790533Y-93096985D02*
X166933390Y-93144604D01*
X166933390Y-93144604D02*
X167504819Y-93716032D01*
X167504819Y-93716032D02*
X167504819Y-93096985D01*
X167504819Y-92144604D02*
X167504819Y-92716032D01*
X167504819Y-92430318D02*
X166504819Y-92430318D01*
X166504819Y-92430318D02*
X166647676Y-92525556D01*
X166647676Y-92525556D02*
X166742914Y-92620794D01*
X166742914Y-92620794D02*
X166790533Y-92716032D01*
X174183333Y-75011328D02*
X173707143Y-75011328D01*
X173707143Y-75011328D02*
X173707143Y-74011328D01*
X174469048Y-74106566D02*
X174516667Y-74058947D01*
X174516667Y-74058947D02*
X174611905Y-74011328D01*
X174611905Y-74011328D02*
X174850000Y-74011328D01*
X174850000Y-74011328D02*
X174945238Y-74058947D01*
X174945238Y-74058947D02*
X174992857Y-74106566D01*
X174992857Y-74106566D02*
X175040476Y-74201804D01*
X175040476Y-74201804D02*
X175040476Y-74297042D01*
X175040476Y-74297042D02*
X174992857Y-74439899D01*
X174992857Y-74439899D02*
X174421429Y-75011328D01*
X174421429Y-75011328D02*
X175040476Y-75011328D01*
X162859580Y-104499366D02*
X162907200Y-104546985D01*
X162907200Y-104546985D02*
X162954819Y-104689842D01*
X162954819Y-104689842D02*
X162954819Y-104785080D01*
X162954819Y-104785080D02*
X162907200Y-104927937D01*
X162907200Y-104927937D02*
X162811961Y-105023175D01*
X162811961Y-105023175D02*
X162716723Y-105070794D01*
X162716723Y-105070794D02*
X162526247Y-105118413D01*
X162526247Y-105118413D02*
X162383390Y-105118413D01*
X162383390Y-105118413D02*
X162192914Y-105070794D01*
X162192914Y-105070794D02*
X162097676Y-105023175D01*
X162097676Y-105023175D02*
X162002438Y-104927937D01*
X162002438Y-104927937D02*
X161954819Y-104785080D01*
X161954819Y-104785080D02*
X161954819Y-104689842D01*
X161954819Y-104689842D02*
X162002438Y-104546985D01*
X162002438Y-104546985D02*
X162050057Y-104499366D01*
X162954819Y-103546985D02*
X162954819Y-104118413D01*
X162954819Y-103832699D02*
X161954819Y-103832699D01*
X161954819Y-103832699D02*
X162097676Y-103927937D01*
X162097676Y-103927937D02*
X162192914Y-104023175D01*
X162192914Y-104023175D02*
X162240533Y-104118413D01*
X161954819Y-102689842D02*
X161954819Y-102880318D01*
X161954819Y-102880318D02*
X162002438Y-102975556D01*
X162002438Y-102975556D02*
X162050057Y-103023175D01*
X162050057Y-103023175D02*
X162192914Y-103118413D01*
X162192914Y-103118413D02*
X162383390Y-103166032D01*
X162383390Y-103166032D02*
X162764342Y-103166032D01*
X162764342Y-103166032D02*
X162859580Y-103118413D01*
X162859580Y-103118413D02*
X162907200Y-103070794D01*
X162907200Y-103070794D02*
X162954819Y-102975556D01*
X162954819Y-102975556D02*
X162954819Y-102785080D01*
X162954819Y-102785080D02*
X162907200Y-102689842D01*
X162907200Y-102689842D02*
X162859580Y-102642223D01*
X162859580Y-102642223D02*
X162764342Y-102594604D01*
X162764342Y-102594604D02*
X162526247Y-102594604D01*
X162526247Y-102594604D02*
X162431009Y-102642223D01*
X162431009Y-102642223D02*
X162383390Y-102689842D01*
X162383390Y-102689842D02*
X162335771Y-102785080D01*
X162335771Y-102785080D02*
X162335771Y-102975556D01*
X162335771Y-102975556D02*
X162383390Y-103070794D01*
X162383390Y-103070794D02*
X162431009Y-103118413D01*
X162431009Y-103118413D02*
X162526247Y-103166032D01*
X123259580Y-75923175D02*
X123307200Y-75970794D01*
X123307200Y-75970794D02*
X123354819Y-76113651D01*
X123354819Y-76113651D02*
X123354819Y-76208889D01*
X123354819Y-76208889D02*
X123307200Y-76351746D01*
X123307200Y-76351746D02*
X123211961Y-76446984D01*
X123211961Y-76446984D02*
X123116723Y-76494603D01*
X123116723Y-76494603D02*
X122926247Y-76542222D01*
X122926247Y-76542222D02*
X122783390Y-76542222D01*
X122783390Y-76542222D02*
X122592914Y-76494603D01*
X122592914Y-76494603D02*
X122497676Y-76446984D01*
X122497676Y-76446984D02*
X122402438Y-76351746D01*
X122402438Y-76351746D02*
X122354819Y-76208889D01*
X122354819Y-76208889D02*
X122354819Y-76113651D01*
X122354819Y-76113651D02*
X122402438Y-75970794D01*
X122402438Y-75970794D02*
X122450057Y-75923175D01*
X123354819Y-75446984D02*
X123354819Y-75256508D01*
X123354819Y-75256508D02*
X123307200Y-75161270D01*
X123307200Y-75161270D02*
X123259580Y-75113651D01*
X123259580Y-75113651D02*
X123116723Y-75018413D01*
X123116723Y-75018413D02*
X122926247Y-74970794D01*
X122926247Y-74970794D02*
X122545295Y-74970794D01*
X122545295Y-74970794D02*
X122450057Y-75018413D01*
X122450057Y-75018413D02*
X122402438Y-75066032D01*
X122402438Y-75066032D02*
X122354819Y-75161270D01*
X122354819Y-75161270D02*
X122354819Y-75351746D01*
X122354819Y-75351746D02*
X122402438Y-75446984D01*
X122402438Y-75446984D02*
X122450057Y-75494603D01*
X122450057Y-75494603D02*
X122545295Y-75542222D01*
X122545295Y-75542222D02*
X122783390Y-75542222D01*
X122783390Y-75542222D02*
X122878628Y-75494603D01*
X122878628Y-75494603D02*
X122926247Y-75446984D01*
X122926247Y-75446984D02*
X122973866Y-75351746D01*
X122973866Y-75351746D02*
X122973866Y-75161270D01*
X122973866Y-75161270D02*
X122926247Y-75066032D01*
X122926247Y-75066032D02*
X122878628Y-75018413D01*
X122878628Y-75018413D02*
X122783390Y-74970794D01*
X108854819Y-80973175D02*
X108378628Y-81306508D01*
X108854819Y-81544603D02*
X107854819Y-81544603D01*
X107854819Y-81544603D02*
X107854819Y-81163651D01*
X107854819Y-81163651D02*
X107902438Y-81068413D01*
X107902438Y-81068413D02*
X107950057Y-81020794D01*
X107950057Y-81020794D02*
X108045295Y-80973175D01*
X108045295Y-80973175D02*
X108188152Y-80973175D01*
X108188152Y-80973175D02*
X108283390Y-81020794D01*
X108283390Y-81020794D02*
X108331009Y-81068413D01*
X108331009Y-81068413D02*
X108378628Y-81163651D01*
X108378628Y-81163651D02*
X108378628Y-81544603D01*
X107950057Y-80592222D02*
X107902438Y-80544603D01*
X107902438Y-80544603D02*
X107854819Y-80449365D01*
X107854819Y-80449365D02*
X107854819Y-80211270D01*
X107854819Y-80211270D02*
X107902438Y-80116032D01*
X107902438Y-80116032D02*
X107950057Y-80068413D01*
X107950057Y-80068413D02*
X108045295Y-80020794D01*
X108045295Y-80020794D02*
X108140533Y-80020794D01*
X108140533Y-80020794D02*
X108283390Y-80068413D01*
X108283390Y-80068413D02*
X108854819Y-80639841D01*
X108854819Y-80639841D02*
X108854819Y-80020794D01*
X110509580Y-84573175D02*
X110557200Y-84620794D01*
X110557200Y-84620794D02*
X110604819Y-84763651D01*
X110604819Y-84763651D02*
X110604819Y-84858889D01*
X110604819Y-84858889D02*
X110557200Y-85001746D01*
X110557200Y-85001746D02*
X110461961Y-85096984D01*
X110461961Y-85096984D02*
X110366723Y-85144603D01*
X110366723Y-85144603D02*
X110176247Y-85192222D01*
X110176247Y-85192222D02*
X110033390Y-85192222D01*
X110033390Y-85192222D02*
X109842914Y-85144603D01*
X109842914Y-85144603D02*
X109747676Y-85096984D01*
X109747676Y-85096984D02*
X109652438Y-85001746D01*
X109652438Y-85001746D02*
X109604819Y-84858889D01*
X109604819Y-84858889D02*
X109604819Y-84763651D01*
X109604819Y-84763651D02*
X109652438Y-84620794D01*
X109652438Y-84620794D02*
X109700057Y-84573175D01*
X109938152Y-83716032D02*
X110604819Y-83716032D01*
X109557200Y-83954127D02*
X110271485Y-84192222D01*
X110271485Y-84192222D02*
X110271485Y-83573175D01*
X121504819Y-65473175D02*
X121028628Y-65806508D01*
X121504819Y-66044603D02*
X120504819Y-66044603D01*
X120504819Y-66044603D02*
X120504819Y-65663651D01*
X120504819Y-65663651D02*
X120552438Y-65568413D01*
X120552438Y-65568413D02*
X120600057Y-65520794D01*
X120600057Y-65520794D02*
X120695295Y-65473175D01*
X120695295Y-65473175D02*
X120838152Y-65473175D01*
X120838152Y-65473175D02*
X120933390Y-65520794D01*
X120933390Y-65520794D02*
X120981009Y-65568413D01*
X120981009Y-65568413D02*
X121028628Y-65663651D01*
X121028628Y-65663651D02*
X121028628Y-66044603D01*
X120504819Y-64616032D02*
X120504819Y-64806508D01*
X120504819Y-64806508D02*
X120552438Y-64901746D01*
X120552438Y-64901746D02*
X120600057Y-64949365D01*
X120600057Y-64949365D02*
X120742914Y-65044603D01*
X120742914Y-65044603D02*
X120933390Y-65092222D01*
X120933390Y-65092222D02*
X121314342Y-65092222D01*
X121314342Y-65092222D02*
X121409580Y-65044603D01*
X121409580Y-65044603D02*
X121457200Y-64996984D01*
X121457200Y-64996984D02*
X121504819Y-64901746D01*
X121504819Y-64901746D02*
X121504819Y-64711270D01*
X121504819Y-64711270D02*
X121457200Y-64616032D01*
X121457200Y-64616032D02*
X121409580Y-64568413D01*
X121409580Y-64568413D02*
X121314342Y-64520794D01*
X121314342Y-64520794D02*
X121076247Y-64520794D01*
X121076247Y-64520794D02*
X120981009Y-64568413D01*
X120981009Y-64568413D02*
X120933390Y-64616032D01*
X120933390Y-64616032D02*
X120885771Y-64711270D01*
X120885771Y-64711270D02*
X120885771Y-64901746D01*
X120885771Y-64901746D02*
X120933390Y-64996984D01*
X120933390Y-64996984D02*
X120981009Y-65044603D01*
X120981009Y-65044603D02*
X121076247Y-65092222D01*
X173509580Y-93949366D02*
X173557200Y-93996985D01*
X173557200Y-93996985D02*
X173604819Y-94139842D01*
X173604819Y-94139842D02*
X173604819Y-94235080D01*
X173604819Y-94235080D02*
X173557200Y-94377937D01*
X173557200Y-94377937D02*
X173461961Y-94473175D01*
X173461961Y-94473175D02*
X173366723Y-94520794D01*
X173366723Y-94520794D02*
X173176247Y-94568413D01*
X173176247Y-94568413D02*
X173033390Y-94568413D01*
X173033390Y-94568413D02*
X172842914Y-94520794D01*
X172842914Y-94520794D02*
X172747676Y-94473175D01*
X172747676Y-94473175D02*
X172652438Y-94377937D01*
X172652438Y-94377937D02*
X172604819Y-94235080D01*
X172604819Y-94235080D02*
X172604819Y-94139842D01*
X172604819Y-94139842D02*
X172652438Y-93996985D01*
X172652438Y-93996985D02*
X172700057Y-93949366D01*
X172604819Y-93616032D02*
X172604819Y-92996985D01*
X172604819Y-92996985D02*
X172985771Y-93330318D01*
X172985771Y-93330318D02*
X172985771Y-93187461D01*
X172985771Y-93187461D02*
X173033390Y-93092223D01*
X173033390Y-93092223D02*
X173081009Y-93044604D01*
X173081009Y-93044604D02*
X173176247Y-92996985D01*
X173176247Y-92996985D02*
X173414342Y-92996985D01*
X173414342Y-92996985D02*
X173509580Y-93044604D01*
X173509580Y-93044604D02*
X173557200Y-93092223D01*
X173557200Y-93092223D02*
X173604819Y-93187461D01*
X173604819Y-93187461D02*
X173604819Y-93473175D01*
X173604819Y-93473175D02*
X173557200Y-93568413D01*
X173557200Y-93568413D02*
X173509580Y-93616032D01*
X173033390Y-92425556D02*
X172985771Y-92520794D01*
X172985771Y-92520794D02*
X172938152Y-92568413D01*
X172938152Y-92568413D02*
X172842914Y-92616032D01*
X172842914Y-92616032D02*
X172795295Y-92616032D01*
X172795295Y-92616032D02*
X172700057Y-92568413D01*
X172700057Y-92568413D02*
X172652438Y-92520794D01*
X172652438Y-92520794D02*
X172604819Y-92425556D01*
X172604819Y-92425556D02*
X172604819Y-92235080D01*
X172604819Y-92235080D02*
X172652438Y-92139842D01*
X172652438Y-92139842D02*
X172700057Y-92092223D01*
X172700057Y-92092223D02*
X172795295Y-92044604D01*
X172795295Y-92044604D02*
X172842914Y-92044604D01*
X172842914Y-92044604D02*
X172938152Y-92092223D01*
X172938152Y-92092223D02*
X172985771Y-92139842D01*
X172985771Y-92139842D02*
X173033390Y-92235080D01*
X173033390Y-92235080D02*
X173033390Y-92425556D01*
X173033390Y-92425556D02*
X173081009Y-92520794D01*
X173081009Y-92520794D02*
X173128628Y-92568413D01*
X173128628Y-92568413D02*
X173223866Y-92616032D01*
X173223866Y-92616032D02*
X173414342Y-92616032D01*
X173414342Y-92616032D02*
X173509580Y-92568413D01*
X173509580Y-92568413D02*
X173557200Y-92520794D01*
X173557200Y-92520794D02*
X173604819Y-92425556D01*
X173604819Y-92425556D02*
X173604819Y-92235080D01*
X173604819Y-92235080D02*
X173557200Y-92139842D01*
X173557200Y-92139842D02*
X173509580Y-92092223D01*
X173509580Y-92092223D02*
X173414342Y-92044604D01*
X173414342Y-92044604D02*
X173223866Y-92044604D01*
X173223866Y-92044604D02*
X173128628Y-92092223D01*
X173128628Y-92092223D02*
X173081009Y-92139842D01*
X173081009Y-92139842D02*
X173033390Y-92235080D01*
X119133333Y-88766089D02*
X119085714Y-88813709D01*
X119085714Y-88813709D02*
X118942857Y-88861328D01*
X118942857Y-88861328D02*
X118847619Y-88861328D01*
X118847619Y-88861328D02*
X118704762Y-88813709D01*
X118704762Y-88813709D02*
X118609524Y-88718470D01*
X118609524Y-88718470D02*
X118561905Y-88623232D01*
X118561905Y-88623232D02*
X118514286Y-88432756D01*
X118514286Y-88432756D02*
X118514286Y-88289899D01*
X118514286Y-88289899D02*
X118561905Y-88099423D01*
X118561905Y-88099423D02*
X118609524Y-88004185D01*
X118609524Y-88004185D02*
X118704762Y-87908947D01*
X118704762Y-87908947D02*
X118847619Y-87861328D01*
X118847619Y-87861328D02*
X118942857Y-87861328D01*
X118942857Y-87861328D02*
X119085714Y-87908947D01*
X119085714Y-87908947D02*
X119133333Y-87956566D01*
X119990476Y-87861328D02*
X119800000Y-87861328D01*
X119800000Y-87861328D02*
X119704762Y-87908947D01*
X119704762Y-87908947D02*
X119657143Y-87956566D01*
X119657143Y-87956566D02*
X119561905Y-88099423D01*
X119561905Y-88099423D02*
X119514286Y-88289899D01*
X119514286Y-88289899D02*
X119514286Y-88670851D01*
X119514286Y-88670851D02*
X119561905Y-88766089D01*
X119561905Y-88766089D02*
X119609524Y-88813709D01*
X119609524Y-88813709D02*
X119704762Y-88861328D01*
X119704762Y-88861328D02*
X119895238Y-88861328D01*
X119895238Y-88861328D02*
X119990476Y-88813709D01*
X119990476Y-88813709D02*
X120038095Y-88766089D01*
X120038095Y-88766089D02*
X120085714Y-88670851D01*
X120085714Y-88670851D02*
X120085714Y-88432756D01*
X120085714Y-88432756D02*
X120038095Y-88337518D01*
X120038095Y-88337518D02*
X119990476Y-88289899D01*
X119990476Y-88289899D02*
X119895238Y-88242280D01*
X119895238Y-88242280D02*
X119704762Y-88242280D01*
X119704762Y-88242280D02*
X119609524Y-88289899D01*
X119609524Y-88289899D02*
X119561905Y-88337518D01*
X119561905Y-88337518D02*
X119514286Y-88432756D01*
X164207142Y-92416089D02*
X164159523Y-92463709D01*
X164159523Y-92463709D02*
X164016666Y-92511328D01*
X164016666Y-92511328D02*
X163921428Y-92511328D01*
X163921428Y-92511328D02*
X163778571Y-92463709D01*
X163778571Y-92463709D02*
X163683333Y-92368470D01*
X163683333Y-92368470D02*
X163635714Y-92273232D01*
X163635714Y-92273232D02*
X163588095Y-92082756D01*
X163588095Y-92082756D02*
X163588095Y-91939899D01*
X163588095Y-91939899D02*
X163635714Y-91749423D01*
X163635714Y-91749423D02*
X163683333Y-91654185D01*
X163683333Y-91654185D02*
X163778571Y-91558947D01*
X163778571Y-91558947D02*
X163921428Y-91511328D01*
X163921428Y-91511328D02*
X164016666Y-91511328D01*
X164016666Y-91511328D02*
X164159523Y-91558947D01*
X164159523Y-91558947D02*
X164207142Y-91606566D01*
X165064285Y-91844661D02*
X165064285Y-92511328D01*
X164826190Y-91463709D02*
X164588095Y-92177994D01*
X164588095Y-92177994D02*
X165207142Y-92177994D01*
X165540476Y-91606566D02*
X165588095Y-91558947D01*
X165588095Y-91558947D02*
X165683333Y-91511328D01*
X165683333Y-91511328D02*
X165921428Y-91511328D01*
X165921428Y-91511328D02*
X166016666Y-91558947D01*
X166016666Y-91558947D02*
X166064285Y-91606566D01*
X166064285Y-91606566D02*
X166111904Y-91701804D01*
X166111904Y-91701804D02*
X166111904Y-91797042D01*
X166111904Y-91797042D02*
X166064285Y-91939899D01*
X166064285Y-91939899D02*
X165492857Y-92511328D01*
X165492857Y-92511328D02*
X166111904Y-92511328D01*
X117059580Y-85973175D02*
X117107200Y-86020794D01*
X117107200Y-86020794D02*
X117154819Y-86163651D01*
X117154819Y-86163651D02*
X117154819Y-86258889D01*
X117154819Y-86258889D02*
X117107200Y-86401746D01*
X117107200Y-86401746D02*
X117011961Y-86496984D01*
X117011961Y-86496984D02*
X116916723Y-86544603D01*
X116916723Y-86544603D02*
X116726247Y-86592222D01*
X116726247Y-86592222D02*
X116583390Y-86592222D01*
X116583390Y-86592222D02*
X116392914Y-86544603D01*
X116392914Y-86544603D02*
X116297676Y-86496984D01*
X116297676Y-86496984D02*
X116202438Y-86401746D01*
X116202438Y-86401746D02*
X116154819Y-86258889D01*
X116154819Y-86258889D02*
X116154819Y-86163651D01*
X116154819Y-86163651D02*
X116202438Y-86020794D01*
X116202438Y-86020794D02*
X116250057Y-85973175D01*
X116154819Y-85068413D02*
X116154819Y-85544603D01*
X116154819Y-85544603D02*
X116631009Y-85592222D01*
X116631009Y-85592222D02*
X116583390Y-85544603D01*
X116583390Y-85544603D02*
X116535771Y-85449365D01*
X116535771Y-85449365D02*
X116535771Y-85211270D01*
X116535771Y-85211270D02*
X116583390Y-85116032D01*
X116583390Y-85116032D02*
X116631009Y-85068413D01*
X116631009Y-85068413D02*
X116726247Y-85020794D01*
X116726247Y-85020794D02*
X116964342Y-85020794D01*
X116964342Y-85020794D02*
X117059580Y-85068413D01*
X117059580Y-85068413D02*
X117107200Y-85116032D01*
X117107200Y-85116032D02*
X117154819Y-85211270D01*
X117154819Y-85211270D02*
X117154819Y-85449365D01*
X117154819Y-85449365D02*
X117107200Y-85544603D01*
X117107200Y-85544603D02*
X117059580Y-85592222D01*
X158833333Y-90811328D02*
X158500000Y-90335137D01*
X158261905Y-90811328D02*
X158261905Y-89811328D01*
X158261905Y-89811328D02*
X158642857Y-89811328D01*
X158642857Y-89811328D02*
X158738095Y-89858947D01*
X158738095Y-89858947D02*
X158785714Y-89906566D01*
X158785714Y-89906566D02*
X158833333Y-90001804D01*
X158833333Y-90001804D02*
X158833333Y-90144661D01*
X158833333Y-90144661D02*
X158785714Y-90239899D01*
X158785714Y-90239899D02*
X158738095Y-90287518D01*
X158738095Y-90287518D02*
X158642857Y-90335137D01*
X158642857Y-90335137D02*
X158261905Y-90335137D01*
X159690476Y-90144661D02*
X159690476Y-90811328D01*
X159452381Y-89763709D02*
X159214286Y-90477994D01*
X159214286Y-90477994D02*
X159833333Y-90477994D01*
X177057142Y-73016089D02*
X177009523Y-73063709D01*
X177009523Y-73063709D02*
X176866666Y-73111328D01*
X176866666Y-73111328D02*
X176771428Y-73111328D01*
X176771428Y-73111328D02*
X176628571Y-73063709D01*
X176628571Y-73063709D02*
X176533333Y-72968470D01*
X176533333Y-72968470D02*
X176485714Y-72873232D01*
X176485714Y-72873232D02*
X176438095Y-72682756D01*
X176438095Y-72682756D02*
X176438095Y-72539899D01*
X176438095Y-72539899D02*
X176485714Y-72349423D01*
X176485714Y-72349423D02*
X176533333Y-72254185D01*
X176533333Y-72254185D02*
X176628571Y-72158947D01*
X176628571Y-72158947D02*
X176771428Y-72111328D01*
X176771428Y-72111328D02*
X176866666Y-72111328D01*
X176866666Y-72111328D02*
X177009523Y-72158947D01*
X177009523Y-72158947D02*
X177057142Y-72206566D01*
X178009523Y-73111328D02*
X177438095Y-73111328D01*
X177723809Y-73111328D02*
X177723809Y-72111328D01*
X177723809Y-72111328D02*
X177628571Y-72254185D01*
X177628571Y-72254185D02*
X177533333Y-72349423D01*
X177533333Y-72349423D02*
X177438095Y-72397042D01*
X178485714Y-73111328D02*
X178676190Y-73111328D01*
X178676190Y-73111328D02*
X178771428Y-73063709D01*
X178771428Y-73063709D02*
X178819047Y-73016089D01*
X178819047Y-73016089D02*
X178914285Y-72873232D01*
X178914285Y-72873232D02*
X178961904Y-72682756D01*
X178961904Y-72682756D02*
X178961904Y-72301804D01*
X178961904Y-72301804D02*
X178914285Y-72206566D01*
X178914285Y-72206566D02*
X178866666Y-72158947D01*
X178866666Y-72158947D02*
X178771428Y-72111328D01*
X178771428Y-72111328D02*
X178580952Y-72111328D01*
X178580952Y-72111328D02*
X178485714Y-72158947D01*
X178485714Y-72158947D02*
X178438095Y-72206566D01*
X178438095Y-72206566D02*
X178390476Y-72301804D01*
X178390476Y-72301804D02*
X178390476Y-72539899D01*
X178390476Y-72539899D02*
X178438095Y-72635137D01*
X178438095Y-72635137D02*
X178485714Y-72682756D01*
X178485714Y-72682756D02*
X178580952Y-72730375D01*
X178580952Y-72730375D02*
X178771428Y-72730375D01*
X178771428Y-72730375D02*
X178866666Y-72682756D01*
X178866666Y-72682756D02*
X178914285Y-72635137D01*
X178914285Y-72635137D02*
X178961904Y-72539899D01*
X117929580Y-74198175D02*
X117977200Y-74245794D01*
X117977200Y-74245794D02*
X118024819Y-74388651D01*
X118024819Y-74388651D02*
X118024819Y-74483889D01*
X118024819Y-74483889D02*
X117977200Y-74626746D01*
X117977200Y-74626746D02*
X117881961Y-74721984D01*
X117881961Y-74721984D02*
X117786723Y-74769603D01*
X117786723Y-74769603D02*
X117596247Y-74817222D01*
X117596247Y-74817222D02*
X117453390Y-74817222D01*
X117453390Y-74817222D02*
X117262914Y-74769603D01*
X117262914Y-74769603D02*
X117167676Y-74721984D01*
X117167676Y-74721984D02*
X117072438Y-74626746D01*
X117072438Y-74626746D02*
X117024819Y-74483889D01*
X117024819Y-74483889D02*
X117024819Y-74388651D01*
X117024819Y-74388651D02*
X117072438Y-74245794D01*
X117072438Y-74245794D02*
X117120057Y-74198175D01*
X117453390Y-73626746D02*
X117405771Y-73721984D01*
X117405771Y-73721984D02*
X117358152Y-73769603D01*
X117358152Y-73769603D02*
X117262914Y-73817222D01*
X117262914Y-73817222D02*
X117215295Y-73817222D01*
X117215295Y-73817222D02*
X117120057Y-73769603D01*
X117120057Y-73769603D02*
X117072438Y-73721984D01*
X117072438Y-73721984D02*
X117024819Y-73626746D01*
X117024819Y-73626746D02*
X117024819Y-73436270D01*
X117024819Y-73436270D02*
X117072438Y-73341032D01*
X117072438Y-73341032D02*
X117120057Y-73293413D01*
X117120057Y-73293413D02*
X117215295Y-73245794D01*
X117215295Y-73245794D02*
X117262914Y-73245794D01*
X117262914Y-73245794D02*
X117358152Y-73293413D01*
X117358152Y-73293413D02*
X117405771Y-73341032D01*
X117405771Y-73341032D02*
X117453390Y-73436270D01*
X117453390Y-73436270D02*
X117453390Y-73626746D01*
X117453390Y-73626746D02*
X117501009Y-73721984D01*
X117501009Y-73721984D02*
X117548628Y-73769603D01*
X117548628Y-73769603D02*
X117643866Y-73817222D01*
X117643866Y-73817222D02*
X117834342Y-73817222D01*
X117834342Y-73817222D02*
X117929580Y-73769603D01*
X117929580Y-73769603D02*
X117977200Y-73721984D01*
X117977200Y-73721984D02*
X118024819Y-73626746D01*
X118024819Y-73626746D02*
X118024819Y-73436270D01*
X118024819Y-73436270D02*
X117977200Y-73341032D01*
X117977200Y-73341032D02*
X117929580Y-73293413D01*
X117929580Y-73293413D02*
X117834342Y-73245794D01*
X117834342Y-73245794D02*
X117643866Y-73245794D01*
X117643866Y-73245794D02*
X117548628Y-73293413D01*
X117548628Y-73293413D02*
X117501009Y-73341032D01*
X117501009Y-73341032D02*
X117453390Y-73436270D01*
X175504819Y-88339842D02*
X176219104Y-88339842D01*
X176219104Y-88339842D02*
X176361961Y-88387461D01*
X176361961Y-88387461D02*
X176457200Y-88482699D01*
X176457200Y-88482699D02*
X176504819Y-88625556D01*
X176504819Y-88625556D02*
X176504819Y-88720794D01*
X175504819Y-87958889D02*
X175504819Y-87292223D01*
X175504819Y-87292223D02*
X176504819Y-87720794D01*
X101359580Y-80323175D02*
X101407200Y-80370794D01*
X101407200Y-80370794D02*
X101454819Y-80513651D01*
X101454819Y-80513651D02*
X101454819Y-80608889D01*
X101454819Y-80608889D02*
X101407200Y-80751746D01*
X101407200Y-80751746D02*
X101311961Y-80846984D01*
X101311961Y-80846984D02*
X101216723Y-80894603D01*
X101216723Y-80894603D02*
X101026247Y-80942222D01*
X101026247Y-80942222D02*
X100883390Y-80942222D01*
X100883390Y-80942222D02*
X100692914Y-80894603D01*
X100692914Y-80894603D02*
X100597676Y-80846984D01*
X100597676Y-80846984D02*
X100502438Y-80751746D01*
X100502438Y-80751746D02*
X100454819Y-80608889D01*
X100454819Y-80608889D02*
X100454819Y-80513651D01*
X100454819Y-80513651D02*
X100502438Y-80370794D01*
X100502438Y-80370794D02*
X100550057Y-80323175D01*
X100454819Y-79989841D02*
X100454819Y-79370794D01*
X100454819Y-79370794D02*
X100835771Y-79704127D01*
X100835771Y-79704127D02*
X100835771Y-79561270D01*
X100835771Y-79561270D02*
X100883390Y-79466032D01*
X100883390Y-79466032D02*
X100931009Y-79418413D01*
X100931009Y-79418413D02*
X101026247Y-79370794D01*
X101026247Y-79370794D02*
X101264342Y-79370794D01*
X101264342Y-79370794D02*
X101359580Y-79418413D01*
X101359580Y-79418413D02*
X101407200Y-79466032D01*
X101407200Y-79466032D02*
X101454819Y-79561270D01*
X101454819Y-79561270D02*
X101454819Y-79846984D01*
X101454819Y-79846984D02*
X101407200Y-79942222D01*
X101407200Y-79942222D02*
X101359580Y-79989841D01*
X108754819Y-86223175D02*
X108278628Y-86556508D01*
X108754819Y-86794603D02*
X107754819Y-86794603D01*
X107754819Y-86794603D02*
X107754819Y-86413651D01*
X107754819Y-86413651D02*
X107802438Y-86318413D01*
X107802438Y-86318413D02*
X107850057Y-86270794D01*
X107850057Y-86270794D02*
X107945295Y-86223175D01*
X107945295Y-86223175D02*
X108088152Y-86223175D01*
X108088152Y-86223175D02*
X108183390Y-86270794D01*
X108183390Y-86270794D02*
X108231009Y-86318413D01*
X108231009Y-86318413D02*
X108278628Y-86413651D01*
X108278628Y-86413651D02*
X108278628Y-86794603D01*
X107754819Y-85889841D02*
X107754819Y-85270794D01*
X107754819Y-85270794D02*
X108135771Y-85604127D01*
X108135771Y-85604127D02*
X108135771Y-85461270D01*
X108135771Y-85461270D02*
X108183390Y-85366032D01*
X108183390Y-85366032D02*
X108231009Y-85318413D01*
X108231009Y-85318413D02*
X108326247Y-85270794D01*
X108326247Y-85270794D02*
X108564342Y-85270794D01*
X108564342Y-85270794D02*
X108659580Y-85318413D01*
X108659580Y-85318413D02*
X108707200Y-85366032D01*
X108707200Y-85366032D02*
X108754819Y-85461270D01*
X108754819Y-85461270D02*
X108754819Y-85746984D01*
X108754819Y-85746984D02*
X108707200Y-85842222D01*
X108707200Y-85842222D02*
X108659580Y-85889841D01*
X168809580Y-90149366D02*
X168857200Y-90196985D01*
X168857200Y-90196985D02*
X168904819Y-90339842D01*
X168904819Y-90339842D02*
X168904819Y-90435080D01*
X168904819Y-90435080D02*
X168857200Y-90577937D01*
X168857200Y-90577937D02*
X168761961Y-90673175D01*
X168761961Y-90673175D02*
X168666723Y-90720794D01*
X168666723Y-90720794D02*
X168476247Y-90768413D01*
X168476247Y-90768413D02*
X168333390Y-90768413D01*
X168333390Y-90768413D02*
X168142914Y-90720794D01*
X168142914Y-90720794D02*
X168047676Y-90673175D01*
X168047676Y-90673175D02*
X167952438Y-90577937D01*
X167952438Y-90577937D02*
X167904819Y-90435080D01*
X167904819Y-90435080D02*
X167904819Y-90339842D01*
X167904819Y-90339842D02*
X167952438Y-90196985D01*
X167952438Y-90196985D02*
X168000057Y-90149366D01*
X168238152Y-89292223D02*
X168904819Y-89292223D01*
X167857200Y-89530318D02*
X168571485Y-89768413D01*
X168571485Y-89768413D02*
X168571485Y-89149366D01*
X167904819Y-88577937D02*
X167904819Y-88482699D01*
X167904819Y-88482699D02*
X167952438Y-88387461D01*
X167952438Y-88387461D02*
X168000057Y-88339842D01*
X168000057Y-88339842D02*
X168095295Y-88292223D01*
X168095295Y-88292223D02*
X168285771Y-88244604D01*
X168285771Y-88244604D02*
X168523866Y-88244604D01*
X168523866Y-88244604D02*
X168714342Y-88292223D01*
X168714342Y-88292223D02*
X168809580Y-88339842D01*
X168809580Y-88339842D02*
X168857200Y-88387461D01*
X168857200Y-88387461D02*
X168904819Y-88482699D01*
X168904819Y-88482699D02*
X168904819Y-88577937D01*
X168904819Y-88577937D02*
X168857200Y-88673175D01*
X168857200Y-88673175D02*
X168809580Y-88720794D01*
X168809580Y-88720794D02*
X168714342Y-88768413D01*
X168714342Y-88768413D02*
X168523866Y-88816032D01*
X168523866Y-88816032D02*
X168285771Y-88816032D01*
X168285771Y-88816032D02*
X168095295Y-88768413D01*
X168095295Y-88768413D02*
X168000057Y-88720794D01*
X168000057Y-88720794D02*
X167952438Y-88673175D01*
X167952438Y-88673175D02*
X167904819Y-88577937D01*
X176357142Y-85466089D02*
X176309523Y-85513709D01*
X176309523Y-85513709D02*
X176166666Y-85561328D01*
X176166666Y-85561328D02*
X176071428Y-85561328D01*
X176071428Y-85561328D02*
X175928571Y-85513709D01*
X175928571Y-85513709D02*
X175833333Y-85418470D01*
X175833333Y-85418470D02*
X175785714Y-85323232D01*
X175785714Y-85323232D02*
X175738095Y-85132756D01*
X175738095Y-85132756D02*
X175738095Y-84989899D01*
X175738095Y-84989899D02*
X175785714Y-84799423D01*
X175785714Y-84799423D02*
X175833333Y-84704185D01*
X175833333Y-84704185D02*
X175928571Y-84608947D01*
X175928571Y-84608947D02*
X176071428Y-84561328D01*
X176071428Y-84561328D02*
X176166666Y-84561328D01*
X176166666Y-84561328D02*
X176309523Y-84608947D01*
X176309523Y-84608947D02*
X176357142Y-84656566D01*
X177309523Y-85561328D02*
X176738095Y-85561328D01*
X177023809Y-85561328D02*
X177023809Y-84561328D01*
X177023809Y-84561328D02*
X176928571Y-84704185D01*
X176928571Y-84704185D02*
X176833333Y-84799423D01*
X176833333Y-84799423D02*
X176738095Y-84847042D01*
X178166666Y-84894661D02*
X178166666Y-85561328D01*
X177928571Y-84513709D02*
X177690476Y-85227994D01*
X177690476Y-85227994D02*
X178309523Y-85227994D01*
X164057142Y-77616089D02*
X164009523Y-77663709D01*
X164009523Y-77663709D02*
X163866666Y-77711328D01*
X163866666Y-77711328D02*
X163771428Y-77711328D01*
X163771428Y-77711328D02*
X163628571Y-77663709D01*
X163628571Y-77663709D02*
X163533333Y-77568470D01*
X163533333Y-77568470D02*
X163485714Y-77473232D01*
X163485714Y-77473232D02*
X163438095Y-77282756D01*
X163438095Y-77282756D02*
X163438095Y-77139899D01*
X163438095Y-77139899D02*
X163485714Y-76949423D01*
X163485714Y-76949423D02*
X163533333Y-76854185D01*
X163533333Y-76854185D02*
X163628571Y-76758947D01*
X163628571Y-76758947D02*
X163771428Y-76711328D01*
X163771428Y-76711328D02*
X163866666Y-76711328D01*
X163866666Y-76711328D02*
X164009523Y-76758947D01*
X164009523Y-76758947D02*
X164057142Y-76806566D01*
X164438095Y-76806566D02*
X164485714Y-76758947D01*
X164485714Y-76758947D02*
X164580952Y-76711328D01*
X164580952Y-76711328D02*
X164819047Y-76711328D01*
X164819047Y-76711328D02*
X164914285Y-76758947D01*
X164914285Y-76758947D02*
X164961904Y-76806566D01*
X164961904Y-76806566D02*
X165009523Y-76901804D01*
X165009523Y-76901804D02*
X165009523Y-76997042D01*
X165009523Y-76997042D02*
X164961904Y-77139899D01*
X164961904Y-77139899D02*
X164390476Y-77711328D01*
X164390476Y-77711328D02*
X165009523Y-77711328D01*
X165390476Y-76806566D02*
X165438095Y-76758947D01*
X165438095Y-76758947D02*
X165533333Y-76711328D01*
X165533333Y-76711328D02*
X165771428Y-76711328D01*
X165771428Y-76711328D02*
X165866666Y-76758947D01*
X165866666Y-76758947D02*
X165914285Y-76806566D01*
X165914285Y-76806566D02*
X165961904Y-76901804D01*
X165961904Y-76901804D02*
X165961904Y-76997042D01*
X165961904Y-76997042D02*
X165914285Y-77139899D01*
X165914285Y-77139899D02*
X165342857Y-77711328D01*
X165342857Y-77711328D02*
X165961904Y-77711328D01*
X177207142Y-78366089D02*
X177159523Y-78413709D01*
X177159523Y-78413709D02*
X177016666Y-78461328D01*
X177016666Y-78461328D02*
X176921428Y-78461328D01*
X176921428Y-78461328D02*
X176778571Y-78413709D01*
X176778571Y-78413709D02*
X176683333Y-78318470D01*
X176683333Y-78318470D02*
X176635714Y-78223232D01*
X176635714Y-78223232D02*
X176588095Y-78032756D01*
X176588095Y-78032756D02*
X176588095Y-77889899D01*
X176588095Y-77889899D02*
X176635714Y-77699423D01*
X176635714Y-77699423D02*
X176683333Y-77604185D01*
X176683333Y-77604185D02*
X176778571Y-77508947D01*
X176778571Y-77508947D02*
X176921428Y-77461328D01*
X176921428Y-77461328D02*
X177016666Y-77461328D01*
X177016666Y-77461328D02*
X177159523Y-77508947D01*
X177159523Y-77508947D02*
X177207142Y-77556566D01*
X178159523Y-78461328D02*
X177588095Y-78461328D01*
X177873809Y-78461328D02*
X177873809Y-77461328D01*
X177873809Y-77461328D02*
X177778571Y-77604185D01*
X177778571Y-77604185D02*
X177683333Y-77699423D01*
X177683333Y-77699423D02*
X177588095Y-77747042D01*
X178492857Y-77461328D02*
X179159523Y-77461328D01*
X179159523Y-77461328D02*
X178730952Y-78461328D01*
X105272080Y-86698175D02*
X105319700Y-86745794D01*
X105319700Y-86745794D02*
X105367319Y-86888651D01*
X105367319Y-86888651D02*
X105367319Y-86983889D01*
X105367319Y-86983889D02*
X105319700Y-87126746D01*
X105319700Y-87126746D02*
X105224461Y-87221984D01*
X105224461Y-87221984D02*
X105129223Y-87269603D01*
X105129223Y-87269603D02*
X104938747Y-87317222D01*
X104938747Y-87317222D02*
X104795890Y-87317222D01*
X104795890Y-87317222D02*
X104605414Y-87269603D01*
X104605414Y-87269603D02*
X104510176Y-87221984D01*
X104510176Y-87221984D02*
X104414938Y-87126746D01*
X104414938Y-87126746D02*
X104367319Y-86983889D01*
X104367319Y-86983889D02*
X104367319Y-86888651D01*
X104367319Y-86888651D02*
X104414938Y-86745794D01*
X104414938Y-86745794D02*
X104462557Y-86698175D01*
X105367319Y-85745794D02*
X105367319Y-86317222D01*
X105367319Y-86031508D02*
X104367319Y-86031508D01*
X104367319Y-86031508D02*
X104510176Y-86126746D01*
X104510176Y-86126746D02*
X104605414Y-86221984D01*
X104605414Y-86221984D02*
X104653033Y-86317222D01*
X164707142Y-86116089D02*
X164659523Y-86163709D01*
X164659523Y-86163709D02*
X164516666Y-86211328D01*
X164516666Y-86211328D02*
X164421428Y-86211328D01*
X164421428Y-86211328D02*
X164278571Y-86163709D01*
X164278571Y-86163709D02*
X164183333Y-86068470D01*
X164183333Y-86068470D02*
X164135714Y-85973232D01*
X164135714Y-85973232D02*
X164088095Y-85782756D01*
X164088095Y-85782756D02*
X164088095Y-85639899D01*
X164088095Y-85639899D02*
X164135714Y-85449423D01*
X164135714Y-85449423D02*
X164183333Y-85354185D01*
X164183333Y-85354185D02*
X164278571Y-85258947D01*
X164278571Y-85258947D02*
X164421428Y-85211328D01*
X164421428Y-85211328D02*
X164516666Y-85211328D01*
X164516666Y-85211328D02*
X164659523Y-85258947D01*
X164659523Y-85258947D02*
X164707142Y-85306566D01*
X165659523Y-86211328D02*
X165088095Y-86211328D01*
X165373809Y-86211328D02*
X165373809Y-85211328D01*
X165373809Y-85211328D02*
X165278571Y-85354185D01*
X165278571Y-85354185D02*
X165183333Y-85449423D01*
X165183333Y-85449423D02*
X165088095Y-85497042D01*
X165992857Y-85211328D02*
X166611904Y-85211328D01*
X166611904Y-85211328D02*
X166278571Y-85592280D01*
X166278571Y-85592280D02*
X166421428Y-85592280D01*
X166421428Y-85592280D02*
X166516666Y-85639899D01*
X166516666Y-85639899D02*
X166564285Y-85687518D01*
X166564285Y-85687518D02*
X166611904Y-85782756D01*
X166611904Y-85782756D02*
X166611904Y-86020851D01*
X166611904Y-86020851D02*
X166564285Y-86116089D01*
X166564285Y-86116089D02*
X166516666Y-86163709D01*
X166516666Y-86163709D02*
X166421428Y-86211328D01*
X166421428Y-86211328D02*
X166135714Y-86211328D01*
X166135714Y-86211328D02*
X166040476Y-86163709D01*
X166040476Y-86163709D02*
X165992857Y-86116089D01*
X106183333Y-85561328D02*
X105850000Y-85085137D01*
X105611905Y-85561328D02*
X105611905Y-84561328D01*
X105611905Y-84561328D02*
X105992857Y-84561328D01*
X105992857Y-84561328D02*
X106088095Y-84608947D01*
X106088095Y-84608947D02*
X106135714Y-84656566D01*
X106135714Y-84656566D02*
X106183333Y-84751804D01*
X106183333Y-84751804D02*
X106183333Y-84894661D01*
X106183333Y-84894661D02*
X106135714Y-84989899D01*
X106135714Y-84989899D02*
X106088095Y-85037518D01*
X106088095Y-85037518D02*
X105992857Y-85085137D01*
X105992857Y-85085137D02*
X105611905Y-85085137D01*
X107135714Y-85561328D02*
X106564286Y-85561328D01*
X106850000Y-85561328D02*
X106850000Y-84561328D01*
X106850000Y-84561328D02*
X106754762Y-84704185D01*
X106754762Y-84704185D02*
X106659524Y-84799423D01*
X106659524Y-84799423D02*
X106564286Y-84847042D01*
X173659580Y-89599366D02*
X173707200Y-89646985D01*
X173707200Y-89646985D02*
X173754819Y-89789842D01*
X173754819Y-89789842D02*
X173754819Y-89885080D01*
X173754819Y-89885080D02*
X173707200Y-90027937D01*
X173707200Y-90027937D02*
X173611961Y-90123175D01*
X173611961Y-90123175D02*
X173516723Y-90170794D01*
X173516723Y-90170794D02*
X173326247Y-90218413D01*
X173326247Y-90218413D02*
X173183390Y-90218413D01*
X173183390Y-90218413D02*
X172992914Y-90170794D01*
X172992914Y-90170794D02*
X172897676Y-90123175D01*
X172897676Y-90123175D02*
X172802438Y-90027937D01*
X172802438Y-90027937D02*
X172754819Y-89885080D01*
X172754819Y-89885080D02*
X172754819Y-89789842D01*
X172754819Y-89789842D02*
X172802438Y-89646985D01*
X172802438Y-89646985D02*
X172850057Y-89599366D01*
X172754819Y-89266032D02*
X172754819Y-88646985D01*
X172754819Y-88646985D02*
X173135771Y-88980318D01*
X173135771Y-88980318D02*
X173135771Y-88837461D01*
X173135771Y-88837461D02*
X173183390Y-88742223D01*
X173183390Y-88742223D02*
X173231009Y-88694604D01*
X173231009Y-88694604D02*
X173326247Y-88646985D01*
X173326247Y-88646985D02*
X173564342Y-88646985D01*
X173564342Y-88646985D02*
X173659580Y-88694604D01*
X173659580Y-88694604D02*
X173707200Y-88742223D01*
X173707200Y-88742223D02*
X173754819Y-88837461D01*
X173754819Y-88837461D02*
X173754819Y-89123175D01*
X173754819Y-89123175D02*
X173707200Y-89218413D01*
X173707200Y-89218413D02*
X173659580Y-89266032D01*
X173754819Y-88170794D02*
X173754819Y-87980318D01*
X173754819Y-87980318D02*
X173707200Y-87885080D01*
X173707200Y-87885080D02*
X173659580Y-87837461D01*
X173659580Y-87837461D02*
X173516723Y-87742223D01*
X173516723Y-87742223D02*
X173326247Y-87694604D01*
X173326247Y-87694604D02*
X172945295Y-87694604D01*
X172945295Y-87694604D02*
X172850057Y-87742223D01*
X172850057Y-87742223D02*
X172802438Y-87789842D01*
X172802438Y-87789842D02*
X172754819Y-87885080D01*
X172754819Y-87885080D02*
X172754819Y-88075556D01*
X172754819Y-88075556D02*
X172802438Y-88170794D01*
X172802438Y-88170794D02*
X172850057Y-88218413D01*
X172850057Y-88218413D02*
X172945295Y-88266032D01*
X172945295Y-88266032D02*
X173183390Y-88266032D01*
X173183390Y-88266032D02*
X173278628Y-88218413D01*
X173278628Y-88218413D02*
X173326247Y-88170794D01*
X173326247Y-88170794D02*
X173373866Y-88075556D01*
X173373866Y-88075556D02*
X173373866Y-87885080D01*
X173373866Y-87885080D02*
X173326247Y-87789842D01*
X173326247Y-87789842D02*
X173278628Y-87742223D01*
X173278628Y-87742223D02*
X173183390Y-87694604D01*
X160232142Y-80116089D02*
X160184523Y-80163709D01*
X160184523Y-80163709D02*
X160041666Y-80211328D01*
X160041666Y-80211328D02*
X159946428Y-80211328D01*
X159946428Y-80211328D02*
X159803571Y-80163709D01*
X159803571Y-80163709D02*
X159708333Y-80068470D01*
X159708333Y-80068470D02*
X159660714Y-79973232D01*
X159660714Y-79973232D02*
X159613095Y-79782756D01*
X159613095Y-79782756D02*
X159613095Y-79639899D01*
X159613095Y-79639899D02*
X159660714Y-79449423D01*
X159660714Y-79449423D02*
X159708333Y-79354185D01*
X159708333Y-79354185D02*
X159803571Y-79258947D01*
X159803571Y-79258947D02*
X159946428Y-79211328D01*
X159946428Y-79211328D02*
X160041666Y-79211328D01*
X160041666Y-79211328D02*
X160184523Y-79258947D01*
X160184523Y-79258947D02*
X160232142Y-79306566D01*
X161184523Y-80211328D02*
X160613095Y-80211328D01*
X160898809Y-80211328D02*
X160898809Y-79211328D01*
X160898809Y-79211328D02*
X160803571Y-79354185D01*
X160803571Y-79354185D02*
X160708333Y-79449423D01*
X160708333Y-79449423D02*
X160613095Y-79497042D01*
X162136904Y-80211328D02*
X161565476Y-80211328D01*
X161851190Y-80211328D02*
X161851190Y-79211328D01*
X161851190Y-79211328D02*
X161755952Y-79354185D01*
X161755952Y-79354185D02*
X161660714Y-79449423D01*
X161660714Y-79449423D02*
X161565476Y-79497042D01*
X115454819Y-79973175D02*
X115454819Y-80449365D01*
X115454819Y-80449365D02*
X114454819Y-80449365D01*
X115454819Y-79116032D02*
X115454819Y-79687460D01*
X115454819Y-79401746D02*
X114454819Y-79401746D01*
X114454819Y-79401746D02*
X114597676Y-79496984D01*
X114597676Y-79496984D02*
X114692914Y-79592222D01*
X114692914Y-79592222D02*
X114740533Y-79687460D01*
X124258333Y-88778589D02*
X124210714Y-88826209D01*
X124210714Y-88826209D02*
X124067857Y-88873828D01*
X124067857Y-88873828D02*
X123972619Y-88873828D01*
X123972619Y-88873828D02*
X123829762Y-88826209D01*
X123829762Y-88826209D02*
X123734524Y-88730970D01*
X123734524Y-88730970D02*
X123686905Y-88635732D01*
X123686905Y-88635732D02*
X123639286Y-88445256D01*
X123639286Y-88445256D02*
X123639286Y-88302399D01*
X123639286Y-88302399D02*
X123686905Y-88111923D01*
X123686905Y-88111923D02*
X123734524Y-88016685D01*
X123734524Y-88016685D02*
X123829762Y-87921447D01*
X123829762Y-87921447D02*
X123972619Y-87873828D01*
X123972619Y-87873828D02*
X124067857Y-87873828D01*
X124067857Y-87873828D02*
X124210714Y-87921447D01*
X124210714Y-87921447D02*
X124258333Y-87969066D01*
X124591667Y-87873828D02*
X125258333Y-87873828D01*
X125258333Y-87873828D02*
X124829762Y-88873828D01*
X172859580Y-78949366D02*
X172907200Y-78996985D01*
X172907200Y-78996985D02*
X172954819Y-79139842D01*
X172954819Y-79139842D02*
X172954819Y-79235080D01*
X172954819Y-79235080D02*
X172907200Y-79377937D01*
X172907200Y-79377937D02*
X172811961Y-79473175D01*
X172811961Y-79473175D02*
X172716723Y-79520794D01*
X172716723Y-79520794D02*
X172526247Y-79568413D01*
X172526247Y-79568413D02*
X172383390Y-79568413D01*
X172383390Y-79568413D02*
X172192914Y-79520794D01*
X172192914Y-79520794D02*
X172097676Y-79473175D01*
X172097676Y-79473175D02*
X172002438Y-79377937D01*
X172002438Y-79377937D02*
X171954819Y-79235080D01*
X171954819Y-79235080D02*
X171954819Y-79139842D01*
X171954819Y-79139842D02*
X172002438Y-78996985D01*
X172002438Y-78996985D02*
X172050057Y-78949366D01*
X172954819Y-77996985D02*
X172954819Y-78568413D01*
X172954819Y-78282699D02*
X171954819Y-78282699D01*
X171954819Y-78282699D02*
X172097676Y-78377937D01*
X172097676Y-78377937D02*
X172192914Y-78473175D01*
X172192914Y-78473175D02*
X172240533Y-78568413D01*
X172383390Y-77425556D02*
X172335771Y-77520794D01*
X172335771Y-77520794D02*
X172288152Y-77568413D01*
X172288152Y-77568413D02*
X172192914Y-77616032D01*
X172192914Y-77616032D02*
X172145295Y-77616032D01*
X172145295Y-77616032D02*
X172050057Y-77568413D01*
X172050057Y-77568413D02*
X172002438Y-77520794D01*
X172002438Y-77520794D02*
X171954819Y-77425556D01*
X171954819Y-77425556D02*
X171954819Y-77235080D01*
X171954819Y-77235080D02*
X172002438Y-77139842D01*
X172002438Y-77139842D02*
X172050057Y-77092223D01*
X172050057Y-77092223D02*
X172145295Y-77044604D01*
X172145295Y-77044604D02*
X172192914Y-77044604D01*
X172192914Y-77044604D02*
X172288152Y-77092223D01*
X172288152Y-77092223D02*
X172335771Y-77139842D01*
X172335771Y-77139842D02*
X172383390Y-77235080D01*
X172383390Y-77235080D02*
X172383390Y-77425556D01*
X172383390Y-77425556D02*
X172431009Y-77520794D01*
X172431009Y-77520794D02*
X172478628Y-77568413D01*
X172478628Y-77568413D02*
X172573866Y-77616032D01*
X172573866Y-77616032D02*
X172764342Y-77616032D01*
X172764342Y-77616032D02*
X172859580Y-77568413D01*
X172859580Y-77568413D02*
X172907200Y-77520794D01*
X172907200Y-77520794D02*
X172954819Y-77425556D01*
X172954819Y-77425556D02*
X172954819Y-77235080D01*
X172954819Y-77235080D02*
X172907200Y-77139842D01*
X172907200Y-77139842D02*
X172859580Y-77092223D01*
X172859580Y-77092223D02*
X172764342Y-77044604D01*
X172764342Y-77044604D02*
X172573866Y-77044604D01*
X172573866Y-77044604D02*
X172478628Y-77092223D01*
X172478628Y-77092223D02*
X172431009Y-77139842D01*
X172431009Y-77139842D02*
X172383390Y-77235080D01*
X163307142Y-83916089D02*
X163259523Y-83963709D01*
X163259523Y-83963709D02*
X163116666Y-84011328D01*
X163116666Y-84011328D02*
X163021428Y-84011328D01*
X163021428Y-84011328D02*
X162878571Y-83963709D01*
X162878571Y-83963709D02*
X162783333Y-83868470D01*
X162783333Y-83868470D02*
X162735714Y-83773232D01*
X162735714Y-83773232D02*
X162688095Y-83582756D01*
X162688095Y-83582756D02*
X162688095Y-83439899D01*
X162688095Y-83439899D02*
X162735714Y-83249423D01*
X162735714Y-83249423D02*
X162783333Y-83154185D01*
X162783333Y-83154185D02*
X162878571Y-83058947D01*
X162878571Y-83058947D02*
X163021428Y-83011328D01*
X163021428Y-83011328D02*
X163116666Y-83011328D01*
X163116666Y-83011328D02*
X163259523Y-83058947D01*
X163259523Y-83058947D02*
X163307142Y-83106566D01*
X164164285Y-83344661D02*
X164164285Y-84011328D01*
X163926190Y-82963709D02*
X163688095Y-83677994D01*
X163688095Y-83677994D02*
X164307142Y-83677994D01*
X165211904Y-84011328D02*
X164640476Y-84011328D01*
X164926190Y-84011328D02*
X164926190Y-83011328D01*
X164926190Y-83011328D02*
X164830952Y-83154185D01*
X164830952Y-83154185D02*
X164735714Y-83249423D01*
X164735714Y-83249423D02*
X164640476Y-83297042D01*
%TO.C,J3*%
D11*
X153890000Y-106346509D02*
X164110000Y-106346509D01*
X164110000Y-110366509D01*
X153890000Y-110366509D01*
X153890000Y-106346509D01*
X164110000Y-108866509D02*
X163110000Y-108866509D01*
X163610000Y-108056509D02*
X164110000Y-108056509D01*
X163610000Y-106846509D02*
X163610000Y-108056509D01*
X163110000Y-108866509D02*
X163110000Y-110366509D01*
X154890000Y-108866509D02*
X154890000Y-110366509D01*
X154390000Y-108056509D02*
X154390000Y-106846509D01*
X154390000Y-106846509D02*
X163610000Y-106846509D01*
X153890000Y-108866509D02*
X154890000Y-108866509D01*
X153890000Y-108056509D02*
X154390000Y-108056509D01*
X153590000Y-110666509D02*
X156090000Y-110666509D01*
X153590000Y-108166509D02*
X153590000Y-110666509D01*
%TO.C,J4*%
X123740000Y-106296509D02*
X133960000Y-106296509D01*
X133960000Y-110316509D01*
X123740000Y-110316509D01*
X123740000Y-106296509D01*
X133960000Y-108816509D02*
X132960000Y-108816509D01*
X133460000Y-108006509D02*
X133960000Y-108006509D01*
X133460000Y-106796509D02*
X133460000Y-108006509D01*
X132960000Y-108816509D02*
X132960000Y-110316509D01*
X124740000Y-108816509D02*
X124740000Y-110316509D01*
X124240000Y-108006509D02*
X124240000Y-106796509D01*
X124240000Y-106796509D02*
X133460000Y-106796509D01*
X123740000Y-108816509D02*
X124740000Y-108816509D01*
X123740000Y-108006509D02*
X124240000Y-108006509D01*
X123440000Y-110616509D02*
X125940000Y-110616509D01*
X123440000Y-108116509D02*
X123440000Y-110616509D01*
%TO.C,J5*%
X169110000Y-61766509D02*
X158890000Y-61766509D01*
X158890000Y-57746509D01*
X169110000Y-57746509D01*
X169110000Y-61766509D01*
X169410000Y-57446509D02*
X166910000Y-57446509D01*
X169110000Y-59246509D02*
X168110000Y-59246509D01*
X168110000Y-59246509D02*
X168110000Y-57746509D01*
X159890000Y-59246509D02*
X159890000Y-57746509D01*
X158890000Y-59246509D02*
X159890000Y-59246509D01*
X169410000Y-59946509D02*
X169410000Y-57446509D01*
X169110000Y-60056509D02*
X168610000Y-60056509D01*
X168610000Y-60056509D02*
X168610000Y-61266509D01*
X159390000Y-60056509D02*
X158890000Y-60056509D01*
X168610000Y-61266509D02*
X159390000Y-61266509D01*
X159390000Y-61266509D02*
X159390000Y-60056509D01*
%TO.C,J2*%
X111140000Y-74066509D02*
X115160000Y-74066509D01*
X115160000Y-56346509D01*
X111140000Y-56346509D01*
X111140000Y-74066509D01*
X115460000Y-74366509D02*
X115460000Y-71866509D01*
X113660000Y-74066509D02*
X113660000Y-73066509D01*
X113660000Y-73066509D02*
X115160000Y-73066509D01*
X113660000Y-57346509D02*
X115160000Y-57346509D01*
X113660000Y-56346509D02*
X113660000Y-57346509D01*
X112960000Y-74366509D02*
X115460000Y-74366509D01*
X112850000Y-74066509D02*
X112850000Y-73566509D01*
X112850000Y-73566509D02*
X111640000Y-73566509D01*
X112850000Y-56846509D02*
X112850000Y-56346509D01*
X111640000Y-73566509D02*
X111640000Y-56846509D01*
X111640000Y-56846509D02*
X112850000Y-56846509D01*
%TO.C,J6*%
X128710000Y-61866509D02*
X118490000Y-61866509D01*
X118490000Y-57846509D01*
X128710000Y-57846509D01*
X128710000Y-61866509D01*
X118990000Y-61366509D02*
X118990000Y-60156509D01*
X128210000Y-61366509D02*
X118990000Y-61366509D01*
X118990000Y-60156509D02*
X118490000Y-60156509D01*
X128210000Y-60156509D02*
X128210000Y-61366509D01*
X128710000Y-60156509D02*
X128210000Y-60156509D01*
X129010000Y-60046509D02*
X129010000Y-57546509D01*
X118490000Y-59346509D02*
X119490000Y-59346509D01*
X119490000Y-59346509D02*
X119490000Y-57846509D01*
X127710000Y-59346509D02*
X127710000Y-57846509D01*
X128710000Y-59346509D02*
X127710000Y-59346509D01*
X129010000Y-57546509D02*
X126510000Y-57546509D01*
%TO.C,C10*%
X124584420Y-72296509D02*
X124865580Y-72296509D01*
X124584420Y-73316509D02*
X124865580Y-73316509D01*
%TO.C,C20*%
X168840000Y-76690929D02*
X168840000Y-76972089D01*
X169860000Y-76690929D02*
X169860000Y-76972089D01*
%TO.C,Y1*%
X167765000Y-104756509D02*
X166895000Y-104756509D01*
X167765000Y-99856509D02*
X166895000Y-99856509D01*
X166895000Y-104756509D02*
X166835000Y-104756509D01*
X166895000Y-99856509D02*
X166835000Y-99856509D01*
X167765000Y-108016509D02*
X181285000Y-108016509D01*
X181285000Y-96596509D01*
X167765000Y-96596509D01*
X167765000Y-108016509D01*
X167645000Y-108366509D02*
X167765000Y-108366509D01*
X167765000Y-96246509D01*
X167645000Y-96246509D01*
X167645000Y-108366509D01*
%TO.C,C15*%
X164110000Y-98647089D02*
X164110000Y-98365929D01*
X163090000Y-98647089D02*
X163090000Y-98365929D01*
%TO.C,C21*%
X167940000Y-93792761D02*
X167940000Y-92370257D01*
X169760000Y-93792761D02*
X169760000Y-92370257D01*
%TO.C,L2*%
X173950378Y-75546509D02*
X174749622Y-75546509D01*
X173950378Y-76666509D02*
X174749622Y-76666509D01*
%TO.C,U3*%
X121400000Y-67371509D02*
X121400000Y-67146509D01*
X121400000Y-71206509D02*
X121400000Y-70681509D01*
X121400000Y-71206509D02*
X121925000Y-71206509D01*
X121925000Y-66906509D02*
X121700000Y-66906509D01*
X125700000Y-66906509D02*
X125175000Y-66906509D01*
X125700000Y-66906509D02*
X125700000Y-67431509D01*
X125700000Y-71206509D02*
X125175000Y-71206509D01*
X125700000Y-71206509D02*
X125700000Y-70681509D01*
X121400000Y-66906509D02*
X121160000Y-66576509D01*
X121640000Y-66576509D01*
X121400000Y-66906509D01*
G36*
X121400000Y-66906509D02*
G01*
X121160000Y-66576509D01*
X121640000Y-66576509D01*
X121400000Y-66906509D01*
G37*
%TO.C,C16*%
X164410000Y-104047089D02*
X164410000Y-103765929D01*
X163390000Y-104047089D02*
X163390000Y-103765929D01*
%TO.C,C9*%
X120090000Y-75242761D02*
X120090000Y-73820257D01*
X121910000Y-75242761D02*
X121910000Y-73820257D01*
%TO.C,C4*%
X110890000Y-85045257D02*
X110890000Y-86467761D01*
X112710000Y-85045257D02*
X112710000Y-86467761D01*
%TO.C,C38*%
X170440000Y-93792761D02*
X170440000Y-92370257D01*
X172260000Y-93792761D02*
X172260000Y-92370257D01*
%TO.C,U4*%
X120550000Y-78246509D02*
X124310000Y-78246509D01*
X120550000Y-85066509D02*
X124310000Y-85066509D01*
X124310000Y-78246509D02*
X124310000Y-79506509D01*
X124310000Y-85066509D02*
X124310000Y-83806509D01*
X119270000Y-78346509D02*
X119030000Y-78016509D01*
X119510000Y-78016509D01*
X119270000Y-78346509D01*
G36*
X119270000Y-78346509D02*
G01*
X119030000Y-78016509D01*
X119510000Y-78016509D01*
X119270000Y-78346509D01*
G37*
%TO.C,C6*%
X118713748Y-85659009D02*
X120136252Y-85659009D01*
X118713748Y-87479009D02*
X120136252Y-87479009D01*
%TO.C,C42*%
X166061252Y-89196509D02*
X164638748Y-89196509D01*
X166061252Y-91016509D02*
X164638748Y-91016509D01*
%TO.C,C5*%
X114040000Y-85095257D02*
X114040000Y-86517761D01*
X115860000Y-85095257D02*
X115860000Y-86517761D01*
%TO.C,C19*%
X177990580Y-73596509D02*
X177709420Y-73596509D01*
X177990580Y-74616509D02*
X177709420Y-74616509D01*
%TO.C,C8*%
X118490000Y-74172089D02*
X118490000Y-73890929D01*
X119510000Y-74172089D02*
X119510000Y-73890929D01*
%TO.C,J7*%
X177650000Y-89271509D02*
X178290000Y-89271509D01*
X177700000Y-86551509D02*
X180400000Y-86551509D01*
X178290000Y-89271509D02*
X178290000Y-89901509D01*
X180450000Y-89271509D02*
X179810000Y-89271509D01*
%TO.C,C3*%
X101740000Y-80065929D02*
X101740000Y-80347089D01*
X102760000Y-80065929D02*
X102760000Y-80347089D01*
%TO.C,C40*%
X169340000Y-88747089D02*
X169340000Y-88465929D01*
X170360000Y-88747089D02*
X170360000Y-88465929D01*
%TO.C,C14*%
X176709420Y-84116509D02*
X176990580Y-84116509D01*
X176709420Y-83096509D02*
X176990580Y-83096509D01*
%TO.C,C22*%
X166061252Y-78196509D02*
X164638748Y-78196509D01*
X166061252Y-80016509D02*
X164638748Y-80016509D01*
%TO.C,C17*%
X177990580Y-75596509D02*
X177709420Y-75596509D01*
X177990580Y-76616509D02*
X177709420Y-76616509D01*
%TO.C,C1*%
X102152500Y-85820257D02*
X102152500Y-87242761D01*
X103972500Y-85820257D02*
X103972500Y-87242761D01*
%TO.C,C13*%
X164638748Y-86696509D02*
X166061252Y-86696509D01*
X164638748Y-88516509D02*
X166061252Y-88516509D01*
%TO.C,C39*%
X171340000Y-89022089D02*
X171340000Y-88740929D01*
X172360000Y-89022089D02*
X172360000Y-88740929D01*
%TO.C,C11*%
X160163748Y-80696509D02*
X161586252Y-80696509D01*
X160163748Y-82516509D02*
X161586252Y-82516509D01*
%TO.C,L1*%
X111140000Y-79204445D02*
X111140000Y-80408573D01*
X113860000Y-79204445D02*
X113860000Y-80408573D01*
%TO.C,C7*%
X125136252Y-85659009D02*
X123713748Y-85659009D01*
X125136252Y-87479009D02*
X123713748Y-87479009D01*
%TO.C,U5*%
X167240000Y-81496509D02*
X167715000Y-81496509D01*
X167240000Y-81971509D02*
X167240000Y-81496509D01*
X167240000Y-85716509D02*
X167240000Y-85241509D01*
X167715000Y-85716509D02*
X167240000Y-85716509D01*
X170985000Y-81496509D02*
X171460000Y-81496509D01*
X171460000Y-81496509D02*
X171460000Y-81971509D01*
X171460000Y-85241509D02*
X171460000Y-85716509D01*
X171460000Y-85716509D02*
X170985000Y-85716509D01*
X166740000Y-82356509D02*
X166410000Y-82596509D01*
X166410000Y-82116509D01*
X166740000Y-82356509D01*
G36*
X166740000Y-82356509D02*
G01*
X166410000Y-82596509D01*
X166410000Y-82116509D01*
X166740000Y-82356509D01*
G37*
%TO.C,U2*%
X104790000Y-79471509D02*
X106610000Y-79471509D01*
X104790000Y-79521509D02*
X104790000Y-79471509D01*
X104790000Y-82591509D02*
X104790000Y-82541509D01*
X106610000Y-79471509D02*
X106610000Y-79521509D01*
X106610000Y-82541509D02*
X106610000Y-82591509D01*
X106610000Y-82591509D02*
X104790000Y-82591509D01*
X104250000Y-79521509D02*
X104010000Y-79191509D01*
X104490000Y-79191509D01*
X104250000Y-79521509D01*
G36*
X104250000Y-79521509D02*
G01*
X104010000Y-79191509D01*
X104490000Y-79191509D01*
X104250000Y-79521509D01*
G37*
%TO.C,C18*%
X170840000Y-76972089D02*
X170840000Y-76690929D01*
X171860000Y-76972089D02*
X171860000Y-76690929D01*
%TO.C,C41*%
X164709420Y-81596509D02*
X164990580Y-81596509D01*
X164709420Y-82616509D02*
X164990580Y-82616509D01*
%TO.C,J1*%
X123300000Y-90536509D02*
X118850000Y-90536509D01*
X117450000Y-90536509D02*
X115150000Y-90536509D01*
X113750000Y-90536509D02*
X113030000Y-90536509D01*
X113030000Y-90536509D02*
X113030000Y-93216509D01*
X124670000Y-92016509D02*
X124670000Y-92876509D01*
X113030000Y-95516509D02*
X113030000Y-99186509D01*
X113030000Y-101486509D02*
X113030000Y-102716509D01*
X113030000Y-102716509D02*
X122850000Y-102716509D01*
%TO.C,U1*%
X129650000Y-105196509D02*
X158049999Y-105196509D01*
X129650001Y-57276509D02*
X129650000Y-105196509D01*
X134880120Y-51363389D02*
X152863320Y-51363389D01*
X134880120Y-57256189D02*
X134880120Y-51363389D01*
X152863320Y-51363389D02*
X152863320Y-57256189D01*
X158049999Y-105196509D02*
X158050000Y-57276509D01*
X158050000Y-57276509D02*
X129650001Y-57276509D01*
%TD*%
M02*
